<?xml version="1.0" encoding="UTF-8" standalone="no"?>
<svg width="82px" height="72px" viewBox="0 0 82 72" version="1.1" xmlns="http://www.w3.org/2000/svg" xmlns:xlink="http://www.w3.org/1999/xlink" xmlns:sketch="http://www.bohemiancoding.com/sketch/ns">
    <!-- Generator: Sketch 3.1.1 (8761) - http://www.bohemiancoding.com/sketch -->
    <title>babolygo-logo-spring</title>
    <desc>Created with Sketch.</desc>
    <defs></defs>
    <g id="babolygo-header-logo" stroke="none" stroke-width="1" fill="none" fill-rule="evenodd" sketch:type="MSPage">
        <g id="babolygo-logo-spring" sketch:type="MSArtboardGroup">
            <g id="babolygoLogoSpring" sketch:type="MSLayerGroup">
                <path d="M55.27,37.562 C48.201,37.562 42.471,31.852 42.471,24.792 C42.471,17.742 48.2,12.022 55.27,12.022 C62.34,12.022 68.071,17.742 68.071,24.792 C68.07,31.852 62.34,37.562 55.27,37.562 L55.27,37.562 Z M41.04,46.981 C39.02,46.981 37.38,40.971 37.38,38.961 C37.38,36.94 39.02,35.3 41.04,35.3 C43.061,35.3 44.7,36.94 44.7,38.961 C44.7,40.972 43.061,46.981 41.04,46.981 L41.04,46.981 Z M27.1,37.562 C20.02,37.562 14.29,31.852 14.29,24.792 C14.29,17.742 20.02,12.022 27.1,12.022 C34.17,12.022 39.9,17.742 39.9,24.792 C39.9,31.852 34.17,37.562 27.1,37.562 L27.1,37.562 Z M50.109,0.102 C47.23,-0.778 44.42,4.362 40.95,4.362 C37.52,4.362 34.08,-0.848 30.88,0.132 C16.83,4.442 6.61,17.752 6.61,33.182 C6.61,47.993 16.01,60.602 29.19,65.412 L29.19,63.691 C29.19,62.191 30.41,60.971 31.92,60.971 C32.69,60.971 33.41,61.29 33.94,61.87 L34.16,62.12 L34.39,61.87 C34.92,61.29 35.63,60.971 36.41,60.971 C37.91,60.971 39.14,62.191 39.14,63.691 L39.14,67.431 C39.75,67.471 40.38,67.481 41,67.481 C41.63,67.481 42.25,67.471 42.87,67.431 L42.87,63.691 C42.87,62.191 44.099,60.971 45.599,60.971 C46.37,60.971 47.089,61.29 47.62,61.87 L47.849,62.12 L48.07,61.87 C48.599,61.29 49.32,60.971 50.09,60.971 C51.6,60.971 52.82,62.191 52.82,63.691 L52.82,65.412 C65.99,60.601 75.39,47.992 75.39,33.182 C75.391,17.392 64.65,4.521 50.109,0.102 L50.109,0.102 Z" id="Shape" fill="#A91F68" sketch:type="MSShapeGroup"></path>
                <path d="M4.96,33.182 C4.96,27.012 6.52,21.162 9.3,16.032 C4.16,21.312 0,27.901 0,35.062 C0,45.432 7.52,54.622 17.41,60.322 C9.79,53.731 4.96,44.01 4.96,33.182 L4.96,33.182 Z" id="Shape" fill="#392665" sketch:type="MSShapeGroup"></path>
                <path d="M72.59,15.921 C75.44,21.091 77.04,27.001 77.04,33.181 C77.04,44.01 72.21,53.731 64.59,60.321 C74.48,54.622 82,45.431 82,35.061 C82,27.852 77.8,21.211 72.59,15.921 L72.59,15.921 Z" id="Shape" fill="#392665" sketch:type="MSShapeGroup"></path>
                <path d="M24.17,27.711 C24.17,24.081 27.12,21.141 30.75,21.141 C34.39,21.141 37.34,24.081 37.34,27.711 C37.34,31.341 34.39,34.281 30.75,34.281 C27.12,34.281 24.17,31.341 24.17,27.711 L24.17,27.711 Z" id="Shape" fill="#392665" sketch:type="MSShapeGroup"></path>
                <ellipse id="Oval" fill="#392665" sketch:type="MSShapeGroup" cx="58.59" cy="27.57" rx="6.59" ry="6.57"></ellipse>
                <path d="M44.32,70.722 C44.32,71.432 44.89,72.002 45.599,72.002 C46.31,72.002 46.879,71.432 46.879,70.722 L46.879,63.692 C46.879,62.982 46.31,62.413 45.599,62.413 C44.89,62.413 44.32,62.982 44.32,63.692 L44.32,70.722 L44.32,70.722 Z" id="Shape" fill="#392665" sketch:type="MSShapeGroup"></path>
                <path d="M48.811,68.892 C48.811,69.602 49.38,70.172 50.09,70.172 C50.8,70.172 51.37,69.602 51.37,68.892 L51.37,63.692 C51.37,62.982 50.8,62.413 50.09,62.413 C49.38,62.413 48.811,62.982 48.811,63.692 L48.811,68.892 L48.811,68.892 Z" id="Shape" fill="#392665" sketch:type="MSShapeGroup"></path>
                <path d="M37.69,70.722 C37.69,71.432 37.11,72.002 36.41,72.002 C35.7,72.002 35.12,71.432 35.12,70.722 L35.12,63.692 C35.12,62.982 35.7,62.413 36.41,62.413 C37.11,62.413 37.69,62.982 37.69,63.692 L37.69,70.722 L37.69,70.722 Z" id="Shape" fill="#392665" sketch:type="MSShapeGroup"></path>
                <path d="M33.2,68.892 C33.2,69.602 32.63,70.172 31.92,70.172 C31.21,70.172 30.63,69.602 30.63,68.892 L30.63,63.692 C30.63,62.982 31.21,62.413 31.92,62.413 C32.63,62.413 33.2,62.982 33.2,63.692 L33.2,68.892 L33.2,68.892 Z" id="Shape" fill="#392665" sketch:type="MSShapeGroup"></path>
            </g>
            <path d="M15.739,70.01 C15.278,70.01 14.863,69.688 14.762,69.219 C14.647,68.679 14.991,68.147 15.531,68.032 C18.421,67.414 22.222,66.84 26.829,66.326 C27.375,66.271 27.873,66.66 27.934,67.21 C27.995,67.759 27.6,68.253 27.051,68.314 C22.509,68.82 18.774,69.384 15.949,69.987 C15.879,70.003 15.809,70.01 15.739,70.01" id="Fill-11" fill="#A91F68" sketch:type="MSShapeGroup"></path>
            <path d="M63.94,70.002 C63.872,70.002 63.803,69.995 63.732,69.98 C60.594,69.317 57.38,68.787 54.181,68.405 C53.633,68.34 53.241,67.842 53.307,67.293 C53.372,66.746 53.856,66.357 54.419,66.419 C57.676,66.809 60.949,67.349 64.146,68.023 C64.687,68.138 65.032,68.668 64.918,69.209 C64.818,69.68 64.403,70.002 63.94,70.002" id="Fill-12" fill="#A91F68" sketch:type="MSShapeGroup"></path>
        </g>
    </g>
</svg>