<?xml version="1.0" encoding="UTF-8" standalone="no"?>
<svg width="73px" height="73px" viewBox="0 0 73 73" version="1.1" xmlns="http://www.w3.org/2000/svg" xmlns:xlink="http://www.w3.org/1999/xlink" xmlns:sketch="http://www.bohemiancoding.com/sketch/ns">
    <!-- Generator: Sketch 3.1.1 (8761) - http://www.bohemiancoding.com/sketch -->
    <title>babolygo-socialOpeningFacebook</title>
    <desc>Created with Sketch.</desc>
    <defs></defs>
    <g id="babolygo-social-icons" stroke="none" stroke-width="1" fill="none" fill-rule="evenodd" sketch:type="MSPage">
        <g id="babolygo-socialOpeningFacebook" sketch:type="MSArtboardGroup" fill="#A91F68">
            <path d="M36,0 C16.173,0 0,16.173 0,36 C0,55.512 15.665,71.492 35.057,71.988 L35.057,46.391 L29.746,46.391 L29.746,37.621 L35.02,37.621 L35.02,32.347 C35.02,25.149 38.044,20.818 46.391,20.818 L53.432,20.818 L53.432,29.637 L49.101,29.637 C45.919,29.637 45.593,30.932 45.593,33.145 L45.593,37.621 L53.577,37.621 L52.282,46.44 L45.242,46.44 L45.242,70.803 C60.617,66.701 72,52.645 72,36.012 C72.013,16.173 55.839,0 36,0" id="Imported-Layers" sketch:type="MSShapeGroup"></path>
        </g>
    </g>
</svg>