<?xml version="1.0" encoding="UTF-8" standalone="no"?>
<svg width="73px" height="73px" viewBox="0 0 73 73" version="1.1" xmlns="http://www.w3.org/2000/svg" xmlns:xlink="http://www.w3.org/1999/xlink" xmlns:sketch="http://www.bohemiancoding.com/sketch/ns">
    <!-- Generator: Sketch 3.1.1 (8761) - http://www.bohemiancoding.com/sketch -->
    <title>babolygo-socialOpeningGooglePlus</title>
    <desc>Created with Sketch.</desc>
    <defs></defs>
    <g id="babolygo-social-icons" stroke="none" stroke-width="1" fill="none" fill-rule="evenodd" sketch:type="MSPage">
        <g id="babolygo-socialOpeningGooglePlus" sketch:type="MSArtboardGroup" fill="#A91F68">
            <g id="Imported-Layers" sketch:type="MSLayerGroup">
                <path d="M27.811,20.057 C24.146,19.9 21.752,23.396 22.381,27.882 C23.01,32.333 26.518,36.022 30.206,36.18 C33.871,36.337 36.266,32.841 35.637,28.354 C35.008,23.71 31.477,20.214 27.811,20.057" id="Fill-1" sketch:type="MSShapeGroup"></path>
                <path d="M19.309,52.035 C19.309,56.051 23.324,59.232 28.755,59.232 C36.423,59.232 39.181,56.16 39.107,52.193 C39.107,51.685 39.107,51.213 38.951,50.742 C38.322,48.504 36.084,47.403 33.205,45.469 C32.105,45.154 31.004,44.996 29.698,44.996 C24.268,44.996 19.309,48.178 19.309,52.035 Z" id="Fill-2" sketch:type="MSShapeGroup"></path>
                <path d="M35.794,0.5 C15.971,0.5 -0.2,16.671 -0.2,36.494 C-0.2,56.317 15.971,72.5 35.794,72.5 C55.617,72.5 71.788,56.329 71.788,36.506 C71.788,16.683 55.629,0.5 35.794,0.5 L35.794,0.5 Z M40.753,27.846 C40.753,30.713 39.145,33.12 36.737,34.885 C34.5,36.651 34.028,37.28 34.028,38.744 C34.028,40.037 36.423,42.13 37.728,42.916 C41.588,45.469 42.688,47.718 42.566,51.576 C42.566,56.378 37.608,61.18 28.634,61.18 C20.809,61.18 14.072,58.156 14.072,53.354 C14.072,48.553 20.168,43.751 28.005,43.751 L30.4,43.751 C29.263,42.771 28.477,41.514 28.477,40.05 C28.477,39.106 28.791,38.284 29.263,37.498 L27.969,37.498 C21.401,37.498 17.071,33.168 17.071,27.701 C17.071,22.428 23.131,17.94 29.541,17.94 L43.789,17.94 L40.607,20.178 L36.121,20.178 C39.145,21.279 40.753,24.496 40.753,27.846 L40.753,27.846 Z M60.588,26.117 L54.215,26.117 L54.215,32.491 L52.605,32.491 L52.605,26.117 L46.195,26.117 L46.195,24.508 L52.605,24.508 L52.605,18.098 L54.215,18.098 L54.215,24.508 L60.588,24.508 L60.588,26.117 L60.588,26.117 Z" id="Fill-3" sketch:type="MSShapeGroup"></path>
            </g>
        </g>
    </g>
</svg>