<?xml version="1.0" encoding="utf-8"?>
<!-- Generator: Adobe Illustrator 18.0.0, SVG Export Plug-In . SVG Version: 6.00 Build 0)  -->
<!DOCTYPE svg PUBLIC "-//W3C//DTD SVG 1.1//EN" "http://www.w3.org/Graphics/SVG/1.1/DTD/svg11.dtd">
<svg version="1.1" id="Layer_1" xmlns="http://www.w3.org/2000/svg" xmlns:xlink="http://www.w3.org/1999/xlink" x="0px" y="0px"
	 viewBox="123.3 0 595.3 595.3" enable-background="new 123.3 0 595.3 595.3" xml:space="preserve">
<g>
	<path fill="#CD9137" d="M354.9,161.7c-30.3-1.3-50.1,27.6-44.9,64.7c5.2,36.8,34.2,67.3,64.7,68.6c30.3,1.3,50.1-27.6,44.9-64.7
		C414.4,191.9,385.2,163,354.9,161.7z"/>
	<path fill="#CD9137" d="M370.5,367.9c-44.9,0-85.9,26.3-85.9,58.2c0,33.2,33.2,59.5,78.1,59.5c63.4,0,86.2-25.4,85.6-58.2
		c0-4.2,0-8.1-1.3-12c-5.2-18.5-23.7-27.6-47.5-43.6C390.4,369.2,381.3,367.9,370.5,367.9z"/>
	<path fill="#CD9137" d="M420.9,0C257,0,123.3,133.7,123.3,297.6S257,595.3,420.9,595.3s297.6-133.7,297.6-297.6S584.9,0,420.9,0z
		 M461.9,226.1c0,23.7-13.3,43.6-33.2,58.2c-18.5,14.6-22.4,19.8-22.4,31.9c0,10.7,19.8,28,30.6,34.5c31.9,21.1,41,39.7,40,71.6
		c0,39.7-41,79.4-115.2,79.4c-64.7,0-120.4-25-120.4-64.7c0-39.7,50.4-79.4,115.2-79.4h19.8c-9.4-8.1-15.9-18.5-15.9-30.6
		c0-7.8,2.6-14.6,6.5-21.1c-2.9,0-6.8,0-10.7,0c-54.3,0-90.1-35.8-90.1-81c0-43.6,50.1-80.7,103.1-80.7H487l-26.3,18.5h-37.1
		C448.6,171.8,461.9,198.4,461.9,226.1z M625.9,211.8h-52.7v52.7h-13.3v-52.7h-53v-13.3h53v-53h13.3v53h52.7V211.8z"/>
</g>
</svg>
