<?xml version="1.0" encoding="utf-8"?>
<!-- Generator: Adobe Illustrator 18.0.0, SVG Export Plug-In . SVG Version: 6.00 Build 0)  -->
<!DOCTYPE svg PUBLIC "-//W3C//DTD SVG 1.1//EN" "http://www.w3.org/Graphics/SVG/1.1/DTD/svg11.dtd">
<svg version="1.1" xmlns="http://www.w3.org/2000/svg" xmlns:xlink="http://www.w3.org/1999/xlink" x="0px" y="0px"
	 viewBox="0 0 372.2 159.4" enable-background="new 0 0 372.2 159.4" xml:space="preserve">
<g id="Layer_1">
</g>
<g id="Layer_2">
	<g>
		<path fill="#AD1010" d="M109.9,111.2v-5.9l-2,5.9h-0.5l-1.9-5.9v5.9h-1.3v-8h1.8l1.7,5.2l1.7-5.2h1.8v8H109.9z"/>
		<path fill="#AD1010" d="M115.7,111.2v-0.6c-0.3,0.5-0.9,0.8-1.5,0.8c-0.9,0-1.8-0.7-1.8-1.9c0-1.3,0.9-1.9,1.8-1.9
			c0.6,0,1.2,0.2,1.5,0.7v-0.9c0-0.7-0.4-1.1-1.1-1.1c-0.5,0-1,0.2-1.5,0.7l-0.5-0.8c0.6-0.6,1.4-0.9,2.1-0.9c1.2,0,2.1,0.6,2.1,2v4
			H115.7z M115.7,109.9v-0.9c-0.2-0.4-0.7-0.6-1.1-0.6c-0.6,0-1,0.5-1,1.1c0,0.6,0.4,1.1,1,1.1C115,110.5,115.4,110.3,115.7,109.9z"
			/>
		<path fill="#AD1010" d="M118.2,112.8l0.5-0.9c0.4,0.4,0.9,0.6,1.5,0.6c0.7,0,1.4-0.4,1.4-1.4v-0.8c-0.3,0.6-0.9,0.9-1.5,0.9
			c-1.3,0-2.1-1.1-2.1-3c0-1.8,0.8-3,2.1-3c0.6,0,1.1,0.3,1.5,0.9v-0.8h1.2v5.7c0,1.9-1.2,2.4-2.5,2.4
			C119.5,113.5,118.8,113.3,118.2,112.8z M121.6,109.3v-2.2c-0.2-0.4-0.7-0.8-1.1-0.8c-0.8,0-1.2,0.8-1.2,1.9s0.4,1.9,1.2,1.9
			C120.9,110.1,121.4,109.7,121.6,109.3z"/>
		<path fill="#AD1010" d="M127.2,111.2v-0.6c-0.3,0.5-0.9,0.8-1.5,0.8c-0.9,0-1.8-0.7-1.8-1.9c0-1.3,0.9-1.9,1.8-1.9
			c0.6,0,1.2,0.2,1.5,0.7v-0.9c0-0.7-0.4-1.1-1.1-1.1c-0.5,0-1,0.2-1.5,0.7l-0.5-0.8c0.6-0.6,1.4-0.9,2.1-0.9c1.2,0,2.1,0.6,2.1,2v4
			H127.2z M127.2,109.9v-0.9c-0.2-0.4-0.7-0.6-1.1-0.6c-0.6,0-1,0.5-1,1.1c0,0.6,0.4,1.1,1,1.1C126.6,110.5,127,110.3,127.2,109.9z
			 M126.4,104.5h-0.8l1.3-1.7h1.1L126.4,104.5z"/>
		<path fill="#AD1010" d="M133.1,111.2v-3.9c0-0.7-0.3-0.9-0.8-0.9s-1,0.4-1.2,0.8v4.1h-1.2v-5.8h1.2v0.8c0.3-0.5,1-0.9,1.7-0.9
			c1,0,1.5,0.6,1.5,1.6v4.4H133.1z"/>
		<path fill="#AD1010" d="M135.4,108.3c0-1.6,0.9-3,2.5-3s2.5,1.4,2.5,3c0,1.6-0.9,3-2.5,3S135.4,109.9,135.4,108.3z M139.2,108.3
			c0-1-0.4-2-1.3-2c-0.9,0-1.3,0.9-1.3,2c0,1.1,0.4,2,1.3,2C138.8,110.2,139.2,109.3,139.2,108.3z M137.9,104.5h-0.8l1.3-1.7h1.1
			L137.9,104.5z"/>
		<path fill="#AD1010" d="M142.8,111.2l-1.9-5.8h1.3l1.3,4.4l1.3-4.4h1.3l-1.9,5.8H142.8z"/>
		<path fill="#AD1010" d="M146.5,108.3c0-1.6,0.9-3,2.5-3s2.5,1.4,2.5,3c0,1.6-0.9,3-2.5,3S146.5,109.9,146.5,108.3z M150.3,108.3
			c0-1-0.4-2-1.3-2c-0.9,0-1.3,0.9-1.3,2c0,1.1,0.4,2,1.3,2C149.9,110.2,150.3,109.3,150.3,108.3z"/>
		<path fill="#AD1010" d="M156,111.2v-0.8c-0.3,0.6-0.9,0.9-1.5,0.9c-1.3,0-2.1-1.2-2.1-3c0-1.8,0.8-3,2.1-3c0.6,0,1.2,0.3,1.5,0.9
			v-3h1.2v8H156z M156,109.5v-2.4c-0.2-0.4-0.7-0.8-1.1-0.8c-0.8,0-1.2,0.9-1.2,2c0,1.1,0.4,2,1.2,2
			C155.3,110.2,155.8,109.9,156,109.5z"/>
		<path fill="#AD1010" d="M161.6,111.2v-0.6c-0.3,0.5-0.9,0.8-1.5,0.8c-0.9,0-1.8-0.7-1.8-1.9c0-1.3,0.9-1.9,1.8-1.9
			c0.6,0,1.2,0.2,1.5,0.7v-0.9c0-0.7-0.4-1.1-1.1-1.1c-0.5,0-1,0.2-1.5,0.7l-0.5-0.8c0.6-0.6,1.4-0.9,2.1-0.9c1.2,0,2.1,0.6,2.1,2v4
			H161.6z M161.6,109.9v-0.9c-0.2-0.4-0.7-0.6-1.1-0.6c-0.6,0-1,0.5-1,1.1c0,0.6,0.4,1.1,1,1.1C160.9,110.5,161.4,110.3,161.6,109.9
			z"/>
		<path fill="#AD1010" d="M166.6,108.3c0-1.7,0.9-3,2.4-3c1.5,0,2.3,1.4,2.3,3.1v0.3h-3.8c0,1.2,0.6,2,1.7,2c0.5,0,1-0.3,1.4-0.7
			l0.5,0.5c-0.5,0.6-1.1,0.9-1.9,0.9C167.5,111.3,166.6,110,166.6,108.3z M168.9,105.9c-1,0-1.4,1.1-1.5,2h2.9
			C170.4,107,170,105.9,168.9,105.9z M168.9,104.5h-0.6l1.4-1.7h0.9L168.9,104.5z"/>
		<path fill="#AD1010" d="M172,110.5l0.4-0.6c0.3,0.4,0.9,0.7,1.5,0.7c0.7,0,1.1-0.4,1.1-0.9c0-1.4-2.9-0.9-2.9-2.9
			c0-0.9,0.7-1.6,1.8-1.6c0.8,0,1.4,0.3,1.8,0.7l-0.4,0.6c-0.3-0.4-0.8-0.6-1.4-0.6c-0.6,0-1,0.4-1,0.8c0,1.2,2.9,0.8,2.9,2.9
			c0,1-0.7,1.7-1.9,1.7C173.2,111.3,172.5,111,172,110.5z"/>
		<path fill="#AD1010" d="M179.4,107.2c0-2.4,1.3-4.1,3.3-4.1c1.4,0,2.1,0.9,2.5,1.8l-1.1,0.5c-0.3-0.6-0.8-1.1-1.5-1.1
			c-1.2,0-1.9,1.2-1.9,3c0,1.7,0.7,3,1.9,3c0.7,0,1.2-0.5,1.5-1.2l1.1,0.5c-0.4,0.9-1.1,1.9-2.6,1.9
			C180.6,111.3,179.4,109.6,179.4,107.2z"/>
		<path fill="#AD1010" d="M185.7,110.5l0.5-0.8c0.3,0.4,0.9,0.7,1.6,0.7c0.6,0,1-0.3,1-0.8c0-1.1-2.9-0.6-2.9-2.7
			c0-0.9,0.7-1.7,2-1.7c0.8,0,1.5,0.3,1.9,0.7l-0.5,0.8c-0.3-0.3-0.8-0.6-1.4-0.6c-0.5,0-0.9,0.3-0.9,0.7c0,1,2.9,0.6,2.9,2.7
			c0,1-0.8,1.7-2.1,1.7C187,111.3,186.2,111,185.7,110.5z"/>
		<path fill="#AD1010" d="M194,111.2v-0.6c-0.3,0.5-0.9,0.8-1.5,0.8c-0.9,0-1.8-0.7-1.8-1.9c0-1.3,0.9-1.9,1.8-1.9
			c0.6,0,1.2,0.2,1.5,0.7v-0.9c0-0.7-0.4-1.1-1.1-1.1c-0.5,0-1,0.2-1.5,0.7l-0.5-0.8c0.6-0.6,1.4-0.9,2.1-0.9c1.2,0,2.1,0.6,2.1,2v4
			H194z M194,109.9v-0.9c-0.2-0.4-0.7-0.6-1.1-0.6c-0.6,0-1,0.5-1,1.1c0,0.6,0.4,1.1,1,1.1C193.4,110.5,193.8,110.3,194,109.9z"/>
		<path fill="#AD1010" d="M196.6,111.2v-8h1.2v8H196.6z"/>
		<path fill="#AD1010" d="M202.3,111.2v-0.6c-0.3,0.5-0.9,0.8-1.5,0.8c-0.9,0-1.8-0.7-1.8-1.9c0-1.3,0.9-1.9,1.8-1.9
			c0.6,0,1.2,0.2,1.5,0.7v-0.9c0-0.7-0.4-1.1-1.1-1.1c-0.5,0-1,0.2-1.5,0.7l-0.5-0.8c0.6-0.6,1.4-0.9,2.1-0.9c1.2,0,2.1,0.6,2.1,2v4
			H202.3z M202.3,109.9v-0.9c-0.2-0.4-0.7-0.6-1.1-0.6c-0.6,0-1,0.5-1,1.1c0,0.6,0.4,1.1,1,1.1C201.6,110.5,202,110.3,202.3,109.9z
			 M201.4,104.5h-0.8l1.3-1.7h1.1L201.4,104.5z"/>
		<path fill="#AD1010" d="M208.2,111.2v-0.8c-0.3,0.6-0.9,0.9-1.5,0.9c-1.3,0-2.1-1.2-2.1-3c0-1.8,0.8-3,2.1-3
			c0.6,0,1.2,0.3,1.5,0.9v-3h1.2v8H208.2z M208.2,109.5v-2.4c-0.2-0.4-0.7-0.8-1.1-0.8c-0.8,0-1.2,0.9-1.2,2c0,1.1,0.4,2,1.2,2
			C207.5,110.2,208,109.9,208.2,109.5z"/>
		<path fill="#AD1010" d="M210.7,103.9c0-0.4,0.3-0.7,0.8-0.7s0.7,0.3,0.7,0.7c0,0.4-0.3,0.7-0.7,0.7S210.7,104.3,210.7,103.9z
			 M210.8,111.2v-5.8h1.2v5.8H210.8z"/>
		<path fill="#AD1010" d="M220.3,111.2l-3-5.4v5.4H216v-8h1.3l2.9,5.2v-5.2h1.3v8H220.3z"/>
		<path fill="#AD1010" d="M226.1,111.2v-0.6c-0.3,0.5-0.9,0.8-1.5,0.8c-0.9,0-1.8-0.7-1.8-1.9c0-1.3,0.9-1.9,1.8-1.9
			c0.6,0,1.2,0.2,1.5,0.7v-0.9c0-0.7-0.4-1.1-1.1-1.1c-0.5,0-1,0.2-1.5,0.7l-0.5-0.8c0.6-0.6,1.4-0.9,2.1-0.9c1.2,0,2.1,0.6,2.1,2v4
			H226.1z M226.1,109.9v-0.9c-0.2-0.4-0.7-0.6-1.1-0.6c-0.6,0-1,0.5-1,1.1c0,0.6,0.4,1.1,1,1.1C225.4,110.5,225.9,110.3,226.1,109.9
			z"/>
		<path fill="#AD1010" d="M229.9,110.4v3h-1.2v-8h1.2v0.8c0.3-0.6,0.9-0.9,1.5-0.9c1.3,0,2.1,1.2,2.1,3c0,1.8-0.8,3-2.1,3
			C230.8,111.3,230.2,111,229.9,110.4z M232.3,108.3c0-1.1-0.4-2-1.2-2c-0.5,0-0.9,0.3-1.2,0.8v2.4c0.2,0.4,0.7,0.8,1.2,0.8
			C231.9,110.2,232.3,109.4,232.3,108.3z"/>
		<path fill="#AD1010" d="M237.9,111.2l-1.4-2.4l-0.7,0.9v1.5h-1.2v-8h1.2v5l2.1-2.8h1.4l-1.9,2.6l2,3.2H237.9z"/>
		<path fill="#AD1010" d="M239.8,108.3c0-1.6,0.9-3,2.5-3s2.5,1.4,2.5,3c0,1.6-0.9,3-2.5,3S239.8,109.9,239.8,108.3z M241.3,104.6
			c-0.4,0-0.7-0.3-0.7-0.7c0-0.4,0.3-0.7,0.7-0.7c0.4,0,0.7,0.3,0.7,0.7C241.9,104.3,241.6,104.6,241.3,104.6z M243.6,108.3
			c0-1-0.4-2-1.3-2c-0.9,0-1.3,0.9-1.3,2c0,1.1,0.4,2,1.3,2C243.2,110.2,243.6,109.3,243.6,108.3z M243.4,104.6
			c-0.4,0-0.7-0.3-0.7-0.7c0-0.4,0.3-0.7,0.7-0.7s0.7,0.3,0.7,0.7C244.1,104.3,243.8,104.6,243.4,104.6z"/>
		<path fill="#AD1010" d="M245.7,111.2v-0.9l2.3-3.8h-2.3v-1h3.8v0.9l-2.4,3.9h2.4v1H245.7z"/>
		<path fill="#AD1010" d="M250.6,103.9c0-0.4,0.3-0.7,0.8-0.7s0.7,0.3,0.7,0.7c0,0.4-0.3,0.7-0.7,0.7S250.6,104.3,250.6,103.9z
			 M250.8,111.2v-5.8h1.2v5.8H250.8z"/>
	</g>
	<g>
		<path fill-rule="evenodd" clip-rule="evenodd" fill="#AD1010" d="M166.4,75.3c0-6,0-12.1,0-18.1c0-0.4-0.2-1.1,0.3-1.3
			c0.5-0.3,1.1-0.1,1.6,0.3c1.3,0.9,1.6,2.3,1.7,3.7c0.1,1.8,0.1,3.7,0.2,5.5c0.2,2.6,1.8,4,4.2,4.7c2.3,0.6,4.8,0.6,7.2,0.9
			c6.2,0.7,11.1,4.9,12.5,10.7c1.2,5.2-0.8,10.7-5.2,13.8c-4.2,2.9-10.4,3.1-14.7,0.3c-1.1-0.7-1.7-1.6-2.3-2.7
			c-0.3-0.5-0.6-1.3-1.3-1.2c-0.8,0-0.9,0.8-1.1,1.4c-0.2,0.6-0.6,1-1.1,1.3c-1.4,0.7-1.9,0.4-1.9-1.1
			C166.4,87.4,166.4,81.3,166.4,75.3z M169.1,83.1c0,6.5,5.3,11.8,11.6,11.8c5.9,0,10.8-4.9,10.8-10.9c0-6.2-5.3-11.6-11.4-11.7
			C174,72.3,169.1,77.1,169.1,83.1z"/>
		<path fill-rule="evenodd" clip-rule="evenodd" fill="#AD1010" d="M162.4,87.4c0,2.2,0,4.4,0,6.6c0,0.5,0.3,1.2-0.4,1.3
			c-0.6,0.1-1.3,0.1-1.7-0.5c-0.3-0.3-0.5-0.7-0.7-1.1c-0.3-0.5-0.3-1.3-1.1-1.3c-0.7,0-1,0.6-1.3,1.1c-1.3,2.6-3.5,3.9-6.2,4.4
			c-8.6,1.8-15.5-4.8-15.8-11.7c-0.2-5.5,2.2-9.5,6.9-12.1c1.6-0.9,3.2-1.5,4.8-2.4c0.8-0.4,1.7-1,1.4-2c-0.3-1-1.4-0.9-2.3-1.1
			c-0.7-0.1-2,0.5-2.1-0.3c-0.1-0.9,1.2-0.8,2-1c8.2-1.8,16.1,4.7,16.4,13.3C162.5,83,162.4,85.2,162.4,87.4
			C162.4,87.4,162.4,87.4,162.4,87.4z M148.5,95c6,0,11.1-5.1,11.1-11.1c-0.1-5.6-4.6-10.3-10.2-10.3c-6.1,0-11.2,5-11.2,11
			C138.2,90.4,142.7,95,148.5,95z"/>
		<path fill-rule="evenodd" clip-rule="evenodd" fill="#AD1010" d="M238.3,99.8c-1.3,0.5-2.6,0.1-3.7-0.5c-4-2.1-6.6-5.2-6.6-9.9
			c-0.1-10,0-20,0-30.1c0-0.6-0.3-1.4,0.6-1.6c0.9-0.2,1.4,0.3,1.8,1c0.6,1,0.8,2.1,0.8,3.3c0,8.9,0,17.8,0,26.7
			c0,2.1,0.4,4.2,1.4,6c1.1,2.1,2.7,3.7,5.1,4.3C237.9,99.2,238.2,99.3,238.3,99.8z"/>
		<g>
			<path fill-rule="evenodd" clip-rule="evenodd" fill="#AD1010" d="M321,60.1c0,0.2-2-0.6-2.2-1.3"/>
			<path fill-rule="evenodd" clip-rule="evenodd" fill="#AD1010" d="M313.9,67.2c0.1-0.3,0.3-0.4,0.5-0.5c2.7-1.1,4.4-3.5,4.4-6.4
				c0-0.9,0-1.8,0-2.7c0-0.5,0.4-1,0.9-1.1c0.6-0.1,1,0.3,1.1,0.9c1,4.8-1.3,9-6.4,9.8C314.3,67.3,314.1,67.3,313.9,67.2z"/>
		</g>
		<path fill-rule="evenodd" clip-rule="evenodd" fill="#AD1010" d="M199.8,83c0,6.5,5.3,11.9,11.7,11.8c5.9,0,10.8-4.9,10.8-10.9
			c0-6.2-5.3-11.7-11.5-11.8C204.7,72.1,199.8,76.9,199.8,83z M223.7,84c0,7.7-6,13.8-13.5,13.8c-7.6,0-13.6-6.2-13.5-14.1
			c0-7.6,6.2-13.7,13.6-13.7C217.8,69.9,223.8,76.2,223.7,84z"/>
		<path fill-rule="evenodd" clip-rule="evenodd" fill="#AD1010" d="M306.5,83c0,6.5,5.3,11.9,11.7,11.8c5.9,0,10.8-4.9,10.8-10.9
			c0-6.2-5.3-11.7-11.5-11.8C311.4,72.1,306.5,76.9,306.5,83z M330.4,84c0,7.7-6,13.8-13.5,13.8c-7.6,0-13.6-6.2-13.5-14.1
			c0-7.6,6.2-13.7,13.6-13.7C324.5,69.9,330.5,76.2,330.4,84z"/>
		<g>
			<path fill-rule="evenodd" clip-rule="evenodd" fill="#AD1010" d="M104.7,75.7c0-6,0-12.1,0-18.1c0-0.4-0.2-1.1,0.3-1.3
				c0.5-0.3,1.1-0.1,1.6,0.3c1.3,0.9,1.6,2.3,1.7,3.7c0.1,1.8,0.1,3.7,0.2,5.5c0.2,2.6,1.8,4,4.2,4.7c2.3,0.6,4.8,0.6,7.2,0.9
				c6.2,0.7,11.1,4.9,12.5,10.7c1.2,5.2-0.8,10.7-5.2,13.8c-4.2,2.9-10.4,3.1-14.7,0.3c-1.1-0.7-1.7-1.6-2.3-2.7
				c-0.3-0.5-0.6-1.3-1.3-1.2c-0.8,0-0.9,0.8-1.1,1.4c-0.2,0.6-0.6,1-1.1,1.3c-1.4,0.7-1.9,0.4-1.9-1.2
				C104.7,87.8,104.7,81.8,104.7,75.7z M107.4,83.5c0,6.5,5.3,11.8,11.6,11.8c5.9,0,10.8-4.9,10.8-10.9c0-6.2-5.3-11.6-11.4-11.7
				C112.3,72.7,107.4,77.5,107.4,83.5z"/>
			<path fill-rule="evenodd" clip-rule="evenodd" fill="#AD1010" d="M114.9,72.1c-2.3,0-4.5-0.9-6.1-2.5c-1.7-1.7-2.6-4.1-2.6-6.6
				c0-4.9,4-8.9,8.8-8.9c2.3,0,4.4,0.9,6,2.5c1.7,1.7,2.7,4.1,2.7,6.6C123.6,68.2,119.8,72.1,114.9,72.1L114.9,72.1z M115.1,56.3
				c-3.5,0-6.3,2.8-6.3,6.3c0,1.9,0.7,3.6,2,4.9c1.3,1.3,3,2,4.8,2c3.5,0,6.4-2.9,6.4-6.4C121.9,59.5,118.8,56.3,115.1,56.3
				L115.1,56.3z"/>
		</g>
		<path fill-rule="evenodd" clip-rule="evenodd" fill="#AD1010" d="M251.8,72.3"/>
		<path fill-rule="evenodd" clip-rule="evenodd" fill="#AD1010" d="M254,115.8c-0.1,0-0.2,0-0.3,0c0.1-0.2,0.3-0.2,0.5-0.3
			c5.2-2.1,8.5-6.8,8.6-12.3c0-0.6,0-1.2,0-1.8c0-1.1,0-2.2,0.1-3.3c0-0.1,0-0.2,0-0.2c0.1-2.5,0.2-4.5-0.5-5.2
			c-0.1-0.2-0.3-0.2-0.5-0.2c-0.3,0-0.6,0.2-1,0.5c-2.4,2.3-5,3.7-7.9,4.2c-1,0.2-1.9,0.3-2.8,0.3c-0.2,0-0.4,0-0.6,0
			c-2.9-0.3-5-1.2-5-1.2c-0.3-0.2-0.6-0.3-0.8-0.5c-0.6-0.3-1.1-0.6-1.7-1c-3.6-2.3-5.7-5.9-5.7-9.8c-0.1-3.9,1.9-7.5,5.4-10
			c1.6-1.1,4-2.2,6-3.1l1-0.5c0.9-0.6,1.2-1.3,1-2c-0.3-1.1-1.4-1.2-2.2-1.2l-0.3,0c-0.1,0-0.1,0-0.2,0c-0.2,0-0.4,0-0.7,0.1
			c-0.2,0-0.4,0.1-0.6,0.1c-0.3,0-0.3-0.1-0.3-0.2c0-0.3,0.6-0.4,1.5-0.6l0.3,0c0.4-0.1,0.9-0.1,1.4-0.1c0.5,0,1,0,1.8,0.1
			c1.1,0,2.1,0.5,2.5,1.2c0.3,0.5,0.4,1.1,0.2,1.7c-0.3,0.9-1,1.6-2,2c-0.4,0.1-1.4,0.5-2.3,0.8l-1.3,0.5l-0.1,0l-0.2,0.1
			c-0.1,0-0.2,0.1-0.3,0.1c-0.3,0.1-0.7,0.3-1.1,0.5l-0.1,0l-0.1,0.1c-4.7,2.5-6.9,7.1-5.7,11.9c1,4.2,4,6.9,9,8
			c0.8,0.2,1.7,0.3,2.6,0.3c5.7,0,11-4.2,11.9-9.5l0,0h0l0-0.3c0-0.2,0-0.3,0.1-0.4c0-0.4,0.1-0.8,0.1-1.1c0-0.1,0-0.2,0-0.3l0-1.6
			c0-2.8,0-5.6,0-8.5c0-1.3,0.1-2.5,0.1-3.3l0-0.5c0-0.6,0.8-1.6,1.6-1.6c0.1,0,0.2,0,0.3,0c0.7,0.2,0.7,0.6,0.6,1.4
			c0,0.2,0,0.3,0,0.5l0,17.8l0,0.3l0,12.4C267.1,108.4,262.4,114.5,254,115.8L254,115.8z"/>
		<path fill-rule="evenodd" clip-rule="evenodd" fill="#AD1010" d="M288.3,115.8c-0.1,0-0.2,0-0.3,0c0.1-0.2,0.3-0.2,0.5-0.3
			c5.2-2.1,8.5-6.8,8.6-12.3c0-0.6,0-1.2,0-1.8l0-1.1l0-0.1c0-0.7,0-1.7,0-2.8c0.1-2.5,0.1-4.1-0.4-4.7c-0.1-0.1-0.3-0.2-0.5-0.2
			c-0.3,0-0.6,0.2-1,0.5c-2.4,2.3-5,3.7-8,4.2c-0.4,0.1-0.7,0.1-1.2,0.2l-0.1,0c-0.4,0-0.8,0-1.2,0l-0.4,0c0,0-0.4,0-0.4,0
			c-2.9-0.3-5.1-1.1-5.2-1.1c-0.2-0.1-0.5-0.3-0.8-0.5c-0.6-0.3-1.1-0.6-1.7-1c-3.6-2.3-5.7-5.9-5.7-9.8c-0.1-3.9,1.9-7.5,5.4-10
			c1.7-1.2,3.6-2,5.4-2.8l1-0.5c0.1-0.1,0.3-0.1,0.4-0.2c1-0.4,2.4-1,2.2-2.5c-0.3-1.7-2.1-1.7-3-1.5c-0.9,0.2-0.8,0.1-0.8,0.1
			c-0.2,0-0.5-0.2-0.4-0.3c1.2-0.7,2.3-0.8,3.7-0.8c0.3,0,0.6,0,0.9,0c9,0,15.3,6.3,15.3,15.4c0,0.5-0.1,2.1-0.1,2.1
			c0,3.5,0,7.4-0.1,10.9c0,1.9,0,3.6,0,5.1C301.3,108.4,296.7,114.5,288.3,115.8L288.3,115.8z M286.3,72.7c-1.7,0-3.4,0.3-5,1
			c-5.6,2.3-8.3,7.2-7,12.5c1,4.2,4,6.9,9,8c0.8,0.2,1.7,0.3,2.6,0.3c5.8,0,11-4.2,11.9-9.6l0,0l0-0.1c0.1-0.6,0.1-1.1,0.1-1.5
			l0-0.4c0-0.7-0.1-1.4-0.3-2.1C296.2,75.9,291.7,72.7,286.3,72.7z"/>
		<path fill-rule="evenodd" clip-rule="evenodd" fill="#AD1010" d="M282.8,67.8c0.9,0.1,2,0.1,2.3,1.1c0.3,1-0.7,1.6-1.4,2
			c-0.3,0.1-3.1,1.6-3.3,1.7l15.6-1.3c-3.1-3.8-8.1-5.9-13.2-4.8c-0.8,0.2-2.1,0.1-2,1C280.8,68.3,282,67.8,282.8,67.8z"/>
		<path fill-rule="evenodd" clip-rule="evenodd" fill="#AD1010" d="M247.6,68.6c0.9,0.1,2,0.1,2.3,1.1c0.3,1-0.7,1.6-1.4,2
			c-0.3,0.1-0.5,0.3-0.8,0.4l4.3-0.5c-3.1-3.8-0.4-4.2-4.4-4.1c-0.8,0-2.1,0.2-2,0.8C245.7,69,246.8,68.5,247.6,68.6z"/>
	</g>
	<g>
		
			<path fill="none" stroke="#FFFFFF" stroke-width="1.8" stroke-linecap="round" stroke-linejoin="round" stroke-dasharray="4.8697,4" d="
			M86,110.6C86,110.6,86,110.6,86,110.6C85.8,110.6,85.6,110.6,86,110.6z"/>
		
			<path fill="none" stroke="#FFFFFF" stroke-width="1.8" stroke-linecap="round" stroke-linejoin="round" stroke-dasharray="4.8697,4" d="
			M35.4,76.2L0.9,76.8L36.6,67c4.6-14.8,21.5-25.4,47.4-25.4c3.8,0,7.9,0.4,11.5,0.8c-0.8-1.7-0.8-3.3-0.8-5.2
			c0-10.6,13.9-19.2,31-19.2c11.2,0,21,3.6,26.4,9.1c11.8-15.4,37-26.1,66.3-26.1c32.9,0,60.8,13.4,70.2,31.9c0.9,0,1.8,0,2.7,0
			c44.2,0,80,22.2,80,49.6c0,21.9-22.9,40.6-54.7,47.1c-4.1,15.5-25.7,27.3-51.8,27.3c-16.6,0-31.4-4.9-41-12.4l-54.5,13.4
			c-4,0.4-8.1,0.7-12.2,0.7c-38.8,0-70.3-19.5-70.3-43.6c0-1.4-0.9-2.9-0.7-4.2c0.2,0,0.5,0,0,0C55.7,110.6,35.8,95,35.4,76.2z"/>
	</g>
</g>
</svg>
