<?xml version="1.0" encoding="utf-8"?>
<!-- Generator: Adobe Illustrator 16.0.0, SVG Export Plug-In . SVG Version: 6.00 Build 0)  -->
<!DOCTYPE svg PUBLIC "-//W3C//DTD SVG 1.1//EN" "http://www.w3.org/Graphics/SVG/1.1/DTD/svg11.dtd">
<svg version="1.1" id="Layer_1" xmlns="http://www.w3.org/2000/svg" xmlns:xlink="http://www.w3.org/1999/xlink" x="0px" y="0px"
	 width="82px" height="72px" viewBox="0 0 82 72" enable-background="new 0 0 82 72" xml:space="preserve">
<path fill="#FFFFFF" d="M55.27,37.562c-7.069,0-12.799-5.71-12.799-12.77c0-7.05,5.729-12.77,12.799-12.77
	c7.07,0,12.801,5.72,12.801,12.77C68.07,31.852,62.34,37.562,55.27,37.562z M41.04,46.981c-2.02,0-3.66-6.01-3.66-8.02
	c0-2.021,1.64-3.661,3.66-3.661c2.021,0,3.66,1.64,3.66,3.661C44.7,40.972,43.061,46.981,41.04,46.981z M27.1,37.562
	c-7.08,0-12.81-5.71-12.81-12.77c0-7.05,5.73-12.77,12.81-12.77c7.07,0,12.8,5.72,12.8,12.77C39.9,31.852,34.17,37.562,27.1,37.562z
	 M50.109,0.102c-2.879-0.88-5.689,4.26-9.159,4.26c-3.43,0-6.87-5.21-10.07-4.23c-14.05,4.31-24.27,17.62-24.27,33.05
	c0,14.811,9.4,27.42,22.58,32.23v-1.721c0-1.5,1.22-2.72,2.73-2.72c0.77,0,1.49,0.319,2.02,0.899l0.22,0.25l0.23-0.25
	c0.53-0.58,1.24-0.899,2.02-0.899c1.5,0,2.73,1.22,2.73,2.72v3.74c0.61,0.04,1.24,0.05,1.86,0.05c0.63,0,1.25-0.01,1.87-0.05v-3.74
	c0-1.5,1.229-2.72,2.729-2.72c0.771,0,1.49,0.319,2.021,0.899l0.229,0.25l0.221-0.25c0.529-0.58,1.25-0.899,2.02-0.899
	c1.51,0,2.73,1.22,2.73,2.72v1.721c13.17-4.811,22.57-17.42,22.57-32.23C75.391,17.392,64.65,4.521,50.109,0.102z"/>
<path fill="#56504F" d="M4.96,33.182c0-6.17,1.56-12.02,4.34-17.15C4.16,21.312,0,27.901,0,35.062c0,10.37,7.52,19.56,17.41,25.26
	C9.79,53.731,4.96,44.01,4.96,33.182z"/>
<path fill="#56504F" d="M72.59,15.921c2.85,5.17,4.45,11.08,4.45,17.26c0,10.829-4.83,20.55-12.45,27.14
	C74.48,54.622,82,45.431,82,35.061C82,27.852,77.8,21.211,72.59,15.921z"/>
<path fill="#56504F" d="M24.17,27.711c0-3.63,2.95-6.57,6.58-6.57c3.64,0,6.59,2.94,6.59,6.57s-2.95,6.57-6.59,6.57
	C27.12,34.281,24.17,31.341,24.17,27.711z"/>
<ellipse fill="#56504F" cx="58.7" cy="27.711" rx="6.59" ry="6.57"/>
<path fill="#56504F" d="M44.32,70.722c0,0.71,0.57,1.28,1.279,1.28c0.711,0,1.28-0.57,1.28-1.28v-7.03
	c0-0.71-0.569-1.279-1.28-1.279c-0.709,0-1.279,0.569-1.279,1.279V70.722z"/>
<path fill="#56504F" d="M48.811,68.892c0,0.71,0.569,1.28,1.279,1.28s1.28-0.57,1.28-1.28v-5.2c0-0.71-0.57-1.279-1.28-1.279
	s-1.279,0.569-1.279,1.279V68.892z"/>
<path fill="#56504F" d="M37.69,70.722c0,0.71-0.58,1.28-1.28,1.28c-0.71,0-1.29-0.57-1.29-1.28v-7.03c0-0.71,0.58-1.279,1.29-1.279
	c0.7,0,1.28,0.569,1.28,1.279V70.722z"/>
<path fill="#56504F" d="M33.2,68.892c0,0.71-0.57,1.28-1.28,1.28s-1.29-0.57-1.29-1.28v-5.2c0-0.71,0.58-1.279,1.29-1.279
	s1.28,0.569,1.28,1.279V68.892z"/>
<path fill="none" stroke="#FFFFFF" stroke-width="2" stroke-linecap="round" stroke-linejoin="round" stroke-miterlimit="10" d="
	M16.24,69.51c3.36-0.719,7.52-1.279,11.2-1.689"/>
<path fill="none" stroke="#FFFFFF" stroke-width="2" stroke-linecap="round" stroke-linejoin="round" stroke-miterlimit="10" d="
	M54.8,67.913c3.341,0.399,6.56,0.939,9.64,1.59"/>
</svg>
