<?xml version="1.0" encoding="utf-8"?>
<!-- Generator: Adobe Illustrator 16.0.0, SVG Export Plug-In . SVG Version: 6.00 Build 0)  -->
<!DOCTYPE svg PUBLIC "-//W3C//DTD SVG 1.1//EN" "http://www.w3.org/Graphics/SVG/1.1/DTD/svg11.dtd">
<svg version="1.1" id="Layer_1" xmlns="http://www.w3.org/2000/svg" xmlns:xlink="http://www.w3.org/1999/xlink" x="0px" y="0px"
	 width="372px" height="159px" viewBox="0 0 372 159" enable-background="new 0 0 372 159" xml:space="preserve">
<g>
	<path fill="#A91F68" d="M110.551,111.591v-5.899l-2.001,5.899h-0.499l-1.9-5.899v5.899h-1.3v-8.001h1.799l1.701,5.202l1.7-5.202
		h1.801v8.001H110.551z"/>
	<path fill="#A91F68" d="M116.351,111.591v-0.598c-0.299,0.495-0.9,0.8-1.5,0.8c-0.899,0-1.8-0.701-1.8-1.904
		c0-1.299,0.9-1.896,1.8-1.896c0.6,0,1.201,0.198,1.5,0.7v-0.902c0-0.7-0.4-1.1-1.099-1.1c-0.501,0-1.001,0.198-1.5,0.7l-0.5-0.8
		c0.6-0.602,1.399-0.899,2.1-0.899c1.2,0,2.1,0.599,2.1,1.997v4.002h-1.101V111.591z M116.351,110.292v-0.902
		c-0.2-0.399-0.699-0.598-1.099-0.598c-0.602,0-1.001,0.499-1.001,1.097c0,0.602,0.4,1.104,1.001,1.104
		C115.652,110.891,116.052,110.688,116.351,110.292z"/>
	<path fill="#A91F68" d="M118.852,113.19l0.5-0.898c0.4,0.399,0.901,0.598,1.5,0.598c0.701,0,1.4-0.396,1.4-1.401v-0.8
		c-0.299,0.602-0.899,0.902-1.5,0.902c-1.299,0-2.101-1.101-2.101-3.001c0-1.801,0.802-3,2.101-3c0.602,0,1.101,0.301,1.5,0.901
		v-0.8h1.201v5.698c0,1.903-1.201,2.402-2.5,2.402C120.152,113.892,119.453,113.689,118.852,113.19z M122.252,109.69v-2.2
		c-0.2-0.4-0.699-0.8-1.099-0.8c-0.801,0-1.201,0.8-1.201,1.899c0,1.101,0.4,1.9,1.201,1.9
		C121.553,110.49,122.052,110.091,122.252,109.69z"/>
	<path fill="#A91F68" d="M127.854,111.591v-0.598c-0.301,0.495-0.9,0.8-1.5,0.8c-0.9,0-1.801-0.701-1.801-1.904
		c0-1.299,0.901-1.896,1.801-1.896c0.6,0,1.2,0.198,1.5,0.7v-0.902c0-0.7-0.4-1.1-1.101-1.1c-0.5,0-1,0.198-1.5,0.7l-0.499-0.8
		c0.6-0.602,1.4-0.899,2.101-0.899c1.2,0,2.1,0.599,2.1,1.997v4.002h-1.101V111.591z M127.854,110.292v-0.902
		c-0.2-0.399-0.701-0.598-1.101-0.598c-0.6,0-1,0.499-1,1.097c0,0.602,0.4,1.104,1,1.104
		C127.254,110.891,127.654,110.688,127.854,110.292z M127.054,104.892h-0.801l1.3-1.701h1.101L127.054,104.892z"/>
	<path fill="#A91F68" d="M133.755,111.591v-3.902c0-0.698-0.301-0.899-0.8-0.899c-0.5,0-1.001,0.403-1.201,0.8v4.102h-1.2v-5.8h1.2
		v0.8c0.301-0.503,1.001-0.899,1.7-0.899c1.001,0,1.5,0.599,1.5,1.6v4.402h-1.2V111.591z"/>
	<path fill="#A91F68" d="M136.055,108.692c0-1.603,0.901-3.001,2.5-3.001c1.601,0,2.5,1.398,2.5,3.001c0,1.6-0.899,2.998-2.5,2.998
		C136.956,111.69,136.055,110.292,136.055,108.692z M139.856,108.692c0-1.004-0.4-2.002-1.3-2.002c-0.901,0-1.301,0.898-1.301,2.002
		c0,1.098,0.4,1.996,1.301,1.996C139.456,110.59,139.856,109.69,139.856,108.692z M138.556,104.892h-0.8l1.3-1.701h1.101
		L138.556,104.892z"/>
	<path fill="#A91F68" d="M143.457,111.591l-1.9-5.8h1.301l1.3,4.398l1.299-4.398h1.301l-1.9,5.8H143.457z"/>
	<path fill="#A91F68" d="M147.158,108.692c0-1.603,0.899-3.001,2.5-3.001c1.6,0,2.5,1.398,2.5,3.001c0,1.6-0.901,2.998-2.5,2.998
		C148.057,111.69,147.158,110.292,147.158,108.692z M150.959,108.692c0-1.004-0.402-2.002-1.301-2.002c-0.9,0-1.3,0.898-1.3,2.002
		c0,1.098,0.4,1.996,1.3,1.996C150.557,110.59,150.959,109.69,150.959,108.692z"/>
	<path fill="#A91F68" d="M156.66,111.591v-0.8c-0.3,0.599-0.9,0.899-1.5,0.899c-1.301,0-2.102-1.2-2.102-2.998
		c0-1.804,0.801-3.001,2.102-3.001c0.6,0,1.2,0.298,1.5,0.899v-3.001h1.2v8.001H156.66z M156.66,109.889v-2.398
		c-0.201-0.4-0.7-0.8-1.1-0.8c-0.8,0-1.202,0.898-1.202,2.002c0,1.098,0.402,1.996,1.202,1.996
		C155.959,110.59,156.458,110.292,156.66,109.889z"/>
	<path fill="#A91F68" d="M162.26,111.591v-0.598c-0.301,0.495-0.901,0.8-1.5,0.8c-0.901,0-1.8-0.701-1.8-1.904
		c0-1.299,0.899-1.896,1.8-1.896c0.6,0,1.2,0.198,1.5,0.7v-0.902c0-0.7-0.4-1.1-1.101-1.1c-0.499,0-1,0.198-1.5,0.7l-0.499-0.8
		c0.6-0.602,1.399-0.899,2.1-0.899c1.2,0,2.101,0.599,2.101,1.997v4.002h-1.101V111.591z M162.26,110.292v-0.902
		c-0.2-0.399-0.701-0.598-1.101-0.598c-0.6,0-1,0.499-1,1.097c0,0.602,0.4,1.104,1,1.104
		C161.56,110.891,162.06,110.688,162.26,110.292z"/>
	<path fill="#A91F68" d="M167.26,108.692c0-1.702,0.901-3.001,2.401-3.001s2.3,1.398,2.3,3.101v0.297h-3.801
		c0,1.203,0.6,2.003,1.7,2.003c0.501,0,1-0.301,1.4-0.7l0.5,0.499c-0.5,0.598-1.101,0.902-1.9,0.902
		C168.161,111.69,167.26,110.392,167.26,108.692z M169.561,106.29c-1,0-1.399,1.101-1.499,1.999h2.9
		C171.061,107.391,170.661,106.29,169.561,106.29z M169.561,104.892h-0.6l1.401-1.701h0.899L169.561,104.892z"/>
	<path fill="#A91F68" d="M172.663,110.891l0.4-0.599c0.299,0.396,0.9,0.701,1.5,0.701c0.699,0,1.1-0.403,1.1-0.902
		c0-1.398-2.901-0.902-2.901-2.898c0-0.902,0.701-1.603,1.801-1.603c0.799,0,1.399,0.301,1.799,0.7l-0.4,0.599
		c-0.299-0.397-0.8-0.599-1.399-0.599c-0.6,0-1.001,0.4-1.001,0.8c0,1.199,2.901,0.8,2.901,2.898c0,1.005-0.701,1.702-1.9,1.702
		C173.862,111.69,173.162,111.39,172.663,110.891z"/>
	<path fill="#A91F68" d="M180.064,107.589c0-2.399,1.3-4.098,3.3-4.098c1.399,0,2.1,0.898,2.5,1.798l-1.101,0.502
		c-0.299-0.602-0.8-1.101-1.499-1.101c-1.201,0-1.9,1.2-1.9,2.998c0,1.701,0.699,3,1.9,3c0.699,0,1.2-0.499,1.499-1.196l1.101,0.499
		c-0.4,0.899-1.101,1.9-2.599,1.9C181.264,111.69,180.064,109.988,180.064,107.589z"/>
	<path fill="#A91F68" d="M186.365,110.891l0.499-0.8c0.3,0.399,0.9,0.7,1.599,0.7c0.602,0,1.002-0.301,1.002-0.803
		c0-1.098-2.9-0.599-2.9-2.697c0-0.901,0.701-1.701,2.002-1.701c0.799,0,1.496,0.301,1.9,0.7l-0.504,0.8
		c-0.297-0.301-0.799-0.599-1.396-0.599c-0.502,0-0.9,0.298-0.9,0.701c0,0.998,2.898,0.598,2.898,2.696
		c0,1.002-0.799,1.702-2.102,1.702C187.666,111.69,186.864,111.39,186.365,110.891z"/>
	<path fill="#A91F68" d="M194.666,111.591v-0.598c-0.301,0.495-0.902,0.8-1.5,0.8c-0.902,0-1.801-0.701-1.801-1.904
		c0-1.299,0.898-1.896,1.801-1.896c0.598,0,1.199,0.198,1.5,0.7v-0.902c0-0.7-0.398-1.1-1.1-1.1c-0.502,0-0.998,0.198-1.5,0.7
		l-0.504-0.8c0.602-0.602,1.402-0.899,2.104-0.899c1.203,0,2.102,0.599,2.102,1.997v4.002h-1.102V111.591z M194.666,110.292v-0.902
		c-0.201-0.399-0.699-0.598-1.1-0.598c-0.602,0-0.998,0.499-0.998,1.097c0,0.602,0.396,1.104,0.998,1.104
		C194.064,110.891,194.465,110.688,194.666,110.292z"/>
	<path fill="#A91F68" d="M197.268,111.591v-8.001h1.199v8.001H197.268z"/>
	<path fill="#A91F68" d="M202.965,111.591v-0.598c-0.297,0.495-0.898,0.8-1.5,0.8c-0.898,0-1.797-0.701-1.797-1.904
		c0-1.299,0.898-1.896,1.797-1.896c0.602,0,1.203,0.198,1.5,0.7v-0.902c0-0.7-0.396-1.1-1.098-1.1c-0.502,0-1,0.198-1.5,0.7
		l-0.502-0.8c0.602-0.602,1.402-0.899,2.102-0.899c1.199,0,2.102,0.599,2.102,1.997v4.002h-1.104V111.591z M202.965,110.292v-0.902
		c-0.197-0.399-0.697-0.598-1.098-0.598c-0.6,0-1,0.499-1,1.097c0,0.602,0.4,1.104,1,1.104
		C202.268,110.891,202.668,110.688,202.965,110.292z M202.066,104.892h-0.799l1.301-1.701h1.098L202.066,104.892z"/>
	<path fill="#A91F68" d="M208.867,111.591v-0.8c-0.297,0.599-0.898,0.899-1.5,0.899c-1.299,0-2.102-1.2-2.102-2.998
		c0-1.804,0.803-3.001,2.102-3.001c0.602,0,1.203,0.298,1.5,0.899v-3.001h1.203v8.001H208.867z M208.867,109.889v-2.398
		c-0.197-0.4-0.699-0.8-1.096-0.8c-0.805,0-1.203,0.898-1.203,2.002c0,1.098,0.398,1.996,1.203,1.996
		C208.168,110.59,208.67,110.292,208.867,109.889z"/>
	<path fill="#A91F68" d="M211.369,104.291c0-0.403,0.301-0.701,0.801-0.701c0.498,0,0.697,0.298,0.697,0.701
		c0,0.399-0.297,0.7-0.697,0.7S211.369,104.69,211.369,104.291z M211.469,111.591v-5.8h1.199v5.8H211.469z"/>
	<path fill="#A91F68" d="M220.971,111.591l-3-5.403v5.403h-1.303v-8.001h1.303l2.9,5.202v-5.202h1.299v8.001H220.971z"/>
	<path fill="#A91F68" d="M226.773,111.591v-0.598c-0.303,0.495-0.902,0.8-1.5,0.8c-0.902,0-1.805-0.701-1.805-1.904
		c0-1.299,0.902-1.896,1.805-1.896c0.598,0,1.197,0.198,1.5,0.7v-0.902c0-0.7-0.402-1.1-1.104-1.1c-0.498,0-0.998,0.198-1.5,0.7
		l-0.5-0.8c0.602-0.602,1.402-0.899,2.1-0.899c1.203,0,2.102,0.599,2.102,1.997v4.002h-1.098V111.591z M226.773,110.292v-0.902
		c-0.201-0.399-0.699-0.598-1.104-0.598c-0.598,0-0.998,0.499-0.998,1.097c0,0.602,0.4,1.104,0.998,1.104
		C226.074,110.891,226.572,110.688,226.773,110.292z"/>
	<path fill="#A91F68" d="M230.574,110.791v3.001h-1.203v-8.001h1.203v0.8c0.299-0.602,0.9-0.899,1.502-0.899
		c1.295,0,2.098,1.197,2.098,3.001c0,1.798-0.803,2.998-2.098,2.998C231.475,111.69,230.873,111.39,230.574,110.791z
		 M232.975,108.692c0-1.104-0.404-2.002-1.203-2.002c-0.5,0-0.898,0.3-1.197,0.8v2.398c0.199,0.403,0.697,0.8,1.197,0.8
		C232.57,110.59,232.975,109.79,232.975,108.692z"/>
	<path fill="#A91F68" d="M238.572,111.591l-1.4-2.402l-0.697,0.902v1.5h-1.201v-8.001h1.201v5l2.098-2.799h1.402l-1.9,2.598
		l1.998,3.202H238.572z"/>
	<path fill="#A91F68" d="M240.477,108.692c0-1.603,0.898-3.001,2.498-3.001s2.498,1.398,2.498,3.001c0,1.6-0.898,2.998-2.498,2.998
		S240.477,110.292,240.477,108.692z M241.977,104.991c-0.402,0-0.701-0.301-0.701-0.7c0-0.403,0.299-0.701,0.701-0.701
		c0.396,0,0.697,0.298,0.697,0.701C242.574,104.69,242.273,104.991,241.977,104.991z M244.277,108.692
		c0-1.004-0.404-2.002-1.303-2.002s-1.303,0.898-1.303,2.002c0,1.098,0.404,1.996,1.303,1.996
		C243.873,110.59,244.277,109.69,244.277,108.692z M244.076,104.991c-0.4,0-0.701-0.301-0.701-0.7c0-0.403,0.301-0.701,0.701-0.701
		c0.398,0,0.697,0.298,0.697,0.701C244.773,104.69,244.475,104.991,244.076,104.991z"/>
	<path fill="#A91F68" d="M246.375,111.591v-0.902l2.301-3.8h-2.301v-0.998h3.801v0.898l-2.402,3.899h2.402v1.002h-3.801V111.591z"/>
	<path fill="#A91F68" d="M251.277,104.291c0-0.403,0.297-0.701,0.799-0.701c0.5,0,0.701,0.298,0.701,0.701
		c0,0.399-0.301,0.7-0.701,0.7C251.678,104.991,251.277,104.69,251.277,104.291z M251.475,111.591v-5.8h1.203v5.8H251.475z"/>
</g>
<g>
	<path fill="#A91F68" d="M167.061,75.685c0-6.001,0-12.103,0-18.103c0-0.402-0.2-1.101,0.301-1.301
		c0.499-0.301,1.101-0.101,1.6,0.299c1.3,0.9,1.601,2.3,1.7,3.702c0.101,1.799,0.101,3.7,0.2,5.501c0.2,2.599,1.801,4,4.201,4.7
		c2.3,0.602,4.802,0.602,7.201,0.9c6.2,0.701,11.104,4.901,12.502,10.705c1.199,5.199-0.799,10.701-5.199,13.802
		c-4.202,2.898-10.403,3.1-14.705,0.297c-1.099-0.7-1.7-1.6-2.3-2.696c-0.299-0.503-0.6-1.303-1.3-1.203
		c-0.8,0-0.899,0.8-1.099,1.401c-0.2,0.602-0.602,0.998-1.101,1.299c-1.401,0.7-1.9,0.399-1.9-1.101
		C167.061,87.786,167.061,81.685,167.061,75.685z M169.761,83.486c0,6.5,5.301,11.802,11.604,11.802c5.901,0,10.8-4.901,10.8-10.899
		c0-6.204-5.3-11.604-11.401-11.705C174.662,72.684,169.761,77.484,169.761,83.486z"/>
	<path fill="#A91F68" d="M163.06,87.786c0,2.2,0,4.401,0,6.603c0,0.499,0.301,1.2-0.4,1.299c-0.6,0.103-1.301,0.103-1.701-0.499
		c-0.299-0.301-0.499-0.7-0.701-1.101c-0.299-0.499-0.299-1.299-1.099-1.299c-0.701,0-1.001,0.599-1.301,1.098
		c-1.3,2.601-3.501,3.899-6.202,4.402c-8.601,1.798-15.501-4.799-15.802-11.703c-0.2-5.501,2.201-9.501,6.9-12.103
		c1.602-0.899,3.201-1.499,4.802-2.399c0.8-0.4,1.699-1,1.399-2.001c-0.3-1-1.399-0.899-2.3-1.099
		c-0.701-0.101-2.001,0.499-2.101-0.301c-0.101-0.9,1.2-0.8,2-1c8.203-1.801,16.104,4.7,16.404,13.302
		C163.161,83.384,163.06,85.585,163.06,87.786L163.06,87.786z M149.158,95.387c6.002,0,11.101-5.1,11.101-11.101
		c-0.099-5.601-4.6-10.302-10.201-10.302c-6.101,0-11.202,5-11.202,11.002C138.856,90.786,143.356,95.387,149.158,95.387z"/>
	<path fill="#A91F68" d="M238.977,100.189c-1.303,0.499-2.605,0.099-3.703-0.499c-4.002-2.103-6.602-5.202-6.602-9.902
		c-0.1-10.003,0-20.004,0-30.106c0-0.602-0.299-1.401,0.602-1.601c0.898-0.2,1.4,0.301,1.797,1c0.602,1.001,0.803,2.101,0.803,3.302
		c0,8.902,0,17.803,0,26.706c0,2.099,0.4,4.2,1.398,6.002c1.104,2.099,2.703,3.698,5.104,4.3
		C238.572,99.591,238.873,99.69,238.977,100.189z"/>
	<g>
		<path fill="#A91F68" d="M321.689,60.482c0,0.2-2-0.6-2.199-1.3"/>
		<path fill="#A91F68" d="M314.586,67.583c0.104-0.299,0.305-0.4,0.502-0.499c2.701-1.101,4.402-3.501,4.402-6.401
			c0-0.901,0-1.801,0-2.7c0-0.501,0.396-1.001,0.9-1.101c0.6-0.101,0.998,0.299,1.096,0.9c1.006,4.801-1.299,9.001-6.398,9.801
			C314.99,67.684,314.787,67.684,314.586,67.583z"/>
	</g>
	<path fill="#A91F68" d="M200.467,83.384c0,6.504,5.301,11.904,11.703,11.805c5.898,0,10.803-4.901,10.803-10.902
		c0-6.2-5.301-11.703-11.504-11.802C205.367,72.484,200.467,77.284,200.467,83.384z M224.371,84.389c0,7.7-6.002,13.801-13.5,13.801
		c-7.602,0-13.604-6.2-13.504-14.105c0-7.6,6.199-13.7,13.604-13.7C218.473,70.283,224.471,76.585,224.371,84.389z"/>
	<path fill="#A91F68" d="M307.186,83.384c0,6.504,5.303,11.904,11.703,11.805c5.902,0,10.801-4.901,10.801-10.902
		c0-6.2-5.301-11.703-11.5-11.802C312.088,72.484,307.186,77.284,307.186,83.384z M331.092,84.389c0,7.7-6.002,13.801-13.504,13.801
		c-7.602,0-13.604-6.2-13.502-14.105c0-7.6,6.201-13.7,13.6-13.7C325.188,70.283,331.189,76.585,331.092,84.389z"/>
	<g>
		<path fill="#A91F68" d="M105.349,76.084c0-6.001,0-12.103,0-18.103c0-0.4-0.2-1.101,0.301-1.301c0.5-0.301,1.101-0.101,1.6,0.299
			c1.3,0.9,1.601,2.3,1.7,3.702c0.101,1.799,0.101,3.7,0.2,5.501c0.2,2.599,1.801,4,4.202,4.701c2.3,0.6,4.8,0.6,7.2,0.899
			c6.202,0.701,11.103,4.901,12.502,10.701c1.202,5.202-0.8,10.701-5.2,13.802c-4.201,2.901-10.402,3.104-14.704,0.304
			c-1.099-0.7-1.699-1.603-2.3-2.703c-0.299-0.499-0.6-1.299-1.3-1.2c-0.8,0-0.899,0.804-1.099,1.401
			c-0.2,0.599-0.602,1.002-1.101,1.299c-1.401,0.701-1.9,0.403-1.9-1.199C105.349,88.188,105.349,82.188,105.349,76.084z
			 M108.051,83.886c0,6.501,5.301,11.802,11.602,11.802c5.901,0,10.802-4.901,10.802-10.902c0-6.2-5.301-11.601-11.402-11.702
			C112.951,73.083,108.051,77.884,108.051,83.886z"/>
		<path fill="#A91F68" d="M115.551,72.484c-2.3,0-4.501-0.9-6.101-2.5c-1.701-1.701-2.601-4.102-2.601-6.602
			c0-4.901,4-8.902,8.803-8.902c2.3,0,4.4,0.9,6,2.5c1.701,1.7,2.7,4.102,2.7,6.602C124.253,68.583,120.453,72.484,115.551,72.484
			L115.551,72.484z M115.751,56.681c-3.5,0-6.301,2.801-6.301,6.301c0,1.9,0.701,3.601,2.001,4.901c1.299,1.301,3,2,4.8,2
			c3.5,0,6.4-2.9,6.4-6.4C122.553,59.882,119.453,56.681,115.751,56.681L115.751,56.681z"/>
	</g>
	<path fill="#A91F68" d="M252.477,72.684"/>
	<path fill="#A91F68" d="M254.678,116.191c-0.102,0-0.201,0-0.301,0c0.1-0.201,0.301-0.201,0.502-0.301
		c5.199-2.099,8.5-6.802,8.6-12.301c0-0.602,0-1.203,0-1.801c0-1.101,0-2.198,0.1-3.302c0-0.1,0-0.198,0-0.198
		c0.1-2.499,0.201-4.502-0.5-5.202c-0.102-0.198-0.301-0.198-0.498-0.198c-0.301,0-0.602,0.198-1.002,0.499
		c-2.402,2.3-5,3.701-7.902,4.2c-0.998,0.198-1.9,0.301-2.799,0.301c-0.201,0-0.4,0-0.602,0c-2.898-0.301-5-1.199-5-1.199
		c-0.301-0.202-0.602-0.301-0.801-0.503c-0.602-0.297-1.1-0.598-1.697-0.998c-3.604-2.3-5.705-5.902-5.705-9.802
		c-0.1-3.901,1.904-7.502,5.4-10.003c1.604-1.099,4.002-2.199,6.002-3.1l1.002-0.501c0.902-0.6,1.199-1.3,1-2
		c-0.301-1.101-1.4-1.201-2.201-1.201h-0.301c-0.098,0-0.098,0-0.201,0c-0.197,0-0.396,0-0.697,0.101
		c-0.201,0-0.4,0.099-0.602,0.099c-0.301,0-0.301-0.099-0.301-0.2c0-0.299,0.602-0.4,1.5-0.6h0.301
		c0.4-0.099,0.902-0.099,1.402-0.099c0.498,0,1.002,0,1.801,0.099c1.098,0,2.1,0.501,2.498,1.202c0.301,0.499,0.4,1.099,0.199,1.7
		c-0.299,0.899-0.998,1.6-1.996,2c-0.404,0.101-1.402,0.5-2.301,0.8l-1.303,0.5h-0.098l-0.203,0.101
		c-0.098,0-0.201,0.099-0.301,0.099c-0.297,0.099-0.699,0.301-1.096,0.5h-0.104l-0.1,0.099c-4.703,2.5-6.9,7.104-5.701,11.903
		c0.998,4.2,4,6.9,9.004,8.001c0.799,0.202,1.699,0.301,2.598,0.301c5.703,0,11.006-4.203,11.904-9.501l0,0l0,0v-0.301
		c0-0.198,0-0.301,0.1-0.4c0-0.399,0.098-0.8,0.098-1.101c0-0.099,0-0.198,0-0.301v-1.6c0-2.801,0-5.602,0-8.502
		c0-1.3,0.1-2.5,0.1-3.3v-0.5c0-0.6,0.801-1.6,1.604-1.6c0.1,0,0.201,0,0.301,0c0.701,0.2,0.701,0.6,0.598,1.399
		c0,0.2,0,0.301,0,0.501v17.802v0.301v12.403C267.781,108.792,263.078,114.893,254.678,116.191L254.678,116.191z"/>
	<path fill="#A91F68" d="M288.982,116.191c-0.1,0-0.201,0-0.301,0c0.1-0.201,0.301-0.201,0.502-0.301
		c5.203-2.099,8.502-6.802,8.6-12.301c0-0.602,0-1.203,0-1.801v-1.101v-0.1c0-0.7,0-1.698,0-2.803c0.1-2.498,0.1-4.098-0.398-4.699
		c-0.1-0.1-0.301-0.198-0.5-0.198c-0.301,0-0.602,0.198-0.998,0.499c-2.402,2.3-5.004,3.701-8.004,4.2
		c-0.4,0.1-0.701,0.1-1.199,0.198h-0.1c-0.4,0-0.803,0-1.199,0h-0.404h-0.396c-2.902-0.297-5.104-1.097-5.201-1.097
		c-0.199-0.1-0.504-0.301-0.801-0.503c-0.602-0.297-1.1-0.598-1.701-0.998c-3.6-2.3-5.701-5.902-5.701-9.802
		c-0.1-3.901,1.9-7.502,5.4-10.003c1.701-1.2,3.602-2,5.4-2.801l1.004-0.499c0.1-0.101,0.297-0.101,0.396-0.2
		c1.002-0.399,2.4-1,2.201-2.5c-0.297-1.7-2.102-1.7-3-1.5c-0.9,0.2-0.801,0.099-0.801,0.099c-0.197,0-0.498-0.2-0.4-0.299
		c1.201-0.701,2.301-0.802,3.703-0.802c0.301,0,0.598,0,0.898,0c9.002,0,15.305,6.303,15.305,15.404
		c0,0.499-0.102,2.103-0.102,2.103c0,3.496,0,7.399-0.1,10.899c0,1.9,0,3.603,0,5.103
		C301.988,108.792,297.385,114.893,288.982,116.191L288.982,116.191z M286.984,73.083c-1.699,0-3.402,0.301-5.004,1
		c-5.6,2.3-8.299,7.202-7,12.502c1,4.2,4.002,6.904,9.002,8.001c0.801,0.198,1.699,0.301,2.602,0.301c5.799,0,11.002-4.2,11.9-9.601
		l0,0v-0.099c0.1-0.602,0.1-1.104,0.1-1.501v-0.403c0-0.7-0.1-1.397-0.297-2.099C296.885,76.285,292.383,73.083,286.984,73.083z"/>
	<path fill="#A91F68" d="M283.48,68.183c0.902,0.101,2.002,0.101,2.301,1.101c0.303,1-0.697,1.601-1.398,2.001
		c-0.301,0.099-3.1,1.6-3.303,1.7l15.607-1.3c-3.104-3.801-8.105-5.901-13.207-4.802c-0.801,0.202-2.1,0.101-1.996,1.001
		C281.484,68.683,282.68,68.183,283.48,68.183z"/>
	<path fill="#A91F68" d="M248.275,68.984c0.9,0.099,2,0.099,2.301,1.099c0.301,1.001-0.701,1.601-1.4,2.001
		c-0.299,0.099-0.5,0.299-0.801,0.4l4.303-0.5c-3.1-3.801-0.402-4.201-4.402-4.1c-0.799,0-2.102,0.2-2.002,0.8
		C246.375,69.384,247.477,68.883,248.275,68.984z"/>
</g>
<g>
	<path fill="none" stroke="#FFFFFF" stroke-width="2" stroke-linecap="round" stroke-linejoin="round" stroke-dasharray="4.8,5" d="
		M86.646,110.993L86.646,110.993C86.447,110.993,86.247,110.993,86.646,110.993z"/>
	<path fill="none" stroke="#FFFFFF" stroke-width="2" stroke-linecap="round" stroke-linejoin="round" stroke-dasharray="4.8,5" d="
		M36.037,76.585l-34.505,0.6l35.707-9.802c4.601-14.803,21.503-25.405,47.408-25.405c3.801,0,7.902,0.402,11.503,0.802
		c-0.8-1.701-0.8-3.302-0.8-5.202c0-10.602,13.902-19.203,31.005-19.203c11.202,0,21.003,3.601,26.405,9.102
		c11.802-15.403,37.007-26.104,66.312-26.104c32.906,0,60.811,13.401,70.213,31.906c0.898,0,1.799,0,2.701,0
		c44.209,0,80.016,22.203,80.016,49.61c0,21.902-22.904,40.604-54.711,47.108c-4.102,15.5-25.705,27.306-51.811,27.306
		c-16.602,0-31.406-4.904-41.008-12.407L169.962,158.3c-4.002,0.399-8.102,0.7-12.204,0.7c-38.807,0-70.312-19.505-70.312-43.608
		c0-1.401-0.9-2.898-0.701-4.2c0.2,0,0.501,0,0,0C56.34,110.993,36.437,95.387,36.037,76.585z"/>
</g>
</svg>
