<?xml version="1.0" encoding="utf-8"?>
<!-- Generator: Adobe Illustrator 18.0.0, SVG Export Plug-In . SVG Version: 6.00 Build 0)  -->
<!DOCTYPE svg PUBLIC "-//W3C//DTD SVG 1.1//EN" "http://www.w3.org/Graphics/SVG/1.1/DTD/svg11.dtd">
<svg version="1.1" id="Layer_1" xmlns="http://www.w3.org/2000/svg" xmlns:xlink="http://www.w3.org/1999/xlink" x="0px" y="0px"
	 viewBox="0 0 379.4 62.4" enable-background="new 0 0 379.4 62.4" xml:space="preserve">
<g>
	
		<polyline fill="none" stroke="#846234" stroke-width="2" stroke-linecap="round" stroke-linejoin="round" stroke-miterlimit="10" points="
		339.1,59.6 337.6,58.4 337.6,46.3 	"/>
	<g>
		<polygon fill="#E6232E" points="302.7,16.1 294.6,9.3 306.2,10.2 		"/>
		
			<polyline fill="none" stroke="#846234" stroke-width="2" stroke-linecap="round" stroke-linejoin="round" stroke-miterlimit="10" points="
			330.8,60.8 337.6,58.4 330.5,57.1 		"/>
		
			<polyline fill="none" stroke="#846234" stroke-width="2" stroke-linecap="round" stroke-linejoin="round" stroke-miterlimit="10" points="
			327.6,58.5 326.1,57.4 326.1,45.2 		"/>
		
			<polyline fill="none" stroke="#846234" stroke-width="2" stroke-linecap="round" stroke-linejoin="round" stroke-miterlimit="10" points="
			319.3,59.7 326.1,57.4 318.9,56 		"/>
		<path fill-rule="evenodd" clip-rule="evenodd" fill="#C42427" d="M314.8,16.1c-0.8-3,1-6.2,4-7c3-0.8,6.2,1,7,4c0.8,3-1,6.1-4,7
			C318.8,20.9,315.6,19.1,314.8,16.1z M301.9,28.1c1.6,6,5.6,10.7,10.7,13.5c3,2.3,13.2,6.9,21.4,5.7c11-1.6,17.3-2.7,29.5-10
			c12.2-7.3,14.9-17.6,14.9-17.6S360,27.5,347,17.8c-0.8-1.1-1.5-1.8-1.6-2.1c-3.5-11.4-16.1-18.1-27.8-14.9
			C305.7,4,298.7,16.2,301.9,28.1z"/>
		<ellipse fill="#221E1F" cx="320.5" cy="16.4" rx="2.9" ry="2.8"/>
		<path fill="#FFC700" d="M348.6,22.6c1.2,1.3,3.8,6.4,19.5,7.9c3.8,0.4,5.2-0.8,7.6-4c1-1.3,2.1-2.9,3.3-5.2
			c3.5-6.5-13.8,1.4-25.5-1.8c-1.6-0.4-6.4-1.8-7.3-2.8c-0.2-0.2-0.4,0.4-0.3,0.8C346.2,18.6,347.7,21.6,348.6,22.6z"/>
	</g>
</g>
<g>
	<polygon fill="#E6232E" points="76.9,16.5 85,9.7 73.4,10.7 	"/>
	
		<polyline fill="none" stroke="#846234" stroke-width="2" stroke-linecap="round" stroke-linejoin="round" stroke-miterlimit="10" points="
		40.4,60.2 41.9,59 41.9,46.9 	"/>
	
		<polyline fill="none" stroke="#846234" stroke-width="2" stroke-linecap="round" stroke-linejoin="round" stroke-miterlimit="10" points="
		48.7,61.4 41.9,59 49,57.7 	"/>
	
		<polyline fill="none" stroke="#846234" stroke-width="2" stroke-linecap="round" stroke-linejoin="round" stroke-miterlimit="10" points="
		51.9,59.1 53.5,57.9 53.5,45.8 	"/>
	
		<polyline fill="none" stroke="#846234" stroke-width="2" stroke-linecap="round" stroke-linejoin="round" stroke-miterlimit="10" points="
		60.3,60.3 53.5,57.9 60.6,56.6 	"/>
	<path fill-rule="evenodd" clip-rule="evenodd" fill="#FFC700" d="M57.7,20.5c-3-0.8-4.8-4-4-7c0.8-3,4-4.8,7-4c3.1,0.8,4.8,4,4,7
		C63.9,19.6,60.8,21.4,57.7,20.5z M62,1.2C50.3-2,37.6,4.7,34.1,16.1c-0.1,0.2-0.8,1-1.6,2.1C19.4,28,0.9,20,0.9,20
		s2.7,10.3,15,17.7c12.2,7.4,18.6,8.5,29.6,10.1c8.2,1.2,18.4-3.4,21.5-5.7c5.1-2.8,9.1-7.5,10.7-13.6C80.9,16.7,73.9,4.5,62,1.2z"
		/>
	<path fill="#221E1F" d="M61.9,16.8c0-1.6-1.3-2.8-2.9-2.8c-1.6,0-2.9,1.3-2.9,2.8c0,1.6,1.3,2.9,2.9,2.9
		C60.6,19.7,61.9,18.4,61.9,16.8z"/>
	<path fill="#C42427" d="M30.9,23.1c-1.2,1.3-3.8,6.4-19.5,8c-3.8,0.4-5.2-0.8-7.6-4c-1-1.3-2-2.9-3.3-5.2C-3,15.3,14.3,23.2,26,20
		c1.6-0.5,6.4-1.8,7.3-2.8c0.2-0.2,0.5,0.4,0.3,0.8C33.3,19,31.8,22.1,30.9,23.1z"/>
</g>
</svg>
