<?xml version="1.0" encoding="utf-8"?>
<!-- Generator: Adobe Illustrator 18.0.0, SVG Export Plug-In . SVG Version: 6.00 Build 0)  -->
<!DOCTYPE svg PUBLIC "-//W3C//DTD SVG 1.1//EN" "http://www.w3.org/Graphics/SVG/1.1/DTD/svg11.dtd">
<svg version="1.1" id="Layer_2_1_" xmlns="http://www.w3.org/2000/svg" xmlns:xlink="http://www.w3.org/1999/xlink" x="0px" y="0px"
	 viewBox="0 0 374.4 476.5" enable-background="new 0 0 374.4 476.5" xml:space="preserve">
<ellipse fill="#90C1E2" cx="159.1" cy="163.5" rx="32.4" ry="34.6"/>
<ellipse fill="#90C1E2" cx="221" cy="163.5" rx="32.4" ry="34.6"/>
<path fill-rule="evenodd" clip-rule="evenodd" fill="#FFFFFF" d="M191.2,23.3c-90,0-162.9,62.3-162.9,139.2
	c0,76.9,73,139.2,162.9,139.2c90,0,162.9-62.3,162.9-139.2C354.1,85.6,281.2,23.3,191.2,23.3z M189.2,261.9
	c-66.5,0-120.5-52.4-120.5-116.9C68.8,80.3,122.7,28,189.2,28c66.5,0,120.5,52.4,120.5,116.9C309.7,209.5,255.7,261.9,189.2,261.9z"
	/>
<path fill-rule="evenodd" clip-rule="evenodd" fill="#8A6338" d="M261.1,434.3h-1.3c-1.2,0-3.2-0.1-6.1-0.1
	c-33.4-0.5-35.2-50.9-39.8-103.9c-4.7-53,27.2-72,27.2-72l-35.6,4.1l-0.3-0.7h-32v1l-35.5-4.1c0,0,31.6,18.7,26.9,71.7
	c-4.7,53-6.4,103.4-39.8,103.9c-2.6,0-4.4,0.1-5.6,0.1h-1c-0.1,0-0.2,0-0.3,0.1c-0.6,0-0.7,0.1-0.2,0.1c-0.1,0.1-0.2,0.3-0.2,0.5
	c0,0.4,0.3,0.7,0.7,0.7h142.9c0.4,0,0.7-0.3,0.7-0.7C261.8,434.6,261.5,434.3,261.1,434.3z"/>
<path fill="#8A6338" d="M308.7,129.5c-6.5,74.4-57.3,132.4-119.9,132.4c-62.6,0-112.6-57.9-119.1-132.3c-0.9,6-1.4,12.2-1.4,18.5
	c0,67.2,53.2,121.9,120.5,121.9c67.2,0,121.9-54.7,121.9-121.9C310.8,141.8,309.6,135.5,308.7,129.5z"/>
<g>
	<g>
		<g>
			<path fill="#90C1E2" d="M199.2,271.1c3.5,0,6.4-2.9,6.4-6.4v-16c0-3.5-2.8-6.4-6.4-6.4c-3.5,0-6.4,2.8-6.4,6.4v16
				C192.8,268.2,195.7,271.1,199.2,271.1z"/>
			<path fill="#90C1E2" d="M209.3,266.9c3.5,0,6.4-2.9,6.4-6.4v-11.8c0-3.5-2.9-6.4-6.4-6.4c-3.5,0-6.4,2.8-6.4,6.4v11.8
				C203,264.1,205.8,266.9,209.3,266.9z"/>
		</g>
		<path fill-rule="evenodd" clip-rule="evenodd" fill="#90C1E2" d="M222,255.8l-4.5,1.3c0,0-1.7,0.2-1.7,1.9
			c0.1,1.7-1.9,3.6-1.9,3.6l-5.4,1.9l-2,1.6c0,0-0.9-0.2-1.2,0.7c-0.4,0.9-5.8,1.7-5.8,1.7l-4.6-2l-1.9-4.7c0,0,0-1.1-1.4-1.1
			c-1.4,0-1.8-1.5-1.8-1.5l26.6-4.5l5.2-0.9L222,255.8z"/>
	</g>
</g>
<g>
	<g>
		<g>
			<path fill="#90C1E2" d="M178.5,271.4c-3.5,0-6.4-2.8-6.4-6.4v-16c0-3.5,2.9-6.4,6.4-6.4c3.5,0,6.4,2.9,6.4,6.4v16
				C184.8,268.6,182,271.4,178.5,271.4z"/>
			<path fill="#90C1E2" d="M168.3,267.3c-3.5,0-6.4-2.9-6.4-6.4v-11.8c0-3.5,2.9-6.4,6.4-6.4c3.5,0,6.4,2.9,6.4,6.4v11.8
				C174.6,264.4,171.8,267.3,168.3,267.3z"/>
		</g>
		<path fill-rule="evenodd" clip-rule="evenodd" fill="#90C1E2" d="M155.7,256.2l4.5,1.3c0,0,1.7,0.2,1.7,1.9
			c-0.1,1.7,1.9,3.6,1.9,3.6l5.4,1.9l2,1.6c0,0,0.9-0.2,1.2,0.7c0.4,0.9,5.8,1.7,5.8,1.7l4.6-2l1.9-4.7c0,0,0-1.1,1.4-1.1
			c1.4,0,1.8-1.5,1.8-1.5l-26.6-4.5l-5.2-0.9L155.7,256.2z"/>
	</g>
</g>
<path fill="#554F4F" d="M260.5,141.2c6.5,11.8,10.1,25.2,10.1,39.2c0,24.6-10.9,46.7-28.2,61.6c22.4-12.9,39.4-33.8,39.4-57.4
	C281.8,168.3,272.3,153.2,260.5,141.2z"/>
<path fill="#FFFFFF" d="M209.6,105.3c-6.5-2-12.9,9.7-20.7,9.7c-7.8,0-15.6-11.8-22.8-9.6c-31.8,9.8-55,40-55,75.1
	c0,33.6,21.3,62.3,51.1,73.2v-3.9c0-3.4,2.8-6.2,6.2-6.2c1.7,0,3.4,0.7,4.6,2.1l0.5,0.6l0.5-0.6c1.2-1.3,2.8-2.1,4.6-2.1
	c3.4,0,6.2,2.8,6.2,6.2v8.5c1.4,0.1,2.8,0.1,4.2,0.1c1.4,0,2.8,0,4.2-0.1v-8.5c0-3.4,2.8-6.2,6.2-6.2c1.7,0,3.4,0.7,4.6,2.1l0.5,0.6
	l0.5-0.6c1.2-1.3,2.8-2.1,4.6-2.1c3.4,0,6.2,2.8,6.2,6.2v3.9c29.8-10.9,51.1-39.6,51.1-73.2C266.8,144.5,242.5,115.3,209.6,105.3z
	 M157.4,190.3c-16,0-29-13-29-29c0-16,13-29,29-29c16,0,29,13,29,29C186.4,177.3,173.5,190.3,157.4,190.3z M189,211.7
	c-4.6,0-8.3-13.7-8.3-18.2c0-4.6,3.7-8.3,8.3-8.3c4.6,0,8.3,3.7,8.3,8.3C197.3,198.1,193.6,211.7,189,211.7z M221.2,190.3
	c-16,0-29-13-29-29c0-16,13-29,29-29c16,0,29,13,29,29C250.2,177.3,237.3,190.3,221.2,190.3z"/>
<path fill="#FFFFFF" d="M209.6,105.3c-6.5-2-12.9,9.7-20.7,9.7c-7.8,0-15.6-11.8-22.8-9.6c-31.8,9.8-55,40-55,75.1
	c0,33.6,21.3,62.3,51.1,73.2v-3.9c0-3.4,2.8-6.2,6.2-6.2c1.7,0,3.4,0.7,4.6,2.1l0.5,0.6l0.5-0.6c1.2-1.3,2.8-2.1,4.6-2.1
	c3.4,0,6.2,2.8,6.2,6.2v8.5c1.4,0.1,2.8,0.1,4.2,0.1c1.4,0,2.8,0,4.2-0.1v-8.5c0-3.4,2.8-6.2,6.2-6.2c1.7,0,3.4,0.7,4.6,2.1l0.5,0.6
	l0.5-0.6c1.2-1.3,2.8-2.1,4.6-2.1c3.4,0,6.2,2.8,6.2,6.2v3.9c29.8-10.9,51.1-39.6,51.1-73.2C266.8,144.5,242.5,115.3,209.6,105.3z
	 M157.4,190.3c-16,0-29-13-29-29c0-16,13-29,29-29c16,0,29,13,29,29C186.4,177.3,173.5,190.3,157.4,190.3z M189,211.7
	c-4.6,0-8.3-13.7-8.3-18.2c0-4.6,3.7-8.3,8.3-8.3c4.6,0,8.3,3.7,8.3,8.3C197.3,198.1,193.6,211.7,189,211.7z M221.2,190.3
	c-16,0-29-13-29-29c0-16,13-29,29-29c16,0,29,13,29,29C250.2,177.3,237.3,190.3,221.2,190.3z"/>
<path fill="#554F4F" d="M107.3,180.4c0-14,3.5-27.3,9.8-39c-11.6,12-21.1,27-21.1,43.2c0,23.6,17,44.4,39.4,57.4
	C118.2,227,107.3,205,107.3,180.4z"/>
<path fill="#554F4F" d="M150.8,168c0-8.2,6.7-14.9,14.9-14.9c8.2,0,14.9,6.7,14.9,14.9c0,8.2-6.7,14.9-14.9,14.9
	C157.5,182.9,150.8,176.2,150.8,168z"/>
<path fill="#554F4F" d="M214.1,168c0-8.2,6.7-14.9,14.9-14.9c8.2,0,14.9,6.7,14.9,14.9c0,8.2-6.7,14.9-14.9,14.9
	C220.8,182.9,214.1,176.2,214.1,168z"/>
<path fill="#554F4F" d="M196.4,265.6c0,1.6,1.3,2.9,2.9,2.9l0,0c1.6,0,2.9-1.3,2.9-2.9v-16c0-1.6-1.3-2.9-2.9-2.9l0,0
	c-1.6,0-2.9,1.3-2.9,2.9V265.6z"/>
<path fill="#554F4F" d="M206.6,261.5c0,1.6,1.3,2.9,2.9,2.9l0,0c1.6,0,2.9-1.3,2.9-2.9v-11.8c0-1.6-1.3-2.9-2.9-2.9l0,0
	c-1.6,0-2.9,1.3-2.9,2.9V261.5z"/>
<path fill="#554F4F" d="M181.4,265.6c0,1.6-1.3,2.9-2.9,2.9l0,0c-1.6,0-2.9-1.3-2.9-2.9v-16c0-1.6,1.3-2.9,2.9-2.9l0,0
	c1.6,0,2.9,1.3,2.9,2.9V265.6z"/>
<path fill="#554F4F" d="M171.3,261.5c0,1.6-1.3,2.9-2.9,2.9l0,0c-1.6,0-2.9-1.3-2.9-2.9v-11.8c0-1.6,1.3-2.9,2.9-2.9l0,0
	c1.6,0,2.9,1.3,2.9,2.9V261.5z"/>
<circle fill="#FFFFFF" cx="298.8" cy="430.7" r="45.8"/>
<circle fill="#FFFFFF" cx="298.9" cy="366.8" r="29.8"/>
<g>
	<circle fill="#554F4F" cx="286.8" cy="377.4" r="1.9"/>
	<circle fill="#554F4F" cx="291.9" cy="380.5" r="1.9"/>
	<circle fill="#554F4F" cx="297.7" cy="381.8" r="1.9"/>
	<circle fill="#554F4F" cx="303.7" cy="380.5" r="1.9"/>
	<circle fill="#554F4F" cx="308.6" cy="377.4" r="1.9"/>
</g>
<g>
	<circle fill="#90C1E2" cx="291.7" cy="357.1" r="6.9"/>
	<circle fill="#554F4F" cx="289.9" cy="359.1" r="3.2"/>
</g>
<g>
	<circle fill="#90C1E2" cx="307.7" cy="357.1" r="6.9"/>
	<circle fill="#554F4F" cx="305.9" cy="359.1" r="3.2"/>
</g>
<path fill="#CC903F" d="M237.7,118.8c2.5,2.8-18.9,8.4-40.6,9.8c-31.7,2.1-46.7-6.2-54.3-9.8s18.5-19.2,34-29.9s18.6-10.1,31,0
	C220.1,99.1,235.1,116,237.7,118.8z"/>
<circle fill="#FFFFFF" cx="192.8" cy="78.1" r="7.8"/>
<path fill="#FFFFFF" d="M113.6,112.4"/>
<g>
	<defs>
		<path id="SVGID_1_" d="M237.7,118.8c2.5,2.8-18.9,8.4-40.6,9.8c-31.7,2.1-46.7-6.2-54.3-9.8s18.5-19.2,34-29.9s18.6-10.1,31,0
			C220.1,99.1,235.1,116,237.7,118.8z"/>
	</defs>
	<clipPath id="SVGID_2_">
		<use xlink:href="#SVGID_1_"  overflow="visible"/>
	</clipPath>
	<path clip-path="url(#SVGID_2_)" fill="none" stroke="#FFFFFF" stroke-width="2.7861" stroke-miterlimit="10" d="M143.3,111
		c7.9,5.7,25.2,9.6,45.2,9.6c18.1,0,34-3.2,42.7-8.1c0.2-0.1,0.4-0.2,0.6-0.4l2-1.2"/>
</g>
<path fill="#EC1C24" d="M315.8,344.3c0,0-7.6,2.4-16.6,2.4s-16.4-2.4-16.4-2.4c-1.6,0-2.9-1.3-2.9-2.9v-18.9c0-1.6,1.3-2.9,2.9-2.9
	h33.1c1.6,0,2.9,1.3,2.9,2.9v18.9C318.7,343,317.4,344.3,315.8,344.3z"/>
<path fill="#EC1C24" d="M279.9,325.2c-3.6,0-6.6,3-6.6,6.6v0.2c0,3.6,3,6.6,6.6,6.6c3.6,0,6.6-3,6.6-6.6v-0.2
	C286.4,328.2,283.5,325.2,279.9,325.2z M283.6,332c0,2.1-1.7,3.7-3.7,3.7c-2.1,0-3.7-1.7-3.7-3.7v-0.2c0-2.1,1.7-3.7,3.7-3.7
	c2.1,0,3.7,1.7,3.7,3.7V332z"/>
<path fill="#EC1C24" d="M318.7,325.2c-3.6,0-6.6,3-6.6,6.6v0.2c0,3.6,3,6.6,6.6,6.6c3.6,0,6.6-3,6.6-6.6v-0.2
	C325.3,328.2,322.3,325.2,318.7,325.2z M322.5,332c0,2.1-1.7,3.7-3.7,3.7c-2.1,0-3.7-1.7-3.7-3.7v-0.2c0-2.1,1.7-3.7,3.7-3.7
	c2.1,0,3.7,1.7,3.7,3.7V332z"/>
<path fill="#E1A04B" d="M291.7,371.5c-0.5-1.8,4.4-4.8,6.2-5.3c1.8-0.5,3.7,0.5,4.2,2.3c0.5,1.8-0.5,3.7-2.3,4.2
	C298,373.2,292.2,373.3,291.7,371.5z"/>
<path fill="#554F4F" d="M293.4,404.2L293.4,404.2c1.7,0,3.1,1.4,3.1,3.1v0c0,1.7-1.4,3.1-3.1,3.1l0,0c-1.7,0-3.1-1.4-3.1-3.1v0
	C290.3,405.5,291.7,404.1,293.4,404.2z"/>
<path fill="#554F4F" d="M292.9,414.7L292.9,414.7c1.7,0,3.1,1.4,3.1,3.1v0c0,1.7-1.4,3.1-3.1,3.1l0,0c-1.7,0-3.1-1.4-3.1-3.1l0,0
	C289.7,416.1,291.1,414.7,292.9,414.7z"/>
<path fill="#554F4F" d="M294.2,425.4L294.2,425.4c1.7,0,3.1,1.4,3.1,3.1v0c0,1.7-1.4,3.1-3.1,3.1l0,0c-1.7,0-3.1-1.4-3.1-3.1v0
	C291.1,426.8,292.5,425.4,294.2,425.4z"/>
<g>
	<line fill="none" stroke="#554F4F" stroke-width="4.6435" stroke-miterlimit="10" x1="332.2" y1="402.5" x2="361.7" y2="366.8"/>
	<line fill="none" stroke="#554F4F" stroke-width="4.6435" stroke-miterlimit="10" x1="350.7" y1="380.1" x2="369" y2="381.2"/>
	<line fill="none" stroke="#554F4F" stroke-width="4.6435" stroke-miterlimit="10" x1="351.6" y1="379" x2="342" y2="364.8"/>
</g>
<g>
	<path fill="#D1D7AA" d="M272.9,386.2c0.2-1.4,1.5-2.5,2.9-2.4l50.4,3.5c1.4,0.1,2.5,1.3,2.4,2.8l-0.3,3c-0.1,1.4,0.6,3.4,1.7,4.3
		l37.1,31.9c1.1,0.9,1.2,2.6,0.2,3.6l-8.7,9.7c-1,1.1-2.6,1.2-3.7,0.2l-27.6-24.9c-1.1-1-1.4-0.7-0.7,0.5l1.8,3.4
		c0.7,1.3,1.8,3.3,2.6,4.5l18.7,30.6c0.7,1.2,0.4,2.9-0.8,3.6l-12.9,8.3c-1.2,0.8-2.6,0.3-3.2-1l-28.4-68.7
		c-0.5-1.3-2.2-2.5-3.6-2.7l-23.3-2.3c-1.4-0.1-3.2-0.3-4.1-0.4c-0.8-0.1-1.3-1.3-1.2-2.7L272.9,386.2z"/>
</g>
<circle fill="#FFFFFF" cx="162.7" cy="219.1" r="5"/>
<circle fill="#FFFFFF" cx="123.3" cy="187" r="3.4"/>
<circle fill="#FFFFFF" cx="106.8" cy="146.4" r="6.3"/>
<circle fill="#FFFFFF" cx="173.1" cy="109" r="4.6"/>
<circle fill="#FFFFFF" cx="67.2" cy="118.3" r="3"/>
<circle fill="#FFFFFF" cx="340.3" cy="127.4" r="4.5"/>
<circle fill="#FFFFFF" cx="295.1" cy="220.9" r="3.4"/>
<circle fill="#FFFFFF" cx="254.5" cy="204.4" r="6.3"/>
<circle fill="#FFFFFF" cx="217.1" cy="270.7" r="4.6"/>
<circle fill="#FFFFFF" cx="272.1" cy="275.3" r="2.6"/>
<circle fill="#FFFFFF" cx="206.8" cy="210.7" r="2.6"/>
<circle fill="#FFFFFF" cx="160.8" cy="277" r="6.3"/>
<circle fill="#FFFFFF" cx="162.7" cy="28.1" r="5"/>
<circle fill="#FFFFFF" cx="275" cy="406.3" r="3.4"/>
<circle fill="#FFFFFF" cx="291.5" cy="446.9" r="6.3"/>
<circle fill="#FFFFFF" cx="181.2" cy="322.7" r="4.6"/>
<circle fill="#FFFFFF" cx="204.3" cy="357.1" r="4.6"/>
<circle fill="#FFFFFF" cx="196.4" cy="417.5" r="4.6"/>
<circle fill="#FFFFFF" cx="172.1" cy="389.6" r="4.6"/>
<circle fill="#FFFFFF" cx="172" cy="428.5" r="3"/>
<circle fill="#FFFFFF" cx="191.5" cy="382.6" r="2.6"/>
<circle fill="#FFFFFF" cx="212.4" cy="409.6" r="2.6"/>
<circle fill="#FFFFFF" cx="200.6" cy="338.6" r="2.6"/>
<g>
	<line fill="none" stroke="#554F4F" stroke-width="4.6435" stroke-miterlimit="10" x1="271.6" y1="401.2" x2="238.6" y2="361.4"/>
	<line fill="none" stroke="#554F4F" stroke-width="4.6435" stroke-miterlimit="10" x1="248.6" y1="373.6" x2="231.2" y2="375.8"/>
	<line fill="none" stroke="#554F4F" stroke-width="4.6435" stroke-miterlimit="10" x1="248.6" y1="373.6" x2="258.3" y2="359.4"/>
</g>
<circle fill="#554F4F" cx="271.6" cy="401.2" r="2.3"/>
<g>
	<g>
		<path fill="#8A6338" d="M91.1,70.4v31.5c0,0.5-0.4,0.9-0.9,0.9h-2.3c-0.5,0-0.9-0.4-0.9-0.9V70.4c0-0.5,0.4-0.9,0.9-0.9h2.3
			C90.7,69.5,91.1,69.9,91.1,70.4z"/>
		<g>
			<path fill="#8A6338" d="M95.6,103.2H18.7c-0.6,0-1-0.5-1-1V102c0-0.6,0.5-1,1-1h76.9c0.6,0,1,0.5,1,1v0.2
				C96.6,102.7,96.2,103.2,95.6,103.2z"/>
			<path fill="#8A6338" d="M58.6,48.9l49.8,25c0.9,0.5,1.3,1.6,0.8,2.5l-1.8,3.7c-0.5,0.9-1.6,1.3-2.5,0.8L55,55.9
				c-0.9-0.5-1.3-1.6-0.8-2.5l1.8-3.7C56.5,48.8,57.7,48.4,58.6,48.9z"/>
			<path fill="#8A6338" d="M52.8,48.9L3.9,73.5C3,73.9,2.6,75,3.1,76l1.9,3.7c0.5,0.9,1.6,1.3,2.5,0.8l48.9-24.6
				c0.9-0.5,1.3-1.6,0.8-2.5l-1.9-3.7C54.8,48.8,53.7,48.4,52.8,48.9z"/>
			<path fill="#8A6338" d="M27.4,70.3v31.6c0,0.5-0.4,0.9-0.9,0.9h-2.3c-0.5,0-0.9-0.4-0.9-0.9V70.3c0-0.5,0.4-0.9,0.9-0.9h2.3
				C27,69.4,27.4,69.8,27.4,70.3z"/>
			<path fill="#8A6338" d="M59.4,103.2v9.4c0,0.6-0.5,1.2-1.2,1.2h-4.9c-0.6,0-1.2-0.5-1.2-1.2l0-9.4c0-0.6,0.5-1.2,1.2-1.2h4.9
				C58.9,102,59.4,102.6,59.4,103.2z"/>
		</g>
	</g>
	<g>
		<polygon fill="#E6242F" points="59.2,78.5 63.4,75 57.4,75.5 		"/>
		
			<polyline fill="none" stroke="#846335" stroke-width="0.5679" stroke-linecap="round" stroke-linejoin="round" stroke-miterlimit="10" points="
			40.5,101 41.3,100.4 41.3,94.1 		"/>
		
			<polyline fill="none" stroke="#846335" stroke-width="0.5679" stroke-linecap="round" stroke-linejoin="round" stroke-miterlimit="10" points="
			44.8,101.6 41.3,100.4 44.9,99.7 		"/>
		
			<polyline fill="none" stroke="#846335" stroke-width="0.5679" stroke-linecap="round" stroke-linejoin="round" stroke-miterlimit="10" points="
			46.4,100.5 47.2,99.9 47.2,93.6 		"/>
		
			<polyline fill="none" stroke="#846335" stroke-width="0.5679" stroke-linecap="round" stroke-linejoin="round" stroke-miterlimit="10" points="
			50.7,101.1 47.2,99.9 50.9,99.2 		"/>
		<path fill="#CC903F" d="M51.6,70.6c-6-1.6-12.5,1.8-14.3,7.7c0,0.1-0.4,0.5-0.8,1.1c-6.7,5.1-16.2,0.9-16.2,0.9s1.4,5.3,7.7,9.1
			c6.3,3.8,9.5,4.4,15.2,5.2c4.2,0.6,9.5-1.8,11-3c2.6-1.4,4.6-3.9,5.5-7C61.3,78.6,57.7,72.2,51.6,70.6z M49.4,80.5
			c-1.6-0.4-2.5-2-2.1-3.6c0.4-1.6,2.1-2.5,3.6-2.1c1.6,0.4,2.5,2.1,2.1,3.6C52.6,80.1,50.9,81,49.4,80.5z"/>
		<path fill="#231F20" d="M51.5,78.6c0-0.8-0.7-1.5-1.5-1.5c-0.8,0-1.5,0.7-1.5,1.5c0,0.8,0.7,1.5,1.5,1.5
			C50.9,80.1,51.5,79.5,51.5,78.6z"/>
		<path fill="#6F5048" d="M35.6,81.9c-0.6,0.7-2,3.3-10,4.1c-1.9,0.2-2.7-0.4-3.9-2.1c-0.5-0.7-1.1-1.5-1.7-2.7
			c-1.8-3.4,7.1,0.7,13.1-1c0.8-0.2,3.3-0.9,3.8-1.4c0.1-0.1,0.2,0.2,0.2,0.4C36.8,79.8,36.1,81.4,35.6,81.9z"/>
	</g>
	<path fill="#FFFFFF" d="M23.3,66.5c0,0-2.7,3.3-6.3,5.9c-2.6,1.9-6,3.1-7.8,4.3c-4.3,2.9-16.1-3.3-3.3-11.8s15-0.4,21.5-8.4
		s11.2-9.8,17.5-10.8c6.4-1.1,8.2-2.9,11.5-4.5c3.4-1.6,9.1-0.1,13.8,4.5c4.7,4.5,8.6,8.8,12.2,8.1c5.1-1,7,6.5,13.6,9.7
		c10.6,5,15.5,12.5,13.2,13c0,0,0.2,3.8-5,0.3c-5.2-3.6,0,0-8.2-6c-8.2-6-9.4-7.9-20.1-9.2c-10.6-1.3-5.4-1.8-11.8-5.1
		s-11.7-5.5-17.4,0s-17.5,6.2-19.4,6.6S23.3,66.5,23.3,66.5z"/>
	<circle fill="#8A6338" cx="55.8" cy="113.6" r="3.6"/>
	<ellipse fill="#E1A04B" cx="65.7" cy="99.7" rx="4.2" ry="1.3"/>
	<ellipse fill="#E1A04B" cx="57.4" cy="99.7" rx="4.2" ry="1.3"/>
	<ellipse fill="#E1A04B" cx="74" cy="99.7" rx="4.2" ry="1.3"/>
	<ellipse fill="#E1A04B" cx="69.9" cy="96.7" rx="4.2" ry="1.3"/>
	<ellipse fill="#E1A04B" cx="61.3" cy="96.7" rx="4.2" ry="1.3"/>
	<ellipse fill="#E1A04B" cx="65.5" cy="93.6" rx="4.2" ry="1.3"/>
</g>
<path fill="#D1D7AA" d="M110,446.2c0,1.8,0,3.4,0,5.1c0.5,0,0.9,0.1,1.3,0.1c13.6,0.1,27.2,0.1,40.8,0.2c4.6,0,9.1-3.9,9.6-8.2
	c0.7-6.1-2.8-10.3-7.4-11.2c-6.8-1.3-11.5,2.9-12.2,9.4c-0.2,2.4-1.5,3.8-3.8,3.7c-2.1-0.1-3.4-1.7-3.3-4
	c0.3-10.1,8.8-17.7,19.2-16.5c6.2,0.7,10.8,4.2,13.4,10c2.6,5.9,2,11.7-1.7,17c-3.5,4.9-8.3,7.1-14.3,7.1
	c-23.2-0.1-46.4-0.1-69.6-0.2c-10.6,0-21.2-0.1-31.7-0.2c-1.9,0-3.4-0.7-4.1-2.5c-0.5-1.5-0.3-3,1.1-3.9c0.7-0.5,1.8-0.8,2.7-0.8
	c9,0,18,0,27,0.1c1.8,0,2.5-0.5,2.2-2.3c-0.1-0.4,0-0.7,0-1.1c0.2-1.4-0.4-1.9-1.9-1.9c-3.1,0.1-6.3,0-9.4,0c-2.2,0-3.7-1.3-3.7-3.4
	c-0.1-2.2,1.2-3.7,3.6-3.7c5.4-0.1,10.8,0,16.2,0c12.3,0.1,24.6,0.1,36.9,0.2c0.7,0,1.5,0,2.2,0.1c1.7,0.3,3,2,2.8,3.7
	c-0.2,1.8-1.5,3.3-3.3,3.3C118.4,446.3,114.3,446.2,110,446.2z M84,451.3c6,0,11.8,0.1,17.7,0.1c4,0,3.4,0.9,3.5-3.7
	c0-1.1-0.4-1.5-1.5-1.5c-4.1,0-8.1,0-12.2,0c-2.4,0-4.9,0-7.5,0C84,447.9,84,449.5,84,451.3z"/>
<path fill="#CC903F" d="M122.5,446.2h-55c-1.9,0-3.5-1.6-3.5-3.5v-0.2c0-1.9,1.6-3.5,3.5-3.5h55c1.9,0,3.5,1.6,3.5,3.5v0.2
	C125.9,444.6,124.4,446.2,122.5,446.2z"/>
<g>
	
		<polyline fill="none" stroke="#846335" stroke-width="0.6094" stroke-linecap="round" stroke-linejoin="round" stroke-miterlimit="10" points="
		97.9,441.7 97.1,441.1 97.1,434.3 	"/>
	<g>
		<polygon fill="#E6242F" points="77.8,417.5 73.4,413.7 79.8,414.3 		"/>
		
			<polyline fill="none" stroke="#846335" stroke-width="0.6094" stroke-linecap="round" stroke-linejoin="round" stroke-miterlimit="10" points="
			93.4,442.4 97.1,441.1 93.2,440.3 		"/>
		
			<polyline fill="none" stroke="#846335" stroke-width="0.6094" stroke-linecap="round" stroke-linejoin="round" stroke-miterlimit="10" points="
			91.6,441.1 90.7,440.4 90.7,433.7 		"/>
		
			<polyline fill="none" stroke="#846335" stroke-width="0.6094" stroke-linecap="round" stroke-linejoin="round" stroke-miterlimit="10" points="
			87,441.8 90.7,440.4 86.8,439.7 		"/>
		<path fill="#6F5048" d="M77.4,424.2c0.9,3.3,3.1,6,5.9,7.5c1.7,1.3,7.3,3.8,11.8,3.2c6.1-0.9,9.5-1.5,16.3-5.6
			c6.7-4.1,8.2-9.8,8.2-9.8s-10.2,4.4-17.4-1c-0.5-0.6-0.9-1-0.9-1.1c-2-6.3-8.9-10-15.3-8.3C79.5,410.8,75.6,417.6,77.4,424.2z
			 M84.5,417.5c-0.5-1.7,0.5-3.4,2.2-3.9c1.7-0.5,3.4,0.5,3.9,2.2c0.5,1.7-0.5,3.4-2.2,3.9C86.7,420.2,85,419.2,84.5,417.5z"/>
		<circle fill="#231F20" cx="87.7" cy="417.7" r="1.6"/>
		<path fill="#CC903F" d="M103.2,421.1c0.7,0.7,2.1,3.5,10.8,4.4c2.1,0.2,2.9-0.4,4.2-2.2c0.5-0.7,1.1-1.6,1.8-2.9
			c1.9-3.6-7.6,0.8-14.1-1c-0.9-0.3-3.5-1-4-1.5c-0.1-0.1-0.2,0.2-0.2,0.4C101.8,418.9,102.7,420.6,103.2,421.1z"/>
	</g>
</g>
</svg>
