<?xml version="1.0" encoding="UTF-8" standalone="no"?>
<svg width="73px" height="73px" viewBox="0 0 73 73" version="1.1" xmlns="http://www.w3.org/2000/svg" xmlns:xlink="http://www.w3.org/1999/xlink" xmlns:sketch="http://www.bohemiancoding.com/sketch/ns">
    <!-- Generator: Sketch 3.1.1 (8761) - http://www.bohemiancoding.com/sketch -->
    <title>babolygo-socialOpeningYouTube</title>
    <desc>Created with Sketch.</desc>
    <defs></defs>
    <g id="babolygo-social-icons" stroke="none" stroke-width="1" fill="none" fill-rule="evenodd" sketch:type="MSPage">
        <g id="babolygo-socialOpeningYouTube" sketch:type="MSArtboardGroup" fill="#A91F68">
            <path d="M36.744,19.352 C36.901,19.509 37.058,19.823 37.058,20.138 L37.058,29.112 C37.058,29.427 37.058,29.741 36.744,30.056 C36.587,30.213 36.272,30.37 35.801,30.37 C35.329,30.37 35.014,30.37 34.857,30.056 C34.7,29.741 34.543,29.427 34.543,28.955 L34.543,20.138 C34.543,19.823 34.7,19.509 34.857,19.352 C35.172,19.194 35.486,19.037 35.801,19.037 C36.115,19.037 36.43,19.194 36.744,19.352 L36.744,19.352 Z M28.011,41.944 L28.011,39.55 L20.029,39.55 L20.029,41.944 L22.738,41.944 L22.738,56.35 L25.29,56.35 L25.29,41.944 L28.011,41.944 L28.011,41.944 Z M34.313,43.674 L32.075,43.674 L32.075,53.12 C31.919,53.435 31.76,53.592 31.446,53.749 C31.132,53.906 30.974,54.064 30.817,54.064 C30.66,54.064 30.503,54.064 30.345,53.906 C30.188,53.749 30.188,53.592 30.188,53.277 L30.188,43.832 L27.951,43.832 L27.951,54.221 C27.951,54.886 28.108,55.515 28.423,55.829 C28.773,56.144 29.245,56.301 29.717,56.301 C30.067,56.301 30.54,56.301 31.01,55.986 C31.518,55.829 31.833,55.357 32.305,54.886 L32.305,56.338 L34.543,56.338 L34.543,56.301 L34.301,56.301 L34.301,43.674 L34.313,43.674 L34.313,43.674 Z M43.481,53.785 L43.516,53.785 C43.516,54.571 43.202,55.395 42.888,55.865 C42.573,56.338 41.944,56.494 41.28,56.494 C40.807,56.494 40.493,56.338 39.985,56.18 C39.671,56.023 39.356,55.709 39.042,55.395 L39.042,56.338 L36.805,56.338 L36.805,39.537 L39.199,39.537 L39.199,44.969 C39.513,44.654 39.828,44.34 40.142,44.182 C40.457,44.025 40.771,43.867 41.243,43.867 C42.029,43.867 42.538,44.182 42.852,44.654 C43.167,45.125 43.481,45.947 43.481,46.891 L43.481,53.785 L43.481,53.785 Z M40.953,47.012 C40.953,46.541 40.796,46.227 40.638,46.068 C40.638,45.754 40.481,45.754 40.167,45.754 C40.01,45.754 39.852,45.754 39.695,45.912 C39.538,46.068 39.381,46.068 39.223,46.227 L39.223,53.895 C39.381,54.051 39.538,54.209 39.695,54.365 C39.852,54.523 40.01,54.523 40.167,54.523 C40.481,54.523 40.638,54.365 40.796,54.209 C40.953,54.051 40.953,53.736 40.953,53.422 L40.953,47.012 L40.953,47.012 Z M72,35.994 C72,55.817 55.829,71.988 36.007,71.988 C16.182,71.988 0,55.829 0,35.994 C0,16.159 16.171,0 35.994,0 C55.817,0 72,16.171 72,35.994 L72,35.994 Z M42.888,29.935 C42.888,30.878 43.046,31.7 43.36,32.172 C43.675,32.644 44.339,32.958 44.968,32.958 C45.634,32.958 46.105,32.801 46.734,32.486 C47.399,32.136 48.028,31.664 48.5,31.035 L48.5,32.801 L51.524,32.801 L51.524,16.473 L48.415,16.473 L48.415,28.786 C48.1,29.1 47.786,29.415 47.471,29.572 C47.157,29.729 46.843,29.886 46.686,29.886 C46.372,29.886 46.214,29.729 46.057,29.572 C45.899,29.415 45.899,29.1 45.899,28.786 L45.899,16.328 L42.876,16.328 L42.876,29.935 L42.888,29.935 L42.888,29.935 Z M31.518,20.138 L31.555,28.435 C31.555,29.85 32.22,30.987 33.007,31.773 C33.793,32.595 34.93,33.067 36.187,33.067 C37.445,33.067 38.583,32.752 39.368,31.966 C40.155,31.18 40.47,30.08 40.47,28.628 L40.47,20.125 C40.47,18.868 39.962,17.888 39.175,17.102 C38.388,16.316 37.445,16.001 36.151,16.001 C34.736,16.001 33.635,16.316 32.813,17.102 C31.991,17.888 31.518,18.844 31.518,20.138 L31.518,20.138 Z M20.149,10.546 L24.153,23.996 L24.153,32.813 L27.697,32.813 L27.697,23.524 L31.677,10.546 L28.169,10.546 L26.089,19.509 L25.774,19.509 L23.694,10.535 L20.149,10.535 L20.149,10.546 L20.149,10.546 Z M55.044,48.318 C54.885,45.924 54.885,43.518 54.729,41.279 C54.729,38.256 52.334,35.849 49.298,35.849 C44.968,35.691 40.481,35.534 36.007,35.534 C31.531,35.534 27.032,35.534 22.714,35.849 C19.69,35.849 17.284,38.244 17.284,41.279 C17.126,43.674 16.969,46.081 16.969,48.318 C16.969,50.713 16.969,53.12 17.284,55.357 C17.284,58.381 19.679,60.788 22.714,60.788 C27.044,60.945 31.531,61.103 36.007,61.103 C40.481,61.103 44.98,61.103 49.298,60.788 C52.322,60.788 54.729,58.394 54.729,55.357 C54.885,52.951 55.044,50.557 55.044,48.318 L55.044,48.318 Z M47.532,50.398 L47.532,52.793 C47.532,53.422 47.532,53.895 47.69,54.088 C47.846,54.402 48.161,54.402 48.475,54.402 C48.79,54.402 49.104,54.245 49.263,54.088 C49.419,53.931 49.419,53.459 49.419,52.637 L49.419,51.85 L51.813,51.85 L51.813,52.793 C51.813,54.088 51.499,55.031 51.028,55.66 C50.399,56.289 49.577,56.604 48.475,56.604 C47.532,56.604 46.71,56.289 46.081,55.66 C45.452,55.031 45.138,54.051 45.138,52.793 L45.138,47.205 C45.138,46.105 45.452,45.283 46.081,44.654 C46.71,44.025 47.532,43.711 48.634,43.711 C49.733,43.711 50.555,44.025 51.028,44.654 C51.657,45.283 51.813,46.262 51.813,47.363 L51.85,50.387 L47.532,50.387 L47.532,50.398 L47.532,50.398 Z M49.612,48.476 L49.612,47.218 C49.612,46.746 49.612,46.274 49.456,46.117 C49.141,45.924 48.983,45.767 48.475,45.767 C48.161,45.767 47.846,45.924 47.69,46.081 C47.532,46.238 47.532,46.71 47.532,47.182 L47.532,48.476 L49.612,48.476 L49.612,48.476 Z" id="Imported-Layers" sketch:type="MSShapeGroup"></path>
        </g>
    </g>
</svg>