<?xml version="1.0" encoding="utf-8"?>
<!-- Generator: Adobe Illustrator 16.0.0, SVG Export Plug-In . SVG Version: 6.00 Build 0)  -->
<!DOCTYPE svg PUBLIC "-//W3C//DTD SVG 1.1//EN" "http://www.w3.org/Graphics/SVG/1.1/DTD/svg11.dtd">
<svg version="1.1" xmlns="http://www.w3.org/2000/svg" xmlns:xlink="http://www.w3.org/1999/xlink" x="0px" y="0px"
	 width="374.428px" height="476.499px" viewBox="0 0 374.428 476.499" enable-background="new 0 0 374.428 476.499"
	 xml:space="preserve">
<g id="Layer_1" display="none">
	<path display="inline" fill-rule="evenodd" clip-rule="evenodd" fill="#8A6237" d="M254.998,451.628h-1.36
		c-1.26-0.05-3.38-0.09-6.56-0.14c-35.92-0.59-37.77-54.58-42.79-111.4c-5.03-56.82,29.26-77.2,29.26-77.2l-38.22,4.38l-0.37-0.72
		h-34.33v1.07l-38.11-4.36c0,0,33.92,20.01,28.9,76.83c-5.03,56.82-6.88,110.81-42.8,111.4c-2.76,0.04-4.72,0.09-6.01,0.14h-1.07
		c-0.11,0-0.22,0.02-0.32,0.07c-0.69,0.05-0.73,0.11-0.22,0.16c-0.14,0.14-0.22,0.32-0.22,0.52c0,0.42,0.34,0.76,0.76,0.76h153.46
		c0.42,0,0.76-0.34,0.76-0.76C255.758,451.969,255.418,451.628,254.998,451.628z"/>
	<path display="inline" fill="#8A6237" d="M306.158,124.918c-6.96,79.69-61.55,141.89-128.77,141.89
		c-67.21,0-120.95-62.09-127.9-141.8c-0.99,6.46-1.5,13.07-1.5,19.79c0,72.07,57.18,130.7,129.4,130.7
		c72.23,0,130.98-58.63,130.98-130.7C308.368,138.088,307.148,131.369,306.158,124.918z"/>
	<g display="inline">
		<g>
			<path fill="#D3EEFB" d="M188.498,276.648c3.76,0,6.82-3.06,6.82-6.81v-17.13c0-3.76-3.06-6.82-6.82-6.82
				c-3.77,0-6.83,3.06-6.83,6.82v17.13C181.668,273.588,184.728,276.648,188.498,276.648z"/>
			<path fill="#D3EEFB" d="M199.428,272.199c3.76,0,6.83-3.06,6.83-6.81v-12.68c0-3.76-3.07-6.82-6.83-6.82
				c-3.77,0-6.83,3.06-6.83,6.82v12.68C192.598,269.139,195.658,272.199,199.428,272.199z"/>
		</g>
		<path fill-rule="evenodd" clip-rule="evenodd" fill="#D3EEFB" d="M212.968,260.349l-4.86,1.39c0,0-1.86,0.27-1.8,2.06
			c0.07,1.79-2.06,3.85-2.06,3.85l-5.79,2.06l-2.2,1.73c0,0-0.93-0.2-1.33,0.8c-0.4,0.99-6.26,1.85-6.26,1.85l-4.99-2.19l-2-5.05
			c0,0,0-1.13-1.53-1.13c-1.53,0-1.93-1.59-1.93-1.59l28.56-4.85l5.59-1L212.968,260.349z"/>
	</g>
	<g display="inline">
		<g>
			<path fill="#D3EEFB" d="M166.258,277.039c-3.76,0-6.82-3.05-6.82-6.81v-17.14c0-3.75,3.06-6.81,6.82-6.81
				c3.77,0,6.83,3.06,6.83,6.81v17.14C173.088,273.989,170.028,277.039,166.258,277.039z"/>
			<path fill="#D3EEFB" d="M155.328,272.588c-3.76,0-6.82-3.06-6.82-6.81v-12.69c0-3.75,3.06-6.81,6.82-6.81
				c3.77,0,6.83,3.06,6.83,6.81v12.69C162.158,269.528,159.098,272.588,155.328,272.588z"/>
		</g>
		<path fill-rule="evenodd" clip-rule="evenodd" fill="#D3EEFB" d="M141.788,260.729l4.86,1.4c0,0,1.86,0.27,1.8,2.06
			c-0.07,1.79,2.06,3.85,2.06,3.85l5.79,2.06l2.2,1.73c0,0,0.93-0.2,1.33,0.79c0.4,1,6.26,1.86,6.26,1.86l4.99-2.19l2-5.05
			c0,0,0-1.12,1.53-1.12c1.53,0,1.93-1.6,1.93-1.6l-28.56-4.85l-5.59-1L141.788,260.729z"/>
	</g>
	<path display="inline" fill-rule="evenodd" clip-rule="evenodd" fill="#EFDCC7" d="M355.928,160.048
		c0-82.45-78.41-149.3-175.13-149.3c-96.72,0-175.13,66.85-175.13,149.3c0,82.47,78.41,149.32,175.13,149.32
		C277.518,309.369,355.928,242.519,355.928,160.048z M308.168,141.239c0,69.29-57.96,125.47-129.46,125.47
		s-129.47-56.18-129.47-125.47c0-69.3,57.97-125.48,129.47-125.48S308.168,71.938,308.168,141.239z"/>
	<path display="inline" fill-rule="evenodd" clip-rule="evenodd" fill="#8B6438" d="M255.938,451.708h-1.37
		c-1.25-0.04-3.38-0.09-6.55-0.14c-35.95-0.58-37.8-54.63-42.83-111.51c-5.03-56.88,29.28-77.27,29.28-77.27l-38.24,4.38l-0.37-0.72
		h-34.35v1.07l-38.13-4.37c0,0,33.94,20.03,28.91,76.91c-5.02,56.88-6.88,110.93-42.82,111.51c-2.75,0.04-4.72,0.09-6.01,0.14h-1.07
		c-0.12,0-0.22,0.03-0.32,0.07c-0.69,0.05-0.73,0.11-0.23,0.16c-0.13,0.14-0.21,0.32-0.21,0.53c0,0.41,0.34,0.75,0.76,0.75h153.55
		c0.42,0,0.76-0.34,0.76-0.75C256.698,452.048,256.358,451.708,255.938,451.708z"/>
	<path display="inline" fill="#8B6438" d="M307.128,124.679c-6.97,79.77-61.59,142.03-128.84,142.03
		c-67.26,0-121.03-62.16-127.98-141.94c-0.99,6.46-1.5,13.08-1.5,19.81c0,72.14,57.21,130.83,129.48,130.83
		c72.26,0,131.05-58.69,131.05-130.83C309.338,137.858,308.108,131.128,307.128,124.679z"/>
	<g display="inline">
		<g>
			<path fill="#EFDCC7" d="M189.398,276.559c3.76,0,6.83-3.06,6.83-6.82v-17.15c0-3.76-3.07-6.82-6.83-6.82
				c-3.77,0-6.83,3.06-6.83,6.82v17.15C182.568,273.499,185.628,276.559,189.398,276.559z"/>
			<path fill="#EFDCC7" d="M200.328,272.099c3.77,0,6.83-3.05,6.83-6.82v-12.69c0-3.76-3.06-6.82-6.83-6.82s-6.83,3.06-6.83,6.82
				v12.69C193.498,269.048,196.558,272.099,200.328,272.099z"/>
		</g>
		<path fill-rule="evenodd" clip-rule="evenodd" fill="#EFDCC7" d="M213.878,260.239l-4.86,1.39c0,0-1.86,0.27-1.8,2.06
			c0.07,1.8-2.06,3.86-2.06,3.86l-5.8,2.06l-2.19,1.73c0,0-0.94-0.2-1.34,0.8s-6.26,1.86-6.26,1.86l-4.99-2.19l-2-5.06
			c0,0,0-1.13-1.53-1.13c-1.54,0-1.93-1.59-1.93-1.59l28.57-4.86l5.59-1L213.878,260.239z"/>
	</g>
	<g display="inline">
		<g>
			<path fill="#EFDCC7" d="M167.148,276.949c-3.77,0-6.83-3.06-6.83-6.82v-17.15c0-3.76,3.06-6.82,6.83-6.82
				c3.76,0,6.83,3.06,6.83,6.82v17.15C173.978,273.889,170.908,276.949,167.148,276.949z"/>
			<path fill="#EFDCC7" d="M156.208,272.489c-3.76,0-6.83-3.06-6.83-6.81v-12.7c0-3.76,3.07-6.82,6.83-6.82
				c3.77,0,6.83,3.06,6.83,6.82v12.7C163.038,269.429,159.978,272.489,156.208,272.489z"/>
		</g>
		<path fill-rule="evenodd" clip-rule="evenodd" fill="#EFDCC7" d="M142.658,260.619l4.86,1.4c0,0,1.87,0.27,1.8,2.07
			c-0.06,1.79,2.07,3.85,2.07,3.85l5.79,2.06l2.2,1.73c0,0,0.93-0.2,1.33,0.8s6.26,1.86,6.26,1.86l5-2.2l2-5.05
			c0,0,0-1.12,1.53-1.12s1.93-1.6,1.93-1.6l-28.57-4.86l-5.6-1L142.658,260.619z"/>
	</g>
	<g display="inline">
		<path fill="#8B4523" d="M255.268,137.219c6.94,12.61,10.83,27,10.83,42.07c0,26.38-11.76,50.05-30.3,66.12
			c24.07-13.9,42.38-36.29,42.38-61.57C278.178,166.289,267.938,150.119,255.268,137.219z"/>
	</g>
	<g display="inline">
		<path fill="#8B4523" d="M90.658,179.289c0-15.05,3.79-29.29,10.56-41.79c-12.51,12.85-22.64,28.91-22.64,46.34
			c0,25.28,18.32,47.67,42.39,61.57C102.418,229.338,90.658,205.668,90.658,179.289z"/>
	</g>
	<g display="inline">
		<path fill="#8B4523" d="M137.408,165.949c0-8.83,7.19-16,16.03-16c8.86,0,16.03,7.17,16.03,16c0,8.84-7.17,16-16.03,16
			C144.598,181.949,137.408,174.789,137.408,165.949z"/>
	</g>
	<g display="inline">
		<path fill="#8B4523" d="M205.428,165.949c0-8.83,7.18-16,16.03-16c8.86,0,16.04,7.17,16.04,16c0,8.84-7.18,16-16.04,16
			C212.608,181.949,205.428,174.789,205.428,165.949z"/>
	</g>
	<g display="inline">
		<path fill="#8B4523" d="M186.458,270.739c0,1.72,1.39,3.11,3.12,3.11c1.72,0,3.12-1.39,3.12-3.11v-17.14
			c0-1.72-1.4-3.11-3.12-3.11c-1.73,0-3.12,1.39-3.12,3.11V270.739z"/>
	</g>
	<g display="inline">
		<path fill="#8B4523" d="M197.378,266.289c0,1.72,1.4,3.11,3.12,3.11c1.73,0,3.13-1.39,3.13-3.11v-12.69c0-1.72-1.4-3.11-3.13-3.11
			c-1.72,0-3.12,1.39-3.12,3.11V266.289z"/>
	</g>
	<g display="inline">
		<path fill="#8B4523" d="M170.318,270.739c0,1.72-1.4,3.11-3.12,3.11c-1.72,0-3.12-1.39-3.12-3.11v-17.14
			c0-1.72,1.4-3.11,3.12-3.11c1.72,0,3.12,1.39,3.12,3.11V270.739z"/>
	</g>
	<g display="inline">
		<path fill="#8B4523" d="M159.398,266.289c0,1.72-1.4,3.11-3.12,3.11c-1.73,0-3.13-1.39-3.13-3.11v-12.69
			c0-1.72,1.4-3.11,3.13-3.11c1.72,0,3.12,1.39,3.12,3.11V266.289z"/>
	</g>
	<path display="inline" fill="#D3C5B4" d="M297.048,445.258l-3.71,0.05l-3.71-0.05c0,0-0.42,1.17-0.54,5.91
		c-0.09,3.76,3.24,3.73,4.25,3.76c0.97,0,4.34,0,4.25-3.76C297.478,446.429,297.048,445.258,297.048,445.258z"/>
	<path display="inline" fill="#D3C5B4" d="M93.888,445.438l-5.42,0.06l-5.43-0.06c0,0-0.61,1.71-0.79,8.64
		c-0.14,5.49,4.74,5.45,6.22,5.49c1.42,0,6.34,0,6.21-5.49C94.518,447.148,93.888,445.438,93.888,445.438z"/>
	<g display="inline">
		<polyline fill="none" stroke="#856335" stroke-linecap="round" stroke-linejoin="round" stroke-miterlimit="10" points="
			67.478,71.139 65.668,69.739 65.668,55.269 		"/>
		<g>
			<polygon fill="#E6252F" points="24.218,19.168 14.638,11.099 28.368,12.219 			"/>
			<polyline fill="none" stroke="#856335" stroke-linecap="round" stroke-linejoin="round" stroke-miterlimit="10" points="
				57.618,72.548 65.668,69.739 57.218,68.128 			"/>
			<polyline fill="none" stroke="#856335" stroke-linecap="round" stroke-linejoin="round" stroke-miterlimit="10" points="
				53.798,69.829 51.988,68.429 51.988,53.958 			"/>
			<polyline fill="none" stroke="#856335" stroke-linecap="round" stroke-linejoin="round" stroke-miterlimit="10" points="
				43.938,71.239 51.988,68.429 43.538,66.818 			"/>
			<path fill-rule="evenodd" clip-rule="evenodd" fill="#C2272D" d="M38.598,19.199c-0.99-3.61,1.14-7.35,4.75-8.34
				s7.36,1.14,8.35,4.75c0.99,3.61-1.14,7.34-4.76,8.33C43.328,24.929,39.588,22.809,38.598,19.199z M23.358,33.479
				c1.96,7.14,6.68,12.78,12.7,16.12c3.59,2.75,15.71,8.23,25.43,6.81c13.04-1.9,20.54-3.23,35.03-11.99
				c14.5-8.76,17.74-21.06,17.74-21.06s-21.94,9.47-37.43-2.18c-0.98-1.3-1.83-2.2-1.91-2.46c-4.19-13.61-19.14-21.57-32.99-17.77
				C27.798,4.809,19.488,19.378,23.358,33.479z"/>
			<path fill="#231F20" d="M41.968,19.539c0-1.87,1.52-3.39,3.4-3.39s3.4,1.52,3.4,3.39c0,1.88-1.52,3.4-3.4,3.4
				S41.968,21.418,41.968,19.539z"/>
			<path fill="#FFC616" d="M78.728,26.969c1.43,1.54,4.52,7.62,23.13,9.47c4.46,0.44,6.18-0.96,9-4.8c1.15-1.56,2.43-3.4,3.9-6.19
				c4.09-7.75-16.39,1.71-30.32-2.19c-1.92-0.54-7.59-2.11-8.67-3.28c-0.23-0.26-0.53,0.5-0.37,0.91
				C75.878,22.128,77.648,25.809,78.728,26.969z"/>
		</g>
	</g>
	<g display="inline">
		<polygon fill="#E6252F" points="363.308,61.999 373.998,52.989 358.658,54.239 		"/>
		<polyline fill="none" stroke="#856335" stroke-linecap="round" stroke-linejoin="round" stroke-miterlimit="10" points="
			314.988,120.039 317.008,118.469 317.008,102.318 		"/>
		<polyline fill="none" stroke="#856335" stroke-linecap="round" stroke-linejoin="round" stroke-miterlimit="10" points="
			325.998,121.608 317.008,118.469 326.448,116.668 		"/>
		<polyline fill="none" stroke="#856335" stroke-linecap="round" stroke-linejoin="round" stroke-miterlimit="10" points="
			330.268,118.579 332.288,117.008 332.288,100.858 		"/>
		<polyline fill="none" stroke="#856335" stroke-linecap="round" stroke-linejoin="round" stroke-miterlimit="10" points="
			341.278,120.148 332.288,117.008 341.728,115.208 		"/>
		<path fill-rule="evenodd" clip-rule="evenodd" fill="#FFC616" d="M337.928,67.329c-4.04-1.11-6.42-5.27-5.32-9.3
			c1.11-4.04,5.29-6.41,9.32-5.3c4.05,1.1,6.42,5.27,5.31,9.31C346.128,66.068,341.958,68.438,337.928,67.329z M343.528,41.648
			c-15.47-4.24-32.17,4.65-36.85,19.84c-0.09,0.3-1.03,1.31-2.14,2.76c-17.29,13-41.79,2.43-41.79,2.43s3.62,13.73,19.81,23.51
			c16.18,9.79,24.55,11.27,39.12,13.4c10.86,1.58,24.39-4.54,28.4-7.61c6.71-3.72,11.98-10.02,14.18-18
			C368.578,62.229,359.298,45.969,343.528,41.648z"/>
		<path fill="#231F20" d="M343.468,62.418c0-2.09-1.7-3.78-3.79-3.78c-2.1,0-3.79,1.69-3.79,3.78s1.69,3.79,3.79,3.79
			C341.768,66.208,343.468,64.508,343.468,62.418z"/>
		<path fill="#C2272D" d="M302.428,70.708c-1.6,1.72-5.05,8.51-25.84,10.58c-4.98,0.49-6.89-1.07-10.04-5.36
			c-1.28-1.75-2.72-3.79-4.36-6.91c-4.57-8.65,18.31,1.9,33.85-2.45c2.15-0.6,8.49-2.35,9.69-3.67c0.27-0.28,0.6,0.56,0.42,1.02
			C305.608,65.309,303.628,69.418,302.428,70.708z"/>
	</g>
	<path display="inline" fill="#C2272D" d="M17.328,423.539c-7.05,0.98-14.08,2.29-16.4,1.21c-2.54-1.19,0.7-3.79,2.94-5.77
		c8.41-7.4,29.78-11.63,47.26-9.5c4.46,0.54,5.99,1.08,2.03,3.04C42.868,417.619,31.458,422.008,17.328,423.539z"/>
	<path display="inline" fill="#C2272D" d="M294.818,464.829c1.51,3.19-1.57,6.36-5.44,9.55c-1.85,1.52-4.03,2.06-7.41,1.23
		c-16.73-4.1-23.99-8.28-16.26-17.43c1.95-2.31,4.19-2.79,9.05-1.92C284.668,458.019,292.688,460.389,294.818,464.829z"/>
	<path display="inline" fill="#DD7F28" d="M38.448,434.829c1.13,2.38-1.17,4.73-4.05,7.1c-1.38,1.14-2.99,1.54-5.51,0.92
		c-12.45-3.05-17.85-6.16-12.1-12.97c1.45-1.71,3.12-2.07,6.74-1.43C30.898,429.758,36.868,431.528,38.448,434.829z"/>
	<path display="inline" fill="#D6AB64" d="M318.568,440.659c20.44-2.72,34.68-0.99,41.23,4.36c2.15,1.76,1.33,2.82-4.63,3.7
		c-19.2,2.82-35.32,2.48-47.69-2.38c-4.12-1.61-3.11-2.82,2.77-4.06C313.628,441.559,317.108,440.949,318.568,440.659z"/>
	<path display="inline" fill="#DD7F28" d="M296.858,429.188c15.14-4.08,26.06-4.18,31.53-0.79c1.8,1.12,1.28,2-3.12,3.25
		c-14.21,4.03-26.41,5.36-36.22,2.92c-3.27-0.81-2.63-1.82,1.69-3.35C293.208,430.349,295.778,429.548,296.858,429.188z"/>
	<path display="inline" fill="#D1A860" d="M238.678,466.568c0.02,0.85,0.34,2.41,0.02,4.01c-1.09,5.4-4.9,6.36-17.26,4.41
		c-13.1-2.06-18.44-9.42-11.61-15.37c1.68-1.47,3.39-1.76,6.44-1.43C227.048,459.389,236.498,461.128,238.678,466.568z"/>
	<path display="inline" fill="#DD7F28" d="M62.448,418.489c-0.01,0.62,0.19,1.76-0.08,2.94c-0.94,3.98-3.78,4.76-12.88,3.63
		c-9.65-1.21-13.44-6.47-8.24-10.99c1.28-1.11,2.55-1.37,4.8-1.19C53.998,413.499,60.958,414.559,62.448,418.489z"/>
	<path display="inline" fill="#D6AB64" d="M29.608,450.489l1.12-0.08c11.14-0.75,29.33,1.19,29.6,3.16
		c0.38,2.76-17.12,8.49-27.31,8.94c-11.22,0.5-28.56-2.01-29.05-4.21C3.498,456.099,19.198,451.318,29.608,450.489z"/>
	<path display="inline" fill="#632C13" d="M84.418,436.929c3.37,2.46-1.48,3.33-8.1,4.29c-16.29,2.38-27.98-0.35-28.69-6.73
		c-0.18-1.55,1.28-2.39,5.78-3.1C69.628,428.829,81.128,430.708,84.418,436.929z"/>
	<path display="inline" fill="#DD7F28" d="M96.358,420.338c3.91-0.4,7.83-1.13,11.69-0.77c8.23,0.77,12.14,3.01,13.58,6.06
		c0.69,1.45-2.05,2.18-5.32,2.94c-8.39,1.97-16.59,3.28-24.2,1.42c-1.85-0.45-3.37-1.1-4.7-1.76
		C79.788,424.409,82.198,422.318,96.358,420.338z"/>
	<path display="inline" fill="#D6AB64" d="M251.968,435.418c-7.73,1.08-21.45,0.04-22.5-1.72c-1.3-2.19,9.57-7.57,17.55-8.69
		c7.83-1.1,22.29,0.13,23.28,1.98C271.458,429.119,260.298,434.258,251.968,435.418z"/>
	<path display="inline" fill="#D6AB64" d="M118.678,422.398c-8.16-0.25-19.79-3.26-20.73-5.36c-1.17-2.61,9.87-6.92,17.38-6.21
		c7.26,0.68,16.97,0.82,19.42,4.64C137.148,419.208,128.158,422.699,118.678,422.398z"/>
	<path display="inline" fill="#DD7F28" d="M144.708,472.999c-6.83,0.66-14.01,1.72-14.79-2.04c-0.93-4.5,4.93-8.31,16.34-9.42
		c5.74-0.56,14.63-2.54,15.91,1.3C163.738,467.559,156.828,471.489,144.708,472.999z"/>
	<path display="inline" fill="#C2272D" d="M185.208,461.168c-6.83,0.66-14,1.72-14.78-2.04c-0.94-4.5,4.92-8.31,16.33-9.42
		c5.74-0.56,14.64-2.54,15.92,1.3C204.248,455.729,197.338,459.659,185.208,461.168z"/>
	<path display="inline" fill="#C2272D" d="M82.078,407.019c9.28-1.27,15.77,0.07,17.62,3.64c1.2,2.32-5.19,5.44-14.84,6.58
		c-9.63,1.13-12.08-1.57-14.05-4.1C68.198,409.769,74.528,408.229,82.078,407.019z"/>
	<g display="inline">
		<path fill="#E6252F" d="M104.778,442.849c0,4.3-6.9,2.84-15.79,2.84c-8.88,0-16.39,2.26-16.39-2.84c0-9.21,7.21-16.67,16.09-16.67
			C97.578,426.179,104.778,433.639,104.778,442.849z"/>
		<path fill="#FFFFFF" d="M80.718,438.979c0,1.15-0.94,2.09-2.09,2.09c-1.16,0-2.09-0.94-2.09-2.09c0-1.16,0.93-2.09,2.09-2.09
			C79.778,436.889,80.718,437.818,80.718,438.979z"/>
		<path fill="#FFFFFF" d="M86.598,440.329c0,0.72-0.58,1.3-1.3,1.3c-0.72,0-1.3-0.58-1.3-1.3c0-0.71,0.58-1.3,1.3-1.3
			C86.018,439.028,86.598,439.619,86.598,440.329z"/>
		<path fill="#FFFFFF" d="M95.188,440.438c0,1.09-0.88,1.98-1.97,1.98c-1.1,0-1.98-0.89-1.98-1.98s0.88-1.97,1.98-1.97
			C94.308,438.469,95.188,439.349,95.188,440.438z"/>
		<path fill="#FFFFFF" d="M101.748,440.949c0,0.81-0.65,1.47-1.47,1.47c-0.8,0-1.47-0.66-1.47-1.47c0-0.81,0.67-1.46,1.47-1.46
			C101.098,439.489,101.748,440.139,101.748,440.949z"/>
		<path fill="#FFFFFF" d="M100.178,435.079c0,1.31-1.07,2.38-2.38,2.38c-1.32,0-2.38-1.07-2.38-2.38s1.06-2.37,2.38-2.37
			C99.108,432.708,100.178,433.769,100.178,435.079z"/>
		<path fill="#FFFFFF" d="M93.388,430.458c0,0.68-0.56,1.23-1.25,1.23c-0.68,0-1.24-0.55-1.24-1.23c0-0.69,0.56-1.25,1.24-1.25
			C92.828,429.208,93.388,429.769,93.388,430.458z"/>
		<path fill="#FFFFFF" d="M83.548,431.639c0,0.78-0.63,1.41-1.41,1.41c-0.78,0-1.42-0.63-1.42-1.41c0-0.78,0.64-1.41,1.42-1.41
			c0.38,0,0.73,0.16,0.99,0.41C83.388,430.898,83.548,431.249,83.548,431.639z"/>
		<path fill="#FFFFFF" d="M88.858,435.028c0,1.02-0.83,1.86-1.86,1.86s-1.87-0.84-1.87-1.86c0-1.03,0.84-1.87,1.87-1.87
			S88.858,433.999,88.858,435.028z"/>
	</g>
	<path display="inline" fill="#E6252F" d="M304.498,443.489c0,2.95-4.72,1.94-10.8,1.94c-6.08,0-11.21,1.55-11.21-1.94
		c0-6.3,4.92-11.4,11-11.4C299.568,432.088,304.498,437.188,304.498,443.489z"/>
	<circle display="inline" fill="#FFFFFF" cx="286.608" cy="440.838" r="1.43"/>
	<path display="inline" fill="#FFFFFF" d="M292.058,441.769c0,0.49-0.4,0.89-0.89,0.89c-0.49,0-0.88-0.4-0.88-0.89
		c0-0.49,0.39-0.89,0.88-0.89C291.658,440.878,292.058,441.278,292.058,441.769z"/>
	<path display="inline" fill="#FFFFFF" d="M297.938,441.849c0,0.74-0.6,1.35-1.35,1.35s-1.36-0.61-1.36-1.35
		c0-0.75,0.61-1.35,1.36-1.35S297.938,441.099,297.938,441.849z"/>
	<path display="inline" fill="#FFFFFF" d="M302.428,442.188c0,0.56-0.45,1.01-1.01,1.01c-0.55,0-1-0.45-1-1.01c0-0.55,0.45-1,1-1
		C301.978,441.188,302.428,441.639,302.428,442.188z"/>
	<path display="inline" fill="#FFFFFF" d="M301.348,438.179c0,0.89-0.73,1.62-1.63,1.62c-0.9,0-1.62-0.73-1.62-1.62
		c0-0.9,0.72-1.63,1.62-1.63C300.618,436.548,301.348,437.278,301.348,438.179z"/>
	<path display="inline" fill="#FFFFFF" d="M296.708,435.008c0,0.47-0.38,0.85-0.85,0.85c-0.48,0-0.85-0.38-0.85-0.85
		c0-0.47,0.37-0.85,0.85-0.85C296.328,434.159,296.708,434.539,296.708,435.008z"/>
	<path display="inline" fill="#FFFFFF" d="M289.968,435.818c0,0.54-0.43,0.97-0.96,0.97c-0.54,0-0.97-0.43-0.97-0.97
		c0-0.53,0.43-0.96,0.97-0.96c0.26,0,0.5,0.11,0.68,0.28C289.858,435.318,289.968,435.559,289.968,435.818z"/>
	<path display="inline" fill="#FFFFFF" d="M293.608,438.139c0,0.7-0.57,1.27-1.28,1.27c-0.7,0-1.27-0.57-1.27-1.27
		c0-0.71,0.57-1.27,1.27-1.27C293.038,436.869,293.608,437.429,293.608,438.139z"/>
	<path display="inline" fill="#D3C5B4" d="M274.068,422.608l-9.59,0.12l-9.59-0.12c0,0-1.09,3.03-1.4,15.28
		c-0.25,9.72,8.38,9.64,10.99,9.71c2.52,0.01,11.22,0.01,10.99-9.71C275.178,425.639,274.068,422.608,274.068,422.608z"/>
	<path display="inline" fill="#E6252F" d="M293.338,419.938c0,7.62-12.22,5.02-27.94,5.02c-15.71,0-28.98,4-28.98-5.02
		c0-16.28,12.74-29.49,28.46-29.49C280.598,390.449,293.338,403.659,293.338,419.938z"/>
	<path display="inline" fill="#FFFFFF" d="M250.778,413.088c0,2.04-1.66,3.7-3.7,3.7c-2.05,0-3.7-1.66-3.7-3.7s1.65-3.69,3.7-3.69
		C249.118,409.398,250.778,411.048,250.778,413.088z"/>
	<path display="inline" fill="#FFFFFF" d="M261.178,415.489c0,1.27-1.03,2.29-2.31,2.29c-1.26,0-2.29-1.02-2.29-2.29
		c0-1.27,1.03-2.3,2.29-2.3C260.148,413.188,261.178,414.219,261.178,415.489z"/>
	<path display="inline" fill="#FFFFFF" d="M276.378,415.688c0,1.92-1.57,3.49-3.5,3.49c-1.93,0-3.5-1.57-3.5-3.49
		c0-1.93,1.57-3.5,3.5-3.5C274.808,412.188,276.378,413.758,276.378,415.688z"/>
	<path display="inline" fill="#FFFFFF" d="M287.978,416.588c0,1.43-1.16,2.59-2.6,2.59s-2.6-1.16-2.6-2.59c0-1.44,1.16-2.6,2.6-2.6
		S287.978,415.148,287.978,416.588z"/>
	<path display="inline" fill="#FFFFFF" d="M285.188,406.199c0,2.32-1.89,4.2-4.21,4.2s-4.2-1.88-4.2-4.2c0-2.31,1.88-4.19,4.2-4.19
		S285.188,403.889,285.188,406.199z"/>
	<path display="inline" fill="#FFFFFF" d="M273.178,398.019c0,1.21-0.98,2.19-2.2,2.19c-1.21,0-2.2-0.98-2.2-2.19
		c0-1.22,0.99-2.2,2.2-2.2C272.198,395.818,273.178,396.798,273.178,398.019z"/>
	<path display="inline" fill="#FFFFFF" d="M255.778,400.119c0,1.38-1.12,2.49-2.5,2.49c-1.38,0-2.5-1.11-2.5-2.49
		c0-1.39,1.12-2.5,2.5-2.5c0.68,0,1.3,0.28,1.76,0.73C255.498,398.798,255.778,399.418,255.778,400.119z"/>
	<path display="inline" fill="#FFFFFF" d="M265.178,406.099c0,1.82-1.47,3.3-3.3,3.3c-1.82,0-3.3-1.48-3.3-3.3
		c0-1.82,1.48-3.29,3.3-3.29C263.708,402.809,265.178,404.278,265.178,406.099z"/>
	<path display="inline" fill="#632C13" d="M244.008,445.199c8.72-1.2,17.45-0.89,21.36,1.29c3.55,1.99-4.95,8.35-9.65,8.95
		c-12.01,1.53-20.86,0.5-21.97-2.56C232.498,449.469,237.038,446.079,244.008,445.199z"/>
	<path display="inline" fill="#DD7F28" d="M353.578,465.929c0,3.44-9.25,6.22-20.65,6.22c-11.4,0-20.65-2.78-20.65-6.22
		s9.25-6.23,20.65-6.23C344.328,459.699,353.578,462.489,353.578,465.929z"/>
	<path display="inline" fill="#C2272D" d="M154.668,453.809c0,3.44-9.25,6.23-20.65,6.23s-20.65-2.79-20.65-6.23
		c0-3.43,9.25-6.22,20.65-6.22S154.668,450.378,154.668,453.809z"/>
	<g display="inline">
		<path fill="#632C13" d="M60.798,275.539c-2.57,7.64-4.06,7.97-9.76,2.17c-8.71-8.87-10.89-22.1-5.73-33.31
			c1.49-3.22,2.49-3.8,5.55-1.25C62.038,252.469,65.238,262.318,60.798,275.539z"/>
		<path fill="#C2272D" d="M29.468,266.128c-3.15-11.26,2.55-22.53,13.3-26.5c2.85-1.05,4.41-0.5,5.21,2.64
			c2.71,10.6,0.65,19.72-7.75,27.14C33.928,274.969,31.778,274.349,29.468,266.128z"/>
		<path fill="#DD7F28" d="M20.318,242.818c0.73-11,10.31-16.77,20.02-12.49c1.59,0.7,2.36,1.47,2.44,3.3
			c0.42,9.97-11.68,18.01-20.84,13.83C19.388,246.298,20.318,244.298,20.318,242.818z"/>
		<path fill="#D6AB64" d="M19.988,232.199c-0.85-0.37-1.8-0.61-2.54-1.14c-2.79-2-7.44-3.51-7.15-6.96c0.34-4.04,5.12-5.55,8.7-6.87
			c5.92-2.19,15.26,2.07,18.05,7.74c0.9,1.83,0.6,3.29-1.15,4.26C30.948,231.969,25.838,234.048,19.988,232.199z"/>
	</g>
	<g display="inline">
		<path fill="#632C13" d="M303.118,275.539c2.57,7.64,4.06,7.97,9.76,2.17c8.71-8.87,10.89-22.1,5.72-33.31
			c-1.48-3.22-2.48-3.8-5.55-1.25C301.878,252.469,298.678,262.318,303.118,275.539z"/>
		<path fill="#C2272D" d="M334.448,266.128c3.15-11.26-2.55-22.53-13.3-26.5c-2.86-1.05-4.41-0.5-5.21,2.64
			c-2.72,10.6-0.65,19.72,7.75,27.14C329.978,274.969,332.138,274.349,334.448,266.128z"/>
		<path fill="#DD7F28" d="M343.598,242.818c-0.73-11-10.31-16.77-20.02-12.49c-1.6,0.7-2.37,1.47-2.44,3.3
			c-0.43,9.97,11.68,18.01,20.84,13.83C344.528,246.298,343.598,244.298,343.598,242.818z"/>
		<path fill="#D6AB64" d="M343.928,232.199c0.85-0.37,1.8-0.61,2.54-1.14c2.79-2,7.44-3.51,7.15-6.96c-0.34-4.04-5.12-5.55-8.7-6.87
			c-5.93-2.19-15.26,2.07-18.05,7.74c-0.9,1.83-0.61,3.29,1.14,4.26C332.968,231.969,338.078,234.048,343.928,232.199z"/>
	</g>
	<path display="inline" fill="#632C13" d="M157.128,456.019c-11.69,0.73-21.54-7.18-23.19-18.5c-0.44-3.01,0.43-4.41,3.67-4.54
		c10.95-0.44,19.46,3.47,24.98,13.22C166.728,453.499,165.668,455.479,157.128,456.019z"/>
	<path display="inline" fill="#DD7F28" d="M211.638,455.929c-1.07-0.2-2.21-0.29-3.19-0.63c-3.71-1.28-9.38-1.97-9.98-4.73
		c-0.71-3.22,4.3-4.93,8.01-6.36c6.13-2.37,17.86,0,22.55,4.18c1.51,1.34,1.57,2.53-0.16,3.48
		C223.988,454.559,218.758,456.758,211.638,455.929z"/>
	<path display="inline" fill="#DD7F28" d="M84.348,466.769c-1.06-0.2-2.2-0.29-3.19-0.63c-3.7-1.28-9.38-1.97-9.98-4.73
		c-0.7-3.22,4.31-4.93,8.01-6.36c6.13-2.36,17.87,0,22.55,4.18c1.52,1.34,1.58,2.53-0.15,3.48
		C96.708,465.409,91.478,467.599,84.348,466.769z"/>
	<path display="inline" fill="#D1A860" d="M181.668,444.938c0.31-11.02,9.67-17.14,19.54-13.23c1.62,0.64,2.42,1.39,2.56,3.21
		c0.8,9.95-10.99,18.44-20.3,14.6C180.878,448.458,181.728,446.418,181.668,444.938z"/>
	<g display="inline">
		<path fill-rule="evenodd" clip-rule="evenodd" fill="#FAA21E" d="M213.108,189.949c-17.21,0-31.16-13.93-31.16-31.11
			c0-17.19,13.95-31.11,31.16-31.11c17.22,0,31.17,13.92,31.17,31.11C244.278,176.019,230.328,189.949,213.108,189.949z
			 M178.468,212.909c-4.92,0-8.91-14.65-8.91-19.56c0-4.92,3.99-8.89,8.91-8.89c4.92,0,8.9,3.97,8.9,8.89
			C187.368,198.258,183.388,212.909,178.468,212.909z M144.538,189.949c-17.21,0-31.17-13.93-31.17-31.11
			c0-17.19,13.96-31.11,31.17-31.11c17.22,0,31.17,13.92,31.17,31.11C175.708,176.019,161.758,189.949,144.538,189.949z
			 M200.558,98.679c-7.01-2.13-13.86,10.37-22.29,10.37c-8.36,0-16.73-12.68-24.51-10.29c-34.22,10.5-59.09,42.93-59.09,80.53
			c0,36.07,22.89,66.79,54.96,78.5v-4.19c0-3.66,2.98-6.63,6.65-6.63c1.87,0,3.62,0.78,4.9,2.21l0.55,0.61l0.56-0.61
			c1.28-1.43,3.03-2.21,4.91-2.21c3.67,0,6.65,2.97,6.65,6.63v9.13c1.5,0.08,3.01,0.12,4.53,0.12c1.53,0,3.05-0.04,4.55-0.12v-9.13
			c0-3.66,2.98-6.63,6.65-6.63c1.88,0,3.62,0.78,4.91,2.21l0.55,0.61l0.55-0.61c1.29-1.43,3.04-2.21,4.91-2.21
			c3.67,0,6.65,2.97,6.65,6.63v4.19c32.06-11.71,54.95-42.44,54.95-78.5C262.098,140.789,235.948,109.438,200.558,98.679z"/>
	</g>
</g>
<g id="Layer_2">
	<path fill-rule="evenodd" clip-rule="evenodd" fill="#8A6237" d="M101.028,451.878h154.21c0.79,0,1.43,0.64,1.43,1.42
		c0,0.79-0.64,1.43-1.43,1.43h-154.21c-0.79,0-1.43-0.64-1.43-1.43C99.598,452.519,100.238,451.878,101.028,451.878z"/>
	<g>
		<defs>
			<path id="SVGID_1_" d="M181.055,10.613c-96.682,0-175.057,66.942-175.057,149.512c0,82.578,78.375,149.514,175.057,149.514
				c96.687,0,175.063-66.936,175.063-149.514C356.118,77.555,277.741,10.613,181.055,10.613z M178.964,266.922
				c-71.471,0-129.411-56.251-129.411-125.643c0-69.387,57.94-125.642,129.411-125.642c71.472,0,129.411,56.255,129.411,125.642
				C308.375,210.671,250.436,266.922,178.964,266.922z"/>
		</defs>
		<clipPath id="SVGID_2_">
			<use xlink:href="#SVGID_1_"  overflow="visible"/>
		</clipPath>
		
			<linearGradient id="SVGID_3_" gradientUnits="userSpaceOnUse" x1="3846.8589" y1="4432.8657" x2="3847.8545" y2="4432.8657" gradientTransform="matrix(0 -300.384 -300.384 0 1331743.25 1155844.625)">
			<stop  offset="0" style="stop-color:#C1282D"/>
			<stop  offset="0.0685" style="stop-color:#C43F37"/>
			<stop  offset="0.1958" style="stop-color:#C86546"/>
			<stop  offset="0.3229" style="stop-color:#CC8252"/>
			<stop  offset="0.4481" style="stop-color:#CE975A"/>
			<stop  offset="0.5707" style="stop-color:#D0A45F"/>
			<stop  offset="0.6876" style="stop-color:#D0A861"/>
			<stop  offset="1" style="stop-color:#C1282D"/>
		</linearGradient>
		<rect x="5.998" y="10.613" clip-path="url(#SVGID_2_)" fill="url(#SVGID_3_)" width="350.121" height="299.025"/>
		<g clip-path="url(#SVGID_2_)">
			<rect x="5.998" y="10.613" fill="none" width="350.121" height="299.025"/>
		</g>
	</g>
	<g opacity="0.1">
		<g>
			<defs>
				<rect id="SVGID_4_" x="64.904" y="464.093" width="270.981" height="0.498"/>
			</defs>
			<clipPath id="SVGID_5_">
				<use xlink:href="#SVGID_4_"  overflow="visible"/>
			</clipPath>
			
				<line clip-path="url(#SVGID_5_)" fill="none" stroke="#EB008B" stroke-width="0.4977" stroke-miterlimit="10" x1="64.904" y1="464.341" x2="335.885" y2="464.341"/>
		</g>
	</g>
	<path fill-rule="evenodd" clip-rule="evenodd" fill="#8B6538" d="M256.163,452.176H254.8c-1.257-0.042-3.381-0.092-6.555-0.143
		c-35.927-0.583-37.778-54.702-42.805-111.658c-5.028-56.956,29.265-77.38,29.265-77.38l-38.224,4.387l-0.366-0.718h-34.34v1.073
		l-38.11-4.375c0,0,33.921,20.057,28.896,77.013c-5.024,56.956-6.876,111.075-42.807,111.658c-2.752,0.044-4.712,0.092-6.006,0.143
		h-1.069c-0.115,0-0.219,0.026-0.316,0.072c-0.695,0.053-0.736,0.106-0.229,0.159c-0.134,0.136-0.217,0.32-0.217,0.527
		c0,0.417,0.341,0.753,0.762,0.753h153.485c0.421,0,0.762-0.337,0.762-0.753C256.924,452.514,256.583,452.176,256.163,452.176"/>
	<path fill="#8B6538" d="M307.334,124.696c-6.962,79.879-61.567,142.226-128.79,142.226c-67.228,0-120.978-62.239-127.928-142.132
		c-0.989,6.471-1.5,13.097-1.5,19.838c0,72.235,57.19,131.004,129.427,131.004c72.234,0,131.003-58.769,131.003-131.004
		C309.546,137.896,308.316,131.16,307.334,124.696"/>
	<path fill="#EEDCC7" d="M189.652,276.785c3.764,0,6.824-3.062,6.824-6.827v-17.172c0-3.767-3.06-6.83-6.824-6.83
		c-3.766,0-6.829,3.062-6.829,6.83v17.172C182.823,273.723,185.886,276.785,189.652,276.785"/>
	<path fill="#EEDCC7" d="M200.581,272.326c3.764,0,6.829-3.063,6.829-6.832v-12.708c0-3.767-3.065-6.83-6.829-6.83
		c-3.768,0-6.828,3.062-6.828,6.83v12.708C193.752,269.263,196.812,272.326,200.581,272.326"/>
	<path fill-rule="evenodd" clip-rule="evenodd" fill="#EEDCC7" d="M214.126,260.445l-4.858,1.396c0,0-1.866,0.267-1.799,2.062
		c0.061,1.798-2.064,3.863-2.064,3.863l-5.794,2.064l-2.195,1.729c0,0-0.935-0.2-1.335,0.803c-0.396,0.999-6.254,1.86-6.254,1.86
		l-4.994-2.194l-1.999-5.065c0,0,0-1.129-1.531-1.129c-1.532,0-1.93-1.598-1.93-1.598l28.564-4.861l5.591-1L214.126,260.445z"/>
	<path fill="#EEDCC7" d="M167.409,277.175c-3.764,0-6.826-3.06-6.826-6.827v-17.173c0-3.764,3.062-6.828,6.826-6.828
		c3.765,0,6.83,3.064,6.83,6.828v17.173C174.239,274.116,171.174,277.175,167.409,277.175"/>
	<path fill="#EEDCC7" d="M156.479,272.716c-3.764,0-6.829-3.063-6.829-6.827v-12.713c0-3.763,3.064-6.829,6.829-6.829
		c3.767,0,6.829,3.066,6.829,6.829v12.713C163.309,269.653,160.247,272.716,156.479,272.716"/>
	<path fill-rule="evenodd" clip-rule="evenodd" fill="#EEDCC7" d="M142.933,260.831l4.86,1.4c0,0,1.866,0.268,1.798,2.065
		c-0.064,1.794,2.066,3.861,2.066,3.861l5.793,2.065l2.196,1.729c0,0,0.931-0.2,1.33,0.798c0.401,0.999,6.26,1.866,6.26,1.866
		l4.994-2.199l1.999-5.06c0,0,0-1.126,1.528-1.126c1.531,0,1.932-1.603,1.932-1.603l-28.563-4.862l-5.59-0.999L142.933,260.831z"/>
	<path fill="#8C4622" d="M255.495,137.258c6.935,12.628,10.829,27.033,10.829,42.126c0,26.413-11.754,50.124-30.293,66.208
		c24.064-13.911,42.364-36.337,42.364-61.646C278.395,166.362,268.166,150.18,255.495,137.258"/>
	<path fill="#F9A11F" d="M200.804,98.667c-7.004-2.131-13.854,10.388-22.28,10.388c-8.358,0-16.721-12.7-24.5-10.307
		c-34.202,10.512-59.062,42.986-59.066,80.636c0,36.121,22.883,66.888,54.941,78.611v-4.197c0-3.666,2.979-6.645,6.644-6.645
		c1.874,0,3.62,0.786,4.905,2.214l0.551,0.612l0.552-0.612c1.287-1.429,3.032-2.214,4.909-2.214c3.666,0,6.644,2.979,6.644,6.645
		v9.139c1.501,0.081,3.017,0.126,4.535,0.126c1.524,0,3.048-0.045,4.551-0.129v-9.136c0-3.666,2.978-6.645,6.643-6.645
		c1.875,0,3.617,0.786,4.905,2.214l0.554,0.612l0.552-0.612c1.285-1.429,3.032-2.214,4.908-2.214c3.664,0,6.642,2.979,6.642,6.645
		v4.196c32.048-11.729,54.932-42.496,54.932-78.61C262.325,140.835,236.183,109.439,200.804,98.667 M144.81,190.063
		c-17.203,0-31.155-13.948-31.155-31.156c0-17.21,13.952-31.156,31.155-31.156c17.21,0,31.16,13.946,31.16,31.156
		C175.97,176.115,162.021,190.063,144.81,190.063 M178.729,213.049c-4.917,0-8.903-14.672-8.903-19.585
		c0-4.921,3.987-8.903,8.903-8.903c4.916,0,8.9,3.982,8.9,8.903C187.628,198.377,183.645,213.049,178.729,213.049 M213.357,190.063
		c-17.207,0-31.155-13.948-31.155-31.156c0-17.21,13.948-31.156,31.155-31.156c17.209,0,31.155,13.946,31.155,31.156
		C244.513,176.115,230.567,190.063,213.357,190.063"/>
	<path fill="#8C4622" d="M90.95,179.384c0-15.065,3.796-29.326,10.561-41.848c-12.509,12.871-22.628,28.954-22.628,46.411
		c0,25.309,18.304,47.735,42.365,61.646C102.708,229.508,90.95,205.796,90.95,179.384"/>
	<path fill="#8C4622" d="M137.687,166.026c0-8.846,7.179-16.021,16.022-16.021c8.854,0,16.026,7.176,16.026,16.021
		c0,8.852-7.172,16.025-16.026,16.025C144.866,182.052,137.687,174.878,137.687,166.026"/>
	<path fill="#8C4622" d="M205.679,166.026c0-8.846,7.178-16.021,16.024-16.021c8.854,0,16.027,7.176,16.027,16.021
		c0,8.852-7.173,16.025-16.027,16.025C212.857,182.052,205.679,174.878,205.679,166.026"/>
	<path fill="#8C4622" d="M186.712,270.96c0,1.722,1.393,3.117,3.12,3.117c1.722,0,3.117-1.395,3.117-3.117v-17.162
		c0-1.721-1.396-3.121-3.117-3.121c-1.727,0-3.12,1.4-3.12,3.121V270.96z"/>
	<path fill="#8C4622" d="M197.633,266.502c0,1.725,1.396,3.119,3.117,3.119c1.728,0,3.124-1.394,3.124-3.119v-12.704
		c0-1.72-1.396-3.121-3.124-3.121c-1.72,0-3.117,1.401-3.117,3.121V266.502z"/>
	<path fill="#8C4622" d="M170.579,270.96c0,1.722-1.395,3.117-3.12,3.117c-1.721,0-3.116-1.395-3.116-3.117v-17.162
		c0-1.721,1.395-3.121,3.116-3.121c1.725,0,3.12,1.4,3.12,3.121V270.96z"/>
	<path fill="#8C4622" d="M159.66,266.502c0,1.725-1.395,3.119-3.118,3.119s-3.125-1.394-3.125-3.119v-12.704
		c0-1.72,1.402-3.121,3.125-3.121s3.118,1.401,3.118,3.121V266.502z"/>
	<path fill="#D2C4B3" d="M297.259,445.72l-3.707,0.045l-3.713-0.045c0,0-0.416,1.172-0.536,5.917
		c-0.095,3.764,3.239,3.733,4.249,3.763c0.972,0.001,4.337,0.001,4.245-3.763C297.688,446.892,297.259,445.72,297.259,445.72"/>
	<path fill="#D2C4B3" d="M94.184,445.894l-5.42,0.068l-5.425-0.068c0,0-0.611,1.715-0.788,8.655
		c-0.139,5.499,4.736,5.455,6.213,5.494c1.419,0.005,6.337,0.005,6.208-5.494C94.811,447.609,94.184,445.894,94.184,445.894"/>
	
		<polyline fill="none" stroke="#856436" stroke-width="0.9457" stroke-linecap="round" stroke-linejoin="round" stroke-miterlimit="10" points="
		67.466,71.458 65.653,70.049 65.653,55.566 	"/>
	<polygon fill="#E42630" points="24.213,19.418 14.638,11.335 28.368,12.453 	"/>
	
		<polyline fill="none" stroke="#856436" stroke-width="0.9457" stroke-linecap="round" stroke-linejoin="round" stroke-miterlimit="10" points="
		57.606,72.866 65.653,70.048 57.206,68.439 	"/>
	
		<polyline fill="none" stroke="#856436" stroke-width="0.9457" stroke-linecap="round" stroke-linejoin="round" stroke-miterlimit="10" points="
		53.786,70.146 51.976,68.741 51.976,54.254 	"/>
	
		<polyline fill="none" stroke="#856436" stroke-width="0.9457" stroke-linecap="round" stroke-linejoin="round" stroke-miterlimit="10" points="
		43.929,71.555 51.977,68.741 43.528,67.127 	"/>
	<path fill="#C1272D" d="M23.36,33.741c1.961,7.154,6.68,12.803,12.689,16.147c3.589,2.749,15.705,8.237,25.424,6.815
		c13.036-1.904,20.528-3.236,35.018-12.01c14.49-8.771,17.73-21.088,17.73-21.088s-21.93,9.485-37.411-2.176
		c-0.987-1.306-1.83-2.205-1.911-2.471C70.706,5.331,55.764-2.635,41.917,1.167C27.796,5.037,19.488,19.622,23.36,33.741
		 M38.592,19.444c-0.992-3.617,1.135-7.357,4.75-8.347c3.609-0.991,7.351,1.136,8.345,4.756c0.99,3.613-1.144,7.346-4.755,8.338
		C43.317,25.186,39.581,23.06,38.592,19.444"/>
	<path fill="#231F20" d="M41.964,19.789c0-1.872,1.521-3.395,3.396-3.395s3.396,1.522,3.396,3.395c0,1.879-1.521,3.397-3.396,3.397
		S41.964,21.667,41.964,19.789"/>
	<path fill="#FFC619" d="M78.704,27.224c1.435,1.544,4.52,7.629,23.126,9.482c4.457,0.443,6.171-0.957,8.993-4.806
		c1.147-1.562,2.429-3.401,3.902-6.196c4.085-7.758-16.39,1.707-30.307-2.197c-1.92-0.539-7.593-2.107-8.669-3.285
		c-0.236-0.258-0.532,0.499-0.375,0.915C75.854,22.378,77.628,26.064,78.704,27.224"/>
	<polygon fill="#E42630" points="363.737,62.031 374.428,53.006 359.096,54.256 	"/>
	
		<polyline fill="none" stroke="#856436" stroke-width="1.0562" stroke-linecap="round" stroke-linejoin="round" stroke-miterlimit="10" points="
		315.438,120.148 317.459,118.575 317.459,102.401 	"/>
	
		<polyline fill="none" stroke="#856436" stroke-width="1.0562" stroke-linecap="round" stroke-linejoin="round" stroke-miterlimit="10" points="
		326.446,121.719 317.458,118.575 326.895,116.775 	"/>
	
		<polyline fill="none" stroke="#856436" stroke-width="1.0562" stroke-linecap="round" stroke-linejoin="round" stroke-miterlimit="10" points="
		330.712,118.683 332.734,117.11 332.734,100.937 	"/>
	
		<polyline fill="none" stroke="#856436" stroke-width="1.0562" stroke-linecap="round" stroke-linejoin="round" stroke-miterlimit="10" points="
		341.721,120.258 332.734,117.111 342.167,115.313 	"/>
	<path fill="#FFC619" d="M343.968,41.648c-15.464-4.241-32.151,4.654-36.833,19.873c-0.092,0.295-1.034,1.302-2.134,2.76
		c-17.29,13.02-41.776,2.427-41.776,2.427s3.617,13.758,19.8,23.551c16.177,9.798,24.544,11.286,39.101,13.415
		c10.854,1.583,24.385-4.542,28.395-7.617c6.709-3.732,11.976-10.043,14.169-18.029C369.014,62.261,359.736,45.973,343.968,41.648
		 M338.368,67.363c-4.036-1.106-6.416-5.277-5.311-9.309c1.109-4.043,5.289-6.417,9.318-5.312c4.04,1.104,6.414,5.281,5.306,9.321
		C346.572,66.1,342.403,68.474,338.368,67.363"/>
	<path fill="#231F20" d="M343.915,62.446c0-2.089-1.701-3.788-3.792-3.788c-2.096,0-3.792,1.698-3.792,3.788
		c0,2.099,1.695,3.796,3.792,3.796C342.213,66.242,343.915,64.544,343.915,62.446"/>
	<path fill="#C1272D" d="M302.887,70.751c-1.6,1.721-5.049,8.518-25.827,10.59c-4.977,0.495-6.89-1.069-10.044-5.37
		c-1.277-1.744-2.713-3.796-4.356-6.919c-4.562-8.659,18.304,1.907,33.844-2.452c2.143-0.604,8.479-2.355,9.682-3.668
		c0.265-0.289,0.595,0.558,0.416,1.019C306.069,65.34,304.087,69.457,302.887,70.751"/>
	<path fill="#C1272D" d="M17.655,423.971c-7.051,0.982-14.077,2.293-16.395,1.208c-2.544-1.191,0.694-3.799,2.939-5.778
		c8.409-7.407,29.767-11.65,47.241-9.512c4.456,0.544,5.988,1.074,2.03,3.041C43.185,418.039,31.78,422.431,17.655,423.971"/>
	<path fill="#C1272D" d="M295.032,465.312c1.511,3.196-1.569,6.372-5.441,9.562c-1.852,1.524-4.022,2.067-7.401,1.238
		c-16.727-4.104-23.986-8.29-16.258-17.458c1.946-2.312,4.185-2.791,9.051-1.924C284.886,458.493,292.902,460.867,295.032,465.312"
		/>
	<path fill="#DC7F28" d="M38.765,435.273c1.125,2.378-1.167,4.74-4.049,7.113c-1.376,1.134-2.991,1.537-5.505,0.92
		c-12.443-3.054-17.844-6.167-12.096-12.989c1.449-1.719,3.115-2.076,6.735-1.43C31.217,430.2,37.18,431.966,38.765,435.273"/>
	<path fill="#D5AB65" d="M318.776,441.114c20.428-2.73,34.663-0.995,41.208,4.361c2.151,1.76,1.331,2.826-4.625,3.704
		c-19.194,2.829-35.309,2.481-47.676-2.376c-4.12-1.619-3.109-2.825,2.775-4.074C313.832,442.012,317.309,441.397,318.776,441.114"
		/>
	<path fill="#DC7F28" d="M297.065,429.622c15.142-4.082,26.053-4.18,31.522-0.786c1.797,1.116,1.284,2.001-3.123,3.252
		c-14.201,4.033-26.395,5.364-36.207,2.923c-3.268-0.813-2.625-1.825,1.691-3.349C293.425,430.789,295.986,429.98,297.065,429.622"
		/>
	<path fill="#D1A861" d="M238.916,467.052c0.016,0.853,0.342,2.42,0.019,4.024c-1.088,5.407-4.895,6.361-17.252,4.414
		c-13.099-2.064-18.439-9.431-11.612-15.396c1.681-1.468,3.396-1.764,6.438-1.424C227.287,459.871,236.734,461.609,238.916,467.052"
		/>
	<path fill="#DC7F28" d="M62.75,418.906c-0.009,0.623,0.196,1.764-0.08,2.945c-0.932,3.985-3.772,4.772-12.875,3.635
		c-9.646-1.205-13.429-6.475-8.235-11.001c1.278-1.114,2.554-1.371,4.798-1.194C54.31,413.918,61.262,414.972,62.75,418.906"/>
	<path fill="#D5AB65" d="M29.926,450.953c0.372-0.028,0.744-0.061,1.118-0.085c11.141-0.749,29.325,1.202,29.593,3.174
		c0.376,2.763-17.112,8.498-27.298,8.951c-11.223,0.501-28.556-2.021-29.036-4.225C3.823,456.576,19.525,451.786,29.926,450.953"/>
	<path fill="#632D15" d="M84.719,437.371c3.359,2.467-1.483,3.336-8.103,4.305c-16.279,2.383-27.967-0.356-28.679-6.743
		c-0.174-1.555,1.285-2.396,5.785-3.107C69.933,429.266,81.422,431.15,84.719,437.371"/>
	<path fill="#DC7F28" d="M96.653,420.76c3.907-0.393,7.824-1.131,11.679-0.769c8.229,0.775,12.135,3.009,13.577,6.068
		c0.687,1.455-2.051,2.182-5.314,2.948c-8.395,1.976-16.582,3.281-24.196,1.423c-1.848-0.451-3.367-1.104-4.697-1.77
		C80.09,424.841,82.495,422.746,96.653,420.76"/>
	<path fill="#D5AB65" d="M252.196,435.865c-7.724,1.084-21.44,0.034-22.485-1.72c-1.307-2.195,9.56-7.586,17.543-8.706
		c7.82-1.096,22.276,0.133,23.269,1.979C271.677,429.556,260.521,434.698,252.196,435.865"/>
	<path fill="#D5AB65" d="M118.957,422.827c-8.148-0.254-19.778-3.268-20.717-5.369c-1.168-2.613,9.864-6.926,17.374-6.223
		c7.257,0.682,16.965,0.823,19.414,4.647C137.423,419.628,128.44,423.123,118.957,422.827"/>
	<path fill="#DC7F28" d="M144.98,473.494c-6.827,0.661-14.003,1.72-14.783-2.04c-0.935-4.511,4.929-8.321,16.332-9.437
		c5.736-0.561,14.626-2.542,15.905,1.302C164.007,468.045,157.098,471.983,144.98,473.494"/>
	<path fill="#C1272D" d="M185.468,461.649c-6.828,0.661-14.003,1.72-14.783-2.041c-0.935-4.509,4.928-8.32,16.332-9.436
		c5.736-0.562,14.627-2.542,15.905,1.301C204.495,456.199,197.585,460.136,185.468,461.649"/>
	<path fill="#C1272D" d="M82.373,407.426c9.278-1.277,15.764,0.065,17.617,3.645c1.202,2.323-5.188,5.449-14.833,6.583
		c-9.63,1.132-12.078-1.568-14.045-4.103C68.498,410.183,74.825,408.64,82.373,407.426"/>
	<path fill="#E42630" d="M105.069,443.305c0,4.31-6.903,2.843-15.785,2.843c-8.882,0-16.38,2.259-16.38-2.843
		c0-9.22,7.2-16.696,16.083-16.696C97.869,426.609,105.069,434.084,105.069,443.305"/>
	<path fill="#FFFFFF" d="M81.018,439.423c0,1.156-0.937,2.094-2.091,2.094c-1.158,0-2.093-0.938-2.093-2.094
		c0-1.154,0.935-2.089,2.093-2.089C80.081,437.334,81.018,438.27,81.018,439.423"/>
	<path fill="#FFFFFF" d="M86.898,440.781c0,0.719-0.585,1.303-1.301,1.303c-0.719,0-1.299-0.583-1.299-1.303
		c0-0.715,0.58-1.298,1.299-1.298C86.312,439.482,86.898,440.065,86.898,440.781"/>
	<path fill="#FFFFFF" d="M95.483,440.896c0,1.09-0.883,1.979-1.975,1.979c-1.092,0-1.978-0.889-1.978-1.979
		c0-1.094,0.885-1.981,1.978-1.981C94.6,438.914,95.483,439.801,95.483,440.896"/>
	<path fill="#FFFFFF" d="M102.042,441.401c0,0.815-0.657,1.473-1.468,1.473c-0.811,0-1.47-0.658-1.47-1.473
		c0-0.81,0.66-1.467,1.47-1.467C101.385,439.935,102.042,440.592,102.042,441.401"/>
	<path fill="#FFFFFF" d="M100.464,435.527c0,1.31-1.067,2.377-2.377,2.377c-1.312,0-2.373-1.067-2.373-2.377
		c0-1.314,1.061-2.375,2.373-2.375C99.397,433.152,100.464,434.213,100.464,435.527"/>
	<path fill="#FFFFFF" d="M93.68,430.894c0,0.681-0.555,1.239-1.243,1.239c-0.687,0-1.245-0.558-1.245-1.239
		c0-0.688,0.558-1.246,1.245-1.246C93.125,429.648,93.68,430.206,93.68,430.894"/>
	<path fill="#FFFFFF" d="M83.845,432.079c0,0.78-0.632,1.412-1.413,1.412c-0.78,0-1.415-0.632-1.415-1.412
		c0-0.78,0.635-1.414,1.415-1.414c0.386,0,0.737,0.158,0.998,0.414C83.685,431.335,83.845,431.689,83.845,432.079"/>
	<path fill="#FFFFFF" d="M89.158,435.47c0,1.028-0.835,1.865-1.866,1.865c-1.031,0-1.865-0.837-1.865-1.865
		c0-1.03,0.834-1.866,1.865-1.866C88.323,433.604,89.158,434.439,89.158,435.47"/>
	<path fill="#E42630" d="M304.706,443.947c0,2.95-4.721,1.944-10.797,1.944c-6.076,0-11.206,1.545-11.206-1.944
		c0-6.307,4.926-11.42,11.003-11.42C299.784,432.526,304.706,437.64,304.706,443.947"/>
	<path fill="#FFFFFF" d="M288.254,441.292c0,0.792-0.639,1.434-1.431,1.434c-0.791,0-1.429-0.643-1.429-1.434
		c0-0.787,0.639-1.429,1.429-1.429C287.615,439.863,288.254,440.505,288.254,441.292"/>
	<path fill="#FFFFFF" d="M292.274,442.221c0,0.489-0.398,0.889-0.891,0.889c-0.491,0-0.885-0.399-0.885-0.889
		c0-0.493,0.394-0.889,0.885-0.889C291.876,441.332,292.274,441.729,292.274,442.221"/>
	<path fill="#FFFFFF" d="M298.149,442.298c0,0.747-0.604,1.354-1.353,1.354c-0.747,0-1.351-0.607-1.351-1.354
		c0-0.748,0.604-1.352,1.351-1.352C297.545,440.946,298.149,441.55,298.149,442.298"/>
	<path fill="#FFFFFF" d="M302.636,442.645c0,0.556-0.449,1.007-1.006,1.007c-0.554,0-1.005-0.451-1.005-1.007
		c0-0.556,0.451-1.004,1.005-1.004C302.188,441.641,302.636,442.089,302.636,442.645"/>
	<path fill="#FFFFFF" d="M301.554,438.624c0,0.898-0.727,1.627-1.624,1.627s-1.624-0.729-1.624-1.627
		c0-0.896,0.727-1.625,1.624-1.625S301.554,437.728,301.554,438.624"/>
	<path fill="#FFFFFF" d="M296.916,435.454c0,0.47-0.379,0.85-0.85,0.85c-0.472,0-0.849-0.38-0.849-0.85
		c0-0.468,0.377-0.851,0.849-0.851C296.536,434.604,296.916,434.986,296.916,435.454"/>
	<path fill="#FFFFFF" d="M290.187,436.269c0,0.533-0.432,0.966-0.962,0.966c-0.537,0-0.97-0.433-0.97-0.966s0.434-0.969,0.97-0.969
		c0.261,0,0.5,0.11,0.677,0.285C290.078,435.761,290.187,436,290.187,436.269"/>
	<path fill="#FFFFFF" d="M293.824,438.587c0,0.704-0.573,1.275-1.277,1.275c-0.706,0-1.279-0.571-1.279-1.275
		c0-0.707,0.573-1.276,1.279-1.276C293.251,437.311,293.824,437.88,293.824,438.587"/>
	<path fill="#D2C4B3" d="M274.293,423.033l-9.592,0.12l-9.587-0.12c0,0-1.086,3.036-1.393,15.305
		c-0.249,9.731,8.372,9.654,10.98,9.723c2.516,0.008,11.215,0.008,10.985-9.723C275.401,426.069,274.293,423.033,274.293,423.033"/>
	<path fill="#E42630" d="M293.549,420.365c0,7.627-12.211,5.028-27.923,5.028c-15.711,0-28.974,3.998-28.974-5.028
		c0-16.309,12.738-29.531,28.452-29.531C280.814,390.833,293.549,404.056,293.549,420.365"/>
	<path fill="#FFFFFF" d="M251.006,413.503c0,2.044-1.657,3.702-3.699,3.702c-2.045,0-3.699-1.658-3.699-3.702
		c0-2.04,1.653-3.697,3.699-3.697C249.349,409.806,251.006,411.463,251.006,413.503"/>
	<path fill="#FFFFFF" d="M261.406,415.903c0,1.271-1.033,2.299-2.306,2.299c-1.265,0-2.293-1.028-2.293-2.299
		c0-1.27,1.028-2.297,2.293-2.297C260.373,413.606,261.406,414.634,261.406,415.903"/>
	<path fill="#FFFFFF" d="M276.597,416.105c0,1.93-1.565,3.496-3.498,3.496c-1.931,0-3.499-1.566-3.499-3.496
		c0-1.934,1.568-3.499,3.499-3.499C275.032,412.606,276.597,414.171,276.597,416.105"/>
	<path fill="#FFFFFF" d="M288.195,417.003c0,1.438-1.165,2.597-2.6,2.597c-1.437,0-2.602-1.16-2.602-2.597
		c0-1.436,1.165-2.599,2.602-2.599C287.031,414.404,288.195,415.568,288.195,417.003"/>
	<path fill="#FFFFFF" d="M285.401,406.609c0,2.319-1.886,4.2-4.206,4.2c-2.318,0-4.196-1.881-4.196-4.2
		c0-2.32,1.878-4.201,4.196-4.201C283.516,402.408,285.401,404.289,285.401,406.609"/>
	<path fill="#FFFFFF" d="M273.402,398.41c0,1.212-0.985,2.199-2.199,2.199c-1.213,0-2.201-0.986-2.201-2.199
		c0-1.214,0.988-2.201,2.201-2.201C272.417,396.208,273.402,397.195,273.402,398.41"/>
	<path fill="#FFFFFF" d="M256.006,400.51c0,1.384-1.121,2.498-2.499,2.498s-2.501-1.114-2.501-2.498
		c0-1.382,1.124-2.501,2.501-2.501c0.682,0,1.303,0.282,1.76,0.734C255.724,399.194,256.006,399.819,256.006,400.51"/>
	<path fill="#FFFFFF" d="M265.403,406.506c0,1.823-1.476,3.301-3.302,3.301c-1.822,0-3.298-1.478-3.298-3.301
		c0-1.821,1.477-3.297,3.298-3.297C263.928,403.209,265.403,404.685,265.403,406.506"/>
	<path fill="#632D15" d="M244.241,445.659c8.713-1.208,17.44-0.897,21.351,1.293c3.546,1.988-4.948,8.359-9.644,8.958
		c-12.001,1.529-20.852,0.497-21.965-2.56C232.736,449.938,237.275,446.542,244.241,445.659"/>
	<path fill="#DC7F28" d="M353.767,466.412c0,3.443-9.241,6.235-20.641,6.235c-11.4,0-20.641-2.792-20.641-6.235
		c0-3.443,9.241-6.234,20.641-6.234C344.525,460.178,353.767,462.969,353.767,466.412"/>
	<path fill="#C1272D" d="M154.935,454.283c0,3.443-9.241,6.234-20.64,6.234c-11.4,0-20.641-2.791-20.641-6.234
		s9.241-6.234,20.641-6.234C145.693,448.048,154.935,450.839,154.935,454.283"/>
	<path fill="#632D15" d="M61.102,275.761c-2.567,7.652-4.056,7.984-9.753,2.177c-8.705-8.876-10.889-22.129-5.726-33.348
		c1.486-3.229,2.489-3.81,5.55-1.252C62.341,252.665,65.544,262.525,61.102,275.761"/>
	<path fill="#C1272D" d="M29.79,266.339c-3.153-11.268,2.544-22.552,13.289-26.527c2.856-1.058,4.41-0.503,5.212,2.637
		c2.711,10.614,0.649,19.749-7.748,27.182C34.25,275.2,32.095,274.576,29.79,266.339"/>
	<path fill="#DC7F28" d="M20.64,242.999c0.727-11.016,10.304-16.792,20.012-12.504c1.593,0.703,2.362,1.476,2.44,3.303
		c0.424,9.989-11.678,18.039-20.832,13.852C19.713,246.483,20.641,244.483,20.64,242.999"/>
	<path fill="#D5AB65" d="M20.313,232.367c-0.852-0.372-1.8-0.612-2.541-1.143c-2.792-2.002-7.437-3.511-7.148-6.969
		c0.337-4.046,5.116-5.558,8.693-6.881c5.924-2.194,15.257,2.075,18.044,7.754c0.9,1.833,0.605,3.295-1.145,4.263
		C31.262,232.131,26.155,234.221,20.313,232.367"/>
	<path fill="#632D15" d="M303.328,275.761c2.567,7.652,4.055,7.984,9.752,2.177c8.707-8.876,10.888-22.129,5.726-33.348
		c-1.486-3.229-2.488-3.81-5.55-1.252C302.088,252.665,298.886,262.525,303.328,275.761"/>
	<path fill="#C1272D" d="M334.64,266.339c3.152-11.268-2.544-22.552-13.288-26.527c-2.856-1.058-4.411-0.503-5.213,2.637
		c-2.71,10.614-0.649,19.749,7.749,27.182C330.181,275.2,332.334,274.576,334.64,266.339"/>
	<path fill="#DC7F28" d="M343.79,242.999c-0.726-11.016-10.303-16.792-20.012-12.504c-1.593,0.703-2.362,1.476-2.44,3.303
		c-0.424,9.989,11.677,18.039,20.83,13.852C344.717,246.483,343.789,244.483,343.79,242.999"/>
	<path fill="#D5AB65" d="M344.116,232.367c0.851-0.372,1.8-0.612,2.54-1.143c2.792-2.002,7.437-3.511,7.149-6.969
		c-0.338-4.046-5.116-5.558-8.692-6.881c-5.925-2.194-15.258,2.075-18.045,7.754c-0.9,1.833-0.605,3.295,1.146,4.263
		C333.168,232.131,338.274,234.221,344.116,232.367"/>
	<path fill="#632D15" d="M157.394,456.487c-11.678,0.736-21.529-7.185-23.18-18.522c-0.438-3.013,0.427-4.417,3.666-4.548
		c10.945-0.442,19.452,3.477,24.973,13.239C166.988,453.969,165.928,455.949,157.394,456.487"/>
	<path fill="#DC7F28" d="M211.879,456.4c-1.064-0.202-2.205-0.29-3.188-0.629c-3.702-1.28-9.374-1.971-9.975-4.733
		c-0.705-3.231,4.307-4.939,8.007-6.372c6.128-2.369,17.854-0.004,22.54,4.18c1.513,1.351,1.571,2.537-0.152,3.49
		C224.229,455.034,219.001,457.234,211.879,456.4"/>
	<path fill="#DC7F28" d="M84.646,467.256c-1.065-0.203-2.205-0.29-3.187-0.63c-3.703-1.279-9.374-1.971-9.976-4.733
		c-0.705-3.231,4.306-4.939,8.007-6.371c6.127-2.369,17.856-0.004,22.541,4.181c1.512,1.35,1.57,2.536-0.152,3.489
		C96.996,465.89,91.768,468.09,84.646,467.256"/>
	<path fill="#D1A861" d="M181.93,445.4c0.312-11.036,9.664-17.167,19.527-13.25c1.618,0.644,2.417,1.386,2.562,3.21
		c0.8,9.967-10.99,18.465-20.294,14.625C181.134,448.916,181.986,446.882,181.93,445.4"/>
</g>
</svg>
