<?xml version="1.0" encoding="UTF-8" standalone="no"?>
<svg width="82px" height="72px" viewBox="0 0 82 72" version="1.1" xmlns="http://www.w3.org/2000/svg" xmlns:xlink="http://www.w3.org/1999/xlink" xmlns:sketch="http://www.bohemiancoding.com/sketch/ns">
    <!-- Generator: Sketch 3.3.2 (12043) - http://www.bohemiancoding.com/sketch -->
    <title>babolygo-logo-fall</title>
    <desc>Created with Sketch.</desc>
    <defs></defs>
    <g id="babolygo-header-logo" stroke="none" stroke-width="1" fill="none" fill-rule="evenodd" sketch:type="MSPage">
        <g id="babolygo-logo-fall" sketch:type="MSArtboardGroup">
            <g id="babolygo-logoFall" sketch:type="MSLayerGroup" transform="translate(-1.000000, 0.000000)">
                <path d="M55.77,37.062 C48.7,37.062 42.971,31.352 42.971,24.292 C42.971,17.242 48.7,11.521 55.77,11.521 C62.84,11.521 68.57,17.242 68.57,24.292 C68.57,31.352 62.84,37.062 55.77,37.062 L55.77,37.062 Z M41.54,46.48 C39.52,46.48 37.88,40.471 37.88,38.461 C37.88,36.44 39.52,34.8 41.54,34.8 C43.561,34.8 45.2,36.44 45.2,38.461 C45.2,40.472 43.561,46.48 41.54,46.48 L41.54,46.48 Z M27.6,37.062 C20.52,37.062 14.79,31.352 14.79,24.292 C14.79,17.242 20.52,11.521 27.6,11.521 C34.67,11.521 40.4,17.242 40.4,24.292 C40.4,31.352 34.67,37.062 27.6,37.062 L27.6,37.062 Z M50.609,-0.398 C47.73,-1.278 44.92,3.861 41.45,3.861 C38.02,3.861 34.58,-1.349 31.38,-0.369 C17.33,3.941 7.11,17.251 7.11,32.682 C7.11,47.492 16.51,60.102 29.69,64.912 L29.69,63.191 C29.69,61.691 30.91,60.472 32.42,60.472 C33.19,60.472 33.91,60.791 34.44,61.371 L34.66,61.621 L34.89,61.371 C35.42,60.791 36.13,60.472 36.91,60.472 C38.41,60.472 39.64,61.691 39.64,63.191 L39.64,66.932 C40.25,66.972 40.88,66.981 41.5,66.981 C42.13,66.981 42.75,66.972 43.37,66.932 L43.37,63.191 C43.37,61.691 44.6,60.472 46.1,60.472 C46.87,60.472 47.59,60.791 48.12,61.371 L48.35,61.621 L48.57,61.371 C49.1,60.791 49.82,60.472 50.59,60.472 C52.1,60.472 53.32,61.691 53.32,63.191 L53.32,64.912 C66.49,60.102 75.891,47.492 75.891,32.682 C75.891,16.892 65.15,4.021 50.609,-0.398 L50.609,-0.398 Z" id="Fill-1" fill="#FCA300" sketch:type="MSShapeGroup"></path>
                <path d="M5.46,32.682 C5.46,26.512 7.02,20.662 9.8,15.532 C4.66,20.812 0.5,27.4 0.5,34.562 C0.5,44.932 8.02,54.121 17.91,59.821 C10.29,53.23 5.46,43.51 5.46,32.682" id="Fill-2" fill="#8C451D" sketch:type="MSShapeGroup"></path>
                <path d="M73.09,15.42 C75.939,20.59 77.54,26.501 77.54,32.681 C77.54,43.51 72.71,53.23 65.09,59.82 C74.98,54.121 82.5,44.931 82.5,34.561 C82.5,27.352 78.3,20.71 73.09,15.42" id="Fill-3" fill="#8C451D" sketch:type="MSShapeGroup"></path>
                <path d="M24.67,27.21 C24.67,23.581 27.62,20.641 31.25,20.641 C34.89,20.641 37.84,23.581 37.84,27.21 C37.84,30.84 34.89,33.781 31.25,33.781 C27.62,33.781 24.67,30.84 24.67,27.21" id="Fill-4" fill="#8C451D" sketch:type="MSShapeGroup"></path>
                <path d="M59.2,20.641 C62.84,20.641 65.79,23.582 65.79,27.21 C65.79,30.839 62.84,33.781 59.2,33.781 C55.561,33.781 52.609,30.839 52.609,27.21 C52.609,23.582 55.561,20.641 59.2,20.641" id="Fill-5" fill="#8C451D" sketch:type="MSShapeGroup"></path>
                <path d="M44.82,70.222 C44.82,70.932 45.391,71.502 46.1,71.502 C46.811,71.502 47.38,70.932 47.38,70.222 L47.38,63.191 C47.38,62.481 46.811,61.912 46.1,61.912 C45.391,61.912 44.82,62.481 44.82,63.191 L44.82,70.222" id="Fill-6" fill="#8D4516" sketch:type="MSShapeGroup"></path>
                <path d="M49.311,68.392 C49.311,69.102 49.88,69.672 50.59,69.672 C51.3,69.672 51.87,69.102 51.87,68.392 L51.87,63.191 C51.87,62.481 51.3,61.912 50.59,61.912 C49.88,61.912 49.311,62.481 49.311,63.191 L49.311,68.392" id="Fill-7" fill="#8D4516" sketch:type="MSShapeGroup"></path>
                <path d="M38.19,70.222 C38.19,70.932 37.61,71.502 36.91,71.502 C36.2,71.502 35.62,70.932 35.62,70.222 L35.62,63.191 C35.62,62.481 36.2,61.912 36.91,61.912 C37.61,61.912 38.19,62.481 38.19,63.191 L38.19,70.222" id="Fill-8" fill="#8D4516" sketch:type="MSShapeGroup"></path>
                <path d="M33.7,68.392 C33.7,69.102 33.13,69.672 32.42,69.672 C31.71,69.672 31.13,69.102 31.13,68.392 L31.13,63.191 C31.13,62.481 31.71,61.912 32.42,61.912 C33.13,61.912 33.7,62.481 33.7,63.191 L33.7,68.392" id="Fill-9" fill="#8D4516" sketch:type="MSShapeGroup"></path>
                <path d="M16.739,70.01 C16.278,70.01 15.863,69.688 15.762,69.219 C15.647,68.679 15.991,68.147 16.531,68.032 C19.421,67.414 23.222,66.84 27.829,66.326 C28.375,66.271 28.873,66.66 28.934,67.21 C28.995,67.759 28.6,68.253 28.051,68.314 C23.509,68.82 19.774,69.384 16.949,69.987 C16.879,70.003 16.809,70.01 16.739,70.01" id="Fill-10" fill="#FCA300" sketch:type="MSShapeGroup"></path>
                <path d="M64.94,70.002 C64.872,70.002 64.803,69.995 64.732,69.98 C61.594,69.317 58.38,68.787 55.181,68.405 C54.633,68.34 54.241,67.842 54.307,67.293 C54.372,66.746 54.856,66.357 55.419,66.419 C58.676,66.809 61.949,67.349 65.146,68.023 C65.687,68.138 66.032,68.668 65.918,69.209 C65.818,69.68 65.403,70.002 64.94,70.002" id="Fill-11" fill="#FCA300" sketch:type="MSShapeGroup"></path>
            </g>
        </g>
    </g>
</svg>