<?xml version="1.0" encoding="utf-8"?>
<!-- Generator: Adobe Illustrator 18.0.0, SVG Export Plug-In . SVG Version: 6.00 Build 0)  -->
<!DOCTYPE svg PUBLIC "-//W3C//DTD SVG 1.1//EN" "http://www.w3.org/Graphics/SVG/1.1/DTD/svg11.dtd">
<svg version="1.1" id="Layer_1" xmlns="http://www.w3.org/2000/svg" xmlns:xlink="http://www.w3.org/1999/xlink" x="0px" y="0px"
	 viewBox="0.1 228.4 841.9 137.2" enable-background="new 0.1 228.4 841.9 137.2" xml:space="preserve">
<g>
	
		<polyline fill="none" stroke="#846234" stroke-width="2" stroke-linecap="round" stroke-linejoin="round" stroke-miterlimit="10" points="
		752.5,360.7 749.1,358 749.1,331.1 	"/>
	<g>
		<polygon fill="#E6232E" points="671.7,264.1 653.7,249 679.5,251 		"/>
		
			<polyline fill="none" stroke="#846234" stroke-width="2" stroke-linecap="round" stroke-linejoin="round" stroke-miterlimit="10" points="
			734,363.3 749.1,358 733.4,355.1 		"/>
		
			<polyline fill="none" stroke="#846234" stroke-width="2" stroke-linecap="round" stroke-linejoin="round" stroke-miterlimit="10" points="
			726.9,358.2 723.6,355.8 723.6,328.7 		"/>
		
			<polyline fill="none" stroke="#846234" stroke-width="2" stroke-linecap="round" stroke-linejoin="round" stroke-miterlimit="10" points="
			708.5,360.9 723.6,355.8 707.6,352.7 		"/>
		<path fill="#6F4F48" d="M698.5,264.1c-1.8-6.7,2.2-13.8,8.9-15.5c6.7-1.8,13.8,2.2,15.5,8.9c1.8,6.7-2.2,13.5-8.9,15.5
			C707.4,274.8,700.3,270.8,698.5,264.1z M669.9,290.8c3.6,13.3,12.4,23.7,23.7,30c6.7,5.1,29.3,15.3,47.5,12.6
			c24.4-3.6,38.4-6,65.5-22.2c27.1-16.2,33.1-39.1,33.1-39.1s-40.8,17.3-69.7-4.2c-1.8-2.4-3.3-4-3.6-4.7
			c-7.8-25.3-35.7-40.2-61.7-33.1C678.3,237.3,662.8,264.4,669.9,290.8z"/>
		<ellipse fill="#221E1F" cx="711.2" cy="264.8" rx="6.4" ry="6.2"/>
		<path fill="#CC9040" d="M773.5,278.6c2.7,2.9,8.4,14.2,43.3,17.5c8.4,0.9,11.5-1.8,16.9-8.9c2.2-2.9,4.7-6.4,7.3-11.5
			c7.8-14.4-30.6,3.1-56.6-4c-3.6-0.9-14.2-4-16.2-6.2c-0.4-0.4-0.9,0.9-0.7,1.8C768.2,269.7,771.5,276.3,773.5,278.6z"/>
	</g>
</g>
<g>
	<polygon fill="#E6232E" points="170.6,265 188.6,249.9 162.9,252.2 	"/>
	
		<polyline fill="none" stroke="#846234" stroke-width="2" stroke-linecap="round" stroke-linejoin="round" stroke-miterlimit="10" points="
		89.6,362 93,359.3 93,332.5 	"/>
	
		<polyline fill="none" stroke="#846234" stroke-width="2" stroke-linecap="round" stroke-linejoin="round" stroke-miterlimit="10" points="
		108.1,364.7 93,359.3 108.7,356.4 	"/>
	
		<polyline fill="none" stroke="#846234" stroke-width="2" stroke-linecap="round" stroke-linejoin="round" stroke-miterlimit="10" points="
		115.2,359.6 118.7,356.9 118.7,330 	"/>
	
		<polyline fill="none" stroke="#846234" stroke-width="2" stroke-linecap="round" stroke-linejoin="round" stroke-miterlimit="10" points="
		133.8,362.2 118.7,356.9 134.5,354 	"/>
	<path fill="#CC9040" d="M128,273.9c-6.7-1.8-10.7-8.9-8.9-15.5c1.8-6.7,8.9-10.7,15.5-8.9c6.9,1.8,10.7,8.9,8.9,15.5
		C141.8,271.9,134.9,275.9,128,273.9z M137.6,231.1c-26-7.1-54.1,7.8-61.9,33.1c-0.2,0.4-1.8,2.2-3.6,4.7c-29.1,21.7-70.1,4-70.1,4
		s6,22.9,33.3,39.3c27.1,16.4,41.3,18.9,65.7,22.4c18.2,2.7,40.8-7.5,47.7-12.6c11.3-6.2,20.2-16.6,23.7-30.2
		C179.5,265.5,164,238.4,137.6,231.1z"/>
	<path fill="#221E1F" d="M137.4,265.7c0-3.6-2.9-6.2-6.4-6.2c-3.6,0-6.4,2.9-6.4,6.2c0,3.6,2.9,6.4,6.4,6.4
		C134.5,272.1,137.4,269.2,137.4,265.7z"/>
	<path fill="#6F4F48" d="M68.6,279.7c-2.7,2.9-8.4,14.2-43.3,17.8c-8.4,0.9-11.5-1.8-16.9-8.9c-2.2-2.9-4.4-6.4-7.3-11.5
		c-7.8-14.6,30.6,2.9,56.6-4.2c3.6-1.1,14.2-4,16.2-6.2c0.4-0.4,1.1,0.9,0.7,1.8C73.9,270.6,70.6,277.4,68.6,279.7z"/>
</g>
</svg>
