<?xml version="1.0" encoding="utf-8"?>
<!-- Generator: Adobe Illustrator 18.0.0, SVG Export Plug-In . SVG Version: 6.00 Build 0)  -->
<!DOCTYPE svg PUBLIC "-//W3C//DTD SVG 1.1//EN" "http://www.w3.org/Graphics/SVG/1.1/DTD/svg11.dtd">
<svg version="1.1" id="Layer_1" xmlns="http://www.w3.org/2000/svg" xmlns:xlink="http://www.w3.org/1999/xlink" x="0px" y="0px"
	 viewBox="0 0 207 45" enable-background="new 0 0 207 45" xml:space="preserve">
<g>
	<path fill="#C42427" d="M80,22.5C80,10.1,90.1,0,102.5,0S125,10.1,125,22.5S114.9,45,102.5,45S80,34.9,80,22.5z"/>
	<g>
		<path fill="#F3DDC6" d="M98.1,36.7c-3.4,0-5.9-2-5.9-4.5c0-2.4,3.1-4.4,6.5-4.4c0.8,0,1.5,0.1,2.2,0.3c1.8,1.2,3.2,1.9,3.6,3.3
			c0.1,0.3,0.1,0.6,0.1,0.9C104.6,34.8,102.9,36.7,98.1,36.7z M99,22.3c-2.3-0.1-4.5-2.4-4.9-5.2c-0.4-2.8,1.1-5,3.4-4.9
			c2.3,0.1,4.5,2.3,4.9,5.2C102.8,20.2,101.3,22.4,99,22.3z M103.7,26.5c-0.8-0.5-2.3-1.8-2.3-2.6c0-0.9,0.3-1.3,1.7-2.4
			c1.5-1.1,2.5-2.6,2.5-4.4c0-2.1-1-4.1-2.9-4.8h2.8l2-1.4h-8.9c-4,0-7.8,2.8-7.8,6.1c0,3.4,2.7,6.1,6.8,6.1c0.3,0,0.6,0,0.8,0
			c-0.3,0.5-0.5,1-0.5,1.6c0,0.9,0.5,1.7,1.2,2.3l-1.5,0c-4.9,0-8.7,3-8.7,6c0,3,4.2,4.9,9.1,4.9c5.6,0,8.7-3,8.7-6
			C106.8,29.5,106.1,28.1,103.7,26.5z"/>
	</g>
	<g>
		<rect x="113" y="11" fill="#F3DDC6" width="1" height="9"/>
		<rect x="109" y="15" fill="#F3DDC6" width="9" height="1"/>
	</g>
</g>
<path fill="#C62120" d="M162,22.5C162,10.1,172.1,0,184.5,0S207,10.1,207,22.5S196.9,45,184.5,45S162,34.9,162,22.5z"/>
<g>
	<path fill="#C42427" d="M0,22.5C0,10.1,10.1,0,22.5,0S45,10.1,45,22.5S34.9,45,22.5,45S0,34.9,0,22.5z"/>
	<g>
		<path fill="#F3DDC6" d="M28.4,45h-6.5V29h-3.3v-5.5h3.3v-3.3c0-4.5,1.9-7.2,7.1-7.2h4.4v5.5h-2.7c-2,0-2.2,0.8-2.2,2.2l0,2.8h5
			L32.7,29h-4.4V45z"/>
	</g>
</g>
<g>
	<polygon fill="#F3DDC6" points="174.6,6.6 176.8,6.6 178.1,12.2 178.3,12.2 179.6,6.6 181.8,6.6 179.3,14.7 179.3,20.5 177.1,20.5 
		177.1,15 	"/>
	<path fill="#F3DDC6" d="M181.7,12.6c0-0.8,0.3-1.4,0.8-1.9c0.5-0.5,1.2-0.7,2.1-0.7c0.8,0,1.4,0.2,1.9,0.7c0.5,0.5,0.8,1.1,0.8,1.9
		v5.3c0,0.9-0.2,1.6-0.7,2.1c-0.5,0.5-1.2,0.7-2,0.7c-0.8,0-1.5-0.3-2-0.8c-0.5-0.5-0.7-1.2-0.7-2.1V12.6z M183.6,18.1
		c0,0.3,0.1,0.5,0.2,0.7c0.1,0.2,0.3,0.2,0.6,0.2c0.3,0,0.5-0.1,0.6-0.2c0.2-0.2,0.2-0.4,0.2-0.6v-5.6c0-0.2-0.1-0.4-0.2-0.5
		c-0.2-0.1-0.4-0.2-0.6-0.2c-0.2,0-0.4,0.1-0.6,0.2c-0.1,0.1-0.2,0.3-0.2,0.5V18.1z"/>
	<path fill="#F3DDC6" d="M194.2,10.3v10.2h-1.9v-1.1c-0.3,0.4-0.7,0.7-1.1,0.9c-0.4,0.2-0.7,0.3-1.1,0.3c-0.4,0-0.8-0.2-1-0.5
		c-0.2-0.3-0.3-0.8-0.3-1.4v-8.5h1.9v7.8c0,0.2,0,0.4,0.1,0.5c0.1,0.1,0.2,0.2,0.4,0.2c0.1,0,0.3-0.1,0.5-0.2
		c0.2-0.1,0.4-0.3,0.6-0.5v-7.7H194.2z"/>
</g>
<g>
	<path fill="#F3DDC6" d="M192.3,28.6c-0.2,0-0.4,0.1-0.5,0.2c-0.1,0.1-0.1,0.4-0.1,0.7v0.8h1.3v-0.8c0-0.3,0-0.6-0.1-0.7
		C192.7,28.7,192.6,28.6,192.3,28.6z"/>
	<path fill="#F3DDC6" d="M187.1,28.6c-0.1,0-0.2,0-0.3,0.1c-0.1,0.1-0.2,0.1-0.3,0.2v4.8c0.1,0.1,0.2,0.2,0.3,0.3
		c0.1,0.1,0.2,0.1,0.3,0.1c0.2,0,0.3-0.1,0.4-0.2c0.1-0.1,0.1-0.3,0.1-0.5v-4c0-0.3-0.1-0.5-0.2-0.6
		C187.4,28.6,187.3,28.6,187.1,28.6z"/>
	<path fill="#F3DDC6" d="M196.2,25.8c0-1.9-1.5-3.4-3.4-3.4c-2.7-0.1-5.5-0.2-8.3-0.2c-2.8,0-5.6,0-8.3,0.2c-1.9,0-3.4,1.5-3.4,3.4
		c-0.1,1.5-0.2,3-0.2,4.4c0,1.5,0,3,0.2,4.4c0,1.9,1.5,3.4,3.4,3.4c2.7,0.1,5.5,0.2,8.3,0.2c2.8,0,5.6,0,8.3-0.2
		c1.9,0,3.4-1.5,3.4-3.4c0.1-1.5,0.2-3,0.2-4.4C196.3,28.7,196.3,27.2,196.2,25.8z M177.8,35.2h-1.6v-9h-1.7v-1.5h5v1.5h-1.7V35.2z
		 M183.6,35.2h-1.4v-0.9c-0.3,0.3-0.5,0.6-0.8,0.7c-0.3,0.2-0.6,0.2-0.8,0.2c-0.3,0-0.6-0.1-0.8-0.3c-0.2-0.2-0.3-0.6-0.3-1v-6.5
		h1.4v5.9c0,0.2,0,0.3,0.1,0.4c0.1,0.1,0.2,0.1,0.3,0.1c0.1,0,0.2-0.1,0.4-0.2c0.2-0.1,0.3-0.2,0.4-0.4v-5.9h1.4V35.2z M189.1,33.6
		c0,0.5-0.1,1-0.3,1.3c-0.2,0.3-0.6,0.4-1,0.4c-0.3,0-0.5-0.1-0.8-0.2c-0.2-0.1-0.4-0.3-0.6-0.5v0.6H185V24.7h1.5v3.4
		c0.2-0.2,0.4-0.4,0.6-0.5c0.2-0.1,0.4-0.2,0.7-0.2c0.5,0,0.8,0.2,1,0.5c0.2,0.3,0.4,0.8,0.4,1.4V33.6z M194.4,31.5h-2.7V33
		c0,0.4,0,0.7,0.1,0.8c0.1,0.2,0.3,0.2,0.5,0.2c0.2,0,0.4-0.1,0.5-0.2c0.1-0.1,0.1-0.4,0.1-0.9v-0.5h1.5V33c0,0.8-0.2,1.4-0.5,1.8
		c-0.4,0.4-0.9,0.6-1.6,0.6c-0.6,0-1.1-0.2-1.5-0.6c-0.4-0.4-0.6-1-0.6-1.8v-3.5c0-0.7,0.2-1.2,0.6-1.6c0.4-0.4,0.9-0.6,1.6-0.6
		c0.7,0,1.2,0.2,1.5,0.6c0.4,0.4,0.5,1,0.5,1.7V31.5z"/>
</g>
</svg>
