<?xml version="1.0" encoding="utf-8"?>
<!-- Generator: Adobe Illustrator 18.0.0, SVG Export Plug-In . SVG Version: 6.00 Build 0)  -->
<!DOCTYPE svg PUBLIC "-//W3C//DTD SVG 1.1//EN" "http://www.w3.org/Graphics/SVG/1.1/DTD/svg11.dtd">
<svg version="1.1" id="Layer_1" xmlns="http://www.w3.org/2000/svg" xmlns:xlink="http://www.w3.org/1999/xlink" x="0px" y="0px"
	 viewBox="0 0 183 183" enable-background="new 0 0 183 183" xml:space="preserve">
<path fill="#C62327" d="M0,91.5C0,41.1,41.1,0,91.5,0S183,41.1,183,91.5S141.9,183,91.5,183S0,141.9,0,91.5z"/>
<g>
	<polygon fill="#F3DEC6" points="51.2,26.8 60.2,26.8 65.5,49.6 66.3,49.6 71.6,26.8 80.5,26.8 70.4,59.8 70.4,83.4 61.4,83.4 
		61.4,61 	"/>
	<path fill="#F3DEC6" d="M80.1,51.2c0-3.3,1.2-5.7,3.3-7.7s4.9-2.8,8.5-2.8c3.3,0,5.7,0.8,7.7,2.8c2,2,3.3,4.5,3.3,7.7v21.6
		c0,3.7-0.8,6.5-2.8,8.5c-2,2-4.9,2.8-8.1,2.8s-6.1-1.2-8.1-3.3c-2-2-3.7-4.9-3.7-8.5L80.1,51.2L80.1,51.2z M87.8,73.6
		c0,1.2,0.4,2,0.8,2.8c0.4,0.8,1.2,0.8,2.4,0.8c1.2,0,2-0.4,2.4-0.8c0.8-0.8,0.8-1.6,0.8-2.4V51.2c0-0.8-0.4-1.6-0.8-2
		c-0.8-0.4-1.6-0.8-2.4-0.8c-0.8,0-1.6,0.4-2.4,0.8c-0.4,0.4-0.8,1.2-0.8,2V73.6z"/>
	<path fill="#F3DEC6" d="M131,41.9v41.5h-7.7v-4.5c-1.2,1.6-2.8,2.8-4.5,3.7c-1.6,0.8-2.8,1.2-4.5,1.2c-1.6,0-3.3-0.8-4.1-2
		s-1.2-3.3-1.2-5.7V41.5h7.7v31.7c0,0.8,0,1.6,0.4,2c0.4,0.4,0.8,0.8,1.6,0.8c0.4,0,1.2-0.4,2-0.8c0.8-0.4,1.6-1.2,2.4-2V41.9H131z"
		/>
</g>
<g>
	<path fill="#F3DEC6" d="M123.2,116.3c-0.8,0-1.6,0.4-2,0.8c-0.4,0.4-0.4,1.6-0.4,2.8v3.3h5.3V120c0-1.2,0-2.4-0.4-2.8
		C124.9,116.7,124.5,116.3,123.2,116.3z"/>
	<path fill="#F3DEC6" d="M102.1,116.3c-0.4,0-0.8,0-1.2,0.4c-0.4,0.4-0.8,0.4-1.2,0.8v19.5c0.4,0.4,0.8,0.8,1.2,1.2
		c0.4,0.4,0.8,0.4,1.2,0.4c0.8,0,1.2-0.4,1.6-0.8c0.4-0.4,0.4-1.2,0.4-2v-16.3c0-1.2-0.4-2-0.8-2.4
		C103.3,116.3,102.9,116.3,102.1,116.3z"/>
	<path fill="#F3DEC6" d="M139.1,104.9c0-7.7-6.1-13.8-13.8-13.8c-11-0.4-22.4-0.8-33.8-0.8s-22.8,0-33.8,0.8
		c-7.7,0-13.8,6.1-13.8,13.8c-0.4,6.1-0.8,12.2-0.8,17.9c0,6.1,0,12.2,0.8,17.9c0,7.7,6.1,13.8,13.8,13.8c11,0.4,22.4,0.8,33.8,0.8
		s22.8,0,33.8-0.8c7.7,0,13.8-6.1,13.8-13.8c0.4-6.1,0.8-12.2,0.8-17.9C139.5,116.7,139.5,110.6,139.1,104.9z M64.3,143.2h-6.5
		v-36.6h-6.9v-6.1h20.3v6.1h-6.9V143.2z M87.8,143.2h-5.7v-3.7c-1.2,1.2-2,2.4-3.3,2.8c-1.2,0.8-2.4,0.8-3.3,0.8
		c-1.2,0-2.4-0.4-3.3-1.2c-0.8-0.8-1.2-2.4-1.2-4.1v-26.4h5.7v24c0,0.8,0,1.2,0.4,1.6c0.4,0.4,0.8,0.4,1.2,0.4s0.8-0.4,1.6-0.8
		c0.8-0.4,1.2-0.8,1.6-1.6v-24h5.7v32.1H87.8z M110.6,136.7c0,2-0.8,4.1-1.6,5.3s-2.4,1.6-4.1,1.6c-1.2,0-2-0.4-3.3-0.8
		c-0.8-0.4-1.6-1.2-2.4-2v2.4h-5.7v-42.7h6.1v13.8c0.8-0.8,1.6-1.6,2.4-2c0.8-0.4,1.6-0.8,2.8-0.8c2,0,3.3,0.8,4.1,2
		s1.6,3.3,1.6,5.7V136.7L110.6,136.7z M131.8,128.1h-11v6.1c0,1.6,0,2.8,0.4,3.3c0.4,0.8,1.2,0.8,2,0.8s1.6-0.4,2-0.8
		c0.4-0.4,0.4-1.6,0.4-3.7v-2h6.1v2.4c0,3.3-0.8,5.7-2,7.3c-1.6,1.6-3.7,2.4-6.5,2.4c-2.4,0-4.5-0.8-6.1-2.4
		c-1.6-1.6-2.4-4.1-2.4-7.3V120c0-2.8,0.8-4.9,2.4-6.5c1.6-1.6,3.7-2.4,6.5-2.4c2.8,0,4.9,0.8,6.1,2.4c1.6,1.6,2,4.1,2,6.9
		L131.8,128.1L131.8,128.1z"/>
</g>
</svg>
