<?xml version="1.0" encoding="UTF-8" standalone="no"?>
<svg width="596px" height="97px" viewBox="0 0 596 97" version="1.1" xmlns="http://www.w3.org/2000/svg" xmlns:xlink="http://www.w3.org/1999/xlink" xmlns:sketch="http://www.bohemiancoding.com/sketch/ns">
    <!-- Generator: Sketch 3.1.1 (8761) - http://www.bohemiancoding.com/sketch -->
    <title>babolygo-footerBirdsBg-01</title>
    <desc>Created with Sketch.</desc>
    <defs></defs>
    <g id="babolygo-footer-birds" stroke="none" stroke-width="1" fill="none" fill-rule="evenodd" sketch:type="MSPage">
        <g id="babolygo-footerBirdsBg-01" sketch:type="MSArtboardGroup">
            <g id="Imported-Layers" sketch:type="MSLayerGroup">
                <path d="M532.097,93.495 L529.693,91.586 L529.693,72.566" id="Stroke-1" stroke="#846234" stroke-width="2" stroke-linecap="round" stroke-linejoin="round" sketch:type="MSShapeGroup"></path>
                <path d="M474.966,25.193 L462.239,14.516 L480.482,15.93 L474.966,25.193" id="Fill-2" fill="#E6232E" sketch:type="MSShapeGroup"></path>
                <path d="M519.017,95.334 L529.693,91.586 L518.593,89.536 M513.997,91.727 L511.663,90.031 L511.663,70.869 M500.987,93.637 L511.663,90.031 L500.35,87.839" id="Stroke-3" stroke="#846234" stroke-width="2" stroke-linecap="round" stroke-linejoin="round" sketch:type="MSShapeGroup"></path>
                <path d="M493.916,25.193 C492.643,20.455 495.471,15.435 500.209,14.233 C504.946,12.96 509.966,15.788 511.168,20.526 C512.441,25.263 509.613,30.071 504.875,31.485 C500.209,32.758 495.189,29.93 493.916,25.193 L493.916,25.193 Z M473.694,44.071 C476.239,53.475 482.461,60.829 490.451,65.283 C495.189,68.889 511.168,76.101 524.037,74.192 C541.289,71.647 551.188,69.95 570.35,58.495 C589.511,47.041 593.754,30.849 593.754,30.849 C593.754,30.849 564.905,43.081 544.471,27.879 C543.198,26.182 542.138,25.051 541.926,24.556 C536.411,6.667 516.683,-3.868 498.3,1.152 C479.633,6.243 468.674,25.405 473.694,44.071 L473.694,44.071 Z" id="Fill-4" fill="#A91F68" sketch:type="MSShapeGroup"></path>
                <path d="M502.896,21.304 C505.395,21.304 507.421,23.266 507.421,25.687 C507.421,28.109 505.395,30.071 502.896,30.071 C500.396,30.071 498.37,28.109 498.37,25.687 C498.37,23.266 500.396,21.304 502.896,21.304" id="Fill-5" fill="#221E1F" sketch:type="MSShapeGroup"></path>
                <path d="M546.946,35.445 C548.855,37.496 552.885,45.485 577.562,47.819 C583.501,48.455 585.693,46.546 589.511,41.526 C591.067,39.475 592.835,37.001 594.673,33.395 C600.188,23.213 573.037,35.586 554.653,30.566 C552.107,29.93 544.613,27.738 543.198,26.182 C542.916,25.9 542.562,26.819 542.703,27.455 C543.198,29.152 545.532,33.819 546.946,35.445" id="Fill-6" fill="#FFC514" sketch:type="MSShapeGroup"></path>
                <path d="M120.655,25.829 L133.382,15.152 L115.211,16.778 L120.655,25.829" id="Fill-7" fill="#E6232E" sketch:type="MSShapeGroup"></path>
                <path d="M63.383,94.414 L65.787,92.505 L65.787,73.556 M76.463,96.324 L65.787,92.505 L76.888,90.455 M81.483,92.717 L83.958,90.808 L83.958,71.788 M94.635,94.556 L83.958,90.808 L95.13,88.758" id="Stroke-8" stroke="#846234" stroke-width="2" stroke-linecap="round" stroke-linejoin="round" sketch:type="MSShapeGroup"></path>
                <path d="M90.534,32.122 C85.797,30.849 82.968,25.829 84.241,21.162 C85.514,16.425 90.534,13.597 95.201,14.869 C100.079,16.142 102.766,21.162 101.493,25.829 C100.291,30.708 95.413,33.536 90.534,32.122 L90.534,32.122 Z M97.322,1.859 C78.938,-3.161 59.069,7.374 53.554,25.263 C53.413,25.546 52.282,26.819 51.009,28.586 C30.433,43.93 1.443,31.415 1.443,31.415 C1.443,31.415 5.686,47.607 24.989,59.202 C44.15,70.798 54.191,72.566 71.443,75.041 C84.312,76.95 100.291,69.738 105.17,66.132 C113.16,61.748 119.453,54.394 121.928,44.778 C126.948,26.182 115.988,7.021 97.322,1.859 L97.322,1.859 Z" id="Fill-9" fill="#FFC516" sketch:type="MSShapeGroup"></path>
                <path d="M97.18,26.324 C97.18,23.778 95.13,21.94 92.655,21.94 C90.11,21.94 88.13,23.99 88.13,26.324 C88.13,28.869 90.18,30.849 92.655,30.849 C95.13,30.849 97.18,28.799 97.18,26.324" id="Fill-10" fill="#221E1F" sketch:type="MSShapeGroup"></path>
                <path d="M48.534,36.223 C46.625,38.273 42.595,46.263 17.918,48.809 C11.979,49.445 9.787,47.536 5.969,42.516 C4.413,40.465 2.858,37.99 0.807,34.384 C-4.708,24.061 22.443,36.435 40.827,31.415 C43.373,30.637 50.867,28.586 52.282,27.031 C52.564,26.748 53.059,27.667 52.777,28.304 C52.282,29.788 49.948,34.596 48.534,36.223" id="Fill-11" fill="#1BBCC3" sketch:type="MSShapeGroup"></path>
            </g>
        </g>
    </g>
</svg>