<?xml version="1.0" encoding="utf-8"?>
<!-- Generator: Adobe Illustrator 18.0.0, SVG Export Plug-In . SVG Version: 6.00 Build 0)  -->
<!DOCTYPE svg PUBLIC "-//W3C//DTD SVG 1.1//EN" "http://www.w3.org/Graphics/SVG/1.1/DTD/svg11.dtd">
<svg version="1.1" id="Layer_1" xmlns="http://www.w3.org/2000/svg" xmlns:xlink="http://www.w3.org/1999/xlink" x="0px" y="0px"
	 viewBox="0 0 183 183" enable-background="new 0 0 183 183" xml:space="preserve">
<g>
	<path fill="#C42628" d="M0,91.5C0,41.1,41.1,0,91.5,0S183,41.1,183,91.5S141.9,183,91.5,183S0,141.9,0,91.5z"/>
	<g>
		<path fill="#F3DEC6" d="M73.6,149.3c-13.8,0-24-8.1-24-18.3c0-9.8,12.6-17.9,26.4-17.9c3.3,0,6.1,0.4,8.9,1.2
			c7.3,4.9,13,7.7,14.6,13.4c0.4,1.2,0.4,2.4,0.4,3.7C100.1,141.5,93.1,149.3,73.6,149.3z M77.3,90.7c-9.4-0.4-18.3-9.8-19.9-21.1
			c-1.6-11.4,4.5-20.3,13.8-19.9S89.5,59,91.1,70.8C92.7,82.2,86.6,91.1,77.3,90.7z M96.4,107.8c-3.3-2-9.4-7.3-9.4-10.6
			c0-3.7,1.2-5.3,6.9-9.8c6.1-4.5,10.2-10.6,10.2-17.9c0-8.5-4.1-16.7-11.8-19.5h11.4l8.1-5.7H75.6c-16.3,0-31.7,11.4-31.7,24.8
			C43.9,83,54.9,94,71.6,94c1.2,0,2.4,0,3.3,0c-1.2,2-2,4.1-2,6.5c0,3.7,2,6.9,4.9,9.4h-6.1c-19.9,0-35.4,12.2-35.4,24.4
			c0,12.2,17.1,19.9,37,19.9c22.8,0,35.4-12.2,35.4-24.4C109,120,106.2,114.3,96.4,107.8z"/>
	</g>
	<g>
		<rect x="134.2" y="44.7" fill="#F3DEC6" width="4.1" height="36.6"/>
		<rect x="117.9" y="61" fill="#F3DEC6" width="36.6" height="4.1"/>
	</g>
</g>
</svg>
