<?xml version="1.0" encoding="utf-8"?>
<!-- Generator: Adobe Illustrator 18.0.0, SVG Export Plug-In . SVG Version: 6.00 Build 0)  -->
<!DOCTYPE svg PUBLIC "-//W3C//DTD SVG 1.1//EN" "http://www.w3.org/Graphics/SVG/1.1/DTD/svg11.dtd">
<svg version="1.1" id="Layer_1" xmlns="http://www.w3.org/2000/svg" xmlns:xlink="http://www.w3.org/1999/xlink" x="0px" y="0px"
	 viewBox="274 218.4 372 159" enable-background="new 274 218.4 372 159" xml:space="preserve">
<g>
	<path fill="#56504F" d="M367.4,329v-5.8l-2,5.8h-0.5l-1.9-5.8v5.8h-1.3v-7.9h1.8l1.7,5.2l1.7-5.2h1.8v7.9H367.4z"/>
	<path fill="#56504F" d="M373.1,329v-0.6c-0.3,0.5-0.9,0.8-1.5,0.8c-0.9,0-1.8-0.7-1.8-1.9c0-1.3,0.9-1.9,1.8-1.9
		c0.6,0,1.2,0.2,1.5,0.7v-0.9c0-0.7-0.4-1.1-1.1-1.1c-0.5,0-1,0.2-1.5,0.7L370,324c0.6-0.6,1.4-0.9,2.1-0.9c1.2,0,2.1,0.6,2.1,2v4
		L373.1,329L373.1,329z M373.1,327.7v-0.9c-0.2-0.4-0.7-0.6-1.1-0.6c-0.6,0-1,0.5-1,1.1c0,0.6,0.4,1.1,1,1.1
		C372.4,328.3,372.8,328.1,373.1,327.7z"/>
	<path fill="#56504F" d="M375.6,330.6l0.5-0.9c0.4,0.4,0.9,0.6,1.5,0.6c0.7,0,1.4-0.4,1.4-1.4v-0.8c-0.3,0.6-0.9,0.9-1.5,0.9
		c-1.3,0-2.1-1.1-2.1-3c0-1.8,0.8-3,2.1-3c0.6,0,1.1,0.3,1.5,0.9v-0.8h1.2v5.6c0,1.9-1.2,2.4-2.5,2.4
		C376.9,331.3,376.2,331.1,375.6,330.6z M379,327.1v-2.2c-0.2-0.4-0.7-0.8-1.1-0.8c-0.8,0-1.2,0.8-1.2,1.9c0,1.1,0.4,1.9,1.2,1.9
		C378.3,327.9,378.8,327.5,379,327.1z"/>
	<path fill="#56504F" d="M384.5,329v-0.6c-0.3,0.5-0.9,0.8-1.5,0.8c-0.9,0-1.8-0.7-1.8-1.9c0-1.3,0.9-1.9,1.8-1.9
		c0.6,0,1.2,0.2,1.5,0.7v-0.9c0-0.7-0.4-1.1-1.1-1.1c-0.5,0-1,0.2-1.5,0.7l-0.5-0.8c0.6-0.6,1.4-0.9,2.1-0.9c1.2,0,2.1,0.6,2.1,2v4
		L384.5,329L384.5,329z M384.5,327.7v-0.9c-0.2-0.4-0.7-0.6-1.1-0.6c-0.6,0-1,0.5-1,1.1c0,0.6,0.4,1.1,1,1.1
		C383.9,328.3,384.3,328.1,384.5,327.7z M383.7,322.3h-0.8l1.3-1.7h1.1L383.7,322.3z"/>
	<path fill="#56504F" d="M390.4,329v-3.9c0-0.7-0.3-0.9-0.8-0.9s-1,0.4-1.2,0.8v4.1h-1.2v-5.7h1.2v0.8c0.3-0.5,1-0.9,1.7-0.9
		c1,0,1.5,0.6,1.5,1.6v4.4h-1.2V329z"/>
	<path fill="#56504F" d="M392.6,326.1c0-1.6,0.9-3,2.5-3s2.5,1.4,2.5,3s-0.9,3-2.5,3S392.6,327.7,392.6,326.1z M396.4,326.1
		c0-1-0.4-2-1.3-2s-1.3,0.9-1.3,2s0.4,2,1.3,2C396,328,396.4,327.1,396.4,326.1z M395.1,322.3h-0.8l1.3-1.7h1.1L395.1,322.3z"/>
	<path fill="#56504F" d="M400,329l-1.9-5.7h1.3l1.3,4.4l1.3-4.4h1.3l-1.9,5.7H400z"/>
	<path fill="#56504F" d="M403.6,326.1c0-1.6,0.9-3,2.5-3c1.6,0,2.5,1.4,2.5,3s-0.9,3-2.5,3C404.5,329.1,403.6,327.7,403.6,326.1z
		 M407.4,326.1c0-1-0.4-2-1.3-2c-0.9,0-1.3,0.9-1.3,2s0.4,2,1.3,2C407,328,407.4,327.1,407.4,326.1z"/>
	<path fill="#56504F" d="M413,329v-0.8c-0.3,0.6-0.9,0.9-1.5,0.9c-1.3,0-2.1-1.2-2.1-3c0-1.8,0.8-3,2.1-3c0.6,0,1.2,0.3,1.5,0.9v-3
		h1.2v7.9H413z M413,327.3v-2.4c-0.2-0.4-0.7-0.8-1.1-0.8c-0.8,0-1.2,0.9-1.2,2s0.4,2,1.2,2C412.4,328,412.9,327.7,413,327.3z"/>
	<path fill="#56504F" d="M418.6,329v-0.6c-0.3,0.5-0.9,0.8-1.5,0.8c-0.9,0-1.8-0.7-1.8-1.9c0-1.3,0.9-1.9,1.8-1.9
		c0.6,0,1.2,0.2,1.5,0.7v-0.9c0-0.7-0.4-1.1-1.1-1.1c-0.5,0-1,0.2-1.5,0.7l-0.5-0.8c0.6-0.6,1.4-0.9,2.1-0.9c1.2,0,2.1,0.6,2.1,2v4
		L418.6,329L418.6,329z M418.6,327.7v-0.9c-0.2-0.4-0.7-0.6-1.1-0.6c-0.6,0-1,0.5-1,1.1c0,0.6,0.4,1.1,1,1.1
		C417.9,328.3,418.4,328.1,418.6,327.7z"/>
	<path fill="#56504F" d="M423.6,326.1c0-1.7,0.9-3,2.4-3c1.5,0,2.3,1.4,2.3,3.1v0.3h-3.8c0,1.2,0.6,2,1.7,2c0.5,0,1-0.3,1.4-0.7
		l0.5,0.5c-0.5,0.6-1.1,0.9-1.9,0.9C424.4,329.1,423.6,327.8,423.6,326.1z M425.8,323.7c-1,0-1.4,1.1-1.5,2h2.9
		C427.3,324.8,426.9,323.7,425.8,323.7z M425.8,322.3h-0.6l1.4-1.7h0.9L425.8,322.3z"/>
	<path fill="#56504F" d="M428.9,328.3l0.4-0.6c0.3,0.4,0.9,0.7,1.5,0.7c0.7,0,1.1-0.4,1.1-0.9c0-1.4-2.9-0.9-2.9-2.9
		c0-0.9,0.7-1.6,1.8-1.6c0.8,0,1.4,0.3,1.8,0.7l-0.4,0.6c-0.3-0.4-0.8-0.6-1.4-0.6c-0.6,0-1,0.4-1,0.8c0,1.2,2.9,0.8,2.9,2.9
		c0,1-0.7,1.7-1.9,1.7C430.1,329.1,429.4,328.8,428.9,328.3z"/>
	<path fill="#56504F" d="M436.2,325c0-2.4,1.3-4.1,3.3-4.1c1.4,0,2.1,0.9,2.5,1.8l-1.1,0.5c-0.3-0.6-0.8-1.1-1.5-1.1
		c-1.2,0-1.9,1.2-1.9,3c0,1.7,0.7,3,1.9,3c0.7,0,1.2-0.5,1.5-1.2l1.1,0.5c-0.4,0.9-1.1,1.9-2.6,1.9
		C437.4,329.1,436.2,327.4,436.2,325z"/>
	<path fill="#56504F" d="M442.5,328.3l0.5-0.8c0.3,0.4,0.9,0.7,1.6,0.7c0.6,0,1-0.3,1-0.8c0-1.1-2.9-0.6-2.9-2.7
		c0-0.9,0.7-1.7,2-1.7c0.8,0,1.5,0.3,1.9,0.7l-0.5,0.8c-0.3-0.3-0.8-0.6-1.4-0.6c-0.5,0-0.9,0.3-0.9,0.7c0,1,2.9,0.6,2.9,2.7
		c0,1-0.8,1.7-2.1,1.7C443.8,329.1,443,328.8,442.5,328.3z"/>
	<path fill="#56504F" d="M450.7,329v-0.6c-0.3,0.5-0.9,0.8-1.5,0.8c-0.9,0-1.8-0.7-1.8-1.9c0-1.3,0.9-1.9,1.8-1.9
		c0.6,0,1.2,0.2,1.5,0.7v-0.9c0-0.7-0.4-1.1-1.1-1.1c-0.5,0-1,0.2-1.5,0.7l-0.5-0.8c0.6-0.6,1.4-0.9,2.1-0.9c1.2,0,2.1,0.6,2.1,2v4
		L450.7,329L450.7,329z M450.7,327.7v-0.9c-0.2-0.4-0.7-0.6-1.1-0.6c-0.6,0-1,0.5-1,1.1c0,0.6,0.4,1.1,1,1.1
		C450.1,328.3,450.5,328.1,450.7,327.7z"/>
	<path fill="#56504F" d="M453.3,329v-7.9h1.2v7.9H453.3z"/>
	<path fill="#56504F" d="M458.9,329v-0.6c-0.3,0.5-0.9,0.8-1.5,0.8c-0.9,0-1.8-0.7-1.8-1.9c0-1.3,0.9-1.9,1.8-1.9
		c0.6,0,1.2,0.2,1.5,0.7v-0.9c0-0.7-0.4-1.1-1.1-1.1c-0.5,0-1,0.2-1.5,0.7l-0.5-0.8c0.6-0.6,1.4-0.9,2.1-0.9c1.2,0,2.1,0.6,2.1,2v4
		L458.9,329L458.9,329z M458.9,327.7v-0.9c-0.2-0.4-0.7-0.6-1.1-0.6c-0.6,0-1,0.5-1,1.1c0,0.6,0.4,1.1,1,1.1
		C458.2,328.3,458.6,328.1,458.9,327.7z M458,322.3h-0.8l1.3-1.7h1.1L458,322.3z"/>
	<path fill="#56504F" d="M464.8,329v-0.8c-0.3,0.6-0.9,0.9-1.5,0.9c-1.3,0-2.1-1.2-2.1-3c0-1.8,0.8-3,2.1-3c0.6,0,1.2,0.3,1.5,0.9
		v-3h1.2v7.9H464.8z M464.8,327.3v-2.4c-0.2-0.4-0.7-0.8-1.1-0.8c-0.8,0-1.2,0.9-1.2,2s0.4,2,1.2,2
		C464.1,328,464.6,327.7,464.8,327.3z"/>
	<path fill="#56504F" d="M467.2,321.7c0-0.4,0.3-0.7,0.8-0.7s0.7,0.3,0.7,0.7c0,0.4-0.3,0.7-0.7,0.7S467.2,322.1,467.2,321.7z
		 M467.3,329v-5.7h1.2v5.7H467.3z"/>
	<path fill="#56504F" d="M476.8,329l-3-5.4v5.4h-1.3v-7.9h1.3l2.9,5.2v-5.2h1.3v7.9H476.8z"/>
	<path fill="#56504F" d="M482.5,329v-0.6c-0.3,0.5-0.9,0.8-1.5,0.8c-0.9,0-1.8-0.7-1.8-1.9c0-1.3,0.9-1.9,1.8-1.9
		c0.6,0,1.2,0.2,1.5,0.7v-0.9c0-0.7-0.4-1.1-1.1-1.1c-0.5,0-1,0.2-1.5,0.7l-0.5-0.8c0.6-0.6,1.4-0.9,2.1-0.9c1.2,0,2.1,0.6,2.1,2v4
		L482.5,329L482.5,329z M482.5,327.7v-0.9c-0.2-0.4-0.7-0.6-1.1-0.6c-0.6,0-1,0.5-1,1.1c0,0.6,0.4,1.1,1,1.1
		C481.8,328.3,482.3,328.1,482.5,327.7z"/>
	<path fill="#56504F" d="M486.3,328.2v3h-1.2v-7.9h1.2v0.8c0.3-0.6,0.9-0.9,1.5-0.9c1.3,0,2.1,1.2,2.1,3s-0.8,3-2.1,3
		C487.2,329.1,486.6,328.8,486.3,328.2z M488.6,326.1c0-1.1-0.4-2-1.2-2c-0.5,0-0.9,0.3-1.2,0.8v2.4c0.2,0.4,0.7,0.8,1.2,0.8
		C488.3,328,488.6,327.2,488.6,326.1z"/>
	<path fill="#56504F" d="M494.2,329l-1.4-2.4l-0.7,0.9v1.5h-1.2v-7.9h1.2v5l2.1-2.8h1.4l-1.9,2.6l2,3.2H494.2L494.2,329z"/>
	<path fill="#56504F" d="M496.1,326.1c0-1.6,0.9-3,2.5-3s2.5,1.4,2.5,3s-0.9,3-2.5,3S496.1,327.7,496.1,326.1z M497.6,322.4
		c-0.4,0-0.7-0.3-0.7-0.7c0-0.4,0.3-0.7,0.7-0.7c0.4,0,0.7,0.3,0.7,0.7C498.2,322.1,497.9,322.4,497.6,322.4z M499.8,326.1
		c0-1-0.4-2-1.3-2s-1.3,0.9-1.3,2s0.4,2,1.3,2C499.4,328,499.8,327.1,499.8,326.1z M499.6,322.4c-0.4,0-0.7-0.3-0.7-0.7
		c0-0.4,0.3-0.7,0.7-0.7c0.4,0,0.7,0.3,0.7,0.7C500.3,322.1,500,322.4,499.6,322.4z"/>
	<path fill="#56504F" d="M501.9,329v-0.9l2.3-3.8h-2.3v-1h3.8v0.9l-2.4,3.9h2.4v1L501.9,329L501.9,329z"/>
	<path fill="#56504F" d="M506.8,321.7c0-0.4,0.3-0.7,0.8-0.7s0.7,0.3,0.7,0.7c0,0.4-0.3,0.7-0.7,0.7S506.8,322.1,506.8,321.7z
		 M507,329v-5.7h1.2v5.7H507z"/>
</g>
<g>
	<path fill="#56504F" d="M423.4,293.4c0-5.9,0-12,0-17.9c0-0.4-0.2-1.1,0.3-1.3c0.5-0.3,1.1-0.1,1.6,0.3c1.3,0.9,1.6,2.3,1.7,3.7
		c0.1,1.8,0.1,3.7,0.2,5.4c0.2,2.6,1.8,4,4.2,4.7c2.3,0.6,4.8,0.6,7.1,0.9c6.1,0.7,11,4.9,12.4,10.6c1.2,5.2-0.8,10.6-5.2,13.7
		c-4.2,2.9-10.3,3.1-14.6,0.3c-1.1-0.7-1.7-1.6-2.3-2.7c-0.3-0.5-0.6-1.3-1.3-1.2c-0.8,0-0.9,0.8-1.1,1.4c-0.2,0.6-0.6,1-1.1,1.3
		c-1.4,0.7-1.9,0.4-1.9-1.1C423.4,305.4,423.4,299.4,423.4,293.4z M426,301.1c0,6.4,5.3,11.7,11.5,11.7c5.8,0,10.7-4.9,10.7-10.8
		c0-6.1-5.3-11.5-11.3-11.6C430.9,290.4,426,295.2,426,301.1z"/>
	<path fill="#56504F" d="M419.4,305.4c0,2.2,0,4.4,0,6.5c0,0.5,0.3,1.2-0.4,1.3c-0.6,0.1-1.3,0.1-1.7-0.5c-0.3-0.3-0.5-0.7-0.7-1.1
		c-0.3-0.5-0.3-1.3-1.1-1.3c-0.7,0-1,0.6-1.3,1.1c-1.3,2.6-3.5,3.9-6.1,4.4c-8.5,1.8-15.4-4.8-15.7-11.6c-0.2-5.4,2.2-9.4,6.8-12
		c1.6-0.9,3.2-1.5,4.8-2.4c0.8-0.4,1.7-1,1.4-2c-0.3-1-1.4-0.9-2.3-1.1c-0.7-0.1-2,0.5-2.1-0.3c-0.1-0.9,1.2-0.8,2-1
		c8.1-1.8,16,4.7,16.2,13.2C419.5,301,419.4,303.2,419.4,305.4L419.4,305.4z M405.6,312.9c5.9,0,11-5.1,11-11
		c-0.1-5.5-4.6-10.2-10.1-10.2c-6,0-11.1,5-11.1,10.9C395.4,308.4,399.9,312.9,405.6,312.9z"/>
	<path fill="#56504F" d="M494.6,317.7c-1.3,0.5-2.6,0.1-3.7-0.5c-4-2.1-6.5-5.2-6.5-9.8c-0.1-9.9,0-19.8,0-29.8
		c0-0.6-0.3-1.4,0.6-1.6c0.9-0.2,1.4,0.3,1.8,1c0.6,1,0.8,2.1,0.8,3.3c0,8.8,0,17.6,0,26.5c0,2.1,0.4,4.2,1.4,5.9
		c1.1,2.1,2.7,3.7,5.1,4.3C494.2,317.1,494.5,317.2,494.6,317.7z"/>
	<g>
		<path fill="#56504F" d="M576.5,278.3c0,0.2-2-0.6-2.2-1.3"/>
		<path fill="#56504F" d="M569.5,285.4c0.1-0.3,0.3-0.4,0.5-0.5c2.7-1.1,4.4-3.5,4.4-6.3c0-0.9,0-1.8,0-2.7c0-0.5,0.4-1,0.9-1.1
			c0.6-0.1,1,0.3,1.1,0.9c1,4.8-1.3,8.9-6.3,9.7C569.9,285.5,569.7,285.5,569.5,285.4z"/>
	</g>
	<path fill="#56504F" d="M456.4,301c0,6.4,5.3,11.8,11.6,11.7c5.8,0,10.7-4.9,10.7-10.8c0-6.1-5.3-11.6-11.4-11.7
		C461.3,290.2,456.4,295,456.4,301z M480.1,302c0,7.6-5.9,13.7-13.4,13.7c-7.5,0-13.5-6.1-13.4-14c0-7.5,6.1-13.6,13.5-13.6
		C474.3,288.1,480.2,294.3,480.1,302z"/>
	<path fill="#56504F" d="M562.2,301c0,6.4,5.3,11.8,11.6,11.7c5.8,0,10.7-4.9,10.7-10.8c0-6.1-5.3-11.6-11.4-11.7
		C567,290.2,562.2,295,562.2,301z M585.8,302c0,7.6-5.9,13.7-13.4,13.7c-7.5,0-13.5-6.1-13.4-14c0-7.5,6.1-13.6,13.5-13.6
		C580,288.1,585.9,294.3,585.8,302z"/>
	<g>
		<path fill="#56504F" d="M362.2,293.8c0-5.9,0-12,0-17.9c0-0.4-0.2-1.1,0.3-1.3c0.5-0.3,1.1-0.1,1.6,0.3c1.3,0.9,1.6,2.3,1.7,3.7
			c0.1,1.8,0.1,3.7,0.2,5.4c0.2,2.6,1.8,4,4.2,4.7c2.3,0.6,4.8,0.6,7.1,0.9c6.1,0.7,11,4.9,12.4,10.6c1.2,5.2-0.8,10.6-5.2,13.7
			c-4.2,2.9-10.3,3.1-14.6,0.3c-1.1-0.7-1.7-1.6-2.3-2.7c-0.3-0.5-0.6-1.3-1.3-1.2c-0.8,0-0.9,0.8-1.1,1.4s-0.6,1-1.1,1.3
			c-1.4,0.7-1.9,0.4-1.9-1.2C362.2,305.8,362.2,299.8,362.2,293.8z M364.9,301.5c0,6.4,5.3,11.7,11.5,11.7c5.8,0,10.7-4.9,10.7-10.8
			c0-6.1-5.3-11.5-11.3-11.6C369.8,290.8,364.9,295.6,364.9,301.5z"/>
		<path fill="#56504F" d="M372.3,290.2c-2.3,0-4.5-0.9-6-2.5c-1.7-1.7-2.6-4.1-2.6-6.5c0-4.9,4-8.8,8.7-8.8c2.3,0,4.4,0.9,5.9,2.5
			c1.7,1.7,2.7,4.1,2.7,6.5C380.9,286.4,377.2,290.2,372.3,290.2L372.3,290.2z M372.5,274.6c-3.5,0-6.2,2.8-6.2,6.2
			c0,1.9,0.7,3.6,2,4.9c1.3,1.3,3,2,4.8,2c3.5,0,6.3-2.9,6.3-6.3C379.3,277.8,376.2,274.6,372.5,274.6L372.5,274.6z"/>
	</g>
	<path fill="#56504F" d="M508,290.4"/>
	<path fill="#56504F" d="M510.1,333.5c-0.1,0-0.2,0-0.3,0c0.1-0.2,0.3-0.2,0.5-0.3c5.2-2.1,8.4-6.7,8.5-12.2c0-0.6,0-1.2,0-1.8
		c0-1.1,0-2.2,0.1-3.3c0-0.1,0-0.2,0-0.2c0.1-2.5,0.2-4.5-0.5-5.2c-0.1-0.2-0.3-0.2-0.5-0.2c-0.3,0-0.6,0.2-1,0.5
		c-2.4,2.3-5,3.7-7.8,4.2c-1,0.2-1.9,0.3-2.8,0.3c-0.2,0-0.4,0-0.6,0c-2.9-0.3-5-1.2-5-1.2c-0.3-0.2-0.6-0.3-0.8-0.5
		c-0.6-0.3-1.1-0.6-1.7-1c-3.6-2.3-5.6-5.8-5.6-9.7c-0.1-3.9,1.9-7.4,5.4-9.9c1.6-1.1,4-2.2,5.9-3.1l1-0.5c0.9-0.6,1.2-1.3,1-2
		c-0.3-1.1-1.4-1.2-2.2-1.2h-0.3c-0.1,0-0.1,0-0.2,0c-0.2,0-0.4,0-0.7,0.1c-0.2,0-0.4,0.1-0.6,0.1c-0.3,0-0.3-0.1-0.3-0.2
		c0-0.3,0.6-0.4,1.5-0.6h0.3c0.4-0.1,0.9-0.1,1.4-0.1s1,0,1.8,0.1c1.1,0,2.1,0.5,2.5,1.2c0.3,0.5,0.4,1.1,0.2,1.7
		c-0.3,0.9-1,1.6-2,2c-0.4,0.1-1.4,0.5-2.3,0.8l-1.3,0.5h-0.1l-0.2,0.1c-0.1,0-0.2,0.1-0.3,0.1c-0.3,0.1-0.7,0.3-1.1,0.5H502
		l-0.1,0.1c-4.7,2.5-6.8,7-5.6,11.8c1,4.2,4,6.8,8.9,7.9c0.8,0.2,1.7,0.3,2.6,0.3c5.6,0,10.9-4.2,11.8-9.4l0,0l0,0V303
		c0-0.2,0-0.3,0.1-0.4c0-0.4,0.1-0.8,0.1-1.1c0-0.1,0-0.2,0-0.3v-1.6c0-2.8,0-5.5,0-8.4c0-1.3,0.1-2.5,0.1-3.3v-0.5
		c0-0.6,0.8-1.6,1.6-1.6c0.1,0,0.2,0,0.3,0c0.7,0.2,0.7,0.6,0.6,1.4c0,0.2,0,0.3,0,0.5v17.6v0.3V318
		C523.1,326.2,518.5,332.2,510.1,333.5L510.1,333.5z"/>
	<path fill="#56504F" d="M544.1,333.5c-0.1,0-0.2,0-0.3,0c0.1-0.2,0.3-0.2,0.5-0.3c5.2-2.1,8.4-6.7,8.5-12.2c0-0.6,0-1.2,0-1.8v-1.1
		v-0.1c0-0.7,0-1.7,0-2.8c0.1-2.5,0.1-4.1-0.4-4.7c-0.1-0.1-0.3-0.2-0.5-0.2c-0.3,0-0.6,0.2-1,0.5c-2.4,2.3-5,3.7-7.9,4.2
		c-0.4,0.1-0.7,0.1-1.2,0.2h-0.1c-0.4,0-0.8,0-1.2,0h-0.4h-0.4c-2.9-0.3-5.1-1.1-5.2-1.1c-0.2-0.1-0.5-0.3-0.8-0.5
		c-0.6-0.3-1.1-0.6-1.7-1c-3.6-2.3-5.6-5.8-5.6-9.7c-0.1-3.9,1.9-7.4,5.4-9.9c1.7-1.2,3.6-2,5.4-2.8l1-0.5c0.1-0.1,0.3-0.1,0.4-0.2
		c1-0.4,2.4-1,2.2-2.5c-0.3-1.7-2.1-1.7-3-1.5c-0.9,0.2-0.8,0.1-0.8,0.1c-0.2,0-0.5-0.2-0.4-0.3c1.2-0.7,2.3-0.8,3.7-0.8
		c0.3,0,0.6,0,0.9,0c8.9,0,15.2,6.2,15.2,15.3c0,0.5-0.1,2.1-0.1,2.1c0,3.5,0,7.3-0.1,10.8c0,1.9,0,3.6,0,5.1
		C557,326.2,552.5,332.2,544.1,333.5L544.1,333.5z M542.1,290.8c-1.7,0-3.4,0.3-5,1c-5.5,2.3-8.2,7.1-6.9,12.4c1,4.2,4,6.8,8.9,7.9
		c0.8,0.2,1.7,0.3,2.6,0.3c5.7,0,10.9-4.2,11.8-9.5l0,0v-0.1c0.1-0.6,0.1-1.1,0.1-1.5v-0.4c0-0.7-0.1-1.4-0.3-2.1
		C552,294,547.5,290.8,542.1,290.8z"/>
	<path fill="#56504F" d="M538.7,286c0.9,0.1,2,0.1,2.3,1.1c0.3,1-0.7,1.6-1.4,2c-0.3,0.1-3.1,1.6-3.3,1.7l15.5-1.3
		c-3.1-3.8-8-5.8-13.1-4.8c-0.8,0.2-2.1,0.1-2,1C536.7,286.5,537.9,286,538.7,286z"/>
	<path fill="#56504F" d="M503.8,286.8c0.9,0.1,2,0.1,2.3,1.1c0.3,1-0.7,1.6-1.4,2c-0.3,0.1-0.5,0.3-0.8,0.4l4.3-0.5
		c-3.1-3.8-0.4-4.2-4.4-4.1c-0.8,0-2.1,0.2-2,0.8C501.9,287.2,503,286.7,503.8,286.8z"/>
</g>
<g>
	<path fill="none" stroke="#FFFFFF" stroke-width="2" stroke-linecap="round" stroke-linejoin="round" stroke-dasharray="4,6" d="
		M343.7,328.4L343.7,328.4C343.5,328.4,343.3,328.4,343.7,328.4z"/>
	<path fill="none" stroke="#FFFFFF" stroke-width="2" stroke-linecap="round" stroke-linejoin="round" stroke-dasharray="4,6" d="
		M293.6,294.3l1.2-9.1c4.6-14.7,21.3-25.2,47-25.2c3.8,0,7.8,0.4,11.4,0.8c-0.8-1.7-0.8-3.3-0.8-5.2c0-10.5,13.8-19,30.7-19
		c11.1,0,20.8,3.6,26.2,9c11.7-15.3,36.7-25.9,65.7-25.9c32.6,0,60.2,13.3,69.6,31.6c0.9,0,1.8,0,2.7,0c43.8,0,79.3,22,79.3,49.1
		c0,21.7-22.7,40.2-54.2,46.7c-4.1,15.4-25.5,27-51.3,27c-16.4,0-31.1-4.9-40.6-12.3l-54,13.3c-4,0.4-8,0.7-12.1,0.7
		c-38.4,0-69.7-19.3-69.7-43.2c0-1.4-0.9-2.9-0.7-4.2c0.2,0,0.5,0,0,0C313.7,328.4,294,312.9,293.6,294.3z"/>
</g>
</svg>
