<?xml version="1.0" encoding="UTF-8" standalone="no"?>
<svg width="374px" height="161px" viewBox="0 0 374 161" version="1.1" xmlns="http://www.w3.org/2000/svg" xmlns:xlink="http://www.w3.org/1999/xlink" xmlns:sketch="http://www.bohemiancoding.com/sketch/ns">
    <!-- Generator: Sketch 3.3.2 (12043) - http://www.bohemiancoding.com/sketch -->
    <title>babolygo-felhoNyito-fall</title>
    <desc>Created with Sketch.</desc>
    <defs></defs>
    <g id="babolygo-Nyito-cloud" stroke="none" stroke-width="1" fill="none" fill-rule="evenodd" sketch:type="MSPage">
        <g id="babolygo-felhoNyito-fall" sketch:type="MSArtboardGroup">
            <g id="babolygo-felhoNyito-01-Copy" sketch:type="MSLayerGroup">
                <g id="Page-1" sketch:type="MSShapeGroup">
                    <g id="babolygo-felhoNyito-01">
                        <path d="M167.061,75.685 L167.061,57.582 C167.061,57.18 166.861,56.481 167.362,56.281 C167.861,55.98 168.463,56.18 168.962,56.58 C170.262,57.48 170.563,58.88 170.662,60.282 C170.763,62.081 170.763,63.982 170.862,65.783 C171.062,68.382 172.663,69.783 175.063,70.483 C177.363,71.085 179.865,71.085 182.264,71.383 C188.464,72.084 193.368,76.284 194.766,82.088 C195.965,87.287 193.967,92.789 189.567,95.89 C185.365,98.788 179.164,98.99 174.862,96.187 C173.763,95.487 173.162,94.587 172.562,93.491 C172.263,92.988 171.962,92.188 171.262,92.288 C170.462,92.288 170.363,93.088 170.163,93.689 C169.963,94.291 169.561,94.687 169.062,94.988 C167.661,95.688 167.162,95.387 167.162,93.887 C167.061,87.786 167.061,81.685 167.061,75.685 L167.061,75.685 L167.061,75.685 Z M169.761,83.486 C169.761,89.986 175.062,95.288 181.365,95.288 C187.266,95.288 192.165,90.387 192.165,84.389 C192.165,78.185 186.865,72.785 180.764,72.684 C174.662,72.684 169.761,77.484 169.761,83.486 L169.761,83.486 L169.761,83.486 Z" id="Fill-1" fill="#C42427"></path>
                        <path d="M163.06,87.786 L163.06,94.389 C163.06,94.888 163.361,95.589 162.66,95.688 C162.06,95.791 161.359,95.791 160.959,95.189 C160.66,94.888 160.46,94.489 160.258,94.088 C159.959,93.589 159.959,92.789 159.159,92.789 C158.458,92.789 158.158,93.388 157.858,93.887 C156.558,96.488 154.357,97.786 151.656,98.289 C143.055,100.087 136.155,93.49 135.854,86.586 C135.654,81.085 138.055,77.085 142.754,74.483 C144.356,73.584 145.955,72.984 147.556,72.084 C148.356,71.684 149.255,71.084 148.955,70.083 C148.655,69.083 147.556,69.184 146.655,68.984 C145.954,68.883 144.654,69.483 144.554,68.683 C144.453,67.783 145.754,67.883 146.554,67.683 C154.757,65.882 162.658,72.383 162.958,80.985 C163.161,83.384 163.06,85.585 163.06,87.786 L163.06,87.786 L163.06,87.786 Z M149.158,95.387 C155.16,95.387 160.259,90.287 160.259,84.286 C160.16,78.685 155.659,73.984 150.058,73.984 C143.957,73.984 138.856,78.984 138.856,84.986 C138.856,90.786 143.356,95.387 149.158,95.387 L149.158,95.387 L149.158,95.387 Z" id="Fill-2" fill="#C42427"></path>
                        <path d="M238.977,100.189 C237.674,100.688 236.372,100.288 235.274,99.69 C231.272,97.587 228.672,94.488 228.672,89.788 C228.572,79.785 228.672,69.784 228.672,59.682 C228.672,59.08 228.373,58.281 229.274,58.081 C230.172,57.881 230.674,58.382 231.071,59.081 C231.673,60.082 231.874,61.182 231.874,62.383 L231.874,89.089 C231.874,91.188 232.274,93.289 233.272,95.091 C234.376,97.19 235.975,98.789 238.376,99.391 C238.572,99.591 238.873,99.69 238.977,100.189" id="Fill-3" fill="#C42427"></path>
                        <path d="M321.689,60.482 C321.689,60.682 319.689,59.882 319.49,59.182" id="Fill-4" fill="#C42427"></path>
                        <path d="M314.586,67.583 C314.69,67.284 314.891,67.183 315.088,67.084 C317.789,65.983 319.49,63.583 319.49,60.683 L319.49,57.983 C319.49,57.482 319.886,56.982 320.39,56.882 C320.99,56.781 321.388,57.181 321.486,57.782 C322.492,62.583 320.187,66.783 315.088,67.583 C314.99,67.684 314.787,67.684 314.586,67.583" id="Fill-5" fill="#C42427"></path>
                        <path d="M200.467,83.384 C200.467,89.888 205.768,95.288 212.17,95.189 C218.068,95.189 222.973,90.288 222.973,84.287 C222.973,78.087 217.672,72.584 211.469,72.485 C205.367,72.484 200.467,77.284 200.467,83.384 L200.467,83.384 L200.467,83.384 Z M224.371,84.389 C224.371,92.089 218.369,98.19 210.871,98.19 C203.269,98.19 197.267,91.99 197.367,84.085 C197.367,76.485 203.566,70.385 210.971,70.385 C218.473,70.283 224.471,76.585 224.371,84.389 L224.371,84.389 L224.371,84.389 Z" id="Fill-6" fill="#C42427"></path>
                        <path d="M307.186,83.384 C307.186,89.888 312.489,95.288 318.889,95.189 C324.791,95.189 329.69,90.288 329.69,84.287 C329.69,78.087 324.389,72.584 318.19,72.485 C312.088,72.484 307.186,77.284 307.186,83.384 L307.186,83.384 L307.186,83.384 Z M331.092,84.389 C331.092,92.089 325.09,98.19 317.588,98.19 C309.986,98.19 303.984,91.99 304.086,84.085 C304.086,76.485 310.287,70.385 317.686,70.385 C325.188,70.283 331.189,76.585 331.092,84.389 L331.092,84.389 L331.092,84.389 Z" id="Fill-7" fill="#C42427"></path>
                        <path d="M105.349,76.084 L105.349,57.981 C105.349,57.581 105.149,56.88 105.65,56.68 C106.15,56.379 106.751,56.579 107.25,56.979 C108.55,57.879 108.851,59.279 108.95,60.681 C109.051,62.48 109.051,64.381 109.15,66.182 C109.35,68.781 110.951,70.182 113.352,70.883 C115.652,71.483 118.152,71.483 120.552,71.782 C126.754,72.483 131.655,76.683 133.054,82.483 C134.256,87.685 132.254,93.184 127.854,96.285 C123.653,99.186 117.452,99.389 113.15,96.589 C112.051,95.889 111.451,94.986 110.85,93.886 C110.551,93.387 110.25,92.587 109.55,92.686 C108.75,92.686 108.651,93.49 108.451,94.087 C108.251,94.686 107.849,95.089 107.35,95.386 C105.949,96.087 105.45,95.789 105.45,94.187 C105.349,88.188 105.349,82.188 105.349,76.084 L105.349,76.084 L105.349,76.084 Z M108.051,83.886 C108.051,90.387 113.352,95.688 119.653,95.688 C125.554,95.688 130.455,90.787 130.455,84.786 C130.455,78.586 125.154,73.185 119.053,73.084 C112.951,73.083 108.051,77.884 108.051,83.886 L108.051,83.886 L108.051,83.886 Z" id="Fill-8" fill="#C42427"></path>
                        <path d="M115.551,72.484 C113.251,72.484 111.05,71.584 109.45,69.984 C107.749,68.283 106.849,65.882 106.849,63.382 C106.849,58.481 110.849,54.48 115.652,54.48 C117.952,54.48 120.052,55.38 121.652,56.98 C123.353,58.68 124.352,61.082 124.352,63.582 C124.253,68.583 120.453,72.484 115.551,72.484 L115.551,72.484 L115.551,72.484 Z M115.751,56.681 C112.251,56.681 109.45,59.482 109.45,62.982 C109.45,64.882 110.151,66.583 111.451,67.883 C112.75,69.184 114.451,69.883 116.251,69.883 C119.751,69.883 122.651,66.983 122.651,63.483 C122.553,59.882 119.453,56.681 115.751,56.681 L115.751,56.681 L115.751,56.681 Z" id="Fill-9" fill="#C42427"></path>
                        <path d="M254.678,116.191 L254.377,116.191 C254.477,115.99 254.678,115.99 254.879,115.89 C260.078,113.791 263.379,109.088 263.479,103.589 L263.479,101.788 C263.479,100.687 263.479,99.59 263.579,98.486 L263.579,98.288 C263.679,95.789 263.78,93.786 263.079,93.086 C262.977,92.888 262.778,92.888 262.581,92.888 C262.28,92.888 261.979,93.086 261.579,93.387 C259.177,95.687 256.579,97.088 253.677,97.587 C252.679,97.785 251.777,97.888 250.878,97.888 L250.276,97.888 C247.378,97.587 245.276,96.689 245.276,96.689 C244.975,96.487 244.674,96.388 244.475,96.186 C243.873,95.889 243.375,95.588 242.778,95.188 C239.174,92.888 237.073,89.286 237.073,85.386 C236.973,81.485 238.977,77.884 242.473,75.383 C244.077,74.284 246.475,73.184 248.475,72.283 L249.477,71.782 C250.379,71.182 250.676,70.482 250.477,69.782 C250.176,68.681 249.077,68.581 248.276,68.581 L247.975,68.581 L247.774,68.581 C247.577,68.581 247.378,68.581 247.077,68.682 C246.876,68.682 246.677,68.781 246.475,68.781 C246.174,68.781 246.174,68.682 246.174,68.581 C246.174,68.282 246.776,68.181 247.674,67.981 L247.975,67.981 C248.375,67.882 248.877,67.882 249.377,67.882 C249.875,67.882 250.379,67.882 251.178,67.981 C252.276,67.981 253.278,68.482 253.676,69.183 C253.977,69.682 254.076,70.282 253.875,70.883 C253.576,71.782 252.877,72.483 251.879,72.883 C251.475,72.984 250.477,73.383 249.578,73.683 L248.275,74.183 L248.177,74.183 L247.974,74.284 C247.876,74.284 247.773,74.383 247.673,74.383 C247.376,74.482 246.974,74.684 246.577,74.883 L246.473,74.883 L246.373,74.982 C241.67,77.482 239.473,82.086 240.672,86.885 C241.67,91.085 244.672,93.785 249.676,94.886 C250.475,95.088 251.375,95.187 252.274,95.187 C257.977,95.187 263.28,90.984 264.178,85.686 L264.178,85.385 C264.178,85.187 264.178,85.084 264.278,84.985 C264.278,84.586 264.376,84.185 264.376,83.884 L264.376,83.583 L264.376,81.983 L264.376,73.481 C264.376,72.181 264.476,70.981 264.476,70.181 L264.476,69.681 C264.476,69.081 265.277,68.081 266.08,68.081 L266.381,68.081 C267.082,68.281 267.082,68.681 266.979,69.48 L266.979,69.981 L266.979,100.487 C267.781,108.792 263.078,114.893 254.678,116.191" id="Fill-11" fill="#C42427"></path>
                        <path d="M288.982,116.191 L288.681,116.191 C288.781,115.99 288.982,115.99 289.183,115.89 C294.386,113.791 297.685,109.088 297.783,103.589 L297.783,101.788 L297.783,100.587 L297.783,97.784 C297.883,95.286 297.883,93.686 297.385,93.085 C297.285,92.985 297.084,92.887 296.885,92.887 C296.584,92.887 296.283,93.085 295.887,93.386 C293.485,95.686 290.883,97.087 287.883,97.586 C287.483,97.686 287.182,97.686 286.684,97.784 L286.584,97.784 L285.385,97.784 L284.585,97.784 C281.683,97.487 279.481,96.687 279.384,96.687 C279.185,96.587 278.88,96.386 278.583,96.184 C277.981,95.887 277.483,95.586 276.882,95.186 C273.282,92.886 271.181,89.284 271.181,85.384 C271.081,81.483 273.081,77.882 276.581,75.381 C278.282,74.181 280.183,73.381 281.981,72.58 L282.985,72.081 C283.085,71.98 283.282,71.98 283.381,71.881 C284.383,71.482 285.781,70.881 285.582,69.381 C285.285,67.681 283.48,67.681 282.582,67.881 C281.682,68.081 281.781,67.98 281.781,67.98 C281.584,67.98 281.283,67.78 281.381,67.681 C282.582,66.98 283.682,66.879 285.084,66.879 L285.982,66.879 C294.984,66.879 301.287,73.182 301.287,82.283 C301.287,82.782 301.185,84.386 301.185,84.386 C301.185,87.882 301.185,91.785 301.085,95.285 L301.085,100.388 C301.988,108.792 297.385,114.893 288.982,116.191 L288.982,116.191 L288.982,116.191 Z M286.984,73.083 C285.285,73.083 283.582,73.384 281.98,74.083 C276.38,76.383 273.681,81.285 274.98,86.585 C275.98,90.785 278.982,93.489 283.982,94.586 C284.783,94.784 285.681,94.887 286.584,94.887 C292.383,94.887 297.586,90.687 298.484,85.286 L298.484,85.187 C298.584,84.585 298.584,84.083 298.584,83.686 L298.584,83.283 C298.584,82.583 298.484,81.886 298.287,81.184 C296.885,76.285 292.383,73.083 286.984,73.083 L286.984,73.083 L286.984,73.083 Z" id="Fill-12" fill="#C42427"></path>
                        <path d="M283.48,68.183 C284.382,68.284 285.482,68.284 285.781,69.284 C286.084,70.284 285.084,70.885 284.383,71.285 C284.082,71.384 281.283,72.885 281.08,72.985 L296.687,71.685 C293.583,67.884 288.582,65.784 283.48,66.883 C282.679,67.085 281.38,66.984 281.484,67.884 C281.484,68.683 282.68,68.183 283.48,68.183" id="Fill-13" fill="#C42427"></path>
                        <path d="M248.275,68.984 C249.175,69.083 250.275,69.083 250.576,70.083 C250.877,71.084 249.875,71.684 249.176,72.084 C248.877,72.183 248.676,72.383 248.375,72.484 L252.678,71.984 C249.578,68.183 252.276,67.783 248.276,67.884 C247.477,67.884 246.174,68.084 246.274,68.684 C246.375,69.384 247.477,68.883 248.275,68.984" id="Fill-14" fill="#C42427"></path>
                        <path d="M86.646,111.993 L86.415,111.993 C85.863,111.993 85.415,111.546 85.415,110.993 C85.415,110.44 85.863,109.993 86.415,109.993 L86.646,109.993 C87.198,109.993 87.646,110.44 87.646,110.993 C87.646,111.546 87.198,111.993 86.646,111.993" id="Fill-15" fill="#C42427"></path>
                        <path d="M157.758,160 C156.725,160 155.696,159.986 154.673,159.959 C154.121,159.943 153.685,159.484 153.7,158.932 C153.715,158.379 154.172,157.949 154.727,157.959 C156.301,158.002 157.891,158.015 159.48,157.982 C160.032,158.006 160.489,158.41 160.5,158.962 C160.511,159.515 160.072,159.971 159.52,159.982 C158.933,159.994 158.346,160 157.758,160 L157.758,160 L157.758,160 Z M164.493,159.761 C163.971,159.761 163.531,159.355 163.496,158.826 C163.46,158.275 163.877,157.799 164.429,157.763 C165.895,157.667 167.45,157.539 169.182,157.372 C169.729,157.308 170.221,157.722 170.273,158.271 C170.326,158.821 169.923,159.31 169.374,159.362 C167.621,159.531 166.046,159.661 164.56,159.759 C164.538,159.76 164.515,159.761 164.493,159.761 L164.493,159.761 L164.493,159.761 Z M149.706,159.717 C149.683,159.717 149.659,159.716 149.635,159.714 C148.017,159.6 146.394,159.449 144.812,159.268 C144.263,159.205 143.869,158.709 143.932,158.16 C143.995,157.612 144.499,157.213 145.04,157.281 C146.593,157.459 148.186,157.606 149.776,157.72 C150.327,157.759 150.742,158.236 150.703,158.787 C150.665,159.314 150.227,159.717 149.706,159.717 L149.706,159.717 L149.706,159.717 Z M139.974,158.593 C139.921,158.593 139.867,158.589 139.813,158.58 C138.212,158.321 136.609,158.024 135.047,157.696 C134.506,157.583 134.16,157.053 134.274,156.513 C134.387,155.972 134.915,155.625 135.458,155.739 C136.989,156.061 138.562,156.352 140.132,156.605 C140.677,156.693 141.048,157.207 140.96,157.752 C140.88,158.243 140.456,158.593 139.974,158.593 L139.974,158.593 L139.974,158.593 Z M174.149,158.271 C173.7,158.271 173.291,157.966 173.179,157.51 C173.047,156.973 173.375,156.432 173.911,156.3 L178.572,155.153 C179.108,155.016 179.65,155.349 179.782,155.885 C179.914,156.422 179.586,156.963 179.05,157.095 L174.389,158.241 C174.309,158.262 174.228,158.271 174.149,158.271 L174.149,158.271 L174.149,158.271 Z M263.065,158.268 L263.035,158.268 C261.41,158.22 259.778,158.126 258.186,157.986 C257.636,157.938 257.229,157.453 257.277,156.903 C257.325,156.354 257.823,155.945 258.36,155.994 C259.914,156.13 261.506,156.222 263.094,156.268 C263.646,156.284 264.08,156.744 264.065,157.297 C264.048,157.839 263.603,158.268 263.065,158.268 L263.065,158.268 L263.065,158.268 Z M268.065,158.265 C267.526,158.265 267.082,157.837 267.065,157.295 C267.049,156.743 267.483,156.282 268.035,156.265 C269.623,156.217 271.216,156.124 272.77,155.988 C273.316,155.938 273.806,156.348 273.853,156.897 C273.9,157.447 273.494,157.933 272.943,157.98 C271.352,158.12 269.721,158.215 268.096,158.265 L268.065,158.265 L268.065,158.265 Z M253.31,157.403 C253.262,157.403 253.211,157.399 253.161,157.393 C251.56,157.151 249.951,156.858 248.378,156.521 C247.838,156.405 247.494,155.873 247.61,155.333 C247.726,154.794 248.254,154.447 248.798,154.565 C250.33,154.895 251.898,155.18 253.458,155.414 C254.005,155.497 254.381,156.006 254.299,156.552 C254.224,157.048 253.798,157.403 253.31,157.403 L253.31,157.403 L253.31,157.403 Z M277.82,157.398 C277.333,157.398 276.906,157.043 276.832,156.547 C276.751,156 277.127,155.491 277.673,155.409 C279.248,155.174 280.816,154.89 282.335,154.566 C282.87,154.444 283.406,154.795 283.522,155.335 C283.637,155.875 283.293,156.406 282.753,156.521 C281.194,156.854 279.585,157.146 277.97,157.388 C277.919,157.395 277.869,157.398 277.82,157.398 L277.82,157.398 L277.82,157.398 Z M130.386,156.572 C130.302,156.572 130.216,156.562 130.131,156.539 C128.564,156.128 126.996,155.675 125.472,155.191 C124.946,155.024 124.654,154.463 124.821,153.937 C124.988,153.408 125.552,153.117 126.077,153.285 C127.569,153.758 129.104,154.202 130.639,154.605 C131.173,154.745 131.493,155.292 131.352,155.826 C131.235,156.275 130.83,156.572 130.386,156.572 L130.386,156.572 L130.386,156.572 Z M183.665,155.93 C183.216,155.93 182.808,155.624 182.695,155.168 C182.564,154.632 182.892,154.091 183.428,153.959 L188.089,152.813 C188.625,152.678 189.167,153.009 189.298,153.546 C189.43,154.082 189.102,154.623 188.565,154.755 L183.905,155.9 C183.825,155.921 183.745,155.93 183.665,155.93 L183.665,155.93 L183.665,155.93 Z M287.397,155.338 C286.961,155.338 286.56,155.052 286.435,154.612 C286.283,154.082 286.591,153.528 287.122,153.376 C288.655,152.938 290.169,152.448 291.621,151.921 C292.142,151.731 292.714,152 292.902,152.519 C293.092,153.038 292.823,153.611 292.305,153.8 C290.809,154.344 289.25,154.849 287.671,155.3 C287.579,155.325 287.487,155.338 287.397,155.338 L287.397,155.338 L287.397,155.338 Z M243.737,155.327 C243.646,155.327 243.553,155.314 243.461,155.288 C241.883,154.834 240.325,154.326 238.831,153.78 C238.312,153.59 238.046,153.016 238.235,152.497 C238.425,151.979 239,151.713 239.519,151.901 C240.969,152.432 242.481,152.925 244.014,153.366 C244.545,153.519 244.852,154.073 244.698,154.604 C244.572,155.042 244.172,155.327 243.737,155.327 L243.737,155.327 L243.737,155.327 Z M121.053,153.594 C120.935,153.594 120.814,153.573 120.697,153.528 C119.178,152.95 117.668,152.326 116.208,151.673 C115.704,151.446 115.479,150.855 115.704,150.351 C115.93,149.847 116.522,149.626 117.025,149.847 C118.45,150.485 119.925,151.095 121.408,151.659 C121.924,151.855 122.184,152.433 121.987,152.949 C121.835,153.349 121.456,153.594 121.053,153.594 L121.053,153.594 L121.053,153.594 Z M193.182,153.59 C192.732,153.59 192.323,153.284 192.212,152.828 C192.08,152.292 192.407,151.751 192.944,151.619 L197.605,150.474 C198.142,150.336 198.684,150.669 198.814,151.206 C198.946,151.742 198.619,152.283 198.082,152.415 L193.421,153.561 C193.341,153.581 193.261,153.59 193.182,153.59 L193.182,153.59 L193.182,153.59 Z M296.591,151.968 C296.211,151.968 295.849,151.751 295.681,151.384 C295.45,150.882 295.671,150.288 296.174,150.059 C297.631,149.392 299.043,148.671 300.371,147.917 C300.851,147.645 301.462,147.812 301.734,148.294 C302.007,148.773 301.838,149.384 301.357,149.657 C299.979,150.438 298.516,151.186 297.006,151.877 C296.871,151.938 296.729,151.968 296.591,151.968 L296.591,151.968 L296.591,151.968 Z M234.55,151.942 C234.41,151.942 234.269,151.913 234.133,151.851 C232.631,151.16 231.168,150.413 229.785,149.629 C229.305,149.356 229.136,148.746 229.408,148.266 C229.682,147.785 230.291,147.618 230.771,147.889 C232.105,148.646 233.517,149.367 234.969,150.034 C235.47,150.265 235.69,150.858 235.459,151.36 C235.291,151.727 234.929,151.942 234.55,151.942 L234.55,151.942 L234.55,151.942 Z M202.698,151.25 C202.249,151.25 201.841,150.945 201.729,150.489 C201.597,149.952 201.924,149.411 202.46,149.279 L207.121,148.133 C207.664,147.998 208.199,148.328 208.331,148.864 C208.463,149.401 208.136,149.942 207.6,150.074 L202.939,151.221 C202.857,151.241 202.777,151.25 202.698,151.25 L202.698,151.25 L202.698,151.25 Z M112.122,149.568 C111.964,149.568 111.804,149.531 111.655,149.452 C110.198,148.681 108.777,147.864 107.433,147.027 C106.963,146.735 106.82,146.119 107.112,145.65 C107.403,145.181 108.022,145.038 108.489,145.33 C109.794,146.143 111.175,146.935 112.591,147.685 C113.079,147.943 113.265,148.548 113.007,149.036 C112.827,149.375 112.48,149.568 112.122,149.568 L112.122,149.568 L112.122,149.568 Z M212.215,148.91 C211.766,148.91 211.357,148.605 211.245,148.149 C211.113,147.612 211.44,147.071 211.977,146.94 L216.638,145.793 C217.181,145.656 217.716,145.988 217.848,146.524 C217.98,147.062 217.652,147.603 217.116,147.734 L212.455,148.881 C212.374,148.901 212.294,148.91 212.215,148.91 L212.215,148.91 L212.215,148.91 Z M305.083,147.106 C304.771,147.106 304.463,146.961 304.269,146.687 C303.947,146.238 304.052,145.613 304.501,145.292 C305.804,144.362 307.031,143.377 308.149,142.362 C308.558,141.992 309.19,142.021 309.561,142.431 C309.933,142.84 309.902,143.472 309.493,143.843 C308.317,144.91 307.029,145.945 305.663,146.921 C305.487,147.046 305.284,147.106 305.083,147.106 L305.083,147.106 L305.083,147.106 Z M226.058,147.079 C225.857,147.079 225.655,147.02 225.48,146.895 C225.058,146.595 224.645,146.291 224.242,145.982 L221.972,146.541 C221.43,146.68 220.895,146.346 220.762,145.81 C220.63,145.273 220.957,144.731 221.493,144.6 L224.232,143.926 C224.529,143.851 224.846,143.919 225.087,144.108 C225.589,144.501 226.106,144.886 226.638,145.264 C227.088,145.584 227.193,146.208 226.874,146.658 C226.679,146.933 226.37,147.079 226.058,147.079 L226.058,147.079 L226.058,147.079 Z M103.823,144.373 C103.617,144.373 103.408,144.31 103.229,144.177 C101.895,143.19 100.617,142.154 99.431,141.103 C99.019,140.735 98.981,140.104 99.347,139.69 C99.713,139.277 100.346,139.239 100.759,139.606 C101.9,140.62 103.132,141.616 104.419,142.569 C104.863,142.898 104.956,143.524 104.628,143.968 C104.432,144.233 104.129,144.373 103.823,144.373 L103.823,144.373 L103.823,144.373 Z M312.271,140.492 C312.049,140.492 311.824,140.418 311.638,140.265 C311.211,139.914 311.149,139.284 311.5,138.857 C312.508,137.63 313.392,136.352 314.128,135.057 C314.399,134.576 315.008,134.407 315.491,134.682 C315.972,134.954 316.14,135.565 315.866,136.045 C315.074,137.439 314.125,138.812 313.045,140.127 C312.848,140.367 312.56,140.492 312.271,140.492 L312.271,140.492 L312.271,140.492 Z M96.533,137.852 C96.261,137.852 95.991,137.742 95.794,137.526 C94.668,136.293 93.625,135.012 92.694,133.717 C92.372,133.268 92.474,132.644 92.923,132.32 C93.37,131.997 93.995,132.101 94.318,132.549 C95.204,133.781 96.197,135.002 97.27,136.177 C97.643,136.585 97.614,137.218 97.206,137.59 C97.015,137.765 96.773,137.852 96.533,137.852 L96.533,137.852 L96.533,137.852 Z M317.004,131.986 C316.904,131.986 316.803,131.972 316.703,131.94 C316.177,131.773 315.884,131.212 316.05,130.686 C316.149,130.372 316.24,130.057 316.324,129.74 C316.422,129.374 316.719,129.094 317.091,129.018 C318.32,128.766 319.536,128.496 320.738,128.208 C321.275,128.084 321.815,128.411 321.943,128.948 C322.071,129.485 321.74,130.024 321.203,130.153 C320.175,130.399 319.138,130.633 318.09,130.853 C318.047,130.998 318.003,131.143 317.958,131.287 C317.823,131.714 317.429,131.986 317.004,131.986 L317.004,131.986 L317.004,131.986 Z M90.878,129.889 C90.518,129.889 90.17,129.694 89.991,129.353 C89.214,127.871 88.555,126.344 88.031,124.813 C87.852,124.29 88.131,123.722 88.654,123.543 C89.176,123.366 89.745,123.643 89.924,124.165 C90.415,125.6 91.033,127.032 91.763,128.425 C92.019,128.913 91.831,129.518 91.341,129.774 C91.193,129.852 91.034,129.889 90.878,129.889 L90.878,129.889 L90.878,129.889 Z M325.805,128.907 C325.37,128.907 324.97,128.622 324.844,128.184 C324.69,127.653 324.997,127.1 325.527,126.946 C327.058,126.506 328.584,126.027 330.065,125.525 C330.589,125.349 331.155,125.629 331.333,126.151 C331.51,126.675 331.229,127.242 330.707,127.42 C329.196,127.932 327.641,128.419 326.082,128.868 C325.989,128.895 325.896,128.907 325.805,128.907 L325.805,128.907 L325.805,128.907 Z M335.079,125.75 C334.682,125.75 334.306,125.511 334.149,125.119 C333.946,124.606 334.197,124.024 334.71,123.82 C336.19,123.233 337.66,122.606 339.077,121.956 C339.584,121.728 340.174,121.947 340.403,122.448 C340.634,122.95 340.413,123.544 339.911,123.774 C338.462,124.439 336.96,125.079 335.448,125.68 C335.327,125.728 335.202,125.75 335.079,125.75 L335.079,125.75 L335.079,125.75 Z M343.979,121.652 C343.621,121.652 343.275,121.46 343.096,121.121 C342.836,120.634 343.021,120.028 343.51,119.77 C344.919,119.021 346.304,118.231 347.626,117.423 C348.095,117.134 348.712,117.282 349,117.754 C349.289,118.225 349.141,118.84 348.669,119.128 C347.313,119.958 345.893,120.769 344.447,121.535 C344.298,121.615 344.138,121.652 343.979,121.652 L343.979,121.652 L343.979,121.652 Z M87.775,120.65 C87.291,120.65 86.866,120.298 86.789,119.805 C86.562,118.35 86.446,116.865 86.446,115.392 C86.446,115.266 86.436,115.139 86.419,115.012 C86.344,114.465 86.727,113.961 87.274,113.886 C87.816,113.816 88.325,114.194 88.4,114.742 C88.43,114.959 88.446,115.176 88.446,115.392 C88.446,116.762 88.554,118.143 88.765,119.496 C88.85,120.042 88.477,120.554 87.931,120.639 C87.879,120.647 87.827,120.65 87.775,120.65 L87.775,120.65 L87.775,120.65 Z M352.318,116.522 C352.006,116.522 351.698,116.376 351.503,116.102 C351.183,115.651 351.287,115.027 351.737,114.707 C353.037,113.781 354.298,112.812 355.482,111.827 C355.909,111.473 356.538,111.532 356.892,111.956 C357.244,112.381 357.185,113.012 356.762,113.364 C355.538,114.382 354.238,115.381 352.897,116.336 C352.722,116.461 352.519,116.522 352.318,116.522 L352.318,116.522 L352.318,116.522 Z M86.058,112.185 L86.044,112.185 C84.408,112.161 82.776,112.093 81.193,111.981 C80.642,111.942 80.227,111.464 80.266,110.913 C80.305,110.362 80.783,109.939 81.334,109.986 C82.88,110.095 84.474,110.162 86.072,110.185 C86.624,110.192 87.065,110.647 87.058,111.199 C87.05,111.746 86.603,112.185 86.058,112.185 L86.058,112.185 L86.058,112.185 Z M76.291,111.479 C76.248,111.479 76.203,111.476 76.158,111.47 C74.535,111.252 72.92,110.983 71.361,110.67 C70.819,110.562 70.468,110.034 70.577,109.492 C70.686,108.95 71.212,108.597 71.754,108.709 C73.272,109.014 74.843,109.275 76.423,109.487 C76.971,109.561 77.355,110.065 77.282,110.611 C77.214,111.113 76.785,111.479 76.291,111.479 L76.291,111.479 L76.291,111.479 Z M359.826,110.241 C359.568,110.241 359.311,110.143 359.116,109.945 C358.728,109.553 358.729,108.92 359.122,108.531 C360.257,107.406 361.328,106.241 362.306,105.069 C362.658,104.646 363.287,104.587 363.714,104.942 C364.138,105.296 364.195,105.927 363.841,106.351 C362.823,107.57 361.71,108.782 360.53,109.951 C360.335,110.145 360.081,110.241 359.826,110.241 L359.826,110.241 L359.826,110.241 Z M66.696,109.528 C66.607,109.528 66.517,109.517 66.427,109.491 C64.839,109.049 63.277,108.547 61.784,108.002 C61.266,107.813 60.998,107.238 61.188,106.72 C61.378,106.2 61.954,105.936 62.471,106.123 C63.915,106.65 65.427,107.136 66.964,107.565 C67.497,107.714 67.808,108.266 67.659,108.797 C67.536,109.239 67.134,109.528 66.696,109.528 L66.696,109.528 L66.696,109.528 Z M57.512,106.145 C57.369,106.145 57.225,106.114 57.087,106.05 C55.585,105.343 54.13,104.572 52.762,103.76 C52.288,103.479 52.131,102.864 52.413,102.39 C52.694,101.914 53.308,101.758 53.784,102.04 C55.097,102.82 56.495,103.561 57.938,104.239 C58.439,104.475 58.653,105.07 58.417,105.57 C58.247,105.933 57.887,106.145 57.512,106.145 L57.512,106.145 L57.512,106.145 Z M366.058,102.703 C365.868,102.703 365.678,102.649 365.508,102.538 C365.047,102.233 364.92,101.613 365.224,101.152 C366.096,99.831 366.882,98.47 367.56,97.106 C367.805,96.611 368.402,96.408 368.9,96.655 C369.395,96.901 369.597,97.502 369.351,97.996 C368.637,99.433 367.81,100.865 366.894,102.254 C366.701,102.545 366.383,102.703 366.058,102.703 L366.058,102.703 L366.058,102.703 Z M49.123,101.118 C48.912,101.118 48.7,101.052 48.519,100.916 C47.193,99.912 45.936,98.837 44.782,97.721 C44.386,97.336 44.375,96.703 44.76,96.307 C45.143,95.908 45.776,95.899 46.174,96.283 C47.269,97.344 48.464,98.366 49.727,99.32 C50.167,99.654 50.254,100.281 49.92,100.722 C49.724,100.981 49.425,101.118 49.123,101.118 L49.123,101.118 L49.123,101.118 Z M42.144,94.286 C41.845,94.286 41.549,94.152 41.352,93.898 C40.327,92.573 39.412,91.184 38.63,89.768 C38.363,89.283 38.539,88.676 39.023,88.408 C39.506,88.142 40.115,88.317 40.381,88.801 C41.113,90.127 41.972,91.431 42.934,92.674 C43.272,93.111 43.192,93.739 42.755,94.077 C42.573,94.218 42.357,94.286 42.144,94.286 L42.144,94.286 L42.144,94.286 Z M370.361,93.937 C370.257,93.937 370.151,93.92 370.047,93.886 C369.522,93.712 369.238,93.146 369.412,92.622 C369.902,91.141 370.285,89.625 370.548,88.119 C370.643,87.574 371.161,87.211 371.705,87.306 C372.249,87.401 372.613,87.919 372.519,88.463 C372.238,90.065 371.832,91.677 371.31,93.251 C371.172,93.671 370.781,93.937 370.361,93.937 L370.361,93.937 L370.361,93.937 Z M37.48,85.722 C37.064,85.722 36.675,85.46 36.534,85.045 C35.997,83.474 35.599,81.852 35.351,80.226 C35.267,79.679 35.642,79.169 36.188,79.086 C36.73,79.003 37.244,79.377 37.327,79.923 C37.558,81.433 37.928,82.938 38.426,84.398 C38.605,84.921 38.326,85.489 37.803,85.668 C37.696,85.705 37.587,85.722 37.48,85.722 L37.48,85.722 L37.48,85.722 Z M371.999,84.324 L371.985,84.324 C371.434,84.316 370.992,83.863 370.999,83.311 L371.002,82.889 C371.002,81.488 370.903,80.072 370.709,78.682 C370.633,78.134 371.014,77.629 371.56,77.553 C372.106,77.472 372.613,77.857 372.69,78.404 C372.897,79.887 373.002,81.396 373.002,82.889 L372.999,83.338 C372.991,83.886 372.545,84.324 371.999,84.324 L371.999,84.324 L371.999,84.324 Z M1.842,78.18 C1.298,78.18 0.852,77.743 0.842,77.197 C0.833,76.645 1.272,76.19 1.825,76.18 L5.071,76.123 C4.978,75.618 5.286,75.118 5.79,74.979 L10.419,73.709 C10.95,73.559 11.501,73.876 11.648,74.408 C11.794,74.941 11.481,75.491 10.948,75.637 L7.5,76.584 C7.587,76.729 7.638,76.897 7.642,77.079 C7.651,77.631 7.211,78.086 6.659,78.096 L1.86,78.18 L1.842,78.18 L1.842,78.18 Z M11.64,78.009 C11.096,78.009 10.65,77.573 10.641,77.027 C10.631,76.475 11.071,76.019 11.623,76.009 L16.422,75.926 C16.971,75.92 17.43,76.356 17.44,76.908 C17.449,77.46 17.01,77.916 16.458,77.926 L11.658,78.009 L11.64,78.009 L11.64,78.009 Z M21.439,77.839 C20.895,77.839 20.449,77.402 20.439,76.856 C20.43,76.304 20.87,75.849 21.422,75.839 L26.221,75.755 C26.775,75.737 27.229,76.186 27.239,76.738 C27.248,77.29 26.809,77.746 26.256,77.755 L21.457,77.839 L21.439,77.839 L21.439,77.839 Z M31.237,77.669 C30.693,77.669 30.248,77.232 30.238,76.686 C30.229,76.134 30.668,75.678 31.22,75.669 L36.02,75.585 C36.581,75.6 37.027,76.016 37.037,76.567 C37.046,77.12 36.607,77.575 36.055,77.585 L31.255,77.669 L31.237,77.669 L31.237,77.669 Z M370.626,74.674 C370.196,74.674 369.8,74.396 369.669,73.963 C369.226,72.502 368.668,71.04 368.011,69.617 C367.779,69.116 367.998,68.521 368.5,68.29 C369.003,68.056 369.596,68.278 369.827,68.778 C370.522,70.284 371.113,71.834 371.583,73.383 C371.743,73.912 371.444,74.47 370.916,74.63 C370.819,74.66 370.722,74.674 370.626,74.674 L370.626,74.674 L370.626,74.674 Z M15.505,74.35 C15.065,74.35 14.663,74.058 14.541,73.614 C14.395,73.081 14.708,72.531 15.241,72.385 L19.869,71.114 C20.401,70.966 20.952,71.282 21.098,71.814 C21.244,72.347 20.931,72.897 20.398,73.043 L15.77,74.313 C15.682,74.338 15.592,74.35 15.505,74.35 L15.505,74.35 L15.505,74.35 Z M24.955,71.755 C24.516,71.755 24.113,71.463 23.991,71.02 C23.845,70.487 24.158,69.937 24.691,69.791 L29.32,68.52 C29.852,68.373 30.402,68.687 30.549,69.22 C30.695,69.752 30.382,70.303 29.849,70.449 L25.22,71.719 C25.132,71.744 25.042,71.755 24.955,71.755 L24.955,71.755 L24.955,71.755 Z M34.405,69.161 C33.966,69.161 33.563,68.87 33.441,68.425 C33.295,67.893 33.608,67.343 34.141,67.196 L36.452,66.562 C36.597,66.126 36.752,65.693 36.918,65.265 C37.118,64.749 37.699,64.494 38.211,64.693 C38.726,64.892 38.982,65.471 38.783,65.986 C38.568,66.544 38.371,67.108 38.194,67.679 C38.093,68.005 37.832,68.257 37.503,68.347 L34.67,69.125 C34.582,69.149 34.493,69.161 34.405,69.161 L34.405,69.161 L34.405,69.161 Z M366.531,65.814 C366.199,65.814 365.875,65.649 365.685,65.348 C364.871,64.058 363.957,62.775 362.967,61.534 C362.622,61.102 362.692,60.473 363.124,60.128 C363.558,59.784 364.185,59.855 364.529,60.287 C365.565,61.585 366.523,62.929 367.376,64.281 C367.671,64.748 367.531,65.365 367.064,65.66 C366.898,65.764 366.714,65.814 366.531,65.814 L366.531,65.814 L366.531,65.814 Z M40.054,62.149 C39.877,62.149 39.698,62.102 39.536,62.004 C39.064,61.718 38.913,61.103 39.2,60.63 C40.043,59.239 41.019,57.889 42.101,56.618 C42.458,56.197 43.089,56.146 43.51,56.504 C43.931,56.862 43.982,57.493 43.624,57.914 C42.612,59.104 41.699,60.367 40.91,61.668 C40.722,61.978 40.392,62.149 40.054,62.149 L40.054,62.149 L40.054,62.149 Z M360.433,58.172 C360.173,58.172 359.914,58.072 359.718,57.872 C358.647,56.777 357.489,55.694 356.278,54.653 C355.859,54.294 355.811,53.662 356.171,53.243 C356.532,52.825 357.165,52.778 357.581,53.137 C358.836,54.214 360.035,55.337 361.147,56.473 C361.533,56.868 361.526,57.501 361.132,57.887 C360.937,58.078 360.685,58.172 360.433,58.172 L360.433,58.172 L360.433,58.172 Z M46.379,54.72 C46.1,54.72 45.822,54.604 45.624,54.376 C45.261,53.96 45.306,53.328 45.722,52.965 C46.932,51.913 48.25,50.91 49.64,49.984 C50.099,49.677 50.72,49.802 51.026,50.261 C51.333,50.721 51.209,51.342 50.749,51.648 C49.43,52.527 48.18,53.478 47.035,54.474 C46.845,54.639 46.611,54.72 46.379,54.72 L46.379,54.72 L46.379,54.72 Z M353.011,51.793 C352.807,51.793 352.6,51.73 352.422,51.6 C351.179,50.692 349.861,49.798 348.507,48.945 C348.04,48.65 347.899,48.033 348.194,47.565 C348.488,47.098 349.106,46.96 349.573,47.252 C350.967,48.131 352.322,49.05 353.602,49.985 C354.048,50.311 354.145,50.937 353.819,51.382 C353.623,51.65 353.319,51.793 353.011,51.793 L353.011,51.793 L353.011,51.793 Z M54.51,49.299 C54.146,49.299 53.794,49.1 53.618,48.752 C53.367,48.26 53.563,47.658 54.055,47.408 C55.473,46.686 56.977,46.013 58.523,45.408 C59.037,45.206 59.617,45.461 59.818,45.975 C60.019,46.49 59.766,47.069 59.251,47.271 C57.766,47.852 56.323,48.498 54.962,49.19 C54.817,49.264 54.662,49.299 54.51,49.299 L54.51,49.299 L54.51,49.299 Z M344.726,46.573 C344.565,46.573 344.4,46.534 344.249,46.451 C342.884,45.709 341.46,44.987 340.019,44.306 C339.519,44.07 339.306,43.474 339.541,42.975 C339.777,42.476 340.371,42.261 340.872,42.498 C342.349,43.195 343.806,43.934 345.204,44.694 C345.69,44.958 345.869,45.565 345.605,46.05 C345.424,46.384 345.08,46.573 344.726,46.573 L344.726,46.573 L344.726,46.573 Z M63.62,45.735 C63.186,45.735 62.787,45.451 62.66,45.014 C62.506,44.483 62.811,43.929 63.341,43.774 C64.862,43.333 66.454,42.936 68.07,42.597 C68.615,42.486 69.142,42.829 69.254,43.37 C69.368,43.91 69.022,44.44 68.481,44.554 C66.914,44.883 65.372,45.267 63.899,45.695 C63.806,45.722 63.712,45.735 63.62,45.735 L63.62,45.735 L63.62,45.735 Z M96.15,43.78 C96.113,43.78 96.077,43.778 96.04,43.773 C94.951,43.653 93.816,43.532 92.658,43.422 C92.108,43.37 91.705,42.882 91.757,42.332 C91.809,41.782 92.298,41.377 92.847,41.431 C93.468,41.49 94.082,41.552 94.687,41.615 C94.619,41.122 94.929,40.644 95.422,40.514 C95.959,40.372 96.503,40.691 96.644,41.225 C96.748,41.618 96.882,41.987 97.055,42.355 C97.209,42.682 97.174,43.067 96.963,43.362 C96.774,43.626 96.47,43.78 96.15,43.78 L96.15,43.78 L96.15,43.78 Z M73.2,43.727 C72.708,43.727 72.279,43.363 72.21,42.862 C72.136,42.315 72.519,41.811 73.065,41.736 C74.639,41.521 76.265,41.349 77.898,41.227 C78.455,41.177 78.929,41.598 78.97,42.149 C79.012,42.7 78.599,43.18 78.048,43.221 C76.455,43.34 74.87,43.507 73.337,43.717 C73.291,43.724 73.245,43.727 73.2,43.727 L73.2,43.727 L73.2,43.727 Z M87.766,43.058 C87.75,43.058 87.733,43.057 87.717,43.057 C85.993,42.974 84.472,42.967 82.984,42.993 C82.443,42.978 81.977,42.563 81.967,42.011 C81.957,41.459 82.397,41.003 82.949,40.993 C84.479,40.967 86.046,40.975 87.813,41.059 C88.365,41.085 88.79,41.554 88.764,42.106 C88.738,42.641 88.296,43.058 87.766,43.058 L87.766,43.058 L87.766,43.058 Z M335.868,42.393 C335.742,42.393 335.614,42.369 335.491,42.318 C334.047,41.731 332.553,41.164 331.048,40.636 C330.526,40.453 330.252,39.882 330.435,39.361 C330.618,38.84 331.19,38.564 331.71,38.749 C333.246,39.288 334.771,39.866 336.245,40.466 C336.757,40.674 337.003,41.258 336.794,41.769 C336.637,42.157 336.263,42.393 335.868,42.393 L335.868,42.393 L335.868,42.393 Z M326.622,39.151 C326.528,39.151 326.432,39.138 326.337,39.109 C324.837,38.662 323.293,38.239 321.749,37.852 C321.213,37.717 320.888,37.174 321.022,36.638 C321.156,36.102 321.704,35.775 322.235,35.912 C323.808,36.307 325.38,36.737 326.907,37.192 C327.437,37.35 327.738,37.907 327.58,38.437 C327.451,38.871 327.054,39.151 326.622,39.151 L326.622,39.151 L326.622,39.151 Z M95.398,37.51 C95.369,37.51 95.339,37.509 95.309,37.506 C94.759,37.458 94.353,36.972 94.401,36.422 C94.55,34.74 95.028,33.079 95.82,31.486 C96.065,30.99 96.665,30.788 97.16,31.035 C97.655,31.281 97.856,31.881 97.611,32.376 C96.93,33.745 96.52,35.166 96.394,36.599 C96.348,37.119 95.911,37.51 95.398,37.51 L95.398,37.51 L95.398,37.51 Z M317.116,36.773 C317.05,36.773 316.982,36.766 316.915,36.752 C315.369,36.436 313.794,36.147 312.233,35.893 C311.688,35.804 311.318,35.29 311.407,34.745 C311.496,34.199 312.01,33.823 312.556,33.919 C314.143,34.177 315.744,34.472 317.315,34.793 C317.856,34.903 318.206,35.432 318.095,35.973 C317.998,36.446 317.581,36.773 317.116,36.773 L317.116,36.773 L317.116,36.773 Z M307.445,35.203 C307.405,35.203 307.365,35.201 307.324,35.196 C305.758,35.006 304.164,34.844 302.587,34.713 C302.036,34.668 301.627,34.185 301.672,33.634 C301.718,33.085 302.212,32.672 302.751,32.72 C304.354,32.853 305.974,33.018 307.565,33.21 C308.113,33.277 308.504,33.775 308.437,34.323 C308.376,34.831 307.944,35.203 307.445,35.203 L307.445,35.203 L307.445,35.203 Z M297.68,34.402 C297.665,34.402 297.65,34.401 297.636,34.401 C296.054,34.332 294.451,34.292 292.873,34.282 C292.321,34.278 291.876,33.827 291.88,33.275 C291.884,32.725 292.331,32.282 292.88,32.282 L292.887,32.282 C294.489,32.293 296.116,32.333 297.722,32.403 C298.273,32.427 298.702,32.894 298.678,33.445 C298.654,33.982 298.212,34.402 297.68,34.402 L297.68,34.402 L297.68,34.402 Z M288.624,33.039 C288.273,33.039 287.934,32.855 287.75,32.527 C287.011,31.205 286.157,29.887 285.213,28.609 C284.884,28.165 284.978,27.539 285.422,27.21 C285.866,26.881 286.494,26.976 286.82,27.42 C287.815,28.766 288.716,30.155 289.496,31.551 C289.766,32.033 289.593,32.642 289.111,32.912 C288.957,32.998 288.789,33.039 288.624,33.039 L288.624,33.039 L288.624,33.039 Z M99.601,28.874 C99.354,28.874 99.106,28.783 98.913,28.599 C98.512,28.219 98.495,27.586 98.875,27.186 C99.968,26.033 101.25,24.945 102.686,23.953 C103.141,23.639 103.763,23.753 104.078,24.206 C104.392,24.661 104.278,25.284 103.824,25.598 C102.501,26.512 101.324,27.509 100.326,28.561 C100.129,28.769 99.865,28.874 99.601,28.874 L99.601,28.874 L99.601,28.874 Z M153.415,27.643 C153.194,27.643 152.973,27.57 152.788,27.421 C152.358,27.075 152.29,26.445 152.637,26.015 C153.637,24.776 154.739,23.55 155.913,22.37 C156.302,21.979 156.936,21.977 157.327,22.366 C157.718,22.755 157.72,23.388 157.331,23.78 C156.206,24.911 155.15,26.086 154.194,27.271 C153.996,27.516 153.707,27.643 153.415,27.643 L153.415,27.643 L153.415,27.643 Z M149.76,25.932 C149.559,25.932 149.356,25.872 149.18,25.746 C147.979,24.888 146.638,24.094 145.195,23.388 C144.699,23.145 144.494,22.546 144.737,22.05 C144.98,21.554 145.581,21.351 146.075,21.592 C147.616,22.347 149.052,23.197 150.342,24.118 C150.792,24.439 150.896,25.064 150.575,25.513 C150.38,25.787 150.072,25.932 149.76,25.932 L149.76,25.932 L149.76,25.932 Z M282.815,25.178 C282.548,25.178 282.281,25.072 282.085,24.861 C281.043,23.745 279.908,22.643 278.712,21.586 C278.298,21.22 278.259,20.588 278.625,20.174 C278.991,19.761 279.623,19.722 280.036,20.087 C281.28,21.187 282.461,22.333 283.547,23.496 C283.923,23.899 283.901,24.532 283.498,24.909 C283.305,25.089 283.06,25.178 282.815,25.178 L282.815,25.178 L282.815,25.178 Z M107.59,23.295 C107.215,23.295 106.856,23.083 106.686,22.722 C106.45,22.222 106.664,21.626 107.163,21.391 C108.605,20.71 110.147,20.104 111.747,19.587 C112.272,19.419 112.836,19.706 113.006,20.231 C113.175,20.757 112.887,21.321 112.361,21.49 C110.843,21.98 109.381,22.555 108.017,23.199 C107.879,23.264 107.733,23.295 107.59,23.295 L107.59,23.295 L107.59,23.295 Z M141.003,21.616 C140.9,21.616 140.795,21.599 140.691,21.565 C139.243,21.089 137.72,20.683 136.164,20.359 C135.623,20.247 135.276,19.717 135.388,19.177 C135.5,18.636 136.025,18.289 136.571,18.401 C138.2,18.74 139.797,19.165 141.316,19.665 C141.84,19.838 142.126,20.403 141.953,20.928 C141.815,21.349 141.424,21.616 141.003,21.616 L141.003,21.616 L141.003,21.616 Z M160.314,20.708 C160.027,20.708 159.743,20.585 159.545,20.347 C159.192,19.921 159.25,19.291 159.675,18.939 C160.899,17.921 162.204,16.925 163.553,15.977 C164.005,15.66 164.628,15.769 164.946,16.221 C165.264,16.672 165.155,17.296 164.703,17.614 C163.398,18.531 162.136,19.494 160.953,20.477 C160.766,20.632 160.54,20.708 160.314,20.708 L160.314,20.708 L160.314,20.708 Z M116.892,20.288 C116.424,20.288 116.007,19.958 115.912,19.482 C115.805,18.94 116.157,18.414 116.698,18.307 C118.274,17.994 119.906,17.756 121.547,17.601 C122.087,17.551 122.585,17.952 122.637,18.502 C122.689,19.052 122.286,19.54 121.736,19.592 C120.162,19.741 118.598,19.969 117.088,20.269 C117.022,20.282 116.956,20.288 116.892,20.288 L116.892,20.288 L116.892,20.288 Z M131.428,19.626 C131.394,19.626 131.36,19.624 131.327,19.621 C129.788,19.467 128.208,19.384 126.629,19.376 C126.077,19.373 125.632,18.923 125.635,18.371 C125.638,17.82 126.085,17.376 126.635,17.376 L126.64,17.376 C128.281,17.385 129.925,17.471 131.526,17.631 C132.076,17.686 132.477,18.176 132.421,18.726 C132.37,19.241 131.935,19.626 131.428,19.626 L131.428,19.626 L131.428,19.626 Z M275.484,18.696 C275.278,18.696 275.069,18.632 274.891,18.5 C273.658,17.588 272.345,16.693 270.988,15.839 C270.522,15.544 270.381,14.927 270.675,14.46 C270.971,13.993 271.585,13.853 272.055,14.147 C273.452,15.027 274.807,15.951 276.08,16.892 C276.523,17.22 276.618,17.846 276.289,18.291 C276.094,18.556 275.791,18.696 275.484,18.696 L275.484,18.696 L275.484,18.696 Z M168.325,15.078 C167.985,15.078 167.653,14.904 167.465,14.59 C167.183,14.116 167.337,13.502 167.811,13.219 C169.177,12.404 170.609,11.612 172.068,10.865 C172.562,10.614 173.163,10.809 173.414,11.299 C173.665,11.79 173.471,12.393 172.98,12.645 C171.559,13.373 170.165,14.144 168.837,14.936 C168.676,15.032 168.499,15.078 168.325,15.078 L168.325,15.078 L168.325,15.078 Z M267.197,13.481 C267.038,13.481 266.876,13.443 266.726,13.363 C265.358,12.63 263.931,11.92 262.482,11.253 C261.98,11.022 261.761,10.428 261.992,9.927 C262.222,9.425 262.814,9.204 263.318,9.436 C264.804,10.12 266.269,10.848 267.671,11.6 C268.157,11.861 268.341,12.467 268.079,12.954 C267.899,13.29 267.554,13.481 267.197,13.481 L267.197,13.481 L267.197,13.481 Z M177.043,10.617 C176.658,10.617 176.29,10.393 176.126,10.017 C175.906,9.511 176.137,8.921 176.643,8.7 C178.102,8.064 179.617,7.452 181.145,6.882 C181.661,6.688 182.238,6.952 182.431,7.47 C182.623,7.988 182.36,8.564 181.843,8.756 C180.349,9.313 178.869,9.911 177.443,10.533 C177.313,10.59 177.177,10.617 177.043,10.617 L177.043,10.617 L177.043,10.617 Z M258.3,9.39 C258.179,9.39 258.056,9.367 257.935,9.32 C256.485,8.753 254.982,8.21 253.47,7.708 C252.945,7.534 252.662,6.967 252.836,6.443 C253.011,5.919 253.577,5.633 254.101,5.81 C255.646,6.324 257.182,6.878 258.664,7.458 C259.179,7.659 259.433,8.239 259.231,8.753 C259.077,9.148 258.699,9.39 258.3,9.39 L258.3,9.39 L258.3,9.39 Z M186.224,7.203 C185.798,7.203 185.404,6.928 185.27,6.501 C185.105,5.974 185.399,5.413 185.926,5.248 C187.449,4.772 189.018,4.323 190.588,3.915 C191.122,3.777 191.668,4.096 191.808,4.63 C191.946,5.165 191.626,5.711 191.092,5.85 C189.553,6.251 188.016,6.69 186.523,7.157 C186.424,7.188 186.323,7.203 186.224,7.203 L186.224,7.203 L186.224,7.203 Z M249.003,6.306 C248.914,6.306 248.825,6.294 248.735,6.269 C247.228,5.853 245.678,5.463 244.125,5.111 C243.586,4.989 243.248,4.453 243.37,3.915 C243.492,3.376 244.028,3.035 244.566,3.161 C246.149,3.52 247.731,3.917 249.269,4.341 C249.801,4.488 250.113,5.039 249.966,5.571 C249.844,6.015 249.441,6.306 249.003,6.306 L249.003,6.306 L249.003,6.306 Z M195.706,4.741 C195.242,4.741 194.827,4.417 194.729,3.946 C194.615,3.406 194.962,2.876 195.502,2.762 C197.067,2.435 198.67,2.137 200.266,1.876 C200.814,1.79 201.325,2.158 201.414,2.702 C201.503,3.248 201.133,3.761 200.588,3.85 C199.021,4.106 197.448,4.398 195.912,4.72 C195.843,4.734 195.773,4.741 195.706,4.741 L195.706,4.741 L195.706,4.741 Z M239.446,4.144 C239.389,4.144 239.329,4.139 239.27,4.128 C237.719,3.852 236.137,3.606 234.569,3.395 C234.021,3.322 233.638,2.819 233.711,2.271 C233.784,1.724 234.283,1.343 234.835,1.413 C236.432,1.627 238.041,1.878 239.62,2.16 C240.164,2.256 240.526,2.775 240.43,3.319 C240.344,3.804 239.922,4.144 239.446,4.144 L239.446,4.144 L239.446,4.144 Z M205.376,3.168 C204.876,3.168 204.443,2.794 204.384,2.285 C204.319,1.736 204.712,1.239 205.26,1.175 C206.845,0.988 208.466,0.832 210.079,0.71 C210.624,0.672 211.109,1.081 211.151,1.632 C211.193,2.183 210.78,2.663 210.23,2.704 C208.645,2.824 207.051,2.978 205.494,3.161 C205.454,3.166 205.415,3.168 205.376,3.168 L205.376,3.168 L205.376,3.168 Z M229.734,2.849 C229.704,2.849 229.674,2.847 229.644,2.845 C228.073,2.704 226.477,2.592 224.896,2.515 C224.345,2.488 223.919,2.019 223.946,1.467 C223.974,0.915 224.439,0.503 224.994,0.517 C226.602,0.596 228.226,0.709 229.823,0.852 C230.373,0.902 230.779,1.388 230.73,1.938 C230.683,2.458 230.246,2.849 229.734,2.849 L229.734,2.849 L229.734,2.849 Z M215.146,2.437 C214.609,2.437 214.166,2.011 214.148,1.47 C214.13,0.918 214.562,0.456 215.115,0.438 C216.425,0.395 217.745,0.374 219.072,0.373 L219.954,0.376 C220.506,0.38 220.951,0.831 220.947,1.383 C220.943,1.933 220.496,2.376 219.947,2.376 L219.94,2.376 L219.072,2.373 C217.767,2.374 216.469,2.395 215.18,2.437 L215.146,2.437 L215.146,2.437 Z" id="Fill-16" fill="#FFFFFF"></path>
                        <path d="M176.099,113.172 L176.099,105.314 L172.933,113.172 L172.456,113.172 L169.277,105.314 L169.277,113.172 L168.114,113.172 L168.114,103.829 L169.781,103.829 L172.694,111.028 L175.594,103.829 L177.261,103.829 L177.261,113.172 L176.099,113.172" id="Fill-17" fill="#C42427"></path>
                        <path d="M183.629,113.172 L183.629,112.401 C183.082,113.018 182.298,113.34 181.388,113.34 C180.253,113.34 179.034,112.569 179.034,111.099 C179.034,109.572 180.238,108.871 181.388,108.871 C182.311,108.871 183.082,109.166 183.629,109.782 L183.629,108.564 C183.629,107.667 182.9,107.148 181.92,107.148 C181.107,107.148 180.449,107.429 179.847,108.087 L179.356,107.358 C180.085,106.603 180.953,106.238 182.06,106.238 C183.503,106.238 184.679,106.883 184.679,108.522 L184.679,113.172 L183.629,113.172 L183.629,113.172 Z M183.629,111.743 L183.629,110.454 C183.223,109.908 182.508,109.628 181.779,109.628 C180.785,109.628 180.099,110.244 180.099,111.099 C180.099,111.967 180.785,112.584 181.779,112.584 C182.508,112.584 183.223,112.304 183.629,111.743 L183.629,111.743 L183.629,111.743 Z" id="Fill-18" fill="#C42427"></path>
                        <path d="M186.775,114.895 L187.308,114.139 C187.868,114.797 188.541,115.049 189.507,115.049 C190.628,115.049 191.692,114.503 191.692,113.074 L191.692,112.052 C191.189,112.737 190.361,113.256 189.409,113.256 C187.645,113.256 186.398,111.94 186.398,109.754 C186.398,107.583 187.63,106.238 189.409,106.238 C190.319,106.238 191.146,106.687 191.692,107.429 L191.692,106.406 L192.743,106.406 L192.743,113.074 C192.743,115.217 191.16,115.917 189.507,115.917 C188.373,115.917 187.588,115.693 186.775,114.895 L186.775,114.895 L186.775,114.895 Z M191.692,111.225 L191.692,108.255 C191.314,107.681 190.502,107.177 189.676,107.177 C188.303,107.177 187.49,108.255 187.49,109.754 C187.49,111.239 188.303,112.317 189.676,112.317 C190.502,112.317 191.314,111.814 191.692,111.225 L191.692,111.225 L191.692,111.225 Z" id="Fill-19" fill="#C42427"></path>
                        <path d="M199.07,113.172 L199.07,112.401 C198.523,113.018 197.739,113.34 196.829,113.34 C195.694,113.34 194.476,112.569 194.476,111.099 C194.476,109.572 195.68,108.871 196.829,108.871 C197.753,108.871 198.523,109.166 199.07,109.782 L199.07,108.564 C199.07,107.667 198.342,107.148 197.361,107.148 C196.549,107.148 195.891,107.429 195.288,108.087 L194.798,107.358 C195.526,106.603 196.394,106.238 197.501,106.238 C198.944,106.238 200.12,106.883 200.12,108.522 L200.12,113.172 L199.07,113.172 L199.07,113.172 Z M199.07,111.743 L199.07,110.454 C198.664,109.908 197.949,109.628 197.221,109.628 C196.227,109.628 195.54,110.244 195.54,111.099 C195.54,111.967 196.227,112.584 197.221,112.584 C197.949,112.584 198.664,112.304 199.07,111.743 L199.07,111.743 L199.07,111.743 Z M197.403,105.384 L196.605,105.384 L198.678,103.366 L199.77,103.366 L197.403,105.384 L197.403,105.384 Z" id="Fill-20" fill="#C42427"></path>
                        <path d="M206.812,113.172 L206.812,108.745 C206.812,107.541 206.196,107.177 205.286,107.177 C204.459,107.177 203.689,107.681 203.283,108.228 L203.283,113.172 L202.232,113.172 L202.232,106.406 L203.283,106.406 L203.283,107.387 C203.759,106.813 204.684,106.238 205.706,106.238 C207.106,106.238 207.85,106.952 207.85,108.423 L207.85,113.172 L206.812,113.172" id="Fill-21" fill="#C42427"></path>
                        <path d="M209.567,109.782 C209.567,107.821 210.856,106.238 212.915,106.238 C214.975,106.238 216.263,107.821 216.263,109.782 C216.263,111.743 214.975,113.34 212.915,113.34 C210.856,113.34 209.567,111.743 209.567,109.782 L209.567,109.782 L209.567,109.782 Z M215.156,109.782 C215.156,108.409 214.358,107.177 212.915,107.177 C211.473,107.177 210.674,108.409 210.674,109.782 C210.674,111.169 211.473,112.401 212.915,112.401 C214.358,112.401 215.156,111.169 215.156,109.782 L215.156,109.782 L215.156,109.782 Z M212.789,105.384 L211.991,105.384 L214.064,103.366 L215.156,103.366 L212.789,105.384 L212.789,105.384 Z" id="Fill-22" fill="#C42427"></path>
                        <path d="M219.774,113.172 L216.959,106.406 L218.107,106.406 L220.349,111.953 L222.605,106.406 L223.738,106.406 L220.923,113.172 L219.774,113.172" id="Fill-23" fill="#C42427"></path>
                        <path d="M224.435,109.782 C224.435,107.821 225.724,106.238 227.782,106.238 C229.842,106.238 231.13,107.821 231.13,109.782 C231.13,111.743 229.842,113.34 227.782,113.34 C225.724,113.34 224.435,111.743 224.435,109.782 L224.435,109.782 L224.435,109.782 Z M230.023,109.782 C230.023,108.409 229.226,107.177 227.782,107.177 C226.34,107.177 225.541,108.409 225.541,109.782 C225.541,111.169 226.34,112.401 227.782,112.401 C229.226,112.401 230.023,111.169 230.023,109.782 L230.023,109.782 L230.023,109.782 Z" id="Fill-24" fill="#C42427"></path>
                        <path d="M237.738,113.172 L237.738,112.163 C237.234,112.85 236.407,113.34 235.455,113.34 C233.69,113.34 232.443,111.995 232.443,109.796 C232.443,107.625 233.69,106.238 235.455,106.238 C236.365,106.238 237.192,106.687 237.738,107.429 L237.738,103.829 L238.789,103.829 L238.789,113.172 L237.738,113.172 L237.738,113.172 Z M237.738,111.323 L237.738,108.27 C237.374,107.681 236.548,107.177 235.722,107.177 C234.349,107.177 233.536,108.297 233.536,109.796 C233.536,111.295 234.349,112.401 235.722,112.401 C236.548,112.401 237.374,111.911 237.738,111.323 L237.738,111.323 L237.738,111.323 Z" id="Fill-25" fill="#C42427"></path>
                        <path d="M245.116,113.172 L245.116,112.401 C244.569,113.018 243.785,113.34 242.875,113.34 C241.74,113.34 240.521,112.569 240.521,111.099 C240.521,109.572 241.726,108.871 242.875,108.871 C243.799,108.871 244.569,109.166 245.116,109.782 L245.116,108.564 C245.116,107.667 244.388,107.148 243.407,107.148 C242.595,107.148 241.936,107.429 241.334,108.087 L240.844,107.358 C241.572,106.603 242.44,106.238 243.547,106.238 C244.989,106.238 246.166,106.883 246.166,108.522 L246.166,113.172 L245.116,113.172 L245.116,113.172 Z M245.116,111.743 L245.116,110.454 C244.71,109.908 243.995,109.628 243.267,109.628 C242.273,109.628 241.586,110.244 241.586,111.099 C241.586,111.967 242.273,112.584 243.267,112.584 C243.995,112.584 244.71,112.304 245.116,111.743 L245.116,111.743 L245.116,111.743 Z" id="Fill-26" fill="#C42427"></path>
                        <g id="Imported-Layers" fill="#FFFFFF">
                            <path d="M86.646,111.993 L86.415,111.993 C85.863,111.993 85.415,111.546 85.415,110.993 C85.415,110.44 85.863,109.993 86.415,109.993 L86.646,109.993 C87.198,109.993 87.646,110.44 87.646,110.993 C87.646,111.546 87.198,111.993 86.646,111.993" id="Fill-1"></path>
                            <path d="M157.758,160 C156.725,160 155.696,159.986 154.673,159.959 C154.121,159.943 153.685,159.484 153.7,158.932 C153.715,158.379 154.172,157.949 154.727,157.959 C156.301,158.002 157.891,158.015 159.48,157.982 C160.032,158.006 160.489,158.41 160.5,158.962 C160.511,159.515 160.072,159.971 159.52,159.982 C158.933,159.994 158.346,160 157.758,160 L157.758,160 L157.758,160 Z M164.493,159.761 C163.971,159.761 163.531,159.355 163.496,158.826 C163.46,158.275 163.877,157.799 164.429,157.763 C165.895,157.667 167.45,157.539 169.182,157.372 C169.729,157.308 170.221,157.722 170.273,158.271 C170.326,158.821 169.923,159.31 169.374,159.362 C167.621,159.531 166.046,159.661 164.56,159.759 C164.538,159.76 164.515,159.761 164.493,159.761 L164.493,159.761 L164.493,159.761 Z M149.706,159.717 C149.683,159.717 149.659,159.716 149.635,159.714 C148.017,159.6 146.394,159.449 144.812,159.268 C144.263,159.205 143.869,158.709 143.932,158.16 C143.995,157.612 144.499,157.213 145.04,157.281 C146.593,157.459 148.186,157.606 149.776,157.72 C150.327,157.759 150.742,158.236 150.703,158.787 C150.665,159.314 150.227,159.717 149.706,159.717 L149.706,159.717 L149.706,159.717 Z M139.974,158.593 C139.921,158.593 139.867,158.589 139.813,158.58 C138.212,158.321 136.609,158.024 135.047,157.696 C134.506,157.583 134.16,157.053 134.274,156.513 C134.387,155.972 134.915,155.625 135.458,155.739 C136.989,156.061 138.562,156.352 140.132,156.605 C140.677,156.693 141.048,157.207 140.96,157.752 C140.88,158.243 140.456,158.593 139.974,158.593 L139.974,158.593 L139.974,158.593 Z M174.149,158.271 C173.7,158.271 173.291,157.966 173.179,157.51 C173.047,156.973 173.375,156.432 173.911,156.3 L178.572,155.153 C179.108,155.016 179.65,155.349 179.782,155.885 C179.914,156.422 179.586,156.963 179.05,157.095 L174.389,158.241 C174.309,158.262 174.228,158.271 174.149,158.271 L174.149,158.271 L174.149,158.271 Z M263.065,158.268 L263.035,158.268 C261.41,158.22 259.778,158.126 258.186,157.986 C257.636,157.938 257.229,157.453 257.277,156.903 C257.325,156.354 257.823,155.945 258.36,155.994 C259.914,156.13 261.506,156.222 263.094,156.268 C263.646,156.284 264.08,156.744 264.065,157.297 C264.048,157.839 263.603,158.268 263.065,158.268 L263.065,158.268 L263.065,158.268 Z M268.065,158.265 C267.526,158.265 267.082,157.837 267.065,157.295 C267.049,156.743 267.483,156.282 268.035,156.265 C269.623,156.217 271.216,156.124 272.77,155.988 C273.316,155.938 273.806,156.348 273.853,156.897 C273.9,157.447 273.494,157.933 272.943,157.98 C271.352,158.12 269.721,158.215 268.096,158.265 L268.065,158.265 L268.065,158.265 Z M253.31,157.403 C253.262,157.403 253.211,157.399 253.161,157.393 C251.56,157.151 249.951,156.858 248.378,156.521 C247.838,156.405 247.494,155.873 247.61,155.333 C247.726,154.794 248.254,154.447 248.798,154.565 C250.33,154.895 251.898,155.18 253.458,155.414 C254.005,155.497 254.381,156.006 254.299,156.552 C254.224,157.048 253.798,157.403 253.31,157.403 L253.31,157.403 L253.31,157.403 Z M277.82,157.398 C277.333,157.398 276.906,157.043 276.832,156.547 C276.751,156 277.127,155.491 277.673,155.409 C279.248,155.174 280.816,154.89 282.335,154.566 C282.87,154.444 283.406,154.795 283.522,155.335 C283.637,155.875 283.293,156.406 282.753,156.521 C281.194,156.854 279.585,157.146 277.97,157.388 C277.919,157.395 277.869,157.398 277.82,157.398 L277.82,157.398 L277.82,157.398 Z M130.386,156.572 C130.302,156.572 130.216,156.562 130.131,156.539 C128.564,156.128 126.996,155.675 125.472,155.191 C124.946,155.024 124.654,154.463 124.821,153.937 C124.988,153.408 125.552,153.117 126.077,153.285 C127.569,153.758 129.104,154.202 130.639,154.605 C131.173,154.745 131.493,155.292 131.352,155.826 C131.235,156.275 130.83,156.572 130.386,156.572 L130.386,156.572 L130.386,156.572 Z M183.665,155.93 C183.216,155.93 182.808,155.624 182.695,155.168 C182.564,154.632 182.892,154.091 183.428,153.959 L188.089,152.813 C188.625,152.678 189.167,153.009 189.298,153.546 C189.43,154.082 189.102,154.623 188.565,154.755 L183.905,155.9 C183.825,155.921 183.745,155.93 183.665,155.93 L183.665,155.93 L183.665,155.93 Z M287.397,155.338 C286.961,155.338 286.56,155.052 286.435,154.612 C286.283,154.082 286.591,153.528 287.122,153.376 C288.655,152.938 290.169,152.448 291.621,151.921 C292.142,151.731 292.714,152 292.902,152.519 C293.092,153.038 292.823,153.611 292.305,153.8 C290.809,154.344 289.25,154.849 287.671,155.3 C287.579,155.325 287.487,155.338 287.397,155.338 L287.397,155.338 L287.397,155.338 Z M243.737,155.327 C243.646,155.327 243.553,155.314 243.461,155.288 C241.883,154.834 240.325,154.326 238.831,153.78 C238.312,153.59 238.046,153.016 238.235,152.497 C238.425,151.979 239,151.713 239.519,151.901 C240.969,152.432 242.481,152.925 244.014,153.366 C244.545,153.519 244.852,154.073 244.698,154.604 C244.572,155.042 244.172,155.327 243.737,155.327 L243.737,155.327 L243.737,155.327 Z M121.053,153.594 C120.935,153.594 120.814,153.573 120.697,153.528 C119.178,152.95 117.668,152.326 116.208,151.673 C115.704,151.446 115.479,150.855 115.704,150.351 C115.93,149.847 116.522,149.626 117.025,149.847 C118.45,150.485 119.925,151.095 121.408,151.659 C121.924,151.855 122.184,152.433 121.987,152.949 C121.835,153.349 121.456,153.594 121.053,153.594 L121.053,153.594 L121.053,153.594 Z M193.182,153.59 C192.732,153.59 192.323,153.284 192.212,152.828 C192.08,152.292 192.407,151.751 192.944,151.619 L197.605,150.474 C198.142,150.336 198.684,150.669 198.814,151.206 C198.946,151.742 198.619,152.283 198.082,152.415 L193.421,153.561 C193.341,153.581 193.261,153.59 193.182,153.59 L193.182,153.59 L193.182,153.59 Z M296.591,151.968 C296.211,151.968 295.849,151.751 295.681,151.384 C295.45,150.882 295.671,150.288 296.174,150.059 C297.631,149.392 299.043,148.671 300.371,147.917 C300.851,147.645 301.462,147.812 301.734,148.294 C302.007,148.773 301.838,149.384 301.357,149.657 C299.979,150.438 298.516,151.186 297.006,151.877 C296.871,151.938 296.729,151.968 296.591,151.968 L296.591,151.968 L296.591,151.968 Z M234.55,151.942 C234.41,151.942 234.269,151.913 234.133,151.851 C232.631,151.16 231.168,150.413 229.785,149.629 C229.305,149.356 229.136,148.746 229.408,148.266 C229.682,147.785 230.291,147.618 230.771,147.889 C232.105,148.646 233.517,149.367 234.969,150.034 C235.47,150.265 235.69,150.858 235.459,151.36 C235.291,151.727 234.929,151.942 234.55,151.942 L234.55,151.942 L234.55,151.942 Z M202.698,151.25 C202.249,151.25 201.841,150.945 201.729,150.489 C201.597,149.952 201.924,149.411 202.46,149.279 L207.121,148.133 C207.664,147.998 208.199,148.328 208.331,148.864 C208.463,149.401 208.136,149.942 207.6,150.074 L202.939,151.221 C202.857,151.241 202.777,151.25 202.698,151.25 L202.698,151.25 L202.698,151.25 Z M112.122,149.568 C111.964,149.568 111.804,149.531 111.655,149.452 C110.198,148.681 108.777,147.864 107.433,147.027 C106.963,146.735 106.82,146.119 107.112,145.65 C107.403,145.181 108.022,145.038 108.489,145.33 C109.794,146.143 111.175,146.935 112.591,147.685 C113.079,147.943 113.265,148.548 113.007,149.036 C112.827,149.375 112.48,149.568 112.122,149.568 L112.122,149.568 L112.122,149.568 Z M212.215,148.91 C211.766,148.91 211.357,148.605 211.245,148.149 C211.113,147.612 211.44,147.071 211.977,146.94 L216.638,145.793 C217.181,145.656 217.716,145.988 217.848,146.524 C217.98,147.062 217.652,147.603 217.116,147.734 L212.455,148.881 C212.374,148.901 212.294,148.91 212.215,148.91 L212.215,148.91 L212.215,148.91 Z M305.083,147.106 C304.771,147.106 304.463,146.961 304.269,146.687 C303.947,146.238 304.052,145.613 304.501,145.292 C305.804,144.362 307.031,143.377 308.149,142.362 C308.558,141.992 309.19,142.021 309.561,142.431 C309.933,142.84 309.902,143.472 309.493,143.843 C308.317,144.91 307.029,145.945 305.663,146.921 C305.487,147.046 305.284,147.106 305.083,147.106 L305.083,147.106 L305.083,147.106 Z M226.058,147.079 C225.857,147.079 225.655,147.02 225.48,146.895 C225.058,146.595 224.645,146.291 224.242,145.982 L221.972,146.541 C221.43,146.68 220.895,146.346 220.762,145.81 C220.63,145.273 220.957,144.731 221.493,144.6 L224.232,143.926 C224.529,143.851 224.846,143.919 225.087,144.108 C225.589,144.501 226.106,144.886 226.638,145.264 C227.088,145.584 227.193,146.208 226.874,146.658 C226.679,146.933 226.37,147.079 226.058,147.079 L226.058,147.079 L226.058,147.079 Z M103.823,144.373 C103.617,144.373 103.408,144.31 103.229,144.177 C101.895,143.19 100.617,142.154 99.431,141.103 C99.019,140.735 98.981,140.104 99.347,139.69 C99.713,139.277 100.346,139.239 100.759,139.606 C101.9,140.62 103.132,141.616 104.419,142.569 C104.863,142.898 104.956,143.524 104.628,143.968 C104.432,144.233 104.129,144.373 103.823,144.373 L103.823,144.373 L103.823,144.373 Z M312.271,140.492 C312.049,140.492 311.824,140.418 311.638,140.265 C311.211,139.914 311.149,139.284 311.5,138.857 C312.508,137.63 313.392,136.352 314.128,135.057 C314.399,134.576 315.008,134.407 315.491,134.682 C315.972,134.954 316.14,135.565 315.866,136.045 C315.074,137.439 314.125,138.812 313.045,140.127 C312.848,140.367 312.56,140.492 312.271,140.492 L312.271,140.492 L312.271,140.492 Z M96.533,137.852 C96.261,137.852 95.991,137.742 95.794,137.526 C94.668,136.293 93.625,135.012 92.694,133.717 C92.372,133.268 92.474,132.644 92.923,132.32 C93.37,131.997 93.995,132.101 94.318,132.549 C95.204,133.781 96.197,135.002 97.27,136.177 C97.643,136.585 97.614,137.218 97.206,137.59 C97.015,137.765 96.773,137.852 96.533,137.852 L96.533,137.852 L96.533,137.852 Z M317.004,131.986 C316.904,131.986 316.803,131.972 316.703,131.94 C316.177,131.773 315.884,131.212 316.05,130.686 C316.149,130.372 316.24,130.057 316.324,129.74 C316.422,129.374 316.719,129.094 317.091,129.018 C318.32,128.766 319.536,128.496 320.738,128.208 C321.275,128.084 321.815,128.411 321.943,128.948 C322.071,129.485 321.74,130.024 321.203,130.153 C320.175,130.399 319.138,130.633 318.09,130.853 C318.047,130.998 318.003,131.143 317.958,131.287 C317.823,131.714 317.429,131.986 317.004,131.986 L317.004,131.986 L317.004,131.986 Z M90.878,129.889 C90.518,129.889 90.17,129.694 89.991,129.353 C89.214,127.871 88.555,126.344 88.031,124.813 C87.852,124.29 88.131,123.722 88.654,123.543 C89.176,123.366 89.745,123.643 89.924,124.165 C90.415,125.6 91.033,127.032 91.763,128.425 C92.019,128.913 91.831,129.518 91.341,129.774 C91.193,129.852 91.034,129.889 90.878,129.889 L90.878,129.889 L90.878,129.889 Z M325.805,128.907 C325.37,128.907 324.97,128.622 324.844,128.184 C324.69,127.653 324.997,127.1 325.527,126.946 C327.058,126.506 328.584,126.027 330.065,125.525 C330.589,125.349 331.155,125.629 331.333,126.151 C331.51,126.675 331.229,127.242 330.707,127.42 C329.196,127.932 327.641,128.419 326.082,128.868 C325.989,128.895 325.896,128.907 325.805,128.907 L325.805,128.907 L325.805,128.907 Z M335.079,125.75 C334.682,125.75 334.306,125.511 334.149,125.119 C333.946,124.606 334.197,124.024 334.71,123.82 C336.19,123.233 337.66,122.606 339.077,121.956 C339.584,121.728 340.174,121.947 340.403,122.448 C340.634,122.95 340.413,123.544 339.911,123.774 C338.462,124.439 336.96,125.079 335.448,125.68 C335.327,125.728 335.202,125.75 335.079,125.75 L335.079,125.75 L335.079,125.75 Z M343.979,121.652 C343.621,121.652 343.275,121.46 343.096,121.121 C342.836,120.634 343.021,120.028 343.51,119.77 C344.919,119.021 346.304,118.231 347.626,117.423 C348.095,117.134 348.712,117.282 349,117.754 C349.289,118.225 349.141,118.84 348.669,119.128 C347.313,119.958 345.893,120.769 344.447,121.535 C344.298,121.615 344.138,121.652 343.979,121.652 L343.979,121.652 L343.979,121.652 Z M87.775,120.65 C87.291,120.65 86.866,120.298 86.789,119.805 C86.562,118.35 86.446,116.865 86.446,115.392 C86.446,115.266 86.436,115.139 86.419,115.012 C86.344,114.465 86.727,113.961 87.274,113.886 C87.816,113.816 88.325,114.194 88.4,114.742 C88.43,114.959 88.446,115.176 88.446,115.392 C88.446,116.762 88.554,118.143 88.765,119.496 C88.85,120.042 88.477,120.554 87.931,120.639 C87.879,120.647 87.827,120.65 87.775,120.65 L87.775,120.65 L87.775,120.65 Z M352.318,116.522 C352.006,116.522 351.698,116.376 351.503,116.102 C351.183,115.651 351.287,115.027 351.737,114.707 C353.037,113.781 354.298,112.812 355.482,111.827 C355.909,111.473 356.538,111.532 356.892,111.956 C357.244,112.381 357.185,113.012 356.762,113.364 C355.538,114.382 354.238,115.381 352.897,116.336 C352.722,116.461 352.519,116.522 352.318,116.522 L352.318,116.522 L352.318,116.522 Z M86.058,112.185 L86.044,112.185 C84.408,112.161 82.776,112.093 81.193,111.981 C80.642,111.942 80.227,111.464 80.266,110.913 C80.305,110.362 80.783,109.939 81.334,109.986 C82.88,110.095 84.474,110.162 86.072,110.185 C86.624,110.192 87.065,110.647 87.058,111.199 C87.05,111.746 86.603,112.185 86.058,112.185 L86.058,112.185 L86.058,112.185 Z M76.291,111.479 C76.248,111.479 76.203,111.476 76.158,111.47 C74.535,111.252 72.92,110.983 71.361,110.67 C70.819,110.562 70.468,110.034 70.577,109.492 C70.686,108.95 71.212,108.597 71.754,108.709 C73.272,109.014 74.843,109.275 76.423,109.487 C76.971,109.561 77.355,110.065 77.282,110.611 C77.214,111.113 76.785,111.479 76.291,111.479 L76.291,111.479 L76.291,111.479 Z M359.826,110.241 C359.568,110.241 359.311,110.143 359.116,109.945 C358.728,109.553 358.729,108.92 359.122,108.531 C360.257,107.406 361.328,106.241 362.306,105.069 C362.658,104.646 363.287,104.587 363.714,104.942 C364.138,105.296 364.195,105.927 363.841,106.351 C362.823,107.57 361.71,108.782 360.53,109.951 C360.335,110.145 360.081,110.241 359.826,110.241 L359.826,110.241 L359.826,110.241 Z M66.696,109.528 C66.607,109.528 66.517,109.517 66.427,109.491 C64.839,109.049 63.277,108.547 61.784,108.002 C61.266,107.813 60.998,107.238 61.188,106.72 C61.378,106.2 61.954,105.936 62.471,106.123 C63.915,106.65 65.427,107.136 66.964,107.565 C67.497,107.714 67.808,108.266 67.659,108.797 C67.536,109.239 67.134,109.528 66.696,109.528 L66.696,109.528 L66.696,109.528 Z M57.512,106.145 C57.369,106.145 57.225,106.114 57.087,106.05 C55.585,105.343 54.13,104.572 52.762,103.76 C52.288,103.479 52.131,102.864 52.413,102.39 C52.694,101.914 53.308,101.758 53.784,102.04 C55.097,102.82 56.495,103.561 57.938,104.239 C58.439,104.475 58.653,105.07 58.417,105.57 C58.247,105.933 57.887,106.145 57.512,106.145 L57.512,106.145 L57.512,106.145 Z M366.058,102.703 C365.868,102.703 365.678,102.649 365.508,102.538 C365.047,102.233 364.92,101.613 365.224,101.152 C366.096,99.831 366.882,98.47 367.56,97.106 C367.805,96.611 368.402,96.408 368.9,96.655 C369.395,96.901 369.597,97.502 369.351,97.996 C368.637,99.433 367.81,100.865 366.894,102.254 C366.701,102.545 366.383,102.703 366.058,102.703 L366.058,102.703 L366.058,102.703 Z M49.123,101.118 C48.912,101.118 48.7,101.052 48.519,100.916 C47.193,99.912 45.936,98.837 44.782,97.721 C44.386,97.336 44.375,96.703 44.76,96.307 C45.143,95.908 45.776,95.899 46.174,96.283 C47.269,97.344 48.464,98.366 49.727,99.32 C50.167,99.654 50.254,100.281 49.92,100.722 C49.724,100.981 49.425,101.118 49.123,101.118 L49.123,101.118 L49.123,101.118 Z M42.144,94.286 C41.845,94.286 41.549,94.152 41.352,93.898 C40.327,92.573 39.412,91.184 38.63,89.768 C38.363,89.283 38.539,88.676 39.023,88.408 C39.506,88.142 40.115,88.317 40.381,88.801 C41.113,90.127 41.972,91.431 42.934,92.674 C43.272,93.111 43.192,93.739 42.755,94.077 C42.573,94.218 42.357,94.286 42.144,94.286 L42.144,94.286 L42.144,94.286 Z M370.361,93.937 C370.257,93.937 370.151,93.92 370.047,93.886 C369.522,93.712 369.238,93.146 369.412,92.622 C369.902,91.141 370.285,89.625 370.548,88.119 C370.643,87.574 371.161,87.211 371.705,87.306 C372.249,87.401 372.613,87.919 372.519,88.463 C372.238,90.065 371.832,91.677 371.31,93.251 C371.172,93.671 370.781,93.937 370.361,93.937 L370.361,93.937 L370.361,93.937 Z M37.48,85.722 C37.064,85.722 36.675,85.46 36.534,85.045 C35.997,83.474 35.599,81.852 35.351,80.226 C35.267,79.679 35.642,79.169 36.188,79.086 C36.73,79.003 37.244,79.377 37.327,79.923 C37.558,81.433 37.928,82.938 38.426,84.398 C38.605,84.921 38.326,85.489 37.803,85.668 C37.696,85.705 37.587,85.722 37.48,85.722 L37.48,85.722 L37.48,85.722 Z M371.999,84.324 L371.985,84.324 C371.434,84.316 370.992,83.863 370.999,83.311 L371.002,82.889 C371.002,81.488 370.903,80.072 370.709,78.682 C370.633,78.134 371.014,77.629 371.56,77.553 C372.106,77.472 372.613,77.857 372.69,78.404 C372.897,79.887 373.002,81.396 373.002,82.889 L372.999,83.338 C372.991,83.886 372.545,84.324 371.999,84.324 L371.999,84.324 L371.999,84.324 Z M1.842,78.18 C1.298,78.18 0.852,77.743 0.842,77.197 C0.833,76.645 1.272,76.19 1.825,76.18 L5.071,76.123 C4.978,75.618 5.286,75.118 5.79,74.979 L10.419,73.709 C10.95,73.559 11.501,73.876 11.648,74.408 C11.794,74.941 11.481,75.491 10.948,75.637 L7.5,76.584 C7.587,76.729 7.638,76.897 7.642,77.079 C7.651,77.631 7.211,78.086 6.659,78.096 L1.86,78.18 L1.842,78.18 L1.842,78.18 Z M11.64,78.009 C11.096,78.009 10.65,77.573 10.641,77.027 C10.631,76.475 11.071,76.019 11.623,76.009 L16.422,75.926 C16.971,75.92 17.43,76.356 17.44,76.908 C17.449,77.46 17.01,77.916 16.458,77.926 L11.658,78.009 L11.64,78.009 L11.64,78.009 Z M21.439,77.839 C20.895,77.839 20.449,77.402 20.439,76.856 C20.43,76.304 20.87,75.849 21.422,75.839 L26.221,75.755 C26.775,75.737 27.229,76.186 27.239,76.738 C27.248,77.29 26.809,77.746 26.256,77.755 L21.457,77.839 L21.439,77.839 L21.439,77.839 Z M31.237,77.669 C30.693,77.669 30.248,77.232 30.238,76.686 C30.229,76.134 30.668,75.678 31.22,75.669 L36.02,75.585 C36.581,75.6 37.027,76.016 37.037,76.567 C37.046,77.12 36.607,77.575 36.055,77.585 L31.255,77.669 L31.237,77.669 L31.237,77.669 Z M370.626,74.674 C370.196,74.674 369.8,74.396 369.669,73.963 C369.226,72.502 368.668,71.04 368.011,69.617 C367.779,69.116 367.998,68.521 368.5,68.29 C369.003,68.056 369.596,68.278 369.827,68.778 C370.522,70.284 371.113,71.834 371.583,73.383 C371.743,73.912 371.444,74.47 370.916,74.63 C370.819,74.66 370.722,74.674 370.626,74.674 L370.626,74.674 L370.626,74.674 Z M15.505,74.35 C15.065,74.35 14.663,74.058 14.541,73.614 C14.395,73.081 14.708,72.531 15.241,72.385 L19.869,71.114 C20.401,70.966 20.952,71.282 21.098,71.814 C21.244,72.347 20.931,72.897 20.398,73.043 L15.77,74.313 C15.682,74.338 15.592,74.35 15.505,74.35 L15.505,74.35 L15.505,74.35 Z M24.955,71.755 C24.516,71.755 24.113,71.463 23.991,71.02 C23.845,70.487 24.158,69.937 24.691,69.791 L29.32,68.52 C29.852,68.373 30.402,68.687 30.549,69.22 C30.695,69.752 30.382,70.303 29.849,70.449 L25.22,71.719 C25.132,71.744 25.042,71.755 24.955,71.755 L24.955,71.755 L24.955,71.755 Z M34.405,69.161 C33.966,69.161 33.563,68.87 33.441,68.425 C33.295,67.893 33.608,67.343 34.141,67.196 L36.452,66.562 C36.597,66.126 36.752,65.693 36.918,65.265 C37.118,64.749 37.699,64.494 38.211,64.693 C38.726,64.892 38.982,65.471 38.783,65.986 C38.568,66.544 38.371,67.108 38.194,67.679 C38.093,68.005 37.832,68.257 37.503,68.347 L34.67,69.125 C34.582,69.149 34.493,69.161 34.405,69.161 L34.405,69.161 L34.405,69.161 Z M366.531,65.814 C366.199,65.814 365.875,65.649 365.685,65.348 C364.871,64.058 363.957,62.775 362.967,61.534 C362.622,61.102 362.692,60.473 363.124,60.128 C363.558,59.784 364.185,59.855 364.529,60.287 C365.565,61.585 366.523,62.929 367.376,64.281 C367.671,64.748 367.531,65.365 367.064,65.66 C366.898,65.764 366.714,65.814 366.531,65.814 L366.531,65.814 L366.531,65.814 Z M40.054,62.149 C39.877,62.149 39.698,62.102 39.536,62.004 C39.064,61.718 38.913,61.103 39.2,60.63 C40.043,59.239 41.019,57.889 42.101,56.618 C42.458,56.197 43.089,56.146 43.51,56.504 C43.931,56.862 43.982,57.493 43.624,57.914 C42.612,59.104 41.699,60.367 40.91,61.668 C40.722,61.978 40.392,62.149 40.054,62.149 L40.054,62.149 L40.054,62.149 Z M360.433,58.172 C360.173,58.172 359.914,58.072 359.718,57.872 C358.647,56.777 357.489,55.694 356.278,54.653 C355.859,54.294 355.811,53.662 356.171,53.243 C356.532,52.825 357.165,52.778 357.581,53.137 C358.836,54.214 360.035,55.337 361.147,56.473 C361.533,56.868 361.526,57.501 361.132,57.887 C360.937,58.078 360.685,58.172 360.433,58.172 L360.433,58.172 L360.433,58.172 Z M46.379,54.72 C46.1,54.72 45.822,54.604 45.624,54.376 C45.261,53.96 45.306,53.328 45.722,52.965 C46.932,51.913 48.25,50.91 49.64,49.984 C50.099,49.677 50.72,49.802 51.026,50.261 C51.333,50.721 51.209,51.342 50.749,51.648 C49.43,52.527 48.18,53.478 47.035,54.474 C46.845,54.639 46.611,54.72 46.379,54.72 L46.379,54.72 L46.379,54.72 Z M353.011,51.793 C352.807,51.793 352.6,51.73 352.422,51.6 C351.179,50.692 349.861,49.798 348.507,48.945 C348.04,48.65 347.899,48.033 348.194,47.565 C348.488,47.098 349.106,46.96 349.573,47.252 C350.967,48.131 352.322,49.05 353.602,49.985 C354.048,50.311 354.145,50.937 353.819,51.382 C353.623,51.65 353.319,51.793 353.011,51.793 L353.011,51.793 L353.011,51.793 Z M54.51,49.299 C54.146,49.299 53.794,49.1 53.618,48.752 C53.367,48.26 53.563,47.658 54.055,47.408 C55.473,46.686 56.977,46.013 58.523,45.408 C59.037,45.206 59.617,45.461 59.818,45.975 C60.019,46.49 59.766,47.069 59.251,47.271 C57.766,47.852 56.323,48.498 54.962,49.19 C54.817,49.264 54.662,49.299 54.51,49.299 L54.51,49.299 L54.51,49.299 Z M344.726,46.573 C344.565,46.573 344.4,46.534 344.249,46.451 C342.884,45.709 341.46,44.987 340.019,44.306 C339.519,44.07 339.306,43.474 339.541,42.975 C339.777,42.476 340.371,42.261 340.872,42.498 C342.349,43.195 343.806,43.934 345.204,44.694 C345.69,44.958 345.869,45.565 345.605,46.05 C345.424,46.384 345.08,46.573 344.726,46.573 L344.726,46.573 L344.726,46.573 Z M63.62,45.735 C63.186,45.735 62.787,45.451 62.66,45.014 C62.506,44.483 62.811,43.929 63.341,43.774 C64.862,43.333 66.454,42.936 68.07,42.597 C68.615,42.486 69.142,42.829 69.254,43.37 C69.368,43.91 69.022,44.44 68.481,44.554 C66.914,44.883 65.372,45.267 63.899,45.695 C63.806,45.722 63.712,45.735 63.62,45.735 L63.62,45.735 L63.62,45.735 Z M96.15,43.78 C96.113,43.78 96.077,43.778 96.04,43.773 C94.951,43.653 93.816,43.532 92.658,43.422 C92.108,43.37 91.705,42.882 91.757,42.332 C91.809,41.782 92.298,41.377 92.847,41.431 C93.468,41.49 94.082,41.552 94.687,41.615 C94.619,41.122 94.929,40.644 95.422,40.514 C95.959,40.372 96.503,40.691 96.644,41.225 C96.748,41.618 96.882,41.987 97.055,42.355 C97.209,42.682 97.174,43.067 96.963,43.362 C96.774,43.626 96.47,43.78 96.15,43.78 L96.15,43.78 L96.15,43.78 Z M73.2,43.727 C72.708,43.727 72.279,43.363 72.21,42.862 C72.136,42.315 72.519,41.811 73.065,41.736 C74.639,41.521 76.265,41.349 77.898,41.227 C78.455,41.177 78.929,41.598 78.97,42.149 C79.012,42.7 78.599,43.18 78.048,43.221 C76.455,43.34 74.87,43.507 73.337,43.717 C73.291,43.724 73.245,43.727 73.2,43.727 L73.2,43.727 L73.2,43.727 Z M87.766,43.058 C87.75,43.058 87.733,43.057 87.717,43.057 C85.993,42.974 84.472,42.967 82.984,42.993 C82.443,42.978 81.977,42.563 81.967,42.011 C81.957,41.459 82.397,41.003 82.949,40.993 C84.479,40.967 86.046,40.975 87.813,41.059 C88.365,41.085 88.79,41.554 88.764,42.106 C88.738,42.641 88.296,43.058 87.766,43.058 L87.766,43.058 L87.766,43.058 Z M335.868,42.393 C335.742,42.393 335.614,42.369 335.491,42.318 C334.047,41.731 332.553,41.164 331.048,40.636 C330.526,40.453 330.252,39.882 330.435,39.361 C330.618,38.84 331.19,38.564 331.71,38.749 C333.246,39.288 334.771,39.866 336.245,40.466 C336.757,40.674 337.003,41.258 336.794,41.769 C336.637,42.157 336.263,42.393 335.868,42.393 L335.868,42.393 L335.868,42.393 Z M326.622,39.151 C326.528,39.151 326.432,39.138 326.337,39.109 C324.837,38.662 323.293,38.239 321.749,37.852 C321.213,37.717 320.888,37.174 321.022,36.638 C321.156,36.102 321.704,35.775 322.235,35.912 C323.808,36.307 325.38,36.737 326.907,37.192 C327.437,37.35 327.738,37.907 327.58,38.437 C327.451,38.871 327.054,39.151 326.622,39.151 L326.622,39.151 L326.622,39.151 Z M95.398,37.51 C95.369,37.51 95.339,37.509 95.309,37.506 C94.759,37.458 94.353,36.972 94.401,36.422 C94.55,34.74 95.028,33.079 95.82,31.486 C96.065,30.99 96.665,30.788 97.16,31.035 C97.655,31.281 97.856,31.881 97.611,32.376 C96.93,33.745 96.52,35.166 96.394,36.599 C96.348,37.119 95.911,37.51 95.398,37.51 L95.398,37.51 L95.398,37.51 Z M317.116,36.773 C317.05,36.773 316.982,36.766 316.915,36.752 C315.369,36.436 313.794,36.147 312.233,35.893 C311.688,35.804 311.318,35.29 311.407,34.745 C311.496,34.199 312.01,33.823 312.556,33.919 C314.143,34.177 315.744,34.472 317.315,34.793 C317.856,34.903 318.206,35.432 318.095,35.973 C317.998,36.446 317.581,36.773 317.116,36.773 L317.116,36.773 L317.116,36.773 Z M307.445,35.203 C307.405,35.203 307.365,35.201 307.324,35.196 C305.758,35.006 304.164,34.844 302.587,34.713 C302.036,34.668 301.627,34.185 301.672,33.634 C301.718,33.085 302.212,32.672 302.751,32.72 C304.354,32.853 305.974,33.018 307.565,33.21 C308.113,33.277 308.504,33.775 308.437,34.323 C308.376,34.831 307.944,35.203 307.445,35.203 L307.445,35.203 L307.445,35.203 Z M297.68,34.402 C297.665,34.402 297.65,34.401 297.636,34.401 C296.054,34.332 294.451,34.292 292.873,34.282 C292.321,34.278 291.876,33.827 291.88,33.275 C291.884,32.725 292.331,32.282 292.88,32.282 L292.887,32.282 C294.489,32.293 296.116,32.333 297.722,32.403 C298.273,32.427 298.702,32.894 298.678,33.445 C298.654,33.982 298.212,34.402 297.68,34.402 L297.68,34.402 L297.68,34.402 Z M288.624,33.039 C288.273,33.039 287.934,32.855 287.75,32.527 C287.011,31.205 286.157,29.887 285.213,28.609 C284.884,28.165 284.978,27.539 285.422,27.21 C285.866,26.881 286.494,26.976 286.82,27.42 C287.815,28.766 288.716,30.155 289.496,31.551 C289.766,32.033 289.593,32.642 289.111,32.912 C288.957,32.998 288.789,33.039 288.624,33.039 L288.624,33.039 L288.624,33.039 Z M99.601,28.874 C99.354,28.874 99.106,28.783 98.913,28.599 C98.512,28.219 98.495,27.586 98.875,27.186 C99.968,26.033 101.25,24.945 102.686,23.953 C103.141,23.639 103.763,23.753 104.078,24.206 C104.392,24.661 104.278,25.284 103.824,25.598 C102.501,26.512 101.324,27.509 100.326,28.561 C100.129,28.769 99.865,28.874 99.601,28.874 L99.601,28.874 L99.601,28.874 Z M153.415,27.643 C153.194,27.643 152.973,27.57 152.788,27.421 C152.358,27.075 152.29,26.445 152.637,26.015 C153.637,24.776 154.739,23.55 155.913,22.37 C156.302,21.979 156.936,21.977 157.327,22.366 C157.718,22.755 157.72,23.388 157.331,23.78 C156.206,24.911 155.15,26.086 154.194,27.271 C153.996,27.516 153.707,27.643 153.415,27.643 L153.415,27.643 L153.415,27.643 Z M149.76,25.932 C149.559,25.932 149.356,25.872 149.18,25.746 C147.979,24.888 146.638,24.094 145.195,23.388 C144.699,23.145 144.494,22.546 144.737,22.05 C144.98,21.554 145.581,21.351 146.075,21.592 C147.616,22.347 149.052,23.197 150.342,24.118 C150.792,24.439 150.896,25.064 150.575,25.513 C150.38,25.787 150.072,25.932 149.76,25.932 L149.76,25.932 L149.76,25.932 Z M282.815,25.178 C282.548,25.178 282.281,25.072 282.085,24.861 C281.043,23.745 279.908,22.643 278.712,21.586 C278.298,21.22 278.259,20.588 278.625,20.174 C278.991,19.761 279.623,19.722 280.036,20.087 C281.28,21.187 282.461,22.333 283.547,23.496 C283.923,23.899 283.901,24.532 283.498,24.909 C283.305,25.089 283.06,25.178 282.815,25.178 L282.815,25.178 L282.815,25.178 Z M107.59,23.295 C107.215,23.295 106.856,23.083 106.686,22.722 C106.45,22.222 106.664,21.626 107.163,21.391 C108.605,20.71 110.147,20.104 111.747,19.587 C112.272,19.419 112.836,19.706 113.006,20.231 C113.175,20.757 112.887,21.321 112.361,21.49 C110.843,21.98 109.381,22.555 108.017,23.199 C107.879,23.264 107.733,23.295 107.59,23.295 L107.59,23.295 L107.59,23.295 Z M141.003,21.616 C140.9,21.616 140.795,21.599 140.691,21.565 C139.243,21.089 137.72,20.683 136.164,20.359 C135.623,20.247 135.276,19.717 135.388,19.177 C135.5,18.636 136.025,18.289 136.571,18.401 C138.2,18.74 139.797,19.165 141.316,19.665 C141.84,19.838 142.126,20.403 141.953,20.928 C141.815,21.349 141.424,21.616 141.003,21.616 L141.003,21.616 L141.003,21.616 Z M160.314,20.708 C160.027,20.708 159.743,20.585 159.545,20.347 C159.192,19.921 159.25,19.291 159.675,18.939 C160.899,17.921 162.204,16.925 163.553,15.977 C164.005,15.66 164.628,15.769 164.946,16.221 C165.264,16.672 165.155,17.296 164.703,17.614 C163.398,18.531 162.136,19.494 160.953,20.477 C160.766,20.632 160.54,20.708 160.314,20.708 L160.314,20.708 L160.314,20.708 Z M116.892,20.288 C116.424,20.288 116.007,19.958 115.912,19.482 C115.805,18.94 116.157,18.414 116.698,18.307 C118.274,17.994 119.906,17.756 121.547,17.601 C122.087,17.551 122.585,17.952 122.637,18.502 C122.689,19.052 122.286,19.54 121.736,19.592 C120.162,19.741 118.598,19.969 117.088,20.269 C117.022,20.282 116.956,20.288 116.892,20.288 L116.892,20.288 L116.892,20.288 Z M131.428,19.626 C131.394,19.626 131.36,19.624 131.327,19.621 C129.788,19.467 128.208,19.384 126.629,19.376 C126.077,19.373 125.632,18.923 125.635,18.371 C125.638,17.82 126.085,17.376 126.635,17.376 L126.64,17.376 C128.281,17.385 129.925,17.471 131.526,17.631 C132.076,17.686 132.477,18.176 132.421,18.726 C132.37,19.241 131.935,19.626 131.428,19.626 L131.428,19.626 L131.428,19.626 Z M275.484,18.696 C275.278,18.696 275.069,18.632 274.891,18.5 C273.658,17.588 272.345,16.693 270.988,15.839 C270.522,15.544 270.381,14.927 270.675,14.46 C270.971,13.993 271.585,13.853 272.055,14.147 C273.452,15.027 274.807,15.951 276.08,16.892 C276.523,17.22 276.618,17.846 276.289,18.291 C276.094,18.556 275.791,18.696 275.484,18.696 L275.484,18.696 L275.484,18.696 Z M168.325,15.078 C167.985,15.078 167.653,14.904 167.465,14.59 C167.183,14.116 167.337,13.502 167.811,13.219 C169.177,12.404 170.609,11.612 172.068,10.865 C172.562,10.614 173.163,10.809 173.414,11.299 C173.665,11.79 173.471,12.393 172.98,12.645 C171.559,13.373 170.165,14.144 168.837,14.936 C168.676,15.032 168.499,15.078 168.325,15.078 L168.325,15.078 L168.325,15.078 Z M267.197,13.481 C267.038,13.481 266.876,13.443 266.726,13.363 C265.358,12.63 263.931,11.92 262.482,11.253 C261.98,11.022 261.761,10.428 261.992,9.927 C262.222,9.425 262.814,9.204 263.318,9.436 C264.804,10.12 266.269,10.848 267.671,11.6 C268.157,11.861 268.341,12.467 268.079,12.954 C267.899,13.29 267.554,13.481 267.197,13.481 L267.197,13.481 L267.197,13.481 Z M177.043,10.617 C176.658,10.617 176.29,10.393 176.126,10.017 C175.906,9.511 176.137,8.921 176.643,8.7 C178.102,8.064 179.617,7.452 181.145,6.882 C181.661,6.688 182.238,6.952 182.431,7.47 C182.623,7.988 182.36,8.564 181.843,8.756 C180.349,9.313 178.869,9.911 177.443,10.533 C177.313,10.59 177.177,10.617 177.043,10.617 L177.043,10.617 L177.043,10.617 Z M258.3,9.39 C258.179,9.39 258.056,9.367 257.935,9.32 C256.485,8.753 254.982,8.21 253.47,7.708 C252.945,7.534 252.662,6.967 252.836,6.443 C253.011,5.919 253.577,5.633 254.101,5.81 C255.646,6.324 257.182,6.878 258.664,7.458 C259.179,7.659 259.433,8.239 259.231,8.753 C259.077,9.148 258.699,9.39 258.3,9.39 L258.3,9.39 L258.3,9.39 Z M186.224,7.203 C185.798,7.203 185.404,6.928 185.27,6.501 C185.105,5.974 185.399,5.413 185.926,5.248 C187.449,4.772 189.018,4.323 190.588,3.915 C191.122,3.777 191.668,4.096 191.808,4.63 C191.946,5.165 191.626,5.711 191.092,5.85 C189.553,6.251 188.016,6.69 186.523,7.157 C186.424,7.188 186.323,7.203 186.224,7.203 L186.224,7.203 L186.224,7.203 Z M249.003,6.306 C248.914,6.306 248.825,6.294 248.735,6.269 C247.228,5.853 245.678,5.463 244.125,5.111 C243.586,4.989 243.248,4.453 243.37,3.915 C243.492,3.376 244.028,3.035 244.566,3.161 C246.149,3.52 247.731,3.917 249.269,4.341 C249.801,4.488 250.113,5.039 249.966,5.571 C249.844,6.015 249.441,6.306 249.003,6.306 L249.003,6.306 L249.003,6.306 Z M195.706,4.741 C195.242,4.741 194.827,4.417 194.729,3.946 C194.615,3.406 194.962,2.876 195.502,2.762 C197.067,2.435 198.67,2.137 200.266,1.876 C200.814,1.79 201.325,2.158 201.414,2.702 C201.503,3.248 201.133,3.761 200.588,3.85 C199.021,4.106 197.448,4.398 195.912,4.72 C195.843,4.734 195.773,4.741 195.706,4.741 L195.706,4.741 L195.706,4.741 Z M239.446,4.144 C239.389,4.144 239.329,4.139 239.27,4.128 C237.719,3.852 236.137,3.606 234.569,3.395 C234.021,3.322 233.638,2.819 233.711,2.271 C233.784,1.724 234.283,1.343 234.835,1.413 C236.432,1.627 238.041,1.878 239.62,2.16 C240.164,2.256 240.526,2.775 240.43,3.319 C240.344,3.804 239.922,4.144 239.446,4.144 L239.446,4.144 L239.446,4.144 Z M205.376,3.168 C204.876,3.168 204.443,2.794 204.384,2.285 C204.319,1.736 204.712,1.239 205.26,1.175 C206.845,0.988 208.466,0.832 210.079,0.71 C210.624,0.672 211.109,1.081 211.151,1.632 C211.193,2.183 210.78,2.663 210.23,2.704 C208.645,2.824 207.051,2.978 205.494,3.161 C205.454,3.166 205.415,3.168 205.376,3.168 L205.376,3.168 L205.376,3.168 Z M229.734,2.849 C229.704,2.849 229.674,2.847 229.644,2.845 C228.073,2.704 226.477,2.592 224.896,2.515 C224.345,2.488 223.919,2.019 223.946,1.467 C223.974,0.915 224.439,0.503 224.994,0.517 C226.602,0.596 228.226,0.709 229.823,0.852 C230.373,0.902 230.779,1.388 230.73,1.938 C230.683,2.458 230.246,2.849 229.734,2.849 L229.734,2.849 L229.734,2.849 Z M215.146,2.437 C214.609,2.437 214.166,2.011 214.148,1.47 C214.13,0.918 214.562,0.456 215.115,0.438 C216.425,0.395 217.745,0.374 219.072,0.373 L219.954,0.376 C220.506,0.38 220.951,0.831 220.947,1.383 C220.943,1.933 220.496,2.376 219.947,2.376 L219.94,2.376 L219.072,2.373 C217.767,2.374 216.469,2.395 215.18,2.437 L215.146,2.437 L215.146,2.437 Z" id="Fill-2"></path>
                        </g>
                    </g>
                </g>
            </g>
        </g>
    </g>
</svg>