<?xml version="1.0" encoding="utf-8"?>
<!-- Generator: Adobe Illustrator 18.0.0, SVG Export Plug-In . SVG Version: 6.00 Build 0)  -->
<!DOCTYPE svg PUBLIC "-//W3C//DTD SVG 1.1//EN" "http://www.w3.org/Graphics/SVG/1.1/DTD/svg11.dtd">
<svg version="1.1" id="Layer_2_1_" xmlns="http://www.w3.org/2000/svg" xmlns:xlink="http://www.w3.org/1999/xlink" x="0px" y="0px"
	 viewBox="187.2 0 465.8 595.3" enable-background="new 187.2 0 465.8 595.3" xml:space="preserve">
<path fill="#FFFFFF" d="M629.4,203c0,96.1-91.2,173.9-203.5,173.9c-112.4,0-203.5-77.8-203.5-173.9S313.6,29.1,425.9,29.1
	C538.4,29.1,629.4,106.9,629.4,203z"/>
<path fill="#8A6338" d="M513.3,542.6h-1.6c-1.5,0-4-0.1-7.6-0.1c-41.7-0.6-44-63.6-49.7-129.8c-5.9-66.2,34-89.9,34-89.9l-44.5,5.1
	l-0.4-0.9h-40v1.2l-44.3-5.1c0,0,39.5,23.4,33.6,89.6s-8,129.2-49.7,129.8c-3.2,0-5.5,0.1-7,0.1h-1.2c-0.1,0-0.2,0-0.4,0.1
	c-0.7,0-0.9,0.1-0.2,0.1c-0.1,0.1-0.2,0.4-0.2,0.6c0,0.5,0.4,0.9,0.9,0.9h178.5c0.5,0,0.9-0.4,0.9-0.9
	C514.1,542.9,513.8,542.6,513.3,542.6z"/>
<ellipse fill="#90C1E2" cx="423.4" cy="181" rx="150.5" ry="146"/>
<path fill="#8A6338" d="M572.7,161.8c-8.1,92.9-71.6,165.4-149.8,165.4s-140.7-72.3-148.8-165.3c-1.1,7.5-1.7,15.2-1.7,23.1
	c0,84,66.5,152.3,150.5,152.3c84,0,152.3-68.3,152.3-152.3C575.4,177.1,573.9,169.3,572.7,161.8z"/>
<g>
	<g>
		<g>
			<path fill="#90C1E2" d="M435.9,338.7c4.4,0,8-3.6,8-8v-20c0-4.4-3.5-8-8-8c-4.4,0-8,3.5-8,8v20
				C427.9,335.1,431.6,338.7,435.9,338.7z"/>
			<path fill="#90C1E2" d="M448.6,333.4c4.4,0,8-3.6,8-8v-14.7c0-4.4-3.6-8-8-8s-8,3.5-8,8v14.7
				C440.7,329.9,444.2,333.4,448.6,333.4z"/>
		</g>
		<path fill="#90C1E2" d="M464.4,319.6l-5.6,1.6c0,0-2.1,0.2-2.1,2.4c0.1,2.1-2.4,4.5-2.4,4.5l-6.7,2.4l-2.5,2c0,0-1.1-0.2-1.5,0.9
			c-0.5,1.1-7.2,2.1-7.2,2.1l-5.7-2.5l-2.4-5.9c0,0,0-1.4-1.7-1.4c-1.7,0-2.2-1.9-2.2-1.9l33.2-5.6l6.5-1.1L464.4,319.6z"/>
	</g>
</g>
<g>
	<g>
		<g>
			<path fill="#90C1E2" d="M410.1,339.1c-4.4,0-8-3.5-8-8v-20c0-4.4,3.6-8,8-8c4.4,0,8,3.6,8,8v20
				C417.9,335.6,414.4,339.1,410.1,339.1z"/>
			<path fill="#90C1E2" d="M397.3,333.9c-4.4,0-8-3.6-8-8v-14.7c0-4.4,3.6-8,8-8s8,3.6,8,8v14.7
				C405.2,330.3,401.7,333.9,397.3,333.9z"/>
		</g>
		<path fill="#90C1E2" d="M381.6,320.1l5.6,1.6c0,0,2.1,0.2,2.1,2.4c-0.1,2.1,2.4,4.5,2.4,4.5l6.7,2.4l2.5,2c0,0,1.1-0.2,1.5,0.9
			c0.5,1.1,7.2,2.1,7.2,2.1l5.7-2.5l2.4-5.9c0,0,0-1.4,1.7-1.4c1.7,0,2.2-1.9,2.2-1.9l-33.2-5.6l-6.5-1.1L381.6,320.1z"/>
	</g>
</g>
<path fill="#554F4F" d="M512.5,176.4c8.1,14.7,12.6,31.5,12.6,49c0,30.7-13.6,58.3-35.2,77c28-16.1,49.2-42.2,49.2-71.7
	C539.1,210.3,527.3,191.4,512.5,176.4z"/>
<path fill="#FFFFFF" d="M448.9,131.5c-8.1-2.5-16.1,12.1-25.9,12.1s-19.5-14.7-28.5-12c-39.7,12.2-68.7,50-68.7,93.8
	c0,42,26.6,77.8,63.8,91.4v-4.9c0-4.2,3.5-7.7,7.7-7.7c2.1,0,4.2,0.9,5.7,2.6l0.6,0.7l0.6-0.7c1.5-1.6,3.5-2.6,5.7-2.6
	c4.2,0,7.7,3.5,7.7,7.7v10.6c1.7,0.1,3.5,0.1,5.2,0.1s3.5,0,5.2-0.1v-10.6c0-4.2,3.5-7.7,7.7-7.7c2.1,0,4.2,0.9,5.7,2.6l0.6,0.7
	l0.6-0.7c1.5-1.6,3.5-2.6,5.7-2.6c4.2,0,7.7,3.5,7.7,7.7v4.9c37.2-13.6,63.8-49.5,63.8-91.4C520.4,180.5,490,144,448.9,131.5z
	 M383.7,237.7c-20,0-36.2-16.2-36.2-36.2s16.2-36.2,36.2-36.2c20,0,36.2,16.2,36.2,36.2S403.8,237.7,383.7,237.7z M423.2,264.5
	c-5.7,0-10.4-17.1-10.4-22.7c0-5.7,4.6-10.4,10.4-10.4c5.7,0,10.4,4.6,10.4,10.4C433.6,247.5,428.9,264.5,423.2,264.5z M463.4,237.7
	c-20,0-36.2-16.2-36.2-36.2s16.2-36.2,36.2-36.2c20,0,36.2,16.2,36.2,36.2S483.5,237.7,463.4,237.7z"/>
<path fill="#FFFFFF" d="M448.9,131.5c-8.1-2.5-16.1,12.1-25.9,12.1s-19.5-14.7-28.5-12c-39.7,12.2-68.7,50-68.7,93.8
	c0,42,26.6,77.8,63.8,91.4v-4.9c0-4.2,3.5-7.7,7.7-7.7c2.1,0,4.2,0.9,5.7,2.6l0.6,0.7l0.6-0.7c1.5-1.6,3.5-2.6,5.7-2.6
	c4.2,0,7.7,3.5,7.7,7.7v10.6c1.7,0.1,3.5,0.1,5.2,0.1s3.5,0,5.2-0.1v-10.6c0-4.2,3.5-7.7,7.7-7.7c2.1,0,4.2,0.9,5.7,2.6l0.6,0.7
	l0.6-0.7c1.5-1.6,3.5-2.6,5.7-2.6c4.2,0,7.7,3.5,7.7,7.7v4.9c37.2-13.6,63.8-49.5,63.8-91.4C520.4,180.5,490,144,448.9,131.5z
	 M383.7,237.7c-20,0-36.2-16.2-36.2-36.2s16.2-36.2,36.2-36.2c20,0,36.2,16.2,36.2,36.2S403.8,237.7,383.7,237.7z M423.2,264.5
	c-5.7,0-10.4-17.1-10.4-22.7c0-5.7,4.6-10.4,10.4-10.4c5.7,0,10.4,4.6,10.4,10.4C433.6,247.5,428.9,264.5,423.2,264.5z M463.4,237.7
	c-20,0-36.2-16.2-36.2-36.2s16.2-36.2,36.2-36.2c20,0,36.2,16.2,36.2,36.2S483.5,237.7,463.4,237.7z"/>
<path fill="#554F4F" d="M321.1,225.4c0-17.5,4.4-34.1,12.2-48.7c-14.5,15-26.4,33.7-26.4,54c0,29.5,21.2,55.5,49.2,71.7
	C334.7,283.6,321.1,256.1,321.1,225.4z"/>
<path fill="#554F4F" d="M375.5,209.9c0-10.2,8.4-18.6,18.6-18.6s18.6,8.4,18.6,18.6s-8.4,18.6-18.6,18.6S375.5,220.1,375.5,209.9z"
	/>
<path fill="#554F4F" d="M454.6,209.9c0-10.2,8.4-18.6,18.6-18.6c10.2,0,18.6,8.4,18.6,18.6s-8.4,18.6-18.6,18.6
	C462.9,228.5,454.6,220.1,454.6,209.9z"/>
<path fill="#554F4F" d="M432.4,331.8c0,2,1.6,3.6,3.6,3.6l0,0c2,0,3.6-1.6,3.6-3.6v-20c0-2-1.6-3.6-3.6-3.6l0,0
	c-2,0-3.6,1.6-3.6,3.6V331.8z"/>
<path fill="#554F4F" d="M445.2,326.7c0,2,1.6,3.6,3.6,3.6l0,0c2,0,3.6-1.6,3.6-3.6v-14.7c0-2-1.6-3.6-3.6-3.6l0,0
	c-2,0-3.6,1.6-3.6,3.6V326.7z"/>
<path fill="#554F4F" d="M413.7,331.8c0,2-1.6,3.6-3.6,3.6l0,0c-2,0-3.6-1.6-3.6-3.6v-20c0-2,1.6-3.6,3.6-3.6l0,0
	c2,0,3.6,1.6,3.6,3.6V331.8z"/>
<path fill="#554F4F" d="M401.1,326.7c0,2-1.6,3.6-3.6,3.6l0,0c-2,0-3.6-1.6-3.6-3.6v-14.7c0-2,1.6-3.6,3.6-3.6l0,0
	c2,0,3.6,1.6,3.6,3.6V326.7z"/>
<circle fill="#FFFFFF" cx="560.4" cy="538.1" r="57.2"/>
<circle fill="#FFFFFF" cx="560.5" cy="458.2" r="37.2"/>
<g>
	<circle fill="#554F4F" cx="545.4" cy="471.5" r="2.4"/>
	<circle fill="#554F4F" cx="551.7" cy="475.3" r="2.4"/>
	<circle fill="#554F4F" cx="559" cy="477" r="2.4"/>
	<circle fill="#554F4F" cx="566.5" cy="475.3" r="2.4"/>
	<circle fill="#554F4F" cx="572.6" cy="471.5" r="2.4"/>
</g>
<g>
	<circle fill="#90C1E2" cx="551.5" cy="446.1" r="8.6"/>
	<circle fill="#554F4F" cx="549.2" cy="448.6" r="4"/>
</g>
<g>
	<circle fill="#90C1E2" cx="571.5" cy="446.1" r="8.6"/>
	<circle fill="#554F4F" cx="569.2" cy="448.6" r="4"/>
</g>
<path fill="#CC903F" d="M484,148.4c3.1,3.5-23.6,10.5-50.7,12.2c-39.6,2.6-58.3-7.7-67.8-12.2c-9.5-4.5,23.1-24,42.5-37.4
	s23.2-12.6,38.7,0C462,123.8,480.8,144.9,484,148.4z"/>
<circle fill="#FFFFFF" cx="427.9" cy="97.6" r="9.7"/>
<path fill="#FFFFFF" d="M329,140.4"/>
<g>
	<g>
		<defs>
			<path id="SVGID_1_" d="M484,148.4c3.1,3.5-23.6,10.5-50.7,12.2c-39.6,2.6-58.3-7.7-67.8-12.2c-9.5-4.5,23.1-24,42.5-37.4
				s23.2-12.6,38.7,0C462,123.8,480.8,144.9,484,148.4z"/>
		</defs>
		<clipPath id="SVGID_2_">
			<use xlink:href="#SVGID_1_"  overflow="visible"/>
		</clipPath>
		<path clip-path="url(#SVGID_2_)" fill="none" stroke="#FFFFFF" stroke-width="2.7861" stroke-miterlimit="10" d="M366.1,138.7
			c9.9,7.1,31.5,12,56.5,12c22.6,0,42.5-4,53.3-10.1c0.2-0.1,0.5-0.2,0.7-0.5l2.5-1.5"/>
	</g>
</g>
<path fill="#EC1C24" d="M581.6,430.1c0,0-9.5,3-20.7,3s-20.5-3-20.5-3c-2,0-3.6-1.6-3.6-3.6v-23.6c0-2,1.6-3.6,3.6-3.6h41.4
	c2,0,3.6,1.6,3.6,3.6v23.6C585.2,428.5,583.6,430.1,581.6,430.1z"/>
<path fill="#EC1C24" d="M536.8,406.3c-4.5,0-8.2,3.7-8.2,8.2v0.2c0,4.5,3.7,8.2,8.2,8.2c4.5,0,8.2-3.7,8.2-8.2v-0.2
	C544.9,410,541.3,406.3,536.8,406.3z M541.4,414.8c0,2.6-2.1,4.6-4.6,4.6c-2.6,0-4.6-2.1-4.6-4.6v-0.2c0-2.6,2.1-4.6,4.6-4.6
	c2.6,0,4.6,2.1,4.6,4.6V414.8z"/>
<path fill="#EC1C24" d="M585.2,406.3c-4.5,0-8.2,3.7-8.2,8.2v0.2c0,4.5,3.7,8.2,8.2,8.2c4.5,0,8.2-3.7,8.2-8.2v-0.2
	C593.5,410,589.7,406.3,585.2,406.3z M590,414.8c0,2.6-2.1,4.6-4.6,4.6c-2.6,0-4.6-2.1-4.6-4.6v-0.2c0-2.6,2.1-4.6,4.6-4.6
	c2.6,0,4.6,2.1,4.6,4.6V414.8z"/>
<path fill="#E1A04B" d="M551.5,464.1c-0.6-2.2,5.5-6,7.7-6.6c2.2-0.6,4.6,0.6,5.2,2.9s-0.6,4.6-2.9,5.2S552.1,466.4,551.5,464.1z"/>
<path fill="#554F4F" d="M553.6,505L553.6,505c2.1,0,3.9,1.7,3.9,3.9l0,0c0,2.1-1.7,3.9-3.9,3.9l0,0c-2.1,0-3.9-1.7-3.9-3.9l0,0
	C549.7,506.6,551.5,504.8,553.6,505z"/>
<path fill="#554F4F" d="M553,518.1L553,518.1c2.1,0,3.9,1.7,3.9,3.9l0,0c0,2.1-1.7,3.9-3.9,3.9l0,0c-2.1,0-3.9-1.7-3.9-3.9l0,0
	C549,519.8,550.7,518.1,553,518.1z"/>
<path fill="#554F4F" d="M554.6,531.4L554.6,531.4c2.1,0,3.9,1.7,3.9,3.9l0,0c0,2.1-1.7,3.9-3.9,3.9l0,0c-2.1,0-3.9-1.7-3.9-3.9l0,0
	C550.7,533.2,552.5,531.4,554.6,531.4z"/>
<g>
	<line fill="none" stroke="#554F4F" stroke-width="4.6435" stroke-miterlimit="10" x1="602.1" y1="502.8" x2="638.9" y2="458.2"/>
	<line fill="none" stroke="#554F4F" stroke-width="4.6435" stroke-miterlimit="10" x1="625.2" y1="474.8" x2="648.1" y2="476.2"/>
	<line fill="none" stroke="#554F4F" stroke-width="4.6435" stroke-miterlimit="10" x1="626.3" y1="473.5" x2="614.3" y2="455.7"/>
</g>
<g>
	<path fill="#D1D7AA" d="M528,482.5c0.2-1.7,1.9-3.1,3.6-3l63,4.4c1.7,0.1,3.1,1.6,3,3.5l-0.4,3.7c-0.1,1.7,0.7,4.2,2.1,5.4
		l46.3,39.9c1.4,1.1,1.5,3.2,0.2,4.5l-10.9,12.1c-1.2,1.4-3.2,1.5-4.6,0.2L596,522.1c-1.4-1.2-1.7-0.9-0.9,0.6l2.2,4.2
		c0.9,1.6,2.2,4.1,3.2,5.6l23.4,38.2c0.9,1.5,0.5,3.6-1,4.5l-16.1,10.4c-1.5,1-3.2,0.4-4-1.2l-35.5-85.8c-0.6-1.6-2.7-3.1-4.5-3.4
		l-29.1-2.9c-1.7-0.1-4-0.4-5.1-0.5c-1-0.1-1.6-1.6-1.5-3.4L528,482.5z"/>
</g>
<circle fill="#FFFFFF" cx="628.6" cy="119.2" r="10.4"/>
<circle fill="#FFFFFF" cx="224.3" cy="290.2" r="5.6"/>
<circle fill="#FFFFFF" cx="390.3" cy="273.7" r="6.2"/>
<circle fill="#FFFFFF" cx="341.1" cy="233.6" r="4.2"/>
<circle fill="#FFFFFF" cx="320.5" cy="182.9" r="7.9"/>
<circle fill="#FFFFFF" cx="403.3" cy="136.2" r="5.7"/>
<circle fill="#FFFFFF" cx="271" cy="147.8" r="3.7"/>
<circle fill="#FFFFFF" cx="206.6" cy="218.9" r="3.7"/>
<circle fill="#FFFFFF" cx="193.3" cy="353.2" r="5.2"/>
<circle fill="#FFFFFF" cx="320.5" cy="358.4" r="3.2"/>
<circle fill="#FFFFFF" cx="492.2" cy="73.7" r="3.2"/>
<circle fill="#FFFFFF" cx="337" cy="64" r="3.2"/>
<circle fill="#FFFFFF" cx="282.2" cy="9.1" r="7.9"/>
<circle fill="#FFFFFF" cx="411.2" cy="66" r="7.9"/>
<circle fill="#FFFFFF" cx="636.6" cy="263.2" r="10.4"/>
<circle fill="#FFFFFF" cx="612.2" cy="159.2" r="5.6"/>
<circle fill="#FFFFFF" cx="265.9" cy="316.1" r="5.6"/>
<circle fill="#FFFFFF" cx="595.8" cy="325.2" r="6.2"/>
<circle fill="#FFFFFF" cx="584.1" cy="368.3" r="6.2"/>
<circle fill="#FFFFFF" cx="555.7" cy="276" r="4.2"/>
<circle fill="#FFFFFF" cx="505" cy="255.4" r="7.9"/>
<circle fill="#FFFFFF" cx="458.3" cy="338.2" r="5.7"/>
<circle fill="#FFFFFF" cx="541" cy="141.4" r="3.7"/>
<circle fill="#FFFFFF" cx="527" cy="343.9" r="3.2"/>
<circle fill="#FFFFFF" cx="445.4" cy="263.2" r="3.2"/>
<circle fill="#FFFFFF" cx="388" cy="346" r="7.9"/>
<circle fill="#FFFFFF" cx="310.1" cy="57.5" r="10.4"/>
<circle fill="#FFFFFF" cx="224.3" cy="51.5" r="5.6"/>
<circle fill="#FFFFFF" cx="390.3" cy="35.1" r="6.2"/>
<circle fill="#FFFFFF" cx="398.4" cy="13.4" r="6.2"/>
<circle fill="#FFFFFF" cx="193.3" cy="114.4" r="5.2"/>
<circle fill="#FFFFFF" cx="320.5" cy="119.7" r="3.2"/>
<circle fill="#FFFFFF" cx="598.1" cy="55.1" r="6.2"/>
<circle fill="#FFFFFF" cx="551.7" cy="45.4" r="4.2"/>
<circle fill="#FFFFFF" cx="340.2" cy="9.1" r="4.2"/>
<circle fill="#FFFFFF" cx="628.6" cy="400.5" r="4.2"/>
<circle fill="#FFFFFF" cx="624.3" cy="80.8" r="4.2"/>
<circle fill="#FFFFFF" cx="626.3" cy="308.2" r="4.2"/>
<circle fill="#FFFFFF" cx="641.8" cy="151.5" r="4.2"/>
<circle fill="#FFFFFF" cx="514.1" cy="15.2" r="4.2"/>
<circle fill="#FFFFFF" cx="458.3" cy="99.4" r="5.7"/>
<circle fill="#FFFFFF" cx="527" cy="105.2" r="3.2"/>
<circle fill="#FFFFFF" cx="445.4" cy="24.5" r="3.2"/>
<circle fill="#FFFFFF" cx="388" cy="107.3" r="7.9"/>
<circle fill="#FFFFFF" cx="647.4" cy="451.1" r="5.6"/>
<circle fill="#FFFFFF" cx="530.6" cy="507.6" r="4.2"/>
<circle fill="#FFFFFF" cx="551.2" cy="558.3" r="7.9"/>
<circle fill="#FFFFFF" cx="551.2" cy="382.8" r="3.2"/>
<circle fill="#FFFFFF" cx="620.3" cy="370" r="3.2"/>
<circle fill="#FFFFFF" cx="641.8" cy="325.2" r="3.2"/>
<circle fill="#FFFFFF" cx="638.9" cy="203" r="3.2"/>
<circle fill="#FFFFFF" cx="253.5" cy="496.2" r="10.4"/>
<circle fill="#FFFFFF" cx="259.5" cy="582" r="5.6"/>
<circle fill="#FFFFFF" cx="275.9" cy="416" r="6.2"/>
<circle fill="#FFFFFF" cx="316" cy="465.2" r="4.2"/>
<circle fill="#FFFFFF" cx="366.9" cy="485.8" r="7.9"/>
<circle fill="#FFFFFF" cx="336" cy="428.9" r="7.9"/>
<circle fill="#FFFFFF" cx="413.4" cy="403.1" r="5.7"/>
<circle fill="#FFFFFF" cx="402" cy="535.3" r="3.7"/>
<circle fill="#FFFFFF" cx="191.3" cy="485.8" r="3.2"/>
<circle fill="#FFFFFF" cx="344.7" cy="397.3" r="3.2"/>
<circle fill="#FFFFFF" cx="265.2" cy="370" r="3.2"/>
<circle fill="#FFFFFF" cx="426.3" cy="478" r="3.2"/>
<circle fill="#FFFFFF" cx="468" cy="552.7" r="7.9"/>
<circle fill="#FFFFFF" cx="432.4" cy="576.4" r="7.9"/>
<circle fill="#FFFFFF" cx="483.8" cy="395.3" r="7.9"/>
<g>
	<line fill="none" stroke="#554F4F" stroke-width="4.6435" stroke-miterlimit="10" x1="526.4" y1="501.2" x2="485.2" y2="451.5"/>
	<line fill="none" stroke="#554F4F" stroke-width="4.6435" stroke-miterlimit="10" x1="497.7" y1="466.7" x2="475.9" y2="469.5"/>
	<line fill="none" stroke="#554F4F" stroke-width="4.6435" stroke-miterlimit="10" x1="497.7" y1="466.7" x2="509.8" y2="449"/>
</g>
<circle fill="#554F4F" cx="526.4" cy="501.2" r="2.9"/>
<g>
	<g>
		<path fill="#8A6338" d="M300.9,87.9v39.4c0,0.6-0.5,1.1-1.1,1.1h-2.9c-0.6,0-1.1-0.5-1.1-1.1V87.9c0-0.6,0.5-1.1,1.1-1.1h2.9
			C300.4,86.8,300.9,87.3,300.9,87.9z"/>
		<g>
			<path fill="#8A6338" d="M306.5,128.9h-96.1c-0.7,0-1.2-0.6-1.2-1.2v-0.2c0-0.7,0.6-1.2,1.2-1.2h96.1c0.7,0,1.2,0.6,1.2,1.2v0.2
				C307.8,128.3,307.3,128.9,306.5,128.9z"/>
			<path fill="#8A6338" d="M260.3,61.1l62.2,31.2c1.1,0.6,1.6,2,1,3.1l-2.2,4.6c-0.6,1.1-2,1.6-3.1,1l-62.3-31.2
				c-1.1-0.6-1.6-2-1-3.1l2.2-4.6C257.7,61,259.2,60.5,260.3,61.1z"/>
			<path fill="#8A6338" d="M253,61.1L192,91.8c-1.1,0.5-1.6,1.9-1,3.1l2.4,4.6c0.6,1.1,2,1.6,3.1,1l61.1-30.7c1.1-0.6,1.6-2,1-3.1
				l-2.4-4.6C255.5,61,254.2,60.5,253,61.1z"/>
			<path fill="#8A6338" d="M221.3,87.8v39.5c0,0.6-0.5,1.1-1.1,1.1h-2.9c-0.6,0-1.1-0.5-1.1-1.1V87.8c0-0.6,0.5-1.1,1.1-1.1h2.9
				C220.8,86.7,221.3,87.2,221.3,87.8z"/>
			<path fill="#8A6338" d="M261.3,128.9v11.7c0,0.7-0.6,1.5-1.5,1.5h-6.1c-0.7,0-1.5-0.6-1.5-1.5v-11.7c0-0.7,0.6-1.5,1.5-1.5h6.1
				C260.7,127.4,261.3,128.2,261.3,128.9z"/>
		</g>
	</g>
	<g>
		<polygon fill="#E6242F" points="261,98.1 266.3,93.7 258.8,94.3 		"/>
		
			<polyline fill="none" stroke="#846335" stroke-width="0.5679" stroke-linecap="round" stroke-linejoin="round" stroke-miterlimit="10" points="
			237.7,126.2 238.7,125.4 238.7,117.6 		"/>
		
			<polyline fill="none" stroke="#846335" stroke-width="0.5679" stroke-linecap="round" stroke-linejoin="round" stroke-miterlimit="10" points="
			243,126.9 238.7,125.4 243.2,124.6 		"/>
		
			<polyline fill="none" stroke="#846335" stroke-width="0.5679" stroke-linecap="round" stroke-linejoin="round" stroke-miterlimit="10" points="
			245,125.6 246,124.8 246,116.9 		"/>
		
			<polyline fill="none" stroke="#846335" stroke-width="0.5679" stroke-linecap="round" stroke-linejoin="round" stroke-miterlimit="10" points="
			250.4,126.3 246,124.8 250.7,123.9 		"/>
		<path fill="#CC903F" d="M251.5,88.2c-7.5-2-15.6,2.2-17.9,9.6c0,0.1-0.5,0.6-1,1.4c-8.4,6.4-20.2,1.1-20.2,1.1s1.7,6.6,9.6,11.4
			c7.9,4.7,11.9,5.5,19,6.5c5.2,0.7,11.9-2.2,13.7-3.7c3.2-1.7,5.7-4.9,6.9-8.7C263.7,98.2,259.2,90.2,251.5,88.2z M248.8,100.6
			c-2-0.5-3.1-2.5-2.6-4.5s2.6-3.1,4.5-2.6c2,0.5,3.1,2.6,2.6,4.5C252.8,100.1,250.7,101.2,248.8,100.6z"/>
		<path fill="#231F20" d="M251.4,98.2c0-1-0.9-1.9-1.9-1.9s-1.9,0.9-1.9,1.9c0,1,0.9,1.9,1.9,1.9C250.7,100.1,251.4,99.3,251.4,98.2
			z"/>
		<path fill="#6F5048" d="M231.6,102.3c-0.7,0.9-2.5,4.1-12.5,5.1c-2.4,0.2-3.4-0.5-4.9-2.6c-0.6-0.9-1.4-1.9-2.1-3.4
			c-2.2-4.2,8.9,0.9,16.4-1.2c1-0.2,4.1-1.1,4.7-1.7c0.1-0.1,0.2,0.2,0.2,0.5C233.1,99.7,232.2,101.7,231.6,102.3z"/>
	</g>
	<path fill="#FFFFFF" d="M216.2,83.1c0,0-3.4,4.1-7.9,7.4c-3.2,2.4-7.5,3.9-9.7,5.4c-5.4,3.6-20.1-4.1-4.1-14.7s18.7-0.5,26.9-10.5
		s14-12.2,21.9-13.5c8-1.4,10.2-3.6,14.4-5.6c4.2-2,11.4-0.1,17.2,5.6c5.9,5.6,10.7,11,15.2,10.1c6.4-1.2,8.7,8.1,17,12.1
		c13.2,6.2,19.4,15.6,16.5,16.2c0,0,0.2,4.7-6.2,0.4c-6.5-4.5,0,0-10.2-7.5c-10.2-7.5-11.7-9.9-25.1-11.5
		c-13.2-1.6-6.7-2.2-14.7-6.4c-8-4.1-14.6-6.9-21.7,0s-21.9,7.7-24.2,8.2C218.8,79.3,216.2,83.1,216.2,83.1z"/>
	<circle fill="#8A6338" cx="256.8" cy="141.9" r="4.5"/>
	<ellipse fill="#E1A04B" cx="269.2" cy="124.6" rx="5.2" ry="1.6"/>
	<ellipse fill="#E1A04B" cx="258.8" cy="124.6" rx="5.2" ry="1.6"/>
	<ellipse fill="#E1A04B" cx="279.5" cy="124.6" rx="5.2" ry="1.6"/>
	<ellipse fill="#E1A04B" cx="274.4" cy="120.8" rx="5.2" ry="1.6"/>
	<ellipse fill="#E1A04B" cx="263.7" cy="120.8" rx="5.2" ry="1.6"/>
	<ellipse fill="#E1A04B" cx="268.9" cy="116.9" rx="5.2" ry="1.6"/>
</g>
<path fill="#D1D7AA" d="M324.5,557.4c0,2.2,0,4.2,0,6.4c0.6,0,1.1,0.1,1.6,0.1c17,0.1,34,0.1,51,0.2c5.7,0,11.4-4.9,12-10.2
	c0.9-7.6-3.5-12.9-9.2-14c-8.5-1.6-14.4,3.6-15.2,11.7c-0.2,3-1.9,4.7-4.7,4.6c-2.6-0.1-4.2-2.1-4.1-5c0.4-12.6,11-22.1,24-20.6
	c7.7,0.9,13.5,5.2,16.7,12.5c3.2,7.4,2.5,14.6-2.1,21.2c-4.4,6.1-10.4,8.9-17.9,8.9c-29-0.1-58-0.1-86.9-0.2
	c-13.2,0-26.5-0.1-39.6-0.2c-2.4,0-4.2-0.9-5.1-3.1c-0.6-1.9-0.4-3.7,1.4-4.9c0.9-0.6,2.2-1,3.4-1c11.2,0,22.5,0,33.7,0.1
	c2.2,0,3.1-0.6,2.7-2.9c-0.1-0.5,0-0.9,0-1.4c0.2-1.7-0.5-2.4-2.4-2.4c-3.9,0.1-7.9,0-11.7,0c-2.7,0-4.6-1.6-4.6-4.2
	c-0.1-2.7,1.5-4.6,4.5-4.6c6.7-0.1,13.5,0,20.2,0c15.4,0.1,30.7,0.1,46.1,0.2c0.9,0,1.9,0,2.7,0.1c2.1,0.4,3.7,2.5,3.5,4.6
	c-0.2,2.2-1.9,4.1-4.1,4.1C335,557.6,329.9,557.4,324.5,557.4z M292,563.8c7.5,0,14.7,0.1,22.1,0.1c5,0,4.2,1.1,4.4-4.6
	c0-1.4-0.5-1.9-1.9-1.9c-5.1,0-10.1,0-15.2,0c-3,0-6.1,0-9.4,0C292,559.6,292,561.5,292,563.8z"/>
<path fill="#CC903F" d="M340.1,557.4h-68.7c-2.4,0-4.4-2-4.4-4.4v-0.2c0-2.4,2-4.4,4.4-4.4h68.7c2.4,0,4.4,2,4.4,4.4v0.2
	C344.4,555.4,342.5,557.4,340.1,557.4z"/>
<g>
	
		<polyline fill="none" stroke="#846335" stroke-width="0.6094" stroke-linecap="round" stroke-linejoin="round" stroke-miterlimit="10" points="
		309.4,551.8 308.4,551.1 308.4,542.6 	"/>
	<g>
		<polygon fill="#E6242F" points="284.3,521.6 278.8,516.8 286.8,517.6 		"/>
		
			<polyline fill="none" stroke="#846335" stroke-width="0.6094" stroke-linecap="round" stroke-linejoin="round" stroke-miterlimit="10" points="
			303.8,552.7 308.4,551.1 303.5,550.1 		"/>
		
			<polyline fill="none" stroke="#846335" stroke-width="0.6094" stroke-linecap="round" stroke-linejoin="round" stroke-miterlimit="10" points="
			301.5,551.1 300.4,550.2 300.4,541.8 		"/>
		
			<polyline fill="none" stroke="#846335" stroke-width="0.6094" stroke-linecap="round" stroke-linejoin="round" stroke-miterlimit="10" points="
			295.8,551.9 300.4,550.2 295.5,549.3 		"/>
		<path fill="#6F5048" d="M283.8,529.9c1.1,4.1,3.9,7.5,7.4,9.4c2.1,1.6,9.1,4.7,14.7,4c7.6-1.1,11.9-1.9,20.4-7
			c8.4-5.1,10.2-12.2,10.2-12.2s-12.7,5.5-21.7-1.2c-0.6-0.7-1.1-1.2-1.1-1.4c-2.5-7.9-11.1-12.5-19.1-10.4
			C286.4,513.2,281.5,521.7,283.8,529.9z M292.6,521.6c-0.6-2.1,0.6-4.2,2.7-4.9c2.1-0.6,4.2,0.6,4.9,2.7c0.6,2.1-0.6,4.2-2.7,4.9
			S293.3,523.7,292.6,521.6z"/>
		<circle fill="#231F20" cx="296.6" cy="521.8" r="2"/>
		<path fill="#CC903F" d="M316,526.1c0.9,0.9,2.6,4.4,13.5,5.5c2.6,0.2,3.6-0.5,5.2-2.7c0.6-0.9,1.4-2,2.2-3.6
			c2.4-4.5-9.5,1-17.6-1.2c-1.1-0.4-4.4-1.2-5-1.9c-0.1-0.1-0.2,0.2-0.2,0.5C314.3,523.3,315.4,525.4,316,526.1z"/>
	</g>
</g>
</svg>
