<?xml version="1.0" encoding="UTF-8" standalone="no"?>
<svg width="372px" height="159px" viewBox="0 0 372 159" version="1.1" xmlns="http://www.w3.org/2000/svg" xmlns:xlink="http://www.w3.org/1999/xlink" xmlns:sketch="http://www.bohemiancoding.com/sketch/ns">
    <!-- Generator: Sketch 3.3.2 (12043) - http://www.bohemiancoding.com/sketch -->
    <title>babolygo-felhoNyito-01</title>
    <desc>Created with Sketch.</desc>
    <defs></defs>
    <g id="Page-1" stroke="none" stroke-width="1" fill="none" fill-rule="evenodd" sketch:type="MSPage">
        <g id="babolygo-felhoNyito-01" sketch:type="MSArtboardGroup">
            <path d="M165.061,75.685 L165.061,57.582 C165.061,57.18 164.861,56.481 165.362,56.281 C165.861,55.98 166.463,56.18 166.962,56.58 C168.262,57.48 168.563,58.88 168.662,60.282 C168.763,62.081 168.763,63.982 168.862,65.783 C169.062,68.382 170.663,69.783 173.063,70.483 C175.363,71.085 177.865,71.085 180.264,71.383 C186.464,72.084 191.368,76.284 192.766,82.088 C193.965,87.287 191.967,92.789 187.567,95.89 C183.365,98.788 177.164,98.99 172.862,96.187 C171.763,95.487 171.162,94.587 170.562,93.491 C170.263,92.988 169.962,92.188 169.262,92.288 C168.462,92.288 168.363,93.088 168.163,93.689 C167.963,94.291 167.561,94.687 167.062,94.988 C165.661,95.688 165.162,95.387 165.162,93.887 C165.061,87.786 165.061,81.685 165.061,75.685 L165.061,75.685 Z M167.761,83.486 C167.761,89.986 173.062,95.288 179.365,95.288 C185.266,95.288 190.165,90.387 190.165,84.389 C190.165,78.185 184.865,72.785 178.764,72.684 C172.662,72.684 167.761,77.484 167.761,83.486 L167.761,83.486 Z" id="Fill-1" fill="#A91F68" sketch:type="MSShapeGroup"></path>
            <path d="M161.06,87.786 L161.06,94.389 C161.06,94.888 161.361,95.589 160.66,95.688 C160.06,95.791 159.359,95.791 158.959,95.189 C158.66,94.888 158.46,94.489 158.258,94.088 C157.959,93.589 157.959,92.789 157.159,92.789 C156.458,92.789 156.158,93.388 155.858,93.887 C154.558,96.488 152.357,97.786 149.656,98.289 C141.055,100.087 134.155,93.49 133.854,86.586 C133.654,81.085 136.055,77.085 140.754,74.483 C142.356,73.584 143.955,72.984 145.556,72.084 C146.356,71.684 147.255,71.084 146.955,70.083 C146.655,69.083 145.556,69.184 144.655,68.984 C143.954,68.883 142.654,69.483 142.554,68.683 C142.453,67.783 143.754,67.883 144.554,67.683 C152.757,65.882 160.658,72.383 160.958,80.985 C161.161,83.384 161.06,85.585 161.06,87.786 L161.06,87.786 Z M147.158,95.387 C153.16,95.387 158.259,90.287 158.259,84.286 C158.16,78.685 153.659,73.984 148.058,73.984 C141.957,73.984 136.856,78.984 136.856,84.986 C136.856,90.786 141.356,95.387 147.158,95.387 L147.158,95.387 Z" id="Fill-2" fill="#A91F68" sketch:type="MSShapeGroup"></path>
            <path d="M236.977,100.189 C235.674,100.688 234.372,100.288 233.274,99.69 C229.272,97.587 226.672,94.488 226.672,89.788 C226.572,79.785 226.672,69.784 226.672,59.682 C226.672,59.08 226.373,58.281 227.274,58.081 C228.172,57.881 228.674,58.382 229.071,59.081 C229.673,60.082 229.874,61.182 229.874,62.383 L229.874,89.089 C229.874,91.188 230.274,93.289 231.272,95.091 C232.376,97.19 233.975,98.789 236.376,99.391 C236.572,99.591 236.873,99.69 236.977,100.189" id="Fill-3" fill="#A91F68" sketch:type="MSShapeGroup"></path>
            <path d="M319.689,60.482 C319.689,60.682 317.689,59.882 317.49,59.182" id="Fill-4" fill="#A91F68" sketch:type="MSShapeGroup"></path>
            <path d="M312.586,67.583 C312.69,67.284 312.891,67.183 313.088,67.084 C315.789,65.983 317.49,63.583 317.49,60.683 L317.49,57.983 C317.49,57.482 317.886,56.982 318.39,56.882 C318.99,56.781 319.388,57.181 319.486,57.782 C320.492,62.583 318.187,66.783 313.088,67.583 C312.99,67.684 312.787,67.684 312.586,67.583" id="Fill-5" fill="#A91F68" sketch:type="MSShapeGroup"></path>
            <path d="M198.467,83.384 C198.467,89.888 203.768,95.288 210.17,95.189 C216.068,95.189 220.973,90.288 220.973,84.287 C220.973,78.087 215.672,72.584 209.469,72.485 C203.367,72.484 198.467,77.284 198.467,83.384 L198.467,83.384 Z M222.371,84.389 C222.371,92.089 216.369,98.19 208.871,98.19 C201.269,98.19 195.267,91.99 195.367,84.085 C195.367,76.485 201.566,70.385 208.971,70.385 C216.473,70.283 222.471,76.585 222.371,84.389 L222.371,84.389 Z" id="Fill-6" fill="#A91F68" sketch:type="MSShapeGroup"></path>
            <path d="M305.186,83.384 C305.186,89.888 310.489,95.288 316.889,95.189 C322.791,95.189 327.69,90.288 327.69,84.287 C327.69,78.087 322.389,72.584 316.19,72.485 C310.088,72.484 305.186,77.284 305.186,83.384 L305.186,83.384 Z M329.092,84.389 C329.092,92.089 323.09,98.19 315.588,98.19 C307.986,98.19 301.984,91.99 302.086,84.085 C302.086,76.485 308.287,70.385 315.686,70.385 C323.188,70.283 329.189,76.585 329.092,84.389 L329.092,84.389 Z" id="Fill-7" fill="#A91F68" sketch:type="MSShapeGroup"></path>
            <path d="M103.349,76.084 L103.349,57.981 C103.349,57.581 103.149,56.88 103.65,56.68 C104.15,56.379 104.751,56.579 105.25,56.979 C106.55,57.879 106.851,59.279 106.95,60.681 C107.051,62.48 107.051,64.381 107.15,66.182 C107.35,68.781 108.951,70.182 111.352,70.883 C113.652,71.483 116.152,71.483 118.552,71.782 C124.754,72.483 129.655,76.683 131.054,82.483 C132.256,87.685 130.254,93.184 125.854,96.285 C121.653,99.186 115.452,99.389 111.15,96.589 C110.051,95.889 109.451,94.986 108.85,93.886 C108.551,93.387 108.25,92.587 107.55,92.686 C106.75,92.686 106.651,93.49 106.451,94.087 C106.251,94.686 105.849,95.089 105.35,95.386 C103.949,96.087 103.45,95.789 103.45,94.187 C103.349,88.188 103.349,82.188 103.349,76.084 L103.349,76.084 Z M106.051,83.886 C106.051,90.387 111.352,95.688 117.653,95.688 C123.554,95.688 128.455,90.787 128.455,84.786 C128.455,78.586 123.154,73.185 117.053,73.084 C110.951,73.083 106.051,77.884 106.051,83.886 L106.051,83.886 Z" id="Fill-8" fill="#A91F68" sketch:type="MSShapeGroup"></path>
            <path d="M113.551,72.484 C111.251,72.484 109.05,71.584 107.45,69.984 C105.749,68.283 104.849,65.882 104.849,63.382 C104.849,58.481 108.849,54.48 113.652,54.48 C115.952,54.48 118.052,55.38 119.652,56.98 C121.353,58.68 122.352,61.082 122.352,63.582 C122.253,68.583 118.453,72.484 113.551,72.484 L113.551,72.484 Z M113.751,56.681 C110.251,56.681 107.45,59.482 107.45,62.982 C107.45,64.882 108.151,66.583 109.451,67.883 C110.75,69.184 112.451,69.883 114.251,69.883 C117.751,69.883 120.651,66.983 120.651,63.483 C120.553,59.882 117.453,56.681 113.751,56.681 L113.751,56.681 Z" id="Fill-9" fill="#A91F68" sketch:type="MSShapeGroup"></path>
            <path id="Fill-10" fill="#A91F68" sketch:type="MSShapeGroup"></path>
            <path d="M252.678,116.191 L252.377,116.191 C252.477,115.99 252.678,115.99 252.879,115.89 C258.078,113.791 261.379,109.088 261.479,103.589 L261.479,101.788 C261.479,100.687 261.479,99.59 261.579,98.486 L261.579,98.288 C261.679,95.789 261.78,93.786 261.079,93.086 C260.977,92.888 260.778,92.888 260.581,92.888 C260.28,92.888 259.979,93.086 259.579,93.387 C257.177,95.687 254.579,97.088 251.677,97.587 C250.679,97.785 249.777,97.888 248.878,97.888 L248.276,97.888 C245.378,97.587 243.276,96.689 243.276,96.689 C242.975,96.487 242.674,96.388 242.475,96.186 C241.873,95.889 241.375,95.588 240.778,95.188 C237.174,92.888 235.073,89.286 235.073,85.386 C234.973,81.485 236.977,77.884 240.473,75.383 C242.077,74.284 244.475,73.184 246.475,72.283 L247.477,71.782 C248.379,71.182 248.676,70.482 248.477,69.782 C248.176,68.681 247.077,68.581 246.276,68.581 L245.975,68.581 L245.774,68.581 C245.577,68.581 245.378,68.581 245.077,68.682 C244.876,68.682 244.677,68.781 244.475,68.781 C244.174,68.781 244.174,68.682 244.174,68.581 C244.174,68.282 244.776,68.181 245.674,67.981 L245.975,67.981 C246.375,67.882 246.877,67.882 247.377,67.882 C247.875,67.882 248.379,67.882 249.178,67.981 C250.276,67.981 251.278,68.482 251.676,69.183 C251.977,69.682 252.076,70.282 251.875,70.883 C251.576,71.782 250.877,72.483 249.879,72.883 C249.475,72.984 248.477,73.383 247.578,73.683 L246.275,74.183 L246.177,74.183 L245.974,74.284 C245.876,74.284 245.773,74.383 245.673,74.383 C245.376,74.482 244.974,74.684 244.577,74.883 L244.473,74.883 L244.373,74.982 C239.67,77.482 237.473,82.086 238.672,86.885 C239.67,91.085 242.672,93.785 247.676,94.886 C248.475,95.088 249.375,95.187 250.274,95.187 C255.977,95.187 261.28,90.984 262.178,85.686 L262.178,85.385 C262.178,85.187 262.178,85.084 262.278,84.985 C262.278,84.586 262.376,84.185 262.376,83.884 L262.376,83.583 L262.376,81.983 L262.376,73.481 C262.376,72.181 262.476,70.981 262.476,70.181 L262.476,69.681 C262.476,69.081 263.277,68.081 264.08,68.081 L264.381,68.081 C265.082,68.281 265.082,68.681 264.979,69.48 L264.979,69.981 L264.979,100.487 C265.781,108.792 261.078,114.893 252.678,116.191" id="Fill-11" fill="#A91F68" sketch:type="MSShapeGroup"></path>
            <path d="M286.982,116.191 L286.681,116.191 C286.781,115.99 286.982,115.99 287.183,115.89 C292.386,113.791 295.685,109.088 295.783,103.589 L295.783,101.788 L295.783,100.587 L295.783,97.784 C295.883,95.286 295.883,93.686 295.385,93.085 C295.285,92.985 295.084,92.887 294.885,92.887 C294.584,92.887 294.283,93.085 293.887,93.386 C291.485,95.686 288.883,97.087 285.883,97.586 C285.483,97.686 285.182,97.686 284.684,97.784 L284.584,97.784 L283.385,97.784 L282.585,97.784 C279.683,97.487 277.481,96.687 277.384,96.687 C277.185,96.587 276.88,96.386 276.583,96.184 C275.981,95.887 275.483,95.586 274.882,95.186 C271.282,92.886 269.181,89.284 269.181,85.384 C269.081,81.483 271.081,77.882 274.581,75.381 C276.282,74.181 278.183,73.381 279.981,72.58 L280.985,72.081 C281.085,71.98 281.282,71.98 281.381,71.881 C282.383,71.482 283.781,70.881 283.582,69.381 C283.285,67.681 281.48,67.681 280.582,67.881 C279.682,68.081 279.781,67.98 279.781,67.98 C279.584,67.98 279.283,67.78 279.381,67.681 C280.582,66.98 281.682,66.879 283.084,66.879 L283.982,66.879 C292.984,66.879 299.287,73.182 299.287,82.283 C299.287,82.782 299.185,84.386 299.185,84.386 C299.185,87.882 299.185,91.785 299.085,95.285 L299.085,100.388 C299.988,108.792 295.385,114.893 286.982,116.191 L286.982,116.191 Z M284.984,73.083 C283.285,73.083 281.582,73.384 279.98,74.083 C274.38,76.383 271.681,81.285 272.98,86.585 C273.98,90.785 276.982,93.489 281.982,94.586 C282.783,94.784 283.681,94.887 284.584,94.887 C290.383,94.887 295.586,90.687 296.484,85.286 L296.484,85.187 C296.584,84.585 296.584,84.083 296.584,83.686 L296.584,83.283 C296.584,82.583 296.484,81.886 296.287,81.184 C294.885,76.285 290.383,73.083 284.984,73.083 L284.984,73.083 Z" id="Fill-12" fill="#A91F68" sketch:type="MSShapeGroup"></path>
            <path d="M281.48,68.183 C282.382,68.284 283.482,68.284 283.781,69.284 C284.084,70.284 283.084,70.885 282.383,71.285 C282.082,71.384 279.283,72.885 279.08,72.985 L294.687,71.685 C291.583,67.884 286.582,65.784 281.48,66.883 C280.679,67.085 279.38,66.984 279.484,67.884 C279.484,68.683 280.68,68.183 281.48,68.183" id="Fill-13" fill="#A91F68" sketch:type="MSShapeGroup"></path>
            <path d="M246.275,68.984 C247.175,69.083 248.275,69.083 248.576,70.083 C248.877,71.084 247.875,71.684 247.176,72.084 C246.877,72.183 246.676,72.383 246.375,72.484 L250.678,71.984 C247.578,68.183 250.276,67.783 246.276,67.884 C245.477,67.884 244.174,68.084 244.274,68.684 C244.375,69.384 245.477,68.883 246.275,68.984" id="Fill-14" fill="#A91F68" sketch:type="MSShapeGroup"></path>
            <path d="M84.646,111.993 L84.415,111.993 C83.863,111.993 83.415,111.546 83.415,110.993 C83.415,110.44 83.863,109.993 84.415,109.993 L84.646,109.993 C85.198,109.993 85.646,110.44 85.646,110.993 C85.646,111.546 85.198,111.993 84.646,111.993" id="Fill-15" fill="#FFFFFF" sketch:type="MSShapeGroup"></path>
            <path d="M155.758,160 C154.725,160 153.696,159.986 152.673,159.959 C152.121,159.943 151.685,159.484 151.7,158.932 C151.715,158.379 152.172,157.949 152.727,157.959 C154.301,158.002 155.891,158.015 157.48,157.982 C158.032,158.006 158.489,158.41 158.5,158.962 C158.511,159.515 158.072,159.971 157.52,159.982 C156.933,159.994 156.346,160 155.758,160 L155.758,160 Z M162.493,159.761 C161.971,159.761 161.531,159.355 161.496,158.826 C161.46,158.275 161.877,157.799 162.429,157.763 C163.895,157.667 165.45,157.539 167.182,157.372 C167.729,157.308 168.221,157.722 168.273,158.271 C168.326,158.821 167.923,159.31 167.374,159.362 C165.621,159.531 164.046,159.661 162.56,159.759 C162.538,159.76 162.515,159.761 162.493,159.761 L162.493,159.761 Z M147.706,159.717 C147.683,159.717 147.659,159.716 147.635,159.714 C146.017,159.6 144.394,159.449 142.812,159.268 C142.263,159.205 141.869,158.709 141.932,158.16 C141.995,157.612 142.499,157.213 143.04,157.281 C144.593,157.459 146.186,157.606 147.776,157.72 C148.327,157.759 148.742,158.236 148.703,158.787 C148.665,159.314 148.227,159.717 147.706,159.717 L147.706,159.717 Z M137.974,158.593 C137.921,158.593 137.867,158.589 137.813,158.58 C136.212,158.321 134.609,158.024 133.047,157.696 C132.506,157.583 132.16,157.053 132.274,156.513 C132.387,155.972 132.915,155.625 133.458,155.739 C134.989,156.061 136.562,156.352 138.132,156.605 C138.677,156.693 139.048,157.207 138.96,157.752 C138.88,158.243 138.456,158.593 137.974,158.593 L137.974,158.593 Z M172.149,158.271 C171.7,158.271 171.291,157.966 171.179,157.51 C171.047,156.973 171.375,156.432 171.911,156.3 L176.572,155.153 C177.108,155.016 177.65,155.349 177.782,155.885 C177.914,156.422 177.586,156.963 177.05,157.095 L172.389,158.241 C172.309,158.262 172.228,158.271 172.149,158.271 L172.149,158.271 Z M261.065,158.268 L261.035,158.268 C259.41,158.22 257.778,158.126 256.186,157.986 C255.636,157.938 255.229,157.453 255.277,156.903 C255.325,156.354 255.823,155.945 256.36,155.994 C257.914,156.13 259.506,156.222 261.094,156.268 C261.646,156.284 262.08,156.744 262.065,157.297 C262.048,157.839 261.603,158.268 261.065,158.268 L261.065,158.268 Z M266.065,158.265 C265.526,158.265 265.082,157.837 265.065,157.295 C265.049,156.743 265.483,156.282 266.035,156.265 C267.623,156.217 269.216,156.124 270.77,155.988 C271.316,155.938 271.806,156.348 271.853,156.897 C271.9,157.447 271.494,157.933 270.943,157.98 C269.352,158.12 267.721,158.215 266.096,158.265 L266.065,158.265 L266.065,158.265 Z M251.31,157.403 C251.262,157.403 251.211,157.399 251.161,157.393 C249.56,157.151 247.951,156.858 246.378,156.521 C245.838,156.405 245.494,155.873 245.61,155.333 C245.726,154.794 246.254,154.447 246.798,154.565 C248.33,154.895 249.898,155.18 251.458,155.414 C252.005,155.497 252.381,156.006 252.299,156.552 C252.224,157.048 251.798,157.403 251.31,157.403 L251.31,157.403 Z M275.82,157.398 C275.333,157.398 274.906,157.043 274.832,156.547 C274.751,156 275.127,155.491 275.673,155.409 C277.248,155.174 278.816,154.89 280.335,154.566 C280.87,154.444 281.406,154.795 281.522,155.335 C281.637,155.875 281.293,156.406 280.753,156.521 C279.194,156.854 277.585,157.146 275.97,157.388 C275.919,157.395 275.869,157.398 275.82,157.398 L275.82,157.398 Z M128.386,156.572 C128.302,156.572 128.216,156.562 128.131,156.539 C126.564,156.128 124.996,155.675 123.472,155.191 C122.946,155.024 122.654,154.463 122.821,153.937 C122.988,153.408 123.552,153.117 124.077,153.285 C125.569,153.758 127.104,154.202 128.639,154.605 C129.173,154.745 129.493,155.292 129.352,155.826 C129.235,156.275 128.83,156.572 128.386,156.572 L128.386,156.572 Z M181.665,155.93 C181.216,155.93 180.808,155.624 180.695,155.168 C180.564,154.632 180.892,154.091 181.428,153.959 L186.089,152.813 C186.625,152.678 187.167,153.009 187.298,153.546 C187.43,154.082 187.102,154.623 186.565,154.755 L181.905,155.9 C181.825,155.921 181.745,155.93 181.665,155.93 L181.665,155.93 Z M285.397,155.338 C284.961,155.338 284.56,155.052 284.435,154.612 C284.283,154.082 284.591,153.528 285.122,153.376 C286.655,152.938 288.169,152.448 289.621,151.921 C290.142,151.731 290.714,152 290.902,152.519 C291.092,153.038 290.823,153.611 290.305,153.8 C288.809,154.344 287.25,154.849 285.671,155.3 C285.579,155.325 285.487,155.338 285.397,155.338 L285.397,155.338 Z M241.737,155.327 C241.646,155.327 241.553,155.314 241.461,155.288 C239.883,154.834 238.325,154.326 236.831,153.78 C236.312,153.59 236.046,153.016 236.235,152.497 C236.425,151.979 237,151.713 237.519,151.901 C238.969,152.432 240.481,152.925 242.014,153.366 C242.545,153.519 242.852,154.073 242.698,154.604 C242.572,155.042 242.172,155.327 241.737,155.327 L241.737,155.327 Z M119.053,153.594 C118.935,153.594 118.814,153.573 118.697,153.528 C117.178,152.95 115.668,152.326 114.208,151.673 C113.704,151.446 113.479,150.855 113.704,150.351 C113.93,149.847 114.522,149.626 115.025,149.847 C116.45,150.485 117.925,151.095 119.408,151.659 C119.924,151.855 120.184,152.433 119.987,152.949 C119.835,153.349 119.456,153.594 119.053,153.594 L119.053,153.594 Z M191.182,153.59 C190.732,153.59 190.323,153.284 190.212,152.828 C190.08,152.292 190.407,151.751 190.944,151.619 L195.605,150.474 C196.142,150.336 196.684,150.669 196.814,151.206 C196.946,151.742 196.619,152.283 196.082,152.415 L191.421,153.561 C191.341,153.581 191.261,153.59 191.182,153.59 L191.182,153.59 Z M294.591,151.968 C294.211,151.968 293.849,151.751 293.681,151.384 C293.45,150.882 293.671,150.288 294.174,150.059 C295.631,149.392 297.043,148.671 298.371,147.917 C298.851,147.645 299.462,147.812 299.734,148.294 C300.007,148.773 299.838,149.384 299.357,149.657 C297.979,150.438 296.516,151.186 295.006,151.877 C294.871,151.938 294.729,151.968 294.591,151.968 L294.591,151.968 Z M232.55,151.942 C232.41,151.942 232.269,151.913 232.133,151.851 C230.631,151.16 229.168,150.413 227.785,149.629 C227.305,149.356 227.136,148.746 227.408,148.266 C227.682,147.785 228.291,147.618 228.771,147.889 C230.105,148.646 231.517,149.367 232.969,150.034 C233.47,150.265 233.69,150.858 233.459,151.36 C233.291,151.727 232.929,151.942 232.55,151.942 L232.55,151.942 Z M200.698,151.25 C200.249,151.25 199.841,150.945 199.729,150.489 C199.597,149.952 199.924,149.411 200.46,149.279 L205.121,148.133 C205.664,147.998 206.199,148.328 206.331,148.864 C206.463,149.401 206.136,149.942 205.6,150.074 L200.939,151.221 C200.857,151.241 200.777,151.25 200.698,151.25 L200.698,151.25 Z M110.122,149.568 C109.964,149.568 109.804,149.531 109.655,149.452 C108.198,148.681 106.777,147.864 105.433,147.027 C104.963,146.735 104.82,146.119 105.112,145.65 C105.403,145.181 106.022,145.038 106.489,145.33 C107.794,146.143 109.175,146.935 110.591,147.685 C111.079,147.943 111.265,148.548 111.007,149.036 C110.827,149.375 110.48,149.568 110.122,149.568 L110.122,149.568 Z M210.215,148.91 C209.766,148.91 209.357,148.605 209.245,148.149 C209.113,147.612 209.44,147.071 209.977,146.94 L214.638,145.793 C215.181,145.656 215.716,145.988 215.848,146.524 C215.98,147.062 215.652,147.603 215.116,147.734 L210.455,148.881 C210.374,148.901 210.294,148.91 210.215,148.91 L210.215,148.91 Z M303.083,147.106 C302.771,147.106 302.463,146.961 302.269,146.687 C301.947,146.238 302.052,145.613 302.501,145.292 C303.804,144.362 305.031,143.377 306.149,142.362 C306.558,141.992 307.19,142.021 307.561,142.431 C307.933,142.84 307.902,143.472 307.493,143.843 C306.317,144.91 305.029,145.945 303.663,146.921 C303.487,147.046 303.284,147.106 303.083,147.106 L303.083,147.106 Z M224.058,147.079 C223.857,147.079 223.655,147.02 223.48,146.895 C223.058,146.595 222.645,146.291 222.242,145.982 L219.972,146.541 C219.43,146.68 218.895,146.346 218.762,145.81 C218.63,145.273 218.957,144.731 219.493,144.6 L222.232,143.926 C222.529,143.851 222.846,143.919 223.087,144.108 C223.589,144.501 224.106,144.886 224.638,145.264 C225.088,145.584 225.193,146.208 224.874,146.658 C224.679,146.933 224.37,147.079 224.058,147.079 L224.058,147.079 Z M101.823,144.373 C101.617,144.373 101.408,144.31 101.229,144.177 C99.895,143.19 98.617,142.154 97.431,141.103 C97.019,140.735 96.981,140.104 97.347,139.69 C97.713,139.277 98.346,139.239 98.759,139.606 C99.9,140.62 101.132,141.616 102.419,142.569 C102.863,142.898 102.956,143.524 102.628,143.968 C102.432,144.233 102.129,144.373 101.823,144.373 L101.823,144.373 Z M310.271,140.492 C310.049,140.492 309.824,140.418 309.638,140.265 C309.211,139.914 309.149,139.284 309.5,138.857 C310.508,137.63 311.392,136.352 312.128,135.057 C312.399,134.576 313.008,134.407 313.491,134.682 C313.972,134.954 314.14,135.565 313.866,136.045 C313.074,137.439 312.125,138.812 311.045,140.127 C310.848,140.367 310.56,140.492 310.271,140.492 L310.271,140.492 Z M94.533,137.852 C94.261,137.852 93.991,137.742 93.794,137.526 C92.668,136.293 91.625,135.012 90.694,133.717 C90.372,133.268 90.474,132.644 90.923,132.32 C91.37,131.997 91.995,132.101 92.318,132.549 C93.204,133.781 94.197,135.002 95.27,136.177 C95.643,136.585 95.614,137.218 95.206,137.59 C95.015,137.765 94.773,137.852 94.533,137.852 L94.533,137.852 Z M315.004,131.986 C314.904,131.986 314.803,131.972 314.703,131.94 C314.177,131.773 313.884,131.212 314.05,130.686 C314.149,130.372 314.24,130.057 314.324,129.74 C314.422,129.374 314.719,129.094 315.091,129.018 C316.32,128.766 317.536,128.496 318.738,128.208 C319.275,128.084 319.815,128.411 319.943,128.948 C320.071,129.485 319.74,130.024 319.203,130.153 C318.175,130.399 317.138,130.633 316.09,130.853 C316.047,130.998 316.003,131.143 315.958,131.287 C315.823,131.714 315.429,131.986 315.004,131.986 L315.004,131.986 Z M88.878,129.889 C88.518,129.889 88.17,129.694 87.991,129.353 C87.214,127.871 86.555,126.344 86.031,124.813 C85.852,124.29 86.131,123.722 86.654,123.543 C87.176,123.366 87.745,123.643 87.924,124.165 C88.415,125.6 89.033,127.032 89.763,128.425 C90.019,128.913 89.831,129.518 89.341,129.774 C89.193,129.852 89.034,129.889 88.878,129.889 L88.878,129.889 Z M323.805,128.907 C323.37,128.907 322.97,128.622 322.844,128.184 C322.69,127.653 322.997,127.1 323.527,126.946 C325.058,126.506 326.584,126.027 328.065,125.525 C328.589,125.349 329.155,125.629 329.333,126.151 C329.51,126.675 329.229,127.242 328.707,127.42 C327.196,127.932 325.641,128.419 324.082,128.868 C323.989,128.895 323.896,128.907 323.805,128.907 L323.805,128.907 Z M333.079,125.75 C332.682,125.75 332.306,125.511 332.149,125.119 C331.946,124.606 332.197,124.024 332.71,123.82 C334.19,123.233 335.66,122.606 337.077,121.956 C337.584,121.728 338.174,121.947 338.403,122.448 C338.634,122.95 338.413,123.544 337.911,123.774 C336.462,124.439 334.96,125.079 333.448,125.68 C333.327,125.728 333.202,125.75 333.079,125.75 L333.079,125.75 Z M341.979,121.652 C341.621,121.652 341.275,121.46 341.096,121.121 C340.836,120.634 341.021,120.028 341.51,119.77 C342.919,119.021 344.304,118.231 345.626,117.423 C346.095,117.134 346.712,117.282 347,117.754 C347.289,118.225 347.141,118.84 346.669,119.128 C345.313,119.958 343.893,120.769 342.447,121.535 C342.298,121.615 342.138,121.652 341.979,121.652 L341.979,121.652 Z M85.775,120.65 C85.291,120.65 84.866,120.298 84.789,119.805 C84.562,118.35 84.446,116.865 84.446,115.392 C84.446,115.266 84.436,115.139 84.419,115.012 C84.344,114.465 84.727,113.961 85.274,113.886 C85.816,113.816 86.325,114.194 86.4,114.742 C86.43,114.959 86.446,115.176 86.446,115.392 C86.446,116.762 86.554,118.143 86.765,119.496 C86.85,120.042 86.477,120.554 85.931,120.639 C85.879,120.647 85.827,120.65 85.775,120.65 L85.775,120.65 Z M350.318,116.522 C350.006,116.522 349.698,116.376 349.503,116.102 C349.183,115.651 349.287,115.027 349.737,114.707 C351.037,113.781 352.298,112.812 353.482,111.827 C353.909,111.473 354.538,111.532 354.892,111.956 C355.244,112.381 355.185,113.012 354.762,113.364 C353.538,114.382 352.238,115.381 350.897,116.336 C350.722,116.461 350.519,116.522 350.318,116.522 L350.318,116.522 Z M84.058,112.185 L84.044,112.185 C82.408,112.161 80.776,112.093 79.193,111.981 C78.642,111.942 78.227,111.464 78.266,110.913 C78.305,110.362 78.783,109.939 79.334,109.986 C80.88,110.095 82.474,110.162 84.072,110.185 C84.624,110.192 85.065,110.647 85.058,111.199 C85.05,111.746 84.603,112.185 84.058,112.185 L84.058,112.185 Z M74.291,111.479 C74.248,111.479 74.203,111.476 74.158,111.47 C72.535,111.252 70.92,110.983 69.361,110.67 C68.819,110.562 68.468,110.034 68.577,109.492 C68.686,108.95 69.212,108.597 69.754,108.709 C71.272,109.014 72.843,109.275 74.423,109.487 C74.971,109.561 75.355,110.065 75.282,110.611 C75.214,111.113 74.785,111.479 74.291,111.479 L74.291,111.479 Z M357.826,110.241 C357.568,110.241 357.311,110.143 357.116,109.945 C356.728,109.553 356.729,108.92 357.122,108.531 C358.257,107.406 359.328,106.241 360.306,105.069 C360.658,104.646 361.287,104.587 361.714,104.942 C362.138,105.296 362.195,105.927 361.841,106.351 C360.823,107.57 359.71,108.782 358.53,109.951 C358.335,110.145 358.081,110.241 357.826,110.241 L357.826,110.241 Z M64.696,109.528 C64.607,109.528 64.517,109.517 64.427,109.491 C62.839,109.049 61.277,108.547 59.784,108.002 C59.266,107.813 58.998,107.238 59.188,106.72 C59.378,106.2 59.954,105.936 60.471,106.123 C61.915,106.65 63.427,107.136 64.964,107.565 C65.497,107.714 65.808,108.266 65.659,108.797 C65.536,109.239 65.134,109.528 64.696,109.528 L64.696,109.528 Z M55.512,106.145 C55.369,106.145 55.225,106.114 55.087,106.05 C53.585,105.343 52.13,104.572 50.762,103.76 C50.288,103.479 50.131,102.864 50.413,102.39 C50.694,101.914 51.308,101.758 51.784,102.04 C53.097,102.82 54.495,103.561 55.938,104.239 C56.439,104.475 56.653,105.07 56.417,105.57 C56.247,105.933 55.887,106.145 55.512,106.145 L55.512,106.145 Z M364.058,102.703 C363.868,102.703 363.678,102.649 363.508,102.538 C363.047,102.233 362.92,101.613 363.224,101.152 C364.096,99.831 364.882,98.47 365.56,97.106 C365.805,96.611 366.402,96.408 366.9,96.655 C367.395,96.901 367.597,97.502 367.351,97.996 C366.637,99.433 365.81,100.865 364.894,102.254 C364.701,102.545 364.383,102.703 364.058,102.703 L364.058,102.703 Z M47.123,101.118 C46.912,101.118 46.7,101.052 46.519,100.916 C45.193,99.912 43.936,98.837 42.782,97.721 C42.386,97.336 42.375,96.703 42.76,96.307 C43.143,95.908 43.776,95.899 44.174,96.283 C45.269,97.344 46.464,98.366 47.727,99.32 C48.167,99.654 48.254,100.281 47.92,100.722 C47.724,100.981 47.425,101.118 47.123,101.118 L47.123,101.118 Z M40.144,94.286 C39.845,94.286 39.549,94.152 39.352,93.898 C38.327,92.573 37.412,91.184 36.63,89.768 C36.363,89.283 36.539,88.676 37.023,88.408 C37.506,88.142 38.115,88.317 38.381,88.801 C39.113,90.127 39.972,91.431 40.934,92.674 C41.272,93.111 41.192,93.739 40.755,94.077 C40.573,94.218 40.357,94.286 40.144,94.286 L40.144,94.286 Z M368.361,93.937 C368.257,93.937 368.151,93.92 368.047,93.886 C367.522,93.712 367.238,93.146 367.412,92.622 C367.902,91.141 368.285,89.625 368.548,88.119 C368.643,87.574 369.161,87.211 369.705,87.306 C370.249,87.401 370.613,87.919 370.519,88.463 C370.238,90.065 369.832,91.677 369.31,93.251 C369.172,93.671 368.781,93.937 368.361,93.937 L368.361,93.937 Z M35.48,85.722 C35.064,85.722 34.675,85.46 34.534,85.045 C33.997,83.474 33.599,81.852 33.351,80.226 C33.267,79.679 33.642,79.169 34.188,79.086 C34.73,79.003 35.244,79.377 35.327,79.923 C35.558,81.433 35.928,82.938 36.426,84.398 C36.605,84.921 36.326,85.489 35.803,85.668 C35.696,85.705 35.587,85.722 35.48,85.722 L35.48,85.722 Z M369.999,84.324 L369.985,84.324 C369.434,84.316 368.992,83.863 368.999,83.311 L369.002,82.889 C369.002,81.488 368.903,80.072 368.709,78.682 C368.633,78.134 369.014,77.629 369.56,77.553 C370.106,77.472 370.613,77.857 370.69,78.404 C370.897,79.887 371.002,81.396 371.002,82.889 L370.999,83.338 C370.991,83.886 370.545,84.324 369.999,84.324 L369.999,84.324 Z M-0.158,78.18 C-0.702,78.18 -1.148,77.743 -1.158,77.197 C-1.167,76.645 -0.728,76.19 -0.175,76.18 L3.071,76.123 C2.978,75.618 3.286,75.118 3.79,74.979 L8.419,73.709 C8.95,73.559 9.501,73.876 9.648,74.408 C9.794,74.941 9.481,75.491 8.948,75.637 L5.5,76.584 C5.587,76.729 5.638,76.897 5.642,77.079 C5.651,77.631 5.211,78.086 4.659,78.096 L-0.14,78.18 L-0.158,78.18 L-0.158,78.18 Z M9.64,78.009 C9.096,78.009 8.65,77.573 8.641,77.027 C8.631,76.475 9.071,76.019 9.623,76.009 L14.422,75.926 C14.971,75.92 15.43,76.356 15.44,76.908 C15.449,77.46 15.01,77.916 14.458,77.926 L9.658,78.009 L9.64,78.009 L9.64,78.009 Z M19.439,77.839 C18.895,77.839 18.449,77.402 18.439,76.856 C18.43,76.304 18.87,75.849 19.422,75.839 L24.221,75.755 C24.775,75.737 25.229,76.186 25.239,76.738 C25.248,77.29 24.809,77.746 24.256,77.755 L19.457,77.839 L19.439,77.839 L19.439,77.839 Z M29.237,77.669 C28.693,77.669 28.248,77.232 28.238,76.686 C28.229,76.134 28.668,75.678 29.22,75.669 L34.02,75.585 C34.581,75.6 35.027,76.016 35.037,76.567 C35.046,77.12 34.607,77.575 34.055,77.585 L29.255,77.669 L29.237,77.669 L29.237,77.669 Z M368.626,74.674 C368.196,74.674 367.8,74.396 367.669,73.963 C367.226,72.502 366.668,71.04 366.011,69.617 C365.779,69.116 365.998,68.521 366.5,68.29 C367.003,68.056 367.596,68.278 367.827,68.778 C368.522,70.284 369.113,71.834 369.583,73.383 C369.743,73.912 369.444,74.47 368.916,74.63 C368.819,74.66 368.722,74.674 368.626,74.674 L368.626,74.674 Z M13.505,74.35 C13.065,74.35 12.663,74.058 12.541,73.614 C12.395,73.081 12.708,72.531 13.241,72.385 L17.869,71.114 C18.401,70.966 18.952,71.282 19.098,71.814 C19.244,72.347 18.931,72.897 18.398,73.043 L13.77,74.313 C13.682,74.338 13.592,74.35 13.505,74.35 L13.505,74.35 Z M22.955,71.755 C22.516,71.755 22.113,71.463 21.991,71.02 C21.845,70.487 22.158,69.937 22.691,69.791 L27.32,68.52 C27.852,68.373 28.402,68.687 28.549,69.22 C28.695,69.752 28.382,70.303 27.849,70.449 L23.22,71.719 C23.132,71.744 23.042,71.755 22.955,71.755 L22.955,71.755 Z M32.405,69.161 C31.966,69.161 31.563,68.87 31.441,68.425 C31.295,67.893 31.608,67.343 32.141,67.196 L34.452,66.562 C34.597,66.126 34.752,65.693 34.918,65.265 C35.118,64.749 35.699,64.494 36.211,64.693 C36.726,64.892 36.982,65.471 36.783,65.986 C36.568,66.544 36.371,67.108 36.194,67.679 C36.093,68.005 35.832,68.257 35.503,68.347 L32.67,69.125 C32.582,69.149 32.493,69.161 32.405,69.161 L32.405,69.161 Z M364.531,65.814 C364.199,65.814 363.875,65.649 363.685,65.348 C362.871,64.058 361.957,62.775 360.967,61.534 C360.622,61.102 360.692,60.473 361.124,60.128 C361.558,59.784 362.185,59.855 362.529,60.287 C363.565,61.585 364.523,62.929 365.376,64.281 C365.671,64.748 365.531,65.365 365.064,65.66 C364.898,65.764 364.714,65.814 364.531,65.814 L364.531,65.814 Z M38.054,62.149 C37.877,62.149 37.698,62.102 37.536,62.004 C37.064,61.718 36.913,61.103 37.2,60.63 C38.043,59.239 39.019,57.889 40.101,56.618 C40.458,56.197 41.089,56.146 41.51,56.504 C41.931,56.862 41.982,57.493 41.624,57.914 C40.612,59.104 39.699,60.367 38.91,61.668 C38.722,61.978 38.392,62.149 38.054,62.149 L38.054,62.149 Z M358.433,58.172 C358.173,58.172 357.914,58.072 357.718,57.872 C356.647,56.777 355.489,55.694 354.278,54.653 C353.859,54.294 353.811,53.662 354.171,53.243 C354.532,52.825 355.165,52.778 355.581,53.137 C356.836,54.214 358.035,55.337 359.147,56.473 C359.533,56.868 359.526,57.501 359.132,57.887 C358.937,58.078 358.685,58.172 358.433,58.172 L358.433,58.172 Z M44.379,54.72 C44.1,54.72 43.822,54.604 43.624,54.376 C43.261,53.96 43.306,53.328 43.722,52.965 C44.932,51.913 46.25,50.91 47.64,49.984 C48.099,49.677 48.72,49.802 49.026,50.261 C49.333,50.721 49.209,51.342 48.749,51.648 C47.43,52.527 46.18,53.478 45.035,54.474 C44.845,54.639 44.611,54.72 44.379,54.72 L44.379,54.72 Z M351.011,51.793 C350.807,51.793 350.6,51.73 350.422,51.6 C349.179,50.692 347.861,49.798 346.507,48.945 C346.04,48.65 345.899,48.033 346.194,47.565 C346.488,47.098 347.106,46.96 347.573,47.252 C348.967,48.131 350.322,49.05 351.602,49.985 C352.048,50.311 352.145,50.937 351.819,51.382 C351.623,51.65 351.319,51.793 351.011,51.793 L351.011,51.793 Z M52.51,49.299 C52.146,49.299 51.794,49.1 51.618,48.752 C51.367,48.26 51.563,47.658 52.055,47.408 C53.473,46.686 54.977,46.013 56.523,45.408 C57.037,45.206 57.617,45.461 57.818,45.975 C58.019,46.49 57.766,47.069 57.251,47.271 C55.766,47.852 54.323,48.498 52.962,49.19 C52.817,49.264 52.662,49.299 52.51,49.299 L52.51,49.299 Z M342.726,46.573 C342.565,46.573 342.4,46.534 342.249,46.451 C340.884,45.709 339.46,44.987 338.019,44.306 C337.519,44.07 337.306,43.474 337.541,42.975 C337.777,42.476 338.371,42.261 338.872,42.498 C340.349,43.195 341.806,43.934 343.204,44.694 C343.69,44.958 343.869,45.565 343.605,46.05 C343.424,46.384 343.08,46.573 342.726,46.573 L342.726,46.573 Z M61.62,45.735 C61.186,45.735 60.787,45.451 60.66,45.014 C60.506,44.483 60.811,43.929 61.341,43.774 C62.862,43.333 64.454,42.936 66.07,42.597 C66.615,42.486 67.142,42.829 67.254,43.37 C67.368,43.91 67.022,44.44 66.481,44.554 C64.914,44.883 63.372,45.267 61.899,45.695 C61.806,45.722 61.712,45.735 61.62,45.735 L61.62,45.735 Z M94.15,43.78 C94.113,43.78 94.077,43.778 94.04,43.773 C92.951,43.653 91.816,43.532 90.658,43.422 C90.108,43.37 89.705,42.882 89.757,42.332 C89.809,41.782 90.298,41.377 90.847,41.431 C91.468,41.49 92.082,41.552 92.687,41.615 C92.619,41.122 92.929,40.644 93.422,40.514 C93.959,40.372 94.503,40.691 94.644,41.225 C94.748,41.618 94.882,41.987 95.055,42.355 C95.209,42.682 95.174,43.067 94.963,43.362 C94.774,43.626 94.47,43.78 94.15,43.78 L94.15,43.78 Z M71.2,43.727 C70.708,43.727 70.279,43.363 70.21,42.862 C70.136,42.315 70.519,41.811 71.065,41.736 C72.639,41.521 74.265,41.349 75.898,41.227 C76.455,41.177 76.929,41.598 76.97,42.149 C77.012,42.7 76.599,43.18 76.048,43.221 C74.455,43.34 72.87,43.507 71.337,43.717 C71.291,43.724 71.245,43.727 71.2,43.727 L71.2,43.727 Z M85.766,43.058 C85.75,43.058 85.733,43.057 85.717,43.057 C83.993,42.974 82.472,42.967 80.984,42.993 C80.443,42.978 79.977,42.563 79.967,42.011 C79.957,41.459 80.397,41.003 80.949,40.993 C82.479,40.967 84.046,40.975 85.813,41.059 C86.365,41.085 86.79,41.554 86.764,42.106 C86.738,42.641 86.296,43.058 85.766,43.058 L85.766,43.058 Z M333.868,42.393 C333.742,42.393 333.614,42.369 333.491,42.318 C332.047,41.731 330.553,41.164 329.048,40.636 C328.526,40.453 328.252,39.882 328.435,39.361 C328.618,38.84 329.19,38.564 329.71,38.749 C331.246,39.288 332.771,39.866 334.245,40.466 C334.757,40.674 335.003,41.258 334.794,41.769 C334.637,42.157 334.263,42.393 333.868,42.393 L333.868,42.393 Z M324.622,39.151 C324.528,39.151 324.432,39.138 324.337,39.109 C322.837,38.662 321.293,38.239 319.749,37.852 C319.213,37.717 318.888,37.174 319.022,36.638 C319.156,36.102 319.704,35.775 320.235,35.912 C321.808,36.307 323.38,36.737 324.907,37.192 C325.437,37.35 325.738,37.907 325.58,38.437 C325.451,38.871 325.054,39.151 324.622,39.151 L324.622,39.151 Z M93.398,37.51 C93.369,37.51 93.339,37.509 93.309,37.506 C92.759,37.458 92.353,36.972 92.401,36.422 C92.55,34.74 93.028,33.079 93.82,31.486 C94.065,30.99 94.665,30.788 95.16,31.035 C95.655,31.281 95.856,31.881 95.611,32.376 C94.93,33.745 94.52,35.166 94.394,36.599 C94.348,37.119 93.911,37.51 93.398,37.51 L93.398,37.51 Z M315.116,36.773 C315.05,36.773 314.982,36.766 314.915,36.752 C313.369,36.436 311.794,36.147 310.233,35.893 C309.688,35.804 309.318,35.29 309.407,34.745 C309.496,34.199 310.01,33.823 310.556,33.919 C312.143,34.177 313.744,34.472 315.315,34.793 C315.856,34.903 316.206,35.432 316.095,35.973 C315.998,36.446 315.581,36.773 315.116,36.773 L315.116,36.773 Z M305.445,35.203 C305.405,35.203 305.365,35.201 305.324,35.196 C303.758,35.006 302.164,34.844 300.587,34.713 C300.036,34.668 299.627,34.185 299.672,33.634 C299.718,33.085 300.212,32.672 300.751,32.72 C302.354,32.853 303.974,33.018 305.565,33.21 C306.113,33.277 306.504,33.775 306.437,34.323 C306.376,34.831 305.944,35.203 305.445,35.203 L305.445,35.203 Z M295.68,34.402 C295.665,34.402 295.65,34.401 295.636,34.401 C294.054,34.332 292.451,34.292 290.873,34.282 C290.321,34.278 289.876,33.827 289.88,33.275 C289.884,32.725 290.331,32.282 290.88,32.282 L290.887,32.282 C292.489,32.293 294.116,32.333 295.722,32.403 C296.273,32.427 296.702,32.894 296.678,33.445 C296.654,33.982 296.212,34.402 295.68,34.402 L295.68,34.402 Z M286.624,33.039 C286.273,33.039 285.934,32.855 285.75,32.527 C285.011,31.205 284.157,29.887 283.213,28.609 C282.884,28.165 282.978,27.539 283.422,27.21 C283.866,26.881 284.494,26.976 284.82,27.42 C285.815,28.766 286.716,30.155 287.496,31.551 C287.766,32.033 287.593,32.642 287.111,32.912 C286.957,32.998 286.789,33.039 286.624,33.039 L286.624,33.039 Z M97.601,28.874 C97.354,28.874 97.106,28.783 96.913,28.599 C96.512,28.219 96.495,27.586 96.875,27.186 C97.968,26.033 99.25,24.945 100.686,23.953 C101.141,23.639 101.763,23.753 102.078,24.206 C102.392,24.661 102.278,25.284 101.824,25.598 C100.501,26.512 99.324,27.509 98.326,28.561 C98.129,28.769 97.865,28.874 97.601,28.874 L97.601,28.874 Z M151.415,27.643 C151.194,27.643 150.973,27.57 150.788,27.421 C150.358,27.075 150.29,26.445 150.637,26.015 C151.637,24.776 152.739,23.55 153.913,22.37 C154.302,21.979 154.936,21.977 155.327,22.366 C155.718,22.755 155.72,23.388 155.331,23.78 C154.206,24.911 153.15,26.086 152.194,27.271 C151.996,27.516 151.707,27.643 151.415,27.643 L151.415,27.643 Z M147.76,25.932 C147.559,25.932 147.356,25.872 147.18,25.746 C145.979,24.888 144.638,24.094 143.195,23.388 C142.699,23.145 142.494,22.546 142.737,22.05 C142.98,21.554 143.581,21.351 144.075,21.592 C145.616,22.347 147.052,23.197 148.342,24.118 C148.792,24.439 148.896,25.064 148.575,25.513 C148.38,25.787 148.072,25.932 147.76,25.932 L147.76,25.932 Z M280.815,25.178 C280.548,25.178 280.281,25.072 280.085,24.861 C279.043,23.745 277.908,22.643 276.712,21.586 C276.298,21.22 276.259,20.588 276.625,20.174 C276.991,19.761 277.623,19.722 278.036,20.087 C279.28,21.187 280.461,22.333 281.547,23.496 C281.923,23.899 281.901,24.532 281.498,24.909 C281.305,25.089 281.06,25.178 280.815,25.178 L280.815,25.178 Z M105.59,23.295 C105.215,23.295 104.856,23.083 104.686,22.722 C104.45,22.222 104.664,21.626 105.163,21.391 C106.605,20.71 108.147,20.104 109.747,19.587 C110.272,19.419 110.836,19.706 111.006,20.231 C111.175,20.757 110.887,21.321 110.361,21.49 C108.843,21.98 107.381,22.555 106.017,23.199 C105.879,23.264 105.733,23.295 105.59,23.295 L105.59,23.295 Z M139.003,21.616 C138.9,21.616 138.795,21.599 138.691,21.565 C137.243,21.089 135.72,20.683 134.164,20.359 C133.623,20.247 133.276,19.717 133.388,19.177 C133.5,18.636 134.025,18.289 134.571,18.401 C136.2,18.74 137.797,19.165 139.316,19.665 C139.84,19.838 140.126,20.403 139.953,20.928 C139.815,21.349 139.424,21.616 139.003,21.616 L139.003,21.616 Z M158.314,20.708 C158.027,20.708 157.743,20.585 157.545,20.347 C157.192,19.921 157.25,19.291 157.675,18.939 C158.899,17.921 160.204,16.925 161.553,15.977 C162.005,15.66 162.628,15.769 162.946,16.221 C163.264,16.672 163.155,17.296 162.703,17.614 C161.398,18.531 160.136,19.494 158.953,20.477 C158.766,20.632 158.54,20.708 158.314,20.708 L158.314,20.708 Z M114.892,20.288 C114.424,20.288 114.007,19.958 113.912,19.482 C113.805,18.94 114.157,18.414 114.698,18.307 C116.274,17.994 117.906,17.756 119.547,17.601 C120.087,17.551 120.585,17.952 120.637,18.502 C120.689,19.052 120.286,19.54 119.736,19.592 C118.162,19.741 116.598,19.969 115.088,20.269 C115.022,20.282 114.956,20.288 114.892,20.288 L114.892,20.288 Z M129.428,19.626 C129.394,19.626 129.36,19.624 129.327,19.621 C127.788,19.467 126.208,19.384 124.629,19.376 C124.077,19.373 123.632,18.923 123.635,18.371 C123.638,17.82 124.085,17.376 124.635,17.376 L124.64,17.376 C126.281,17.385 127.925,17.471 129.526,17.631 C130.076,17.686 130.477,18.176 130.421,18.726 C130.37,19.241 129.935,19.626 129.428,19.626 L129.428,19.626 Z M273.484,18.696 C273.278,18.696 273.069,18.632 272.891,18.5 C271.658,17.588 270.345,16.693 268.988,15.839 C268.522,15.544 268.381,14.927 268.675,14.46 C268.971,13.993 269.585,13.853 270.055,14.147 C271.452,15.027 272.807,15.951 274.08,16.892 C274.523,17.22 274.618,17.846 274.289,18.291 C274.094,18.556 273.791,18.696 273.484,18.696 L273.484,18.696 Z M166.325,15.078 C165.985,15.078 165.653,14.904 165.465,14.59 C165.183,14.116 165.337,13.502 165.811,13.219 C167.177,12.404 168.609,11.612 170.068,10.865 C170.562,10.614 171.163,10.809 171.414,11.299 C171.665,11.79 171.471,12.393 170.98,12.645 C169.559,13.373 168.165,14.144 166.837,14.936 C166.676,15.032 166.499,15.078 166.325,15.078 L166.325,15.078 Z M265.197,13.481 C265.038,13.481 264.876,13.443 264.726,13.363 C263.358,12.63 261.931,11.92 260.482,11.253 C259.98,11.022 259.761,10.428 259.992,9.927 C260.222,9.425 260.814,9.204 261.318,9.436 C262.804,10.12 264.269,10.848 265.671,11.6 C266.157,11.861 266.341,12.467 266.079,12.954 C265.899,13.29 265.554,13.481 265.197,13.481 L265.197,13.481 Z M175.043,10.617 C174.658,10.617 174.29,10.393 174.126,10.017 C173.906,9.511 174.137,8.921 174.643,8.7 C176.102,8.064 177.617,7.452 179.145,6.882 C179.661,6.688 180.238,6.952 180.431,7.47 C180.623,7.988 180.36,8.564 179.843,8.756 C178.349,9.313 176.869,9.911 175.443,10.533 C175.313,10.59 175.177,10.617 175.043,10.617 L175.043,10.617 Z M256.3,9.39 C256.179,9.39 256.056,9.367 255.935,9.32 C254.485,8.753 252.982,8.21 251.47,7.708 C250.945,7.534 250.662,6.967 250.836,6.443 C251.011,5.919 251.577,5.633 252.101,5.81 C253.646,6.324 255.182,6.878 256.664,7.458 C257.179,7.659 257.433,8.239 257.231,8.753 C257.077,9.148 256.699,9.39 256.3,9.39 L256.3,9.39 Z M184.224,7.203 C183.798,7.203 183.404,6.928 183.27,6.501 C183.105,5.974 183.399,5.413 183.926,5.248 C185.449,4.772 187.018,4.323 188.588,3.915 C189.122,3.777 189.668,4.096 189.808,4.63 C189.946,5.165 189.626,5.711 189.092,5.85 C187.553,6.251 186.016,6.69 184.523,7.157 C184.424,7.188 184.323,7.203 184.224,7.203 L184.224,7.203 Z M247.003,6.306 C246.914,6.306 246.825,6.294 246.735,6.269 C245.228,5.853 243.678,5.463 242.125,5.111 C241.586,4.989 241.248,4.453 241.37,3.915 C241.492,3.376 242.028,3.035 242.566,3.161 C244.149,3.52 245.731,3.917 247.269,4.341 C247.801,4.488 248.113,5.039 247.966,5.571 C247.844,6.015 247.441,6.306 247.003,6.306 L247.003,6.306 Z M193.706,4.741 C193.242,4.741 192.827,4.417 192.729,3.946 C192.615,3.406 192.962,2.876 193.502,2.762 C195.067,2.435 196.67,2.137 198.266,1.876 C198.814,1.79 199.325,2.158 199.414,2.702 C199.503,3.248 199.133,3.761 198.588,3.85 C197.021,4.106 195.448,4.398 193.912,4.72 C193.843,4.734 193.773,4.741 193.706,4.741 L193.706,4.741 Z M237.446,4.144 C237.389,4.144 237.329,4.139 237.27,4.128 C235.719,3.852 234.137,3.606 232.569,3.395 C232.021,3.322 231.638,2.819 231.711,2.271 C231.784,1.724 232.283,1.343 232.835,1.413 C234.432,1.627 236.041,1.878 237.62,2.16 C238.164,2.256 238.526,2.775 238.43,3.319 C238.344,3.804 237.922,4.144 237.446,4.144 L237.446,4.144 Z M203.376,3.168 C202.876,3.168 202.443,2.794 202.384,2.285 C202.319,1.736 202.712,1.239 203.26,1.175 C204.845,0.988 206.466,0.832 208.079,0.71 C208.624,0.672 209.109,1.081 209.151,1.632 C209.193,2.183 208.78,2.663 208.23,2.704 C206.645,2.824 205.051,2.978 203.494,3.161 C203.454,3.166 203.415,3.168 203.376,3.168 L203.376,3.168 Z M227.734,2.849 C227.704,2.849 227.674,2.847 227.644,2.845 C226.073,2.704 224.477,2.592 222.896,2.515 C222.345,2.488 221.919,2.019 221.946,1.467 C221.974,0.915 222.439,0.503 222.994,0.517 C224.602,0.596 226.226,0.709 227.823,0.852 C228.373,0.902 228.779,1.388 228.73,1.938 C228.683,2.458 228.246,2.849 227.734,2.849 L227.734,2.849 Z M213.146,2.437 C212.609,2.437 212.166,2.011 212.148,1.47 C212.13,0.918 212.562,0.456 213.115,0.438 C214.425,0.395 215.745,0.374 217.072,0.373 L217.954,0.376 C218.506,0.38 218.951,0.831 218.947,1.383 C218.943,1.933 218.496,2.376 217.947,2.376 L217.94,2.376 L217.072,2.373 C215.767,2.374 214.469,2.395 213.18,2.437 L213.146,2.437 L213.146,2.437 Z" id="Fill-16" fill="#FFFFFF" sketch:type="MSShapeGroup"></path>
            <path d="M174.099,113.172 L174.099,105.314 L170.933,113.172 L170.456,113.172 L167.277,105.314 L167.277,113.172 L166.114,113.172 L166.114,103.829 L167.781,103.829 L170.694,111.028 L173.594,103.829 L175.261,103.829 L175.261,113.172 L174.099,113.172" id="Fill-17" fill="#A91F68" sketch:type="MSShapeGroup"></path>
            <path d="M181.629,113.172 L181.629,112.401 C181.082,113.018 180.298,113.34 179.388,113.34 C178.253,113.34 177.034,112.569 177.034,111.099 C177.034,109.572 178.238,108.871 179.388,108.871 C180.311,108.871 181.082,109.166 181.629,109.782 L181.629,108.564 C181.629,107.667 180.9,107.148 179.92,107.148 C179.107,107.148 178.449,107.429 177.847,108.087 L177.356,107.358 C178.085,106.603 178.953,106.238 180.06,106.238 C181.503,106.238 182.679,106.883 182.679,108.522 L182.679,113.172 L181.629,113.172 L181.629,113.172 Z M181.629,111.743 L181.629,110.454 C181.223,109.908 180.508,109.628 179.779,109.628 C178.785,109.628 178.099,110.244 178.099,111.099 C178.099,111.967 178.785,112.584 179.779,112.584 C180.508,112.584 181.223,112.304 181.629,111.743 L181.629,111.743 Z" id="Fill-18" fill="#A91F68" sketch:type="MSShapeGroup"></path>
            <path d="M184.775,114.895 L185.308,114.139 C185.868,114.797 186.541,115.049 187.507,115.049 C188.628,115.049 189.692,114.503 189.692,113.074 L189.692,112.052 C189.189,112.737 188.361,113.256 187.409,113.256 C185.645,113.256 184.398,111.94 184.398,109.754 C184.398,107.583 185.63,106.238 187.409,106.238 C188.319,106.238 189.146,106.687 189.692,107.429 L189.692,106.406 L190.743,106.406 L190.743,113.074 C190.743,115.217 189.16,115.917 187.507,115.917 C186.373,115.917 185.588,115.693 184.775,114.895 L184.775,114.895 Z M189.692,111.225 L189.692,108.255 C189.314,107.681 188.502,107.177 187.676,107.177 C186.303,107.177 185.49,108.255 185.49,109.754 C185.49,111.239 186.303,112.317 187.676,112.317 C188.502,112.317 189.314,111.814 189.692,111.225 L189.692,111.225 Z" id="Fill-19" fill="#A91F68" sketch:type="MSShapeGroup"></path>
            <path d="M197.07,113.172 L197.07,112.401 C196.523,113.018 195.739,113.34 194.829,113.34 C193.694,113.34 192.476,112.569 192.476,111.099 C192.476,109.572 193.68,108.871 194.829,108.871 C195.753,108.871 196.523,109.166 197.07,109.782 L197.07,108.564 C197.07,107.667 196.342,107.148 195.361,107.148 C194.549,107.148 193.891,107.429 193.288,108.087 L192.798,107.358 C193.526,106.603 194.394,106.238 195.501,106.238 C196.944,106.238 198.12,106.883 198.12,108.522 L198.12,113.172 L197.07,113.172 L197.07,113.172 Z M197.07,111.743 L197.07,110.454 C196.664,109.908 195.949,109.628 195.221,109.628 C194.227,109.628 193.54,110.244 193.54,111.099 C193.54,111.967 194.227,112.584 195.221,112.584 C195.949,112.584 196.664,112.304 197.07,111.743 L197.07,111.743 Z M195.403,105.384 L194.605,105.384 L196.678,103.366 L197.77,103.366 L195.403,105.384 L195.403,105.384 Z" id="Fill-20" fill="#A91F68" sketch:type="MSShapeGroup"></path>
            <path d="M204.812,113.172 L204.812,108.745 C204.812,107.541 204.196,107.177 203.286,107.177 C202.459,107.177 201.689,107.681 201.283,108.228 L201.283,113.172 L200.232,113.172 L200.232,106.406 L201.283,106.406 L201.283,107.387 C201.759,106.813 202.684,106.238 203.706,106.238 C205.106,106.238 205.85,106.952 205.85,108.423 L205.85,113.172 L204.812,113.172" id="Fill-21" fill="#A91F68" sketch:type="MSShapeGroup"></path>
            <path d="M207.567,109.782 C207.567,107.821 208.856,106.238 210.915,106.238 C212.975,106.238 214.263,107.821 214.263,109.782 C214.263,111.743 212.975,113.34 210.915,113.34 C208.856,113.34 207.567,111.743 207.567,109.782 L207.567,109.782 Z M213.156,109.782 C213.156,108.409 212.358,107.177 210.915,107.177 C209.473,107.177 208.674,108.409 208.674,109.782 C208.674,111.169 209.473,112.401 210.915,112.401 C212.358,112.401 213.156,111.169 213.156,109.782 L213.156,109.782 Z M210.789,105.384 L209.991,105.384 L212.064,103.366 L213.156,103.366 L210.789,105.384 L210.789,105.384 Z" id="Fill-22" fill="#A91F68" sketch:type="MSShapeGroup"></path>
            <path d="M217.774,113.172 L214.959,106.406 L216.107,106.406 L218.349,111.953 L220.605,106.406 L221.738,106.406 L218.923,113.172 L217.774,113.172" id="Fill-23" fill="#A91F68" sketch:type="MSShapeGroup"></path>
            <path d="M222.435,109.782 C222.435,107.821 223.724,106.238 225.782,106.238 C227.842,106.238 229.13,107.821 229.13,109.782 C229.13,111.743 227.842,113.34 225.782,113.34 C223.724,113.34 222.435,111.743 222.435,109.782 L222.435,109.782 Z M228.023,109.782 C228.023,108.409 227.226,107.177 225.782,107.177 C224.34,107.177 223.541,108.409 223.541,109.782 C223.541,111.169 224.34,112.401 225.782,112.401 C227.226,112.401 228.023,111.169 228.023,109.782 L228.023,109.782 Z" id="Fill-24" fill="#A91F68" sketch:type="MSShapeGroup"></path>
            <path d="M235.738,113.172 L235.738,112.163 C235.234,112.85 234.407,113.34 233.455,113.34 C231.69,113.34 230.443,111.995 230.443,109.796 C230.443,107.625 231.69,106.238 233.455,106.238 C234.365,106.238 235.192,106.687 235.738,107.429 L235.738,103.829 L236.789,103.829 L236.789,113.172 L235.738,113.172 L235.738,113.172 Z M235.738,111.323 L235.738,108.27 C235.374,107.681 234.548,107.177 233.722,107.177 C232.349,107.177 231.536,108.297 231.536,109.796 C231.536,111.295 232.349,112.401 233.722,112.401 C234.548,112.401 235.374,111.911 235.738,111.323 L235.738,111.323 Z" id="Fill-25" fill="#A91F68" sketch:type="MSShapeGroup"></path>
            <path d="M243.116,113.172 L243.116,112.401 C242.569,113.018 241.785,113.34 240.875,113.34 C239.74,113.34 238.521,112.569 238.521,111.099 C238.521,109.572 239.726,108.871 240.875,108.871 C241.799,108.871 242.569,109.166 243.116,109.782 L243.116,108.564 C243.116,107.667 242.388,107.148 241.407,107.148 C240.595,107.148 239.936,107.429 239.334,108.087 L238.844,107.358 C239.572,106.603 240.44,106.238 241.547,106.238 C242.989,106.238 244.166,106.883 244.166,108.522 L244.166,113.172 L243.116,113.172 L243.116,113.172 Z M243.116,111.743 L243.116,110.454 C242.71,109.908 241.995,109.628 241.267,109.628 C240.273,109.628 239.586,110.244 239.586,111.099 C239.586,111.967 240.273,112.584 241.267,112.584 C241.995,112.584 242.71,112.304 243.116,111.743 L243.116,111.743 Z" id="Fill-26" fill="#A91F68" sketch:type="MSShapeGroup"></path>
            <g id="Imported-Layers" sketch:type="MSLayerGroup" transform="translate(-2.000000, 0.000000)" fill="#FFFFFF">
                <path d="M86.646,111.993 L86.415,111.993 C85.863,111.993 85.415,111.546 85.415,110.993 C85.415,110.44 85.863,109.993 86.415,109.993 L86.646,109.993 C87.198,109.993 87.646,110.44 87.646,110.993 C87.646,111.546 87.198,111.993 86.646,111.993" id="Fill-1" sketch:type="MSShapeGroup"></path>
                <path d="M157.758,160 C156.725,160 155.696,159.986 154.673,159.959 C154.121,159.943 153.685,159.484 153.7,158.932 C153.715,158.379 154.172,157.949 154.727,157.959 C156.301,158.002 157.891,158.015 159.48,157.982 C160.032,158.006 160.489,158.41 160.5,158.962 C160.511,159.515 160.072,159.971 159.52,159.982 C158.933,159.994 158.346,160 157.758,160 L157.758,160 Z M164.493,159.761 C163.971,159.761 163.531,159.355 163.496,158.826 C163.46,158.275 163.877,157.799 164.429,157.763 C165.895,157.667 167.45,157.539 169.182,157.372 C169.729,157.308 170.221,157.722 170.273,158.271 C170.326,158.821 169.923,159.31 169.374,159.362 C167.621,159.531 166.046,159.661 164.56,159.759 C164.538,159.76 164.515,159.761 164.493,159.761 L164.493,159.761 Z M149.706,159.717 C149.683,159.717 149.659,159.716 149.635,159.714 C148.017,159.6 146.394,159.449 144.812,159.268 C144.263,159.205 143.869,158.709 143.932,158.16 C143.995,157.612 144.499,157.213 145.04,157.281 C146.593,157.459 148.186,157.606 149.776,157.72 C150.327,157.759 150.742,158.236 150.703,158.787 C150.665,159.314 150.227,159.717 149.706,159.717 L149.706,159.717 Z M139.974,158.593 C139.921,158.593 139.867,158.589 139.813,158.58 C138.212,158.321 136.609,158.024 135.047,157.696 C134.506,157.583 134.16,157.053 134.274,156.513 C134.387,155.972 134.915,155.625 135.458,155.739 C136.989,156.061 138.562,156.352 140.132,156.605 C140.677,156.693 141.048,157.207 140.96,157.752 C140.88,158.243 140.456,158.593 139.974,158.593 L139.974,158.593 Z M174.149,158.271 C173.7,158.271 173.291,157.966 173.179,157.51 C173.047,156.973 173.375,156.432 173.911,156.3 L178.572,155.153 C179.108,155.016 179.65,155.349 179.782,155.885 C179.914,156.422 179.586,156.963 179.05,157.095 L174.389,158.241 C174.309,158.262 174.228,158.271 174.149,158.271 L174.149,158.271 Z M263.065,158.268 L263.035,158.268 C261.41,158.22 259.778,158.126 258.186,157.986 C257.636,157.938 257.229,157.453 257.277,156.903 C257.325,156.354 257.823,155.945 258.36,155.994 C259.914,156.13 261.506,156.222 263.094,156.268 C263.646,156.284 264.08,156.744 264.065,157.297 C264.048,157.839 263.603,158.268 263.065,158.268 L263.065,158.268 Z M268.065,158.265 C267.526,158.265 267.082,157.837 267.065,157.295 C267.049,156.743 267.483,156.282 268.035,156.265 C269.623,156.217 271.216,156.124 272.77,155.988 C273.316,155.938 273.806,156.348 273.853,156.897 C273.9,157.447 273.494,157.933 272.943,157.98 C271.352,158.12 269.721,158.215 268.096,158.265 L268.065,158.265 L268.065,158.265 Z M253.31,157.403 C253.262,157.403 253.211,157.399 253.161,157.393 C251.56,157.151 249.951,156.858 248.378,156.521 C247.838,156.405 247.494,155.873 247.61,155.333 C247.726,154.794 248.254,154.447 248.798,154.565 C250.33,154.895 251.898,155.18 253.458,155.414 C254.005,155.497 254.381,156.006 254.299,156.552 C254.224,157.048 253.798,157.403 253.31,157.403 L253.31,157.403 Z M277.82,157.398 C277.333,157.398 276.906,157.043 276.832,156.547 C276.751,156 277.127,155.491 277.673,155.409 C279.248,155.174 280.816,154.89 282.335,154.566 C282.87,154.444 283.406,154.795 283.522,155.335 C283.637,155.875 283.293,156.406 282.753,156.521 C281.194,156.854 279.585,157.146 277.97,157.388 C277.919,157.395 277.869,157.398 277.82,157.398 L277.82,157.398 Z M130.386,156.572 C130.302,156.572 130.216,156.562 130.131,156.539 C128.564,156.128 126.996,155.675 125.472,155.191 C124.946,155.024 124.654,154.463 124.821,153.937 C124.988,153.408 125.552,153.117 126.077,153.285 C127.569,153.758 129.104,154.202 130.639,154.605 C131.173,154.745 131.493,155.292 131.352,155.826 C131.235,156.275 130.83,156.572 130.386,156.572 L130.386,156.572 Z M183.665,155.93 C183.216,155.93 182.808,155.624 182.695,155.168 C182.564,154.632 182.892,154.091 183.428,153.959 L188.089,152.813 C188.625,152.678 189.167,153.009 189.298,153.546 C189.43,154.082 189.102,154.623 188.565,154.755 L183.905,155.9 C183.825,155.921 183.745,155.93 183.665,155.93 L183.665,155.93 Z M287.397,155.338 C286.961,155.338 286.56,155.052 286.435,154.612 C286.283,154.082 286.591,153.528 287.122,153.376 C288.655,152.938 290.169,152.448 291.621,151.921 C292.142,151.731 292.714,152 292.902,152.519 C293.092,153.038 292.823,153.611 292.305,153.8 C290.809,154.344 289.25,154.849 287.671,155.3 C287.579,155.325 287.487,155.338 287.397,155.338 L287.397,155.338 Z M243.737,155.327 C243.646,155.327 243.553,155.314 243.461,155.288 C241.883,154.834 240.325,154.326 238.831,153.78 C238.312,153.59 238.046,153.016 238.235,152.497 C238.425,151.979 239,151.713 239.519,151.901 C240.969,152.432 242.481,152.925 244.014,153.366 C244.545,153.519 244.852,154.073 244.698,154.604 C244.572,155.042 244.172,155.327 243.737,155.327 L243.737,155.327 Z M121.053,153.594 C120.935,153.594 120.814,153.573 120.697,153.528 C119.178,152.95 117.668,152.326 116.208,151.673 C115.704,151.446 115.479,150.855 115.704,150.351 C115.93,149.847 116.522,149.626 117.025,149.847 C118.45,150.485 119.925,151.095 121.408,151.659 C121.924,151.855 122.184,152.433 121.987,152.949 C121.835,153.349 121.456,153.594 121.053,153.594 L121.053,153.594 Z M193.182,153.59 C192.732,153.59 192.323,153.284 192.212,152.828 C192.08,152.292 192.407,151.751 192.944,151.619 L197.605,150.474 C198.142,150.336 198.684,150.669 198.814,151.206 C198.946,151.742 198.619,152.283 198.082,152.415 L193.421,153.561 C193.341,153.581 193.261,153.59 193.182,153.59 L193.182,153.59 Z M296.591,151.968 C296.211,151.968 295.849,151.751 295.681,151.384 C295.45,150.882 295.671,150.288 296.174,150.059 C297.631,149.392 299.043,148.671 300.371,147.917 C300.851,147.645 301.462,147.812 301.734,148.294 C302.007,148.773 301.838,149.384 301.357,149.657 C299.979,150.438 298.516,151.186 297.006,151.877 C296.871,151.938 296.729,151.968 296.591,151.968 L296.591,151.968 Z M234.55,151.942 C234.41,151.942 234.269,151.913 234.133,151.851 C232.631,151.16 231.168,150.413 229.785,149.629 C229.305,149.356 229.136,148.746 229.408,148.266 C229.682,147.785 230.291,147.618 230.771,147.889 C232.105,148.646 233.517,149.367 234.969,150.034 C235.47,150.265 235.69,150.858 235.459,151.36 C235.291,151.727 234.929,151.942 234.55,151.942 L234.55,151.942 Z M202.698,151.25 C202.249,151.25 201.841,150.945 201.729,150.489 C201.597,149.952 201.924,149.411 202.46,149.279 L207.121,148.133 C207.664,147.998 208.199,148.328 208.331,148.864 C208.463,149.401 208.136,149.942 207.6,150.074 L202.939,151.221 C202.857,151.241 202.777,151.25 202.698,151.25 L202.698,151.25 Z M112.122,149.568 C111.964,149.568 111.804,149.531 111.655,149.452 C110.198,148.681 108.777,147.864 107.433,147.027 C106.963,146.735 106.82,146.119 107.112,145.65 C107.403,145.181 108.022,145.038 108.489,145.33 C109.794,146.143 111.175,146.935 112.591,147.685 C113.079,147.943 113.265,148.548 113.007,149.036 C112.827,149.375 112.48,149.568 112.122,149.568 L112.122,149.568 Z M212.215,148.91 C211.766,148.91 211.357,148.605 211.245,148.149 C211.113,147.612 211.44,147.071 211.977,146.94 L216.638,145.793 C217.181,145.656 217.716,145.988 217.848,146.524 C217.98,147.062 217.652,147.603 217.116,147.734 L212.455,148.881 C212.374,148.901 212.294,148.91 212.215,148.91 L212.215,148.91 Z M305.083,147.106 C304.771,147.106 304.463,146.961 304.269,146.687 C303.947,146.238 304.052,145.613 304.501,145.292 C305.804,144.362 307.031,143.377 308.149,142.362 C308.558,141.992 309.19,142.021 309.561,142.431 C309.933,142.84 309.902,143.472 309.493,143.843 C308.317,144.91 307.029,145.945 305.663,146.921 C305.487,147.046 305.284,147.106 305.083,147.106 L305.083,147.106 Z M226.058,147.079 C225.857,147.079 225.655,147.02 225.48,146.895 C225.058,146.595 224.645,146.291 224.242,145.982 L221.972,146.541 C221.43,146.68 220.895,146.346 220.762,145.81 C220.63,145.273 220.957,144.731 221.493,144.6 L224.232,143.926 C224.529,143.851 224.846,143.919 225.087,144.108 C225.589,144.501 226.106,144.886 226.638,145.264 C227.088,145.584 227.193,146.208 226.874,146.658 C226.679,146.933 226.37,147.079 226.058,147.079 L226.058,147.079 Z M103.823,144.373 C103.617,144.373 103.408,144.31 103.229,144.177 C101.895,143.19 100.617,142.154 99.431,141.103 C99.019,140.735 98.981,140.104 99.347,139.69 C99.713,139.277 100.346,139.239 100.759,139.606 C101.9,140.62 103.132,141.616 104.419,142.569 C104.863,142.898 104.956,143.524 104.628,143.968 C104.432,144.233 104.129,144.373 103.823,144.373 L103.823,144.373 Z M312.271,140.492 C312.049,140.492 311.824,140.418 311.638,140.265 C311.211,139.914 311.149,139.284 311.5,138.857 C312.508,137.63 313.392,136.352 314.128,135.057 C314.399,134.576 315.008,134.407 315.491,134.682 C315.972,134.954 316.14,135.565 315.866,136.045 C315.074,137.439 314.125,138.812 313.045,140.127 C312.848,140.367 312.56,140.492 312.271,140.492 L312.271,140.492 Z M96.533,137.852 C96.261,137.852 95.991,137.742 95.794,137.526 C94.668,136.293 93.625,135.012 92.694,133.717 C92.372,133.268 92.474,132.644 92.923,132.32 C93.37,131.997 93.995,132.101 94.318,132.549 C95.204,133.781 96.197,135.002 97.27,136.177 C97.643,136.585 97.614,137.218 97.206,137.59 C97.015,137.765 96.773,137.852 96.533,137.852 L96.533,137.852 Z M317.004,131.986 C316.904,131.986 316.803,131.972 316.703,131.94 C316.177,131.773 315.884,131.212 316.05,130.686 C316.149,130.372 316.24,130.057 316.324,129.74 C316.422,129.374 316.719,129.094 317.091,129.018 C318.32,128.766 319.536,128.496 320.738,128.208 C321.275,128.084 321.815,128.411 321.943,128.948 C322.071,129.485 321.74,130.024 321.203,130.153 C320.175,130.399 319.138,130.633 318.09,130.853 C318.047,130.998 318.003,131.143 317.958,131.287 C317.823,131.714 317.429,131.986 317.004,131.986 L317.004,131.986 Z M90.878,129.889 C90.518,129.889 90.17,129.694 89.991,129.353 C89.214,127.871 88.555,126.344 88.031,124.813 C87.852,124.29 88.131,123.722 88.654,123.543 C89.176,123.366 89.745,123.643 89.924,124.165 C90.415,125.6 91.033,127.032 91.763,128.425 C92.019,128.913 91.831,129.518 91.341,129.774 C91.193,129.852 91.034,129.889 90.878,129.889 L90.878,129.889 Z M325.805,128.907 C325.37,128.907 324.97,128.622 324.844,128.184 C324.69,127.653 324.997,127.1 325.527,126.946 C327.058,126.506 328.584,126.027 330.065,125.525 C330.589,125.349 331.155,125.629 331.333,126.151 C331.51,126.675 331.229,127.242 330.707,127.42 C329.196,127.932 327.641,128.419 326.082,128.868 C325.989,128.895 325.896,128.907 325.805,128.907 L325.805,128.907 Z M335.079,125.75 C334.682,125.75 334.306,125.511 334.149,125.119 C333.946,124.606 334.197,124.024 334.71,123.82 C336.19,123.233 337.66,122.606 339.077,121.956 C339.584,121.728 340.174,121.947 340.403,122.448 C340.634,122.95 340.413,123.544 339.911,123.774 C338.462,124.439 336.96,125.079 335.448,125.68 C335.327,125.728 335.202,125.75 335.079,125.75 L335.079,125.75 Z M343.979,121.652 C343.621,121.652 343.275,121.46 343.096,121.121 C342.836,120.634 343.021,120.028 343.51,119.77 C344.919,119.021 346.304,118.231 347.626,117.423 C348.095,117.134 348.712,117.282 349,117.754 C349.289,118.225 349.141,118.84 348.669,119.128 C347.313,119.958 345.893,120.769 344.447,121.535 C344.298,121.615 344.138,121.652 343.979,121.652 L343.979,121.652 Z M87.775,120.65 C87.291,120.65 86.866,120.298 86.789,119.805 C86.562,118.35 86.446,116.865 86.446,115.392 C86.446,115.266 86.436,115.139 86.419,115.012 C86.344,114.465 86.727,113.961 87.274,113.886 C87.816,113.816 88.325,114.194 88.4,114.742 C88.43,114.959 88.446,115.176 88.446,115.392 C88.446,116.762 88.554,118.143 88.765,119.496 C88.85,120.042 88.477,120.554 87.931,120.639 C87.879,120.647 87.827,120.65 87.775,120.65 L87.775,120.65 Z M352.318,116.522 C352.006,116.522 351.698,116.376 351.503,116.102 C351.183,115.651 351.287,115.027 351.737,114.707 C353.037,113.781 354.298,112.812 355.482,111.827 C355.909,111.473 356.538,111.532 356.892,111.956 C357.244,112.381 357.185,113.012 356.762,113.364 C355.538,114.382 354.238,115.381 352.897,116.336 C352.722,116.461 352.519,116.522 352.318,116.522 L352.318,116.522 Z M86.058,112.185 L86.044,112.185 C84.408,112.161 82.776,112.093 81.193,111.981 C80.642,111.942 80.227,111.464 80.266,110.913 C80.305,110.362 80.783,109.939 81.334,109.986 C82.88,110.095 84.474,110.162 86.072,110.185 C86.624,110.192 87.065,110.647 87.058,111.199 C87.05,111.746 86.603,112.185 86.058,112.185 L86.058,112.185 Z M76.291,111.479 C76.248,111.479 76.203,111.476 76.158,111.47 C74.535,111.252 72.92,110.983 71.361,110.67 C70.819,110.562 70.468,110.034 70.577,109.492 C70.686,108.95 71.212,108.597 71.754,108.709 C73.272,109.014 74.843,109.275 76.423,109.487 C76.971,109.561 77.355,110.065 77.282,110.611 C77.214,111.113 76.785,111.479 76.291,111.479 L76.291,111.479 Z M359.826,110.241 C359.568,110.241 359.311,110.143 359.116,109.945 C358.728,109.553 358.729,108.92 359.122,108.531 C360.257,107.406 361.328,106.241 362.306,105.069 C362.658,104.646 363.287,104.587 363.714,104.942 C364.138,105.296 364.195,105.927 363.841,106.351 C362.823,107.57 361.71,108.782 360.53,109.951 C360.335,110.145 360.081,110.241 359.826,110.241 L359.826,110.241 Z M66.696,109.528 C66.607,109.528 66.517,109.517 66.427,109.491 C64.839,109.049 63.277,108.547 61.784,108.002 C61.266,107.813 60.998,107.238 61.188,106.72 C61.378,106.2 61.954,105.936 62.471,106.123 C63.915,106.65 65.427,107.136 66.964,107.565 C67.497,107.714 67.808,108.266 67.659,108.797 C67.536,109.239 67.134,109.528 66.696,109.528 L66.696,109.528 Z M57.512,106.145 C57.369,106.145 57.225,106.114 57.087,106.05 C55.585,105.343 54.13,104.572 52.762,103.76 C52.288,103.479 52.131,102.864 52.413,102.39 C52.694,101.914 53.308,101.758 53.784,102.04 C55.097,102.82 56.495,103.561 57.938,104.239 C58.439,104.475 58.653,105.07 58.417,105.57 C58.247,105.933 57.887,106.145 57.512,106.145 L57.512,106.145 Z M366.058,102.703 C365.868,102.703 365.678,102.649 365.508,102.538 C365.047,102.233 364.92,101.613 365.224,101.152 C366.096,99.831 366.882,98.47 367.56,97.106 C367.805,96.611 368.402,96.408 368.9,96.655 C369.395,96.901 369.597,97.502 369.351,97.996 C368.637,99.433 367.81,100.865 366.894,102.254 C366.701,102.545 366.383,102.703 366.058,102.703 L366.058,102.703 Z M49.123,101.118 C48.912,101.118 48.7,101.052 48.519,100.916 C47.193,99.912 45.936,98.837 44.782,97.721 C44.386,97.336 44.375,96.703 44.76,96.307 C45.143,95.908 45.776,95.899 46.174,96.283 C47.269,97.344 48.464,98.366 49.727,99.32 C50.167,99.654 50.254,100.281 49.92,100.722 C49.724,100.981 49.425,101.118 49.123,101.118 L49.123,101.118 Z M42.144,94.286 C41.845,94.286 41.549,94.152 41.352,93.898 C40.327,92.573 39.412,91.184 38.63,89.768 C38.363,89.283 38.539,88.676 39.023,88.408 C39.506,88.142 40.115,88.317 40.381,88.801 C41.113,90.127 41.972,91.431 42.934,92.674 C43.272,93.111 43.192,93.739 42.755,94.077 C42.573,94.218 42.357,94.286 42.144,94.286 L42.144,94.286 Z M370.361,93.937 C370.257,93.937 370.151,93.92 370.047,93.886 C369.522,93.712 369.238,93.146 369.412,92.622 C369.902,91.141 370.285,89.625 370.548,88.119 C370.643,87.574 371.161,87.211 371.705,87.306 C372.249,87.401 372.613,87.919 372.519,88.463 C372.238,90.065 371.832,91.677 371.31,93.251 C371.172,93.671 370.781,93.937 370.361,93.937 L370.361,93.937 Z M37.48,85.722 C37.064,85.722 36.675,85.46 36.534,85.045 C35.997,83.474 35.599,81.852 35.351,80.226 C35.267,79.679 35.642,79.169 36.188,79.086 C36.73,79.003 37.244,79.377 37.327,79.923 C37.558,81.433 37.928,82.938 38.426,84.398 C38.605,84.921 38.326,85.489 37.803,85.668 C37.696,85.705 37.587,85.722 37.48,85.722 L37.48,85.722 Z M371.999,84.324 L371.985,84.324 C371.434,84.316 370.992,83.863 370.999,83.311 L371.002,82.889 C371.002,81.488 370.903,80.072 370.709,78.682 C370.633,78.134 371.014,77.629 371.56,77.553 C372.106,77.472 372.613,77.857 372.69,78.404 C372.897,79.887 373.002,81.396 373.002,82.889 L372.999,83.338 C372.991,83.886 372.545,84.324 371.999,84.324 L371.999,84.324 Z M1.842,78.18 C1.298,78.18 0.852,77.743 0.842,77.197 C0.833,76.645 1.272,76.19 1.825,76.18 L5.071,76.123 C4.978,75.618 5.286,75.118 5.79,74.979 L10.419,73.709 C10.95,73.559 11.501,73.876 11.648,74.408 C11.794,74.941 11.481,75.491 10.948,75.637 L7.5,76.584 C7.587,76.729 7.638,76.897 7.642,77.079 C7.651,77.631 7.211,78.086 6.659,78.096 L1.86,78.18 L1.842,78.18 L1.842,78.18 Z M11.64,78.009 C11.096,78.009 10.65,77.573 10.641,77.027 C10.631,76.475 11.071,76.019 11.623,76.009 L16.422,75.926 C16.971,75.92 17.43,76.356 17.44,76.908 C17.449,77.46 17.01,77.916 16.458,77.926 L11.658,78.009 L11.64,78.009 L11.64,78.009 Z M21.439,77.839 C20.895,77.839 20.449,77.402 20.439,76.856 C20.43,76.304 20.87,75.849 21.422,75.839 L26.221,75.755 C26.775,75.737 27.229,76.186 27.239,76.738 C27.248,77.29 26.809,77.746 26.256,77.755 L21.457,77.839 L21.439,77.839 L21.439,77.839 Z M31.237,77.669 C30.693,77.669 30.248,77.232 30.238,76.686 C30.229,76.134 30.668,75.678 31.22,75.669 L36.02,75.585 C36.581,75.6 37.027,76.016 37.037,76.567 C37.046,77.12 36.607,77.575 36.055,77.585 L31.255,77.669 L31.237,77.669 L31.237,77.669 Z M370.626,74.674 C370.196,74.674 369.8,74.396 369.669,73.963 C369.226,72.502 368.668,71.04 368.011,69.617 C367.779,69.116 367.998,68.521 368.5,68.29 C369.003,68.056 369.596,68.278 369.827,68.778 C370.522,70.284 371.113,71.834 371.583,73.383 C371.743,73.912 371.444,74.47 370.916,74.63 C370.819,74.66 370.722,74.674 370.626,74.674 L370.626,74.674 Z M15.505,74.35 C15.065,74.35 14.663,74.058 14.541,73.614 C14.395,73.081 14.708,72.531 15.241,72.385 L19.869,71.114 C20.401,70.966 20.952,71.282 21.098,71.814 C21.244,72.347 20.931,72.897 20.398,73.043 L15.77,74.313 C15.682,74.338 15.592,74.35 15.505,74.35 L15.505,74.35 Z M24.955,71.755 C24.516,71.755 24.113,71.463 23.991,71.02 C23.845,70.487 24.158,69.937 24.691,69.791 L29.32,68.52 C29.852,68.373 30.402,68.687 30.549,69.22 C30.695,69.752 30.382,70.303 29.849,70.449 L25.22,71.719 C25.132,71.744 25.042,71.755 24.955,71.755 L24.955,71.755 Z M34.405,69.161 C33.966,69.161 33.563,68.87 33.441,68.425 C33.295,67.893 33.608,67.343 34.141,67.196 L36.452,66.562 C36.597,66.126 36.752,65.693 36.918,65.265 C37.118,64.749 37.699,64.494 38.211,64.693 C38.726,64.892 38.982,65.471 38.783,65.986 C38.568,66.544 38.371,67.108 38.194,67.679 C38.093,68.005 37.832,68.257 37.503,68.347 L34.67,69.125 C34.582,69.149 34.493,69.161 34.405,69.161 L34.405,69.161 Z M366.531,65.814 C366.199,65.814 365.875,65.649 365.685,65.348 C364.871,64.058 363.957,62.775 362.967,61.534 C362.622,61.102 362.692,60.473 363.124,60.128 C363.558,59.784 364.185,59.855 364.529,60.287 C365.565,61.585 366.523,62.929 367.376,64.281 C367.671,64.748 367.531,65.365 367.064,65.66 C366.898,65.764 366.714,65.814 366.531,65.814 L366.531,65.814 Z M40.054,62.149 C39.877,62.149 39.698,62.102 39.536,62.004 C39.064,61.718 38.913,61.103 39.2,60.63 C40.043,59.239 41.019,57.889 42.101,56.618 C42.458,56.197 43.089,56.146 43.51,56.504 C43.931,56.862 43.982,57.493 43.624,57.914 C42.612,59.104 41.699,60.367 40.91,61.668 C40.722,61.978 40.392,62.149 40.054,62.149 L40.054,62.149 Z M360.433,58.172 C360.173,58.172 359.914,58.072 359.718,57.872 C358.647,56.777 357.489,55.694 356.278,54.653 C355.859,54.294 355.811,53.662 356.171,53.243 C356.532,52.825 357.165,52.778 357.581,53.137 C358.836,54.214 360.035,55.337 361.147,56.473 C361.533,56.868 361.526,57.501 361.132,57.887 C360.937,58.078 360.685,58.172 360.433,58.172 L360.433,58.172 Z M46.379,54.72 C46.1,54.72 45.822,54.604 45.624,54.376 C45.261,53.96 45.306,53.328 45.722,52.965 C46.932,51.913 48.25,50.91 49.64,49.984 C50.099,49.677 50.72,49.802 51.026,50.261 C51.333,50.721 51.209,51.342 50.749,51.648 C49.43,52.527 48.18,53.478 47.035,54.474 C46.845,54.639 46.611,54.72 46.379,54.72 L46.379,54.72 Z M353.011,51.793 C352.807,51.793 352.6,51.73 352.422,51.6 C351.179,50.692 349.861,49.798 348.507,48.945 C348.04,48.65 347.899,48.033 348.194,47.565 C348.488,47.098 349.106,46.96 349.573,47.252 C350.967,48.131 352.322,49.05 353.602,49.985 C354.048,50.311 354.145,50.937 353.819,51.382 C353.623,51.65 353.319,51.793 353.011,51.793 L353.011,51.793 Z M54.51,49.299 C54.146,49.299 53.794,49.1 53.618,48.752 C53.367,48.26 53.563,47.658 54.055,47.408 C55.473,46.686 56.977,46.013 58.523,45.408 C59.037,45.206 59.617,45.461 59.818,45.975 C60.019,46.49 59.766,47.069 59.251,47.271 C57.766,47.852 56.323,48.498 54.962,49.19 C54.817,49.264 54.662,49.299 54.51,49.299 L54.51,49.299 Z M344.726,46.573 C344.565,46.573 344.4,46.534 344.249,46.451 C342.884,45.709 341.46,44.987 340.019,44.306 C339.519,44.07 339.306,43.474 339.541,42.975 C339.777,42.476 340.371,42.261 340.872,42.498 C342.349,43.195 343.806,43.934 345.204,44.694 C345.69,44.958 345.869,45.565 345.605,46.05 C345.424,46.384 345.08,46.573 344.726,46.573 L344.726,46.573 Z M63.62,45.735 C63.186,45.735 62.787,45.451 62.66,45.014 C62.506,44.483 62.811,43.929 63.341,43.774 C64.862,43.333 66.454,42.936 68.07,42.597 C68.615,42.486 69.142,42.829 69.254,43.37 C69.368,43.91 69.022,44.44 68.481,44.554 C66.914,44.883 65.372,45.267 63.899,45.695 C63.806,45.722 63.712,45.735 63.62,45.735 L63.62,45.735 Z M96.15,43.78 C96.113,43.78 96.077,43.778 96.04,43.773 C94.951,43.653 93.816,43.532 92.658,43.422 C92.108,43.37 91.705,42.882 91.757,42.332 C91.809,41.782 92.298,41.377 92.847,41.431 C93.468,41.49 94.082,41.552 94.687,41.615 C94.619,41.122 94.929,40.644 95.422,40.514 C95.959,40.372 96.503,40.691 96.644,41.225 C96.748,41.618 96.882,41.987 97.055,42.355 C97.209,42.682 97.174,43.067 96.963,43.362 C96.774,43.626 96.47,43.78 96.15,43.78 L96.15,43.78 Z M73.2,43.727 C72.708,43.727 72.279,43.363 72.21,42.862 C72.136,42.315 72.519,41.811 73.065,41.736 C74.639,41.521 76.265,41.349 77.898,41.227 C78.455,41.177 78.929,41.598 78.97,42.149 C79.012,42.7 78.599,43.18 78.048,43.221 C76.455,43.34 74.87,43.507 73.337,43.717 C73.291,43.724 73.245,43.727 73.2,43.727 L73.2,43.727 Z M87.766,43.058 C87.75,43.058 87.733,43.057 87.717,43.057 C85.993,42.974 84.472,42.967 82.984,42.993 C82.443,42.978 81.977,42.563 81.967,42.011 C81.957,41.459 82.397,41.003 82.949,40.993 C84.479,40.967 86.046,40.975 87.813,41.059 C88.365,41.085 88.79,41.554 88.764,42.106 C88.738,42.641 88.296,43.058 87.766,43.058 L87.766,43.058 Z M335.868,42.393 C335.742,42.393 335.614,42.369 335.491,42.318 C334.047,41.731 332.553,41.164 331.048,40.636 C330.526,40.453 330.252,39.882 330.435,39.361 C330.618,38.84 331.19,38.564 331.71,38.749 C333.246,39.288 334.771,39.866 336.245,40.466 C336.757,40.674 337.003,41.258 336.794,41.769 C336.637,42.157 336.263,42.393 335.868,42.393 L335.868,42.393 Z M326.622,39.151 C326.528,39.151 326.432,39.138 326.337,39.109 C324.837,38.662 323.293,38.239 321.749,37.852 C321.213,37.717 320.888,37.174 321.022,36.638 C321.156,36.102 321.704,35.775 322.235,35.912 C323.808,36.307 325.38,36.737 326.907,37.192 C327.437,37.35 327.738,37.907 327.58,38.437 C327.451,38.871 327.054,39.151 326.622,39.151 L326.622,39.151 Z M95.398,37.51 C95.369,37.51 95.339,37.509 95.309,37.506 C94.759,37.458 94.353,36.972 94.401,36.422 C94.55,34.74 95.028,33.079 95.82,31.486 C96.065,30.99 96.665,30.788 97.16,31.035 C97.655,31.281 97.856,31.881 97.611,32.376 C96.93,33.745 96.52,35.166 96.394,36.599 C96.348,37.119 95.911,37.51 95.398,37.51 L95.398,37.51 Z M317.116,36.773 C317.05,36.773 316.982,36.766 316.915,36.752 C315.369,36.436 313.794,36.147 312.233,35.893 C311.688,35.804 311.318,35.29 311.407,34.745 C311.496,34.199 312.01,33.823 312.556,33.919 C314.143,34.177 315.744,34.472 317.315,34.793 C317.856,34.903 318.206,35.432 318.095,35.973 C317.998,36.446 317.581,36.773 317.116,36.773 L317.116,36.773 Z M307.445,35.203 C307.405,35.203 307.365,35.201 307.324,35.196 C305.758,35.006 304.164,34.844 302.587,34.713 C302.036,34.668 301.627,34.185 301.672,33.634 C301.718,33.085 302.212,32.672 302.751,32.72 C304.354,32.853 305.974,33.018 307.565,33.21 C308.113,33.277 308.504,33.775 308.437,34.323 C308.376,34.831 307.944,35.203 307.445,35.203 L307.445,35.203 Z M297.68,34.402 C297.665,34.402 297.65,34.401 297.636,34.401 C296.054,34.332 294.451,34.292 292.873,34.282 C292.321,34.278 291.876,33.827 291.88,33.275 C291.884,32.725 292.331,32.282 292.88,32.282 L292.887,32.282 C294.489,32.293 296.116,32.333 297.722,32.403 C298.273,32.427 298.702,32.894 298.678,33.445 C298.654,33.982 298.212,34.402 297.68,34.402 L297.68,34.402 Z M288.624,33.039 C288.273,33.039 287.934,32.855 287.75,32.527 C287.011,31.205 286.157,29.887 285.213,28.609 C284.884,28.165 284.978,27.539 285.422,27.21 C285.866,26.881 286.494,26.976 286.82,27.42 C287.815,28.766 288.716,30.155 289.496,31.551 C289.766,32.033 289.593,32.642 289.111,32.912 C288.957,32.998 288.789,33.039 288.624,33.039 L288.624,33.039 Z M99.601,28.874 C99.354,28.874 99.106,28.783 98.913,28.599 C98.512,28.219 98.495,27.586 98.875,27.186 C99.968,26.033 101.25,24.945 102.686,23.953 C103.141,23.639 103.763,23.753 104.078,24.206 C104.392,24.661 104.278,25.284 103.824,25.598 C102.501,26.512 101.324,27.509 100.326,28.561 C100.129,28.769 99.865,28.874 99.601,28.874 L99.601,28.874 Z M153.415,27.643 C153.194,27.643 152.973,27.57 152.788,27.421 C152.358,27.075 152.29,26.445 152.637,26.015 C153.637,24.776 154.739,23.55 155.913,22.37 C156.302,21.979 156.936,21.977 157.327,22.366 C157.718,22.755 157.72,23.388 157.331,23.78 C156.206,24.911 155.15,26.086 154.194,27.271 C153.996,27.516 153.707,27.643 153.415,27.643 L153.415,27.643 Z M149.76,25.932 C149.559,25.932 149.356,25.872 149.18,25.746 C147.979,24.888 146.638,24.094 145.195,23.388 C144.699,23.145 144.494,22.546 144.737,22.05 C144.98,21.554 145.581,21.351 146.075,21.592 C147.616,22.347 149.052,23.197 150.342,24.118 C150.792,24.439 150.896,25.064 150.575,25.513 C150.38,25.787 150.072,25.932 149.76,25.932 L149.76,25.932 Z M282.815,25.178 C282.548,25.178 282.281,25.072 282.085,24.861 C281.043,23.745 279.908,22.643 278.712,21.586 C278.298,21.22 278.259,20.588 278.625,20.174 C278.991,19.761 279.623,19.722 280.036,20.087 C281.28,21.187 282.461,22.333 283.547,23.496 C283.923,23.899 283.901,24.532 283.498,24.909 C283.305,25.089 283.06,25.178 282.815,25.178 L282.815,25.178 Z M107.59,23.295 C107.215,23.295 106.856,23.083 106.686,22.722 C106.45,22.222 106.664,21.626 107.163,21.391 C108.605,20.71 110.147,20.104 111.747,19.587 C112.272,19.419 112.836,19.706 113.006,20.231 C113.175,20.757 112.887,21.321 112.361,21.49 C110.843,21.98 109.381,22.555 108.017,23.199 C107.879,23.264 107.733,23.295 107.59,23.295 L107.59,23.295 Z M141.003,21.616 C140.9,21.616 140.795,21.599 140.691,21.565 C139.243,21.089 137.72,20.683 136.164,20.359 C135.623,20.247 135.276,19.717 135.388,19.177 C135.5,18.636 136.025,18.289 136.571,18.401 C138.2,18.74 139.797,19.165 141.316,19.665 C141.84,19.838 142.126,20.403 141.953,20.928 C141.815,21.349 141.424,21.616 141.003,21.616 L141.003,21.616 Z M160.314,20.708 C160.027,20.708 159.743,20.585 159.545,20.347 C159.192,19.921 159.25,19.291 159.675,18.939 C160.899,17.921 162.204,16.925 163.553,15.977 C164.005,15.66 164.628,15.769 164.946,16.221 C165.264,16.672 165.155,17.296 164.703,17.614 C163.398,18.531 162.136,19.494 160.953,20.477 C160.766,20.632 160.54,20.708 160.314,20.708 L160.314,20.708 Z M116.892,20.288 C116.424,20.288 116.007,19.958 115.912,19.482 C115.805,18.94 116.157,18.414 116.698,18.307 C118.274,17.994 119.906,17.756 121.547,17.601 C122.087,17.551 122.585,17.952 122.637,18.502 C122.689,19.052 122.286,19.54 121.736,19.592 C120.162,19.741 118.598,19.969 117.088,20.269 C117.022,20.282 116.956,20.288 116.892,20.288 L116.892,20.288 Z M131.428,19.626 C131.394,19.626 131.36,19.624 131.327,19.621 C129.788,19.467 128.208,19.384 126.629,19.376 C126.077,19.373 125.632,18.923 125.635,18.371 C125.638,17.82 126.085,17.376 126.635,17.376 L126.64,17.376 C128.281,17.385 129.925,17.471 131.526,17.631 C132.076,17.686 132.477,18.176 132.421,18.726 C132.37,19.241 131.935,19.626 131.428,19.626 L131.428,19.626 Z M275.484,18.696 C275.278,18.696 275.069,18.632 274.891,18.5 C273.658,17.588 272.345,16.693 270.988,15.839 C270.522,15.544 270.381,14.927 270.675,14.46 C270.971,13.993 271.585,13.853 272.055,14.147 C273.452,15.027 274.807,15.951 276.08,16.892 C276.523,17.22 276.618,17.846 276.289,18.291 C276.094,18.556 275.791,18.696 275.484,18.696 L275.484,18.696 Z M168.325,15.078 C167.985,15.078 167.653,14.904 167.465,14.59 C167.183,14.116 167.337,13.502 167.811,13.219 C169.177,12.404 170.609,11.612 172.068,10.865 C172.562,10.614 173.163,10.809 173.414,11.299 C173.665,11.79 173.471,12.393 172.98,12.645 C171.559,13.373 170.165,14.144 168.837,14.936 C168.676,15.032 168.499,15.078 168.325,15.078 L168.325,15.078 Z M267.197,13.481 C267.038,13.481 266.876,13.443 266.726,13.363 C265.358,12.63 263.931,11.92 262.482,11.253 C261.98,11.022 261.761,10.428 261.992,9.927 C262.222,9.425 262.814,9.204 263.318,9.436 C264.804,10.12 266.269,10.848 267.671,11.6 C268.157,11.861 268.341,12.467 268.079,12.954 C267.899,13.29 267.554,13.481 267.197,13.481 L267.197,13.481 Z M177.043,10.617 C176.658,10.617 176.29,10.393 176.126,10.017 C175.906,9.511 176.137,8.921 176.643,8.7 C178.102,8.064 179.617,7.452 181.145,6.882 C181.661,6.688 182.238,6.952 182.431,7.47 C182.623,7.988 182.36,8.564 181.843,8.756 C180.349,9.313 178.869,9.911 177.443,10.533 C177.313,10.59 177.177,10.617 177.043,10.617 L177.043,10.617 Z M258.3,9.39 C258.179,9.39 258.056,9.367 257.935,9.32 C256.485,8.753 254.982,8.21 253.47,7.708 C252.945,7.534 252.662,6.967 252.836,6.443 C253.011,5.919 253.577,5.633 254.101,5.81 C255.646,6.324 257.182,6.878 258.664,7.458 C259.179,7.659 259.433,8.239 259.231,8.753 C259.077,9.148 258.699,9.39 258.3,9.39 L258.3,9.39 Z M186.224,7.203 C185.798,7.203 185.404,6.928 185.27,6.501 C185.105,5.974 185.399,5.413 185.926,5.248 C187.449,4.772 189.018,4.323 190.588,3.915 C191.122,3.777 191.668,4.096 191.808,4.63 C191.946,5.165 191.626,5.711 191.092,5.85 C189.553,6.251 188.016,6.69 186.523,7.157 C186.424,7.188 186.323,7.203 186.224,7.203 L186.224,7.203 Z M249.003,6.306 C248.914,6.306 248.825,6.294 248.735,6.269 C247.228,5.853 245.678,5.463 244.125,5.111 C243.586,4.989 243.248,4.453 243.37,3.915 C243.492,3.376 244.028,3.035 244.566,3.161 C246.149,3.52 247.731,3.917 249.269,4.341 C249.801,4.488 250.113,5.039 249.966,5.571 C249.844,6.015 249.441,6.306 249.003,6.306 L249.003,6.306 Z M195.706,4.741 C195.242,4.741 194.827,4.417 194.729,3.946 C194.615,3.406 194.962,2.876 195.502,2.762 C197.067,2.435 198.67,2.137 200.266,1.876 C200.814,1.79 201.325,2.158 201.414,2.702 C201.503,3.248 201.133,3.761 200.588,3.85 C199.021,4.106 197.448,4.398 195.912,4.72 C195.843,4.734 195.773,4.741 195.706,4.741 L195.706,4.741 Z M239.446,4.144 C239.389,4.144 239.329,4.139 239.27,4.128 C237.719,3.852 236.137,3.606 234.569,3.395 C234.021,3.322 233.638,2.819 233.711,2.271 C233.784,1.724 234.283,1.343 234.835,1.413 C236.432,1.627 238.041,1.878 239.62,2.16 C240.164,2.256 240.526,2.775 240.43,3.319 C240.344,3.804 239.922,4.144 239.446,4.144 L239.446,4.144 Z M205.376,3.168 C204.876,3.168 204.443,2.794 204.384,2.285 C204.319,1.736 204.712,1.239 205.26,1.175 C206.845,0.988 208.466,0.832 210.079,0.71 C210.624,0.672 211.109,1.081 211.151,1.632 C211.193,2.183 210.78,2.663 210.23,2.704 C208.645,2.824 207.051,2.978 205.494,3.161 C205.454,3.166 205.415,3.168 205.376,3.168 L205.376,3.168 Z M229.734,2.849 C229.704,2.849 229.674,2.847 229.644,2.845 C228.073,2.704 226.477,2.592 224.896,2.515 C224.345,2.488 223.919,2.019 223.946,1.467 C223.974,0.915 224.439,0.503 224.994,0.517 C226.602,0.596 228.226,0.709 229.823,0.852 C230.373,0.902 230.779,1.388 230.73,1.938 C230.683,2.458 230.246,2.849 229.734,2.849 L229.734,2.849 Z M215.146,2.437 C214.609,2.437 214.166,2.011 214.148,1.47 C214.13,0.918 214.562,0.456 215.115,0.438 C216.425,0.395 217.745,0.374 219.072,0.373 L219.954,0.376 C220.506,0.38 220.951,0.831 220.947,1.383 C220.943,1.933 220.496,2.376 219.947,2.376 L219.94,2.376 L219.072,2.373 C217.767,2.374 216.469,2.395 215.18,2.437 L215.146,2.437 L215.146,2.437 Z" id="Fill-2" sketch:type="MSShapeGroup"></path>
            </g>
        </g>
    </g>
</svg>