<?xml version="1.0" encoding="utf-8"?>
<!-- Generator: Adobe Illustrator 18.0.0, SVG Export Plug-In . SVG Version: 6.00 Build 0)  -->
<!DOCTYPE svg PUBLIC "-//W3C//DTD SVG 1.1//EN" "http://www.w3.org/Graphics/SVG/1.1/DTD/svg11.dtd">
<svg version="1.1" id="Layer_1" xmlns="http://www.w3.org/2000/svg" xmlns:xlink="http://www.w3.org/1999/xlink" x="0px" y="0px"
	 viewBox="123.3 0 595.3 595.3" enable-background="new 123.3 0 595.3 595.3" xml:space="preserve">
<path fill="#CD9137" d="M427.1,160c1.3,1.3,2.6,3.9,2.6,6.5v74.2c0,2.6,0,5.2-2.6,7.8c-1.3,1.3-3.9,2.6-7.8,2.6
	c-3.9,0-6.5,0-7.8-2.6c-1.3-2.6-2.6-5.2-2.6-9.1v-72.9c0-2.6,1.3-5.2,2.6-6.5c2.6-1.3,5.2-2.6,7.8-2.6
	C421.9,157.4,424.5,158.7,427.1,160z M354.9,346.8v-19.8h-66v19.8h22.4v119.1h21.1V346.8H354.9z M407,361.1h-18.5v78.1
	c-1.3,2.6-2.6,3.9-5.2,5.2c-2.6,1.3-3.9,2.6-5.2,2.6s-2.6,0-3.9-1.3c-1.3-1.3-1.3-2.6-1.3-5.2v-78.1h-18.5v85.9
	c0,5.5,1.3,10.7,3.9,13.3c2.9,2.6,6.8,3.9,10.7,3.9c2.9,0,6.8,0,10.7-2.6c4.2-1.3,6.8-5.2,10.7-9.1v12h18.5v-0.3h-2V361.1z
	 M482.8,444.7h0.3c0,6.5-2.6,13.3-5.2,17.2c-2.6,3.9-7.8,5.2-13.3,5.2c-3.9,0-6.5-1.3-10.7-2.6c-2.6-1.3-5.2-3.9-7.8-6.5v7.8h-18.5
	V326.9h19.8v44.9c2.6-2.6,5.2-5.2,7.8-6.5c2.6-1.3,5.2-2.6,9.1-2.6c6.5,0,10.7,2.6,13.3,6.5s5.2,10.7,5.2,18.5V444.7z M461.9,388.7
	c0-3.9-1.3-6.5-2.6-7.8c0-2.6-1.3-2.6-3.9-2.6c-1.3,0-2.6,0-3.9,1.3c-1.3,1.3-2.6,1.3-3.9,2.6v63.4c1.3,1.3,2.6,2.6,3.9,3.9
	c1.3,1.3,2.6,1.3,3.9,1.3c2.6,0,3.9-1.3,5.2-2.6c1.3-1.3,1.3-3.9,1.3-6.5V388.7z M718.6,297.6c0,163.9-133.7,297.6-297.6,297.6
	S123.3,461.6,123.3,297.6S257,0,420.9,0S718.6,133.7,718.6,297.6z M477.9,247.5c0,7.8,1.3,14.6,3.9,18.5c2.6,3.9,8.1,6.5,13.3,6.5
	c5.5,0,9.4-1.3,14.6-3.9c5.5-2.9,10.7-6.8,14.6-12v14.6h25v-135h-25.7v101.8c-2.6,2.6-5.2,5.2-7.8,6.5c-2.6,1.3-5.2,2.6-6.5,2.6
	c-2.6,0-3.9-1.3-5.2-2.6s-1.3-3.9-1.3-6.5V135h-25V247.5z M383.9,166.5l0.3,68.6c0,11.7,5.5,21.1,12,27.6
	c6.5,6.8,15.9,10.7,26.3,10.7c10.4,0,19.8-2.6,26.3-9.1c6.5-6.5,9.1-15.6,9.1-27.6v-70.3c0-10.4-4.2-18.5-10.7-25s-14.3-9.1-25-9.1
	c-11.7,0-20.8,2.6-27.6,9.1S383.9,155.8,383.9,166.5z M289.9,87.2L323,198.4v72.9h29.3v-76.8l32.9-107.3h-29L339,161.3h-2.6
	l-17.2-74.2H289.9z M578.4,399.5c-1.3-19.8-1.3-39.7-2.6-58.2c0-25-19.8-44.9-44.9-44.9c-35.8-1.3-72.9-2.6-109.9-2.6
	s-74.2,0-109.9,2.6c-25,0-44.9,19.8-44.9,44.9c-1.3,19.8-2.6,39.7-2.6,58.2c0,19.8,0,39.7,2.6,58.2c0,25,19.8,44.9,44.9,44.9
	c35.8,1.3,72.9,2.6,109.9,2.6s74.2,0,109.9-2.6c25,0,44.9-19.8,44.9-44.9C577.1,437.8,578.4,418,578.4,399.5z M516.3,416.7v19.8
	c0,5.2,0,9.1,1.3,10.7c1.3,2.6,3.9,2.6,6.5,2.6c2.6,0,5.2-1.3,6.5-2.6s1.3-5.2,1.3-12v-6.5h19.8v7.8c0,10.7-2.6,18.5-6.5,23.7
	c-5.2,5.2-12,7.8-21.1,7.8c-7.8,0-14.6-2.6-19.8-7.8c-5.2-5.2-7.8-13.3-7.8-23.7v-46.2c0-9.1,2.6-15.9,7.8-21.1
	c5.2-5.2,12-7.8,21.1-7.8c9.1,0,15.9,2.6,19.8,7.8c5.2,5.2,6.5,13.3,6.5,22.4l0.3,25H516.3z M533.5,400.8v-10.4c0-3.9,0-7.8-1.3-9.1
	c-2.6-1.6-3.9-2.9-8.1-2.9c-2.6,0-5.2,1.3-6.5,2.6c-1.3,1.3-1.3,5.2-1.3,9.1v10.7H533.5z"/>
</svg>
