<?xml version="1.0" encoding="utf-8"?>
<!-- Generator: Adobe Illustrator 18.0.0, SVG Export Plug-In . SVG Version: 6.00 Build 0)  -->
<!DOCTYPE svg PUBLIC "-//W3C//DTD SVG 1.1//EN" "http://www.w3.org/Graphics/SVG/1.1/DTD/svg11.dtd">
<svg version="1.1" id="Layer_1" xmlns="http://www.w3.org/2000/svg" xmlns:xlink="http://www.w3.org/1999/xlink" x="0px" y="0px"
	 viewBox="0 0 435.2 305.3" enable-background="new 0 0 435.2 305.3" xml:space="preserve">
<circle fill="#FFFFFF" cx="266.5" cy="243.7" r="2.7"/>
<circle fill="#FFFFFF" cx="132.7" cy="235.3" r="2.7"/>
<circle fill="#FFFFFF" cx="85.5" cy="179.4" r="6.8"/>
<circle fill="#FFFFFF" cx="196.7" cy="236.9" r="6.8"/>
<circle fill="#FFFFFF" cx="308.6" cy="302" r="3.3"/>
<circle fill="#FFFFFF" cx="424.3" cy="290.6" r="4.5"/>
<circle fill="#FFFFFF" cx="109.6" cy="229.7" r="8.9"/>
<circle fill="#FFFFFF" cx="35.6" cy="224.5" r="4.8"/>
<circle fill="#FFFFFF" cx="178.7" cy="210.4" r="5.4"/>
<circle fill="#FFFFFF" cx="136.3" cy="175.8" r="3.6"/>
<circle fill="#FFFFFF" cx="118.5" cy="132.1" r="6.8"/>
<circle fill="#FFFFFF" cx="13.5" cy="81.9" r="6.8"/>
<circle fill="#FFFFFF" cx="189.9" cy="91.8" r="5"/>
<circle fill="#FFFFFF" cx="75.9" cy="101.8" r="3.3"/>
<circle fill="#FFFFFF" cx="4.4" cy="106.8" r="3.3"/>
<circle fill="#FFFFFF" cx="20.3" cy="163.1" r="3.3"/>
<circle fill="#FFFFFF" cx="8.9" cy="278.8" r="4.5"/>
<circle fill="#FFFFFF" cx="118.5" cy="283.3" r="2.7"/>
<circle fill="#FFFFFF" cx="266.5" cy="38" r="2.7"/>
<circle fill="#FFFFFF" cx="132.7" cy="29.6" r="2.7"/>
<circle fill="#FFFFFF" cx="60.9" cy="44.8" r="6.8"/>
<circle fill="#FFFFFF" cx="196.7" cy="31.2" r="6.8"/>
<circle fill="#FFFFFF" cx="375.1" cy="185.6" r="8.9"/>
<circle fill="#FFFFFF" cx="130" cy="70.5" r="8.9"/>
<circle fill="#FFFFFF" cx="8.9" cy="15.7" r="8.9"/>
<circle fill="#FFFFFF" cx="370" cy="111.6" r="4.8"/>
<circle fill="#FFFFFF" cx="355.8" cy="254.7" r="5.4"/>
<circle fill="#FFFFFF" cx="321.3" cy="212.3" r="3.6"/>
<circle fill="#FFFFFF" cx="331.1" cy="157.2" r="5.4"/>
<circle fill="#FFFFFF" cx="411.9" cy="246.5" r="5.4"/>
<circle fill="#FFFFFF" cx="311.9" cy="132.1" r="3.6"/>
<circle fill="#FFFFFF" cx="419.7" cy="143.7" r="3.6"/>
<circle fill="#FFFFFF" cx="431.6" cy="224.5" r="3.6"/>
<circle fill="#FFFFFF" cx="277.5" cy="194.5" r="6.8"/>
<circle fill="#FFFFFF" cx="237.3" cy="265.9" r="5"/>
<circle fill="#FFFFFF" cx="247.3" cy="151.9" r="3.3"/>
<circle fill="#FFFFFF" cx="308.6" cy="96.3" r="3.3"/>
<circle fill="#FFFFFF" cx="424.3" cy="84.9" r="4.5"/>
<circle fill="#FFFFFF" cx="428.8" cy="194.5" r="2.7"/>
<circle fill="#FFFFFF" cx="296.5" cy="270.9" r="2.7"/>
<circle fill="#FFFFFF" cx="226.2" cy="201.3" r="2.7"/>
<circle fill="#FFFFFF" cx="393.3" cy="148.6" r="2.7"/>
<circle fill="#FFFFFF" cx="255.6" cy="117.6" r="6.8"/>
<circle fill="#FFFFFF" cx="237.7" cy="91" r="5.4"/>
<circle fill="#FFFFFF" cx="285.2" cy="81.9" r="2.7"/>
<circle fill="#FFFFFF" cx="190.2" cy="136.9" r="6.8"/>
<circle fill="#FFFFFF" cx="176.7" cy="272.6" r="6.8"/>
<circle fill="#FFFFFF" cx="355.9" cy="42.7" r="6.8"/>
<circle fill="#FFFFFF" cx="387.9" cy="41.8" r="5.4"/>
<circle fill="#FFFFFF" cx="309.7" cy="61.6" r="5"/>
<circle fill="#FFFFFF" cx="370.2" cy="86.8" r="2.7"/>
<circle fill="#FFFFFF" cx="336.4" cy="6.8" r="6.8"/>
</svg>
