<?xml version="1.0" encoding="UTF-8" standalone="no"?>
<svg width="374px" height="476px" viewBox="0 0 374 476" version="1.1" xmlns="http://www.w3.org/2000/svg" xmlns:xlink="http://www.w3.org/1999/xlink" xmlns:sketch="http://www.bohemiancoding.com/sketch/ns">
    <!-- Generator: Sketch 3.1.1 (8761) - http://www.bohemiancoding.com/sketch -->
    <title>babolygo-babolygoFaSring</title>
    <desc>Created with Sketch.</desc>
    <defs></defs>
    <g id="babolygo-opening-graphics" stroke="none" stroke-width="1" fill="none" fill-rule="evenodd" sketch:type="MSPage">
        <g id="babolygo-babolygoFaSring" sketch:type="MSArtboardGroup">
            <g id="Imported-Layers" sketch:type="MSLayerGroup">
                <path d="M174.815,9.805 C78.057,9.805 -0.38,76.799 -0.38,159.434 C-0.38,242.077 78.057,309.065 174.815,309.065 C271.578,309.065 350.016,242.077 350.016,159.434 C350.016,76.799 271.578,9.805 174.815,9.805 L174.815,9.805 Z M172.723,266.315 C101.196,266.315 43.21,210.019 43.21,140.574 C43.21,71.133 101.196,14.833 172.723,14.833 C244.248,14.833 302.232,71.133 302.232,140.574 C302.232,210.019 244.248,266.315 172.723,266.315 L172.723,266.315 Z" id="Fill-1" fill="#8EAF3F" sketch:type="MSShapeGroup"></path>
                <path d="M249.978,451.713 L248.617,451.713 C247.361,451.672 245.232,451.622 242.057,451.569 C206.103,450.987 204.248,396.824 199.217,339.827 C194.187,282.826 228.508,262.387 228.508,262.387 L190.254,266.776 L189.887,266.056 L155.519,266.056 L155.519,267.129 L117.377,262.753 C117.377,262.753 151.327,282.826 146.298,339.827 C141.269,396.824 139.415,450.987 103.456,451.569 C100.703,451.614 98.738,451.662 97.444,451.713 L96.375,451.713 C96.261,451.713 96.156,451.737 96.058,451.786 C95.362,451.836 95.322,451.893 95.83,451.944 C95.696,452.084 95.612,452.266 95.612,452.473 C95.612,452.889 95.952,453.229 96.375,453.229 L249.978,453.229 C250.4,453.229 250.744,452.889 250.744,452.473 C250.744,452.053 250.4,451.713 249.978,451.713" id="Fill-2" fill="#8A6237" sketch:type="MSShapeGroup"></path>
                <path d="M301.189,123.978 C294.225,203.919 239.578,266.315 172.3,266.315 C105.022,266.315 51.23,204.026 44.273,124.072 C43.285,130.547 42.773,137.179 42.773,143.926 C42.773,216.217 100.005,275.028 172.299,275.028 C244.59,275.028 303.404,216.217 303.404,143.926 C303.404,137.187 302.176,130.446 301.189,123.978" id="Fill-3" fill="#8A6237" sketch:type="MSShapeGroup"></path>
                <path d="M183.416,276.185 C187.184,276.185 190.25,273.12 190.25,269.353 L190.25,252.165 C190.25,248.398 187.184,245.333 183.416,245.333 C179.648,245.333 176.582,248.398 176.582,252.165 L176.582,269.353 C176.582,273.12 179.648,276.185 183.416,276.185" id="Fill-4" fill="#D3EEFB" sketch:type="MSShapeGroup"></path>
                <path d="M194.355,271.724 C198.125,271.724 201.191,268.656 201.191,264.889 L201.191,252.167 C201.191,248.396 198.125,245.333 194.355,245.333 C190.584,245.333 187.521,248.396 187.521,252.167 L187.521,264.889 C187.521,268.656 190.584,271.724 194.355,271.724" id="Fill-5" fill="#D3EEFB" sketch:type="MSShapeGroup"></path>
                <path d="M207.912,259.832 L203.049,261.231 C203.049,261.231 201.184,261.498 201.248,263.293 C201.31,265.094 199.184,267.159 199.184,267.159 L193.385,269.227 L191.187,270.955 C191.187,270.955 190.254,270.757 189.853,271.758 C189.455,272.762 183.592,273.622 183.592,273.622 L178.592,271.428 L176.593,266.355 C176.593,266.355 176.593,265.225 175.061,265.225 C173.53,265.225 173.13,263.628 173.13,263.628 L201.715,258.765 L207.31,257.764 L207.912,259.832" id="Fill-6" fill="#D3EEFB" sketch:type="MSShapeGroup"></path>
                <path d="M161.158,276.577 C157.391,276.577 154.328,273.515 154.328,269.743 L154.328,252.556 C154.328,248.79 157.391,245.723 161.158,245.723 C164.925,245.723 167.993,248.79 167.993,252.556 L167.993,269.743 C167.993,273.515 164.925,276.577 161.158,276.577" id="Fill-7" fill="#D3EEFB" sketch:type="MSShapeGroup"></path>
                <path d="M150.218,272.112 C146.451,272.112 143.386,269.045 143.386,265.28 L143.386,252.558 C143.386,248.79 146.451,245.723 150.218,245.723 C153.989,245.723 157.053,248.79 157.053,252.558 L157.053,265.28 C157.053,269.045 153.989,272.112 150.218,272.112" id="Fill-8" fill="#D3EEFB" sketch:type="MSShapeGroup"></path>
                <path d="M136.663,260.219 L141.527,261.62 C141.527,261.62 143.393,261.889 143.327,263.685 C143.26,265.482 145.393,267.548 145.393,267.548 L151.191,269.617 L153.388,271.346 C153.388,271.346 154.32,271.149 154.719,272.146 C155.122,273.146 160.984,274.015 160.984,274.015 L165.982,271.813 L167.982,266.748 C167.982,266.748 167.982,265.619 169.512,265.619 C171.043,265.619 171.445,264.019 171.445,264.019 L142.858,259.154 L137.265,258.154 L136.663,260.219" id="Fill-9" fill="#D3EEFB" sketch:type="MSShapeGroup"></path>
                <path d="M249.31,136.55 C256.252,149.188 260.15,163.603 260.15,178.708 C260.15,205.142 248.385,228.871 229.832,244.969 C253.916,231.047 272.228,208.602 272.228,183.274 C272.228,165.675 261.994,149.482 249.31,136.55" id="Fill-10" fill="#3A2767" sketch:type="MSShapeGroup"></path>
                <path d="M194.578,97.929 C187.57,95.795 180.714,108.325 172.281,108.325 C163.917,108.325 155.547,95.613 147.761,98.009 C113.532,108.529 88.653,141.03 88.648,178.707 C88.648,214.857 111.549,245.646 143.633,257.379 L143.633,253.182 C143.633,249.51 146.614,246.531 150.281,246.531 C152.158,246.531 153.905,247.314 155.192,248.747 L155.742,249.36 L156.294,248.747 C157.582,247.314 159.329,246.531 161.207,246.531 C164.876,246.531 167.858,249.51 167.858,253.182 L167.858,262.326 C169.36,262.409 170.875,262.455 172.395,262.455 C173.922,262.455 175.446,262.409 176.95,262.324 L176.95,253.182 C176.95,249.51 179.933,246.531 183.596,246.531 C185.475,246.531 187.219,247.314 188.51,248.747 L189.059,249.36 L189.611,248.747 C190.898,247.314 192.648,246.531 194.525,246.531 C198.189,246.531 201.172,249.51 201.172,253.182 L201.172,257.379 C233.248,245.64 256.146,214.85 256.146,178.707 C256.146,140.129 229.986,108.71 194.578,97.929 M138.54,189.397 C121.323,189.397 107.361,175.436 107.361,158.216 C107.361,140.992 121.323,127.035 138.54,127.035 C155.765,127.035 169.724,140.992 169.724,158.216 C169.724,175.436 155.765,189.397 138.54,189.397 M172.486,212.398 C167.564,212.398 163.575,197.716 163.575,192.799 C163.575,187.874 167.564,183.89 172.486,183.89 C177.405,183.89 181.393,187.874 181.393,192.799 C181.393,197.716 177.405,212.398 172.486,212.398 M207.141,189.397 C189.922,189.397 175.961,175.436 175.961,158.216 C175.961,140.992 189.922,127.035 207.141,127.035 C224.365,127.035 238.322,140.992 238.322,158.216 C238.322,175.436 224.365,189.397 207.141,189.397" id="Fill-11" fill="#A91F68" sketch:type="MSShapeGroup"></path>
                <path d="M84.638,178.708 C84.638,163.631 88.437,149.359 95.206,136.826 C82.688,149.707 72.561,165.805 72.561,183.274 C72.561,208.603 90.88,231.046 114.959,244.969 C96.406,228.872 84.638,205.142 84.638,178.708" id="Fill-12" fill="#3A2767" sketch:type="MSShapeGroup"></path>
                <path d="M131.412,165.34 C131.412,156.487 138.597,149.306 147.448,149.306 C156.307,149.306 163.485,156.487 163.485,165.34 C163.485,174.199 156.307,181.379 147.448,181.379 C138.597,181.379 131.412,174.199 131.412,165.34" id="Fill-13" fill="#3A2767" sketch:type="MSShapeGroup"></path>
                <path d="M199.457,165.34 C199.457,156.487 206.643,149.306 215.494,149.306 C224.353,149.306 231.531,156.487 231.531,165.34 C231.531,174.199 224.353,181.379 215.494,181.379 C206.643,181.379 199.457,174.199 199.457,165.34" id="Fill-14" fill="#3A2767" sketch:type="MSShapeGroup"></path>
                <path d="M180.477,270.357 C180.477,272.079 181.871,273.476 183.598,273.476 C185.322,273.476 186.719,272.079 186.719,270.357 L186.719,253.182 C186.719,251.459 185.322,250.058 183.598,250.058 C181.871,250.058 180.477,251.459 180.477,253.182 L180.477,270.357" id="Fill-15" fill="#3A2767" sketch:type="MSShapeGroup"></path>
                <path d="M191.406,265.896 C191.406,267.622 192.803,269.016 194.525,269.016 C196.254,269.016 197.648,267.622 197.648,265.896 L197.648,253.182 C197.648,251.456 196.254,250.058 194.525,250.058 C192.803,250.058 191.406,251.456 191.406,253.182 L191.406,265.896" id="Fill-16" fill="#3A2767" sketch:type="MSShapeGroup"></path>
                <path d="M164.33,270.357 C164.33,272.079 162.932,273.476 161.207,273.476 C159.485,273.476 158.087,272.079 158.087,270.357 L158.087,253.182 C158.087,251.459 159.485,250.058 161.207,250.058 C162.932,250.058 164.33,251.459 164.33,253.182 L164.33,270.357" id="Fill-17" fill="#3A2767" sketch:type="MSShapeGroup"></path>
                <path d="M153.403,265.896 C153.403,267.622 152.006,269.016 150.281,269.016 C148.558,269.016 147.154,267.622 147.154,265.896 L147.154,253.182 C147.154,251.456 148.558,250.058 150.281,250.058 C152.006,250.058 153.403,251.456 153.403,253.182 L153.403,265.896" id="Fill-18" fill="#3A2767" sketch:type="MSShapeGroup"></path>
                <path d="M325.096,145.655 C325.096,147.427 323.66,148.865 321.885,148.865 C320.111,148.865 318.674,147.427 318.674,145.655 C318.674,143.88 320.111,142.444 321.885,142.444 C323.66,142.444 325.096,143.88 325.096,145.655" id="Fill-19" fill="#FCFDFF" sketch:type="MSShapeGroup"></path>
                <path d="M329.664,145.655 C329.664,147.427 328.228,148.865 326.457,148.865 C324.682,148.865 323.246,147.427 323.246,145.655 C323.246,143.88 324.682,142.444 326.457,142.444 C328.228,142.444 329.664,143.88 329.664,145.655" id="Fill-20" fill="#FCFDFF" sketch:type="MSShapeGroup"></path>
                <path d="M325.096,154.304 C325.096,156.078 323.66,157.515 321.885,157.515 C320.111,157.515 318.674,156.078 318.674,154.304 C318.674,152.531 320.111,151.095 321.885,151.095 C323.66,151.095 325.096,152.531 325.096,154.304" id="Fill-21" fill="#FCFDFF" sketch:type="MSShapeGroup"></path>
                <path d="M329.664,154.304 C329.664,156.078 328.228,157.515 326.457,157.515 C324.682,157.515 323.246,156.078 323.246,154.304 C323.246,152.531 324.682,151.095 326.457,151.095 C328.228,151.095 329.664,152.531 329.664,154.304" id="Fill-22" fill="#FCFDFF" sketch:type="MSShapeGroup"></path>
                <path d="M322.49,150.009 C322.49,151.782 321.057,153.219 319.283,153.219 C317.508,153.219 316.072,151.782 316.072,150.009 C316.072,148.235 317.508,146.798 319.283,146.798 C321.057,146.798 322.49,148.235 322.49,150.009" id="Fill-23" fill="#FCFDFF" sketch:type="MSShapeGroup"></path>
                <path d="M332.268,150.009 C332.268,151.782 330.828,153.219 329.057,153.219 C327.285,153.219 325.844,151.782 325.844,150.009 C325.844,148.235 327.285,146.798 329.057,146.798 C330.828,146.798 332.268,148.235 332.268,150.009" id="Fill-24" fill="#FCFDFF" sketch:type="MSShapeGroup"></path>
                <path d="M322.475,149.979 C322.475,149.044 323.234,148.288 324.164,148.288 C325.098,148.288 325.859,149.044 325.859,149.979 C325.859,150.914 325.098,151.671 324.164,151.671 C323.234,151.671 322.475,150.914 322.475,149.979" id="Fill-25" fill="#F9E700" sketch:type="MSShapeGroup"></path>
                <path d="M339.324,162.331 C339.324,164.104 337.889,165.542 336.117,165.542 C334.34,165.542 332.9,164.104 332.9,162.331 C332.9,160.555 334.34,159.121 336.117,159.121 C337.889,159.121 339.324,160.555 339.324,162.331" id="Fill-26" fill="#FCFDFF" sketch:type="MSShapeGroup"></path>
                <path d="M343.891,162.331 C343.891,164.104 342.457,165.542 340.684,165.542 C338.908,165.542 337.473,164.104 337.473,162.331 C337.473,160.555 338.908,159.121 340.684,159.121 C342.457,159.121 343.891,160.555 343.891,162.331" id="Fill-27" fill="#FCFDFF" sketch:type="MSShapeGroup"></path>
                <path d="M339.324,170.981 C339.324,172.755 337.889,174.191 336.117,174.191 C334.34,174.191 332.9,172.755 332.9,170.981 C332.9,169.208 334.34,167.771 336.117,167.771 C337.889,167.771 339.324,169.208 339.324,170.981" id="Fill-28" fill="#FCFDFF" sketch:type="MSShapeGroup"></path>
                <path d="M343.891,170.981 C343.891,172.755 342.457,174.191 340.684,174.191 C338.908,174.191 337.473,172.755 337.473,170.981 C337.473,169.208 338.908,167.771 340.684,167.771 C342.457,167.771 343.891,169.208 343.891,170.981" id="Fill-29" fill="#FCFDFF" sketch:type="MSShapeGroup"></path>
                <path d="M336.721,166.685 C336.721,168.46 335.287,169.897 333.51,169.897 C331.736,169.897 330.303,168.46 330.303,166.685 C330.303,164.913 331.736,163.476 333.51,163.476 C335.287,163.476 336.721,164.913 336.721,166.685" id="Fill-30" fill="#FCFDFF" sketch:type="MSShapeGroup"></path>
                <path d="M346.496,166.685 C346.496,168.46 345.059,169.897 343.287,169.897 C341.514,169.897 340.076,168.46 340.076,166.685 C340.076,164.913 341.514,163.476 343.287,163.476 C345.059,163.476 346.496,164.913 346.496,166.685" id="Fill-31" fill="#FCFDFF" sketch:type="MSShapeGroup"></path>
                <path d="M336.703,166.656 C336.703,165.721 337.459,164.965 338.394,164.965 C339.328,164.965 340.084,165.721 340.084,166.656 C340.084,167.591 339.328,168.347 338.394,168.347 C337.459,168.347 336.703,167.591 336.703,166.656" id="Fill-32" fill="#F9E700" sketch:type="MSShapeGroup"></path>
                <path d="M318.809,166.999 C318.809,168.772 317.373,170.21 315.6,170.21 C313.822,170.21 312.389,168.772 312.389,166.999 C312.389,165.227 313.822,163.787 315.6,163.787 C317.373,163.787 318.809,165.227 318.809,166.999" id="Fill-33" fill="#FCFDFF" sketch:type="MSShapeGroup"></path>
                <path d="M323.377,166.999 C323.377,168.772 321.939,170.21 320.168,170.21 C318.394,170.21 316.959,168.772 316.959,166.999 C316.959,165.227 318.394,163.787 320.168,163.787 C321.939,163.787 323.377,165.227 323.377,166.999" id="Fill-34" fill="#FCFDFF" sketch:type="MSShapeGroup"></path>
                <path d="M318.809,175.65 C318.809,177.424 317.373,178.861 315.6,178.861 C313.822,178.861 312.389,177.424 312.389,175.65 C312.389,173.877 313.822,172.438 315.6,172.438 C317.373,172.438 318.809,173.877 318.809,175.65" id="Fill-35" fill="#FCFDFF" sketch:type="MSShapeGroup"></path>
                <path d="M323.377,175.65 C323.377,177.424 321.939,178.861 320.168,178.861 C318.394,178.861 316.959,177.424 316.959,175.65 C316.959,173.877 318.394,172.438 320.168,172.438 C321.939,172.438 323.377,173.877 323.377,175.65" id="Fill-36" fill="#FCFDFF" sketch:type="MSShapeGroup"></path>
                <path d="M316.205,171.354 C316.205,173.128 314.768,174.565 312.99,174.565 C311.219,174.565 309.785,173.128 309.785,171.354 C309.785,169.581 311.219,168.143 312.99,168.143 C314.768,168.143 316.205,169.581 316.205,171.354" id="Fill-37" fill="#FCFDFF" sketch:type="MSShapeGroup"></path>
                <path d="M325.978,171.354 C325.978,173.128 324.543,174.565 322.769,174.565 C320.996,174.565 319.559,173.128 319.559,171.354 C319.559,169.581 320.996,168.143 322.769,168.143 C324.543,168.143 325.978,169.581 325.978,171.354" id="Fill-38" fill="#FCFDFF" sketch:type="MSShapeGroup"></path>
                <path d="M316.184,171.325 C316.184,170.39 316.945,169.635 317.879,169.635 C318.809,169.635 319.572,170.39 319.572,171.325 C319.572,172.261 318.809,173.016 317.879,173.016 C316.945,173.016 316.184,172.261 316.184,171.325" id="Fill-39" fill="#F9E700" sketch:type="MSShapeGroup"></path>
                <path d="M42.436,202.828 C42.436,204.602 40.999,206.039 39.226,206.039 C37.45,206.039 36.013,204.602 36.013,202.828 C36.013,201.054 37.45,199.618 39.226,199.618 C40.999,199.618 42.436,201.054 42.436,202.828" id="Fill-40" fill="#FCFDFF" sketch:type="MSShapeGroup"></path>
                <path d="M47.006,202.828 C47.006,204.602 45.568,206.039 43.793,206.039 C42.022,206.039 40.584,204.602 40.584,202.828 C40.584,201.054 42.022,199.618 43.793,199.618 C45.568,199.618 47.006,201.054 47.006,202.828" id="Fill-41" fill="#FCFDFF" sketch:type="MSShapeGroup"></path>
                <path d="M42.436,211.477 C42.436,213.252 40.999,214.689 39.226,214.689 C37.45,214.689 36.013,213.252 36.013,211.477 C36.013,209.705 37.45,208.266 39.226,208.266 C40.999,208.266 42.436,209.705 42.436,211.477" id="Fill-42" fill="#FCFDFF" sketch:type="MSShapeGroup"></path>
                <path d="M47.006,211.477 C47.006,213.252 45.568,214.689 43.793,214.689 C42.022,214.689 40.584,213.252 40.584,211.477 C40.584,209.705 42.022,208.266 43.793,208.266 C45.568,208.266 47.006,209.705 47.006,211.477" id="Fill-43" fill="#FCFDFF" sketch:type="MSShapeGroup"></path>
                <path d="M39.833,207.184 C39.833,208.955 38.393,210.394 36.621,210.394 C34.848,210.394 33.411,208.955 33.411,207.184 C33.411,205.408 34.848,203.971 36.621,203.971 C38.393,203.971 39.833,205.408 39.833,207.184" id="Fill-44" fill="#FCFDFF" sketch:type="MSShapeGroup"></path>
                <path d="M49.607,207.184 C49.607,208.955 48.17,210.394 46.397,210.394 C44.623,210.394 43.185,208.955 43.185,207.184 C43.185,205.408 44.623,203.971 46.397,203.971 C48.17,203.971 49.607,205.408 49.607,207.184" id="Fill-45" fill="#FCFDFF" sketch:type="MSShapeGroup"></path>
                <path d="M39.813,207.154 C39.813,206.219 40.572,205.463 41.503,205.463 C42.44,205.463 43.197,206.219 43.197,207.154 C43.197,208.088 42.44,208.843 41.503,208.843 C40.572,208.843 39.813,208.088 39.813,207.154" id="Fill-46" fill="#F9E700" sketch:type="MSShapeGroup"></path>
                <path d="M24.622,116 C24.622,117.774 23.184,119.214 21.411,119.214 C19.635,119.214 18.2,117.774 18.2,116 C18.2,114.229 19.635,112.792 21.411,112.792 C23.184,112.792 24.622,114.229 24.622,116" id="Fill-47" fill="#FCFDFF" sketch:type="MSShapeGroup"></path>
                <path d="M29.193,116 C29.193,117.774 27.752,119.214 25.98,119.214 C24.207,119.214 22.77,117.774 22.77,116 C22.77,114.229 24.207,112.792 25.98,112.792 C27.752,112.792 29.193,114.229 29.193,116" id="Fill-48" fill="#FCFDFF" sketch:type="MSShapeGroup"></path>
                <path d="M24.622,124.652 C24.622,126.425 23.184,127.862 21.411,127.862 C19.635,127.862 18.2,126.425 18.2,124.652 C18.2,122.88 19.635,121.441 21.411,121.441 C23.184,121.441 24.622,122.88 24.622,124.652" id="Fill-49" fill="#FCFDFF" sketch:type="MSShapeGroup"></path>
                <path d="M29.193,124.652 C29.193,126.425 27.752,127.862 25.98,127.862 C24.207,127.862 22.77,126.425 22.77,124.652 C22.77,122.88 24.207,121.441 25.98,121.441 C27.752,121.441 29.193,122.88 29.193,124.652" id="Fill-50" fill="#FCFDFF" sketch:type="MSShapeGroup"></path>
                <path d="M22.019,120.357 C22.019,122.132 20.579,123.567 18.806,123.567 C17.033,123.567 15.596,122.132 15.596,120.357 C15.596,118.583 17.033,117.146 18.806,117.146 C20.579,117.146 22.019,118.583 22.019,120.357" id="Fill-51" fill="#FCFDFF" sketch:type="MSShapeGroup"></path>
                <path d="M31.792,120.357 C31.792,122.132 30.355,123.567 28.582,123.567 C26.809,123.567 25.37,122.132 25.37,120.357 C25.37,118.583 26.809,117.146 28.582,117.146 C30.355,117.146 31.792,118.583 31.792,120.357" id="Fill-52" fill="#FCFDFF" sketch:type="MSShapeGroup"></path>
                <path d="M21.998,120.328 C21.998,119.392 22.757,118.637 23.691,118.637 C24.624,118.637 25.382,119.392 25.382,120.328 C25.382,121.262 24.624,122.019 23.691,122.019 C22.757,122.019 21.998,121.262 21.998,120.328" id="Fill-53" fill="#F9E700" sketch:type="MSShapeGroup"></path>
                <path d="M55.407,219.504 C55.407,221.276 53.972,222.716 52.197,222.716 C50.422,222.716 48.986,221.276 48.986,219.504 C48.986,217.73 50.422,216.293 52.197,216.293 C53.972,216.293 55.407,217.73 55.407,219.504" id="Fill-54" fill="#FCFDFF" sketch:type="MSShapeGroup"></path>
                <path d="M59.977,219.504 C59.977,221.276 58.54,222.716 56.767,222.716 C54.993,222.716 53.557,221.276 53.557,219.504 C53.557,217.73 54.993,216.293 56.767,216.293 C58.54,216.293 59.977,217.73 59.977,219.504" id="Fill-55" fill="#FCFDFF" sketch:type="MSShapeGroup"></path>
                <path d="M55.407,228.155 C55.407,229.93 53.972,231.366 52.197,231.366 C50.422,231.366 48.986,229.93 48.986,228.155 C48.986,226.383 50.422,224.943 52.197,224.943 C53.972,224.943 55.407,226.383 55.407,228.155" id="Fill-56" fill="#FCFDFF" sketch:type="MSShapeGroup"></path>
                <path d="M59.977,228.155 C59.977,229.93 58.54,231.366 56.767,231.366 C54.993,231.366 53.557,229.93 53.557,228.155 C53.557,226.383 54.993,224.943 56.767,224.943 C58.54,224.943 59.977,226.383 59.977,228.155" id="Fill-57" fill="#FCFDFF" sketch:type="MSShapeGroup"></path>
                <path d="M52.805,223.86 C52.805,225.634 51.365,227.071 49.592,227.071 C47.818,227.071 46.382,225.634 46.382,223.86 C46.382,222.085 47.818,220.646 49.592,220.646 C51.365,220.646 52.805,222.085 52.805,223.86" id="Fill-58" fill="#FCFDFF" sketch:type="MSShapeGroup"></path>
                <path d="M62.58,223.86 C62.58,225.634 61.142,227.071 59.369,227.071 C57.595,227.071 56.157,225.634 56.157,223.86 C56.157,222.085 57.595,220.646 59.369,220.646 C61.142,220.646 62.58,222.085 62.58,223.86" id="Fill-59" fill="#FCFDFF" sketch:type="MSShapeGroup"></path>
                <path d="M52.784,223.83 C52.784,222.894 53.543,222.14 54.477,222.14 C55.41,222.14 56.17,222.894 56.17,223.83 C56.17,224.765 55.41,225.52 54.477,225.52 C53.543,225.52 52.784,224.765 52.784,223.83" id="Fill-60" fill="#F9E700" sketch:type="MSShapeGroup"></path>
                <path d="M34.893,222.916 C34.893,224.688 33.453,226.128 31.681,226.128 C29.906,226.128 28.47,224.688 28.47,222.916 C28.47,221.142 29.906,219.703 31.681,219.703 C33.453,219.703 34.893,221.142 34.893,222.916" id="Fill-61" fill="#FCFDFF" sketch:type="MSShapeGroup"></path>
                <path d="M39.46,222.916 C39.46,224.688 38.022,226.128 36.249,226.128 C34.476,226.128 33.039,224.688 33.039,222.916 C33.039,221.142 34.476,219.703 36.249,219.703 C38.022,219.703 39.46,221.142 39.46,222.916" id="Fill-62" fill="#FCFDFF" sketch:type="MSShapeGroup"></path>
                <path d="M34.893,231.565 C34.893,233.34 33.453,234.777 31.681,234.777 C29.906,234.777 28.47,233.34 28.47,231.565 C28.47,229.793 29.906,228.354 31.681,228.354 C33.453,228.354 34.893,229.793 34.893,231.565" id="Fill-63" fill="#FCFDFF" sketch:type="MSShapeGroup"></path>
                <path d="M39.46,231.565 C39.46,233.34 38.022,234.777 36.249,234.777 C34.476,234.777 33.039,233.34 33.039,231.565 C33.039,229.793 34.476,228.354 36.249,228.354 C38.022,228.354 39.46,229.793 39.46,231.565" id="Fill-64" fill="#FCFDFF" sketch:type="MSShapeGroup"></path>
                <path d="M32.288,227.271 C32.288,229.045 30.85,230.48 29.075,230.48 C27.303,230.48 25.865,229.045 25.865,227.271 C25.865,225.495 27.303,224.059 29.075,224.059 C30.85,224.059 32.288,225.495 32.288,227.271" id="Fill-65" fill="#FCFDFF" sketch:type="MSShapeGroup"></path>
                <path d="M42.063,227.271 C42.063,229.045 40.625,230.48 38.852,230.48 C37.078,230.48 35.642,229.045 35.642,227.271 C35.642,225.495 37.078,224.059 38.852,224.059 C40.625,224.059 42.063,225.495 42.063,227.271" id="Fill-66" fill="#FCFDFF" sketch:type="MSShapeGroup"></path>
                <path d="M32.27,227.241 C32.27,226.306 33.026,225.551 33.96,225.551 C34.893,225.551 35.651,226.306 35.651,227.241 C35.651,228.175 34.893,228.931 33.96,228.931 C33.026,228.931 32.27,228.175 32.27,227.241" id="Fill-67" fill="#F9E700" sketch:type="MSShapeGroup"></path>
                <path d="M355.322,185.283 C352.049,189.28 346.154,189.862 342.16,186.591 C338.16,183.312 337.576,177.42 340.852,173.423 C344.131,169.427 350.021,168.844 354.018,172.117 C358.016,175.393 358.6,181.286 355.322,185.283" id="Fill-68" fill="#231F1F" sketch:type="MSShapeGroup"></path>
                <path d="M353.684,193.729 C348.912,199.553 340.322,200.402 334.504,195.633 C328.684,190.863 327.832,182.275 332.602,176.453 C337.371,170.632 345.959,169.783 351.783,174.554 C357.603,179.322 358.453,187.911 353.684,193.729" id="Fill-69" fill="#ED252B" sketch:type="MSShapeGroup"></path>
                <path d="M332.184,193.2 C332.184,193.2 335.141,192.421 337.834,190.371 C340.527,188.319 343.285,184.607 343.285,184.607 C343.285,184.607 340.971,188.12 339.236,191.431 C337.5,194.738 338.199,197.837 338.199,197.837 C338.199,197.837 334.348,196.399 332.184,193.2" id="Fill-70" fill="#231F1F" sketch:type="MSShapeGroup"></path>
                <path d="M345.029,178.251 C344.414,179.002 343.301,179.111 342.549,178.494 C341.799,177.879 341.687,176.768 342.307,176.019 C342.922,175.268 344.029,175.157 344.783,175.771 C345.535,176.388 345.644,177.496 345.029,178.251" id="Fill-71" fill="#231F1F" sketch:type="MSShapeGroup"></path>
                <path d="M339.045,181.031 C338.353,181.876 337.107,182.001 336.26,181.308 C335.414,180.615 335.289,179.366 335.982,178.521 C336.676,177.675 337.926,177.549 338.773,178.244 C339.617,178.936 339.742,180.185 339.045,181.031" id="Fill-72" fill="#231F1F" sketch:type="MSShapeGroup"></path>
                <path d="M334.717,183.885 C334.986,183.558 335.473,183.508 335.801,183.777 C336.131,184.046 336.176,184.535 335.908,184.862 C335.641,185.191 335.154,185.239 334.822,184.971 C334.496,184.701 334.447,184.215 334.717,183.885" id="Fill-73" fill="#231F1F" sketch:type="MSShapeGroup"></path>
                <path d="M353.426,184.872 C352.615,185.857 351.16,186.002 350.176,185.195 C349.187,184.384 349.043,182.929 349.852,181.941 C350.66,180.956 352.117,180.811 353.103,181.62 C354.09,182.43 354.232,183.885 353.426,184.872" id="Fill-74" fill="#231F1F" sketch:type="MSShapeGroup"></path>
                <path d="M351.041,191.346 C350.387,192.145 349.205,192.262 348.404,191.604 C347.609,190.949 347.49,189.772 348.146,188.973 C348.801,188.172 349.98,188.057 350.777,188.71 C351.578,189.369 351.695,190.547 351.041,191.346" id="Fill-75" fill="#231F1F" sketch:type="MSShapeGroup"></path>
                <path d="M344.67,193.834 C344.17,194.446 343.268,194.533 342.656,194.03 C342.043,193.533 341.957,192.63 342.455,192.022 C342.957,191.41 343.861,191.319 344.471,191.82 C345.08,192.322 345.174,193.221 344.67,193.834" id="Fill-76" fill="#231F1F" sketch:type="MSShapeGroup"></path>
                <path d="M15.591,94.44 C20.391,93.936 24.69,97.425 25.19,102.225 C25.692,107.024 22.208,111.323 17.407,111.826 C12.604,112.328 8.308,108.841 7.806,104.041 C7.305,99.238 10.789,94.943 15.591,94.44" id="Fill-77" fill="#231F1F" sketch:type="MSShapeGroup"></path>
                <path d="M22.229,89.906 C29.223,89.176 35.485,94.255 36.218,101.247 C36.947,108.242 31.871,114.506 24.878,115.235 C17.883,115.967 11.619,110.885 10.892,103.894 C10.159,96.902 15.237,90.638 22.229,89.906" id="Fill-78" fill="#ED252B" sketch:type="MSShapeGroup"></path>
                <path d="M36.158,104.387 C36.158,104.387 33.684,102.963 30.547,102.553 C27.41,102.145 23.142,102.801 23.142,102.801 C23.142,102.801 26.984,101.99 30.312,100.932 C33.639,99.873 35.21,97.356 35.21,97.356 C35.21,97.356 36.826,100.843 36.158,104.387" id="Fill-79" fill="#231F1F" sketch:type="MSShapeGroup"></path>
                <path d="M17.804,105.875 C18.708,105.783 19.517,106.437 19.611,107.342 C19.706,108.246 19.05,109.053 18.146,109.149 C17.242,109.241 16.434,108.585 16.339,107.683 C16.245,106.779 16.899,105.969 17.804,105.875" id="Fill-80" fill="#231F1F" sketch:type="MSShapeGroup"></path>
                <path d="M23.605,107.956 C24.622,107.853 25.53,108.592 25.639,109.607 C25.744,110.622 25.005,111.534 23.988,111.639 C22.971,111.747 22.063,111.008 21.956,109.993 C21.851,108.974 22.588,108.065 23.605,107.956" id="Fill-81" fill="#231F1F" sketch:type="MSShapeGroup"></path>
                <path d="M28.357,108.909 C27.962,108.95 27.608,108.663 27.565,108.267 C27.526,107.871 27.811,107.517 28.207,107.478 C28.602,107.435 28.956,107.723 28.998,108.118 C29.038,108.513 28.752,108.868 28.357,108.909" id="Fill-82" fill="#231F1F" sketch:type="MSShapeGroup"></path>
                <path d="M16.58,95.962 C17.766,95.838 18.829,96.698 18.951,97.882 C19.075,99.07 18.214,100.132 17.028,100.255 C15.842,100.38 14.782,99.517 14.656,98.333 C14.531,97.146 15.394,96.085 16.58,95.962" id="Fill-83" fill="#231F1F" sketch:type="MSShapeGroup"></path>
                <path d="M22.418,93.229 C23.378,93.129 24.238,93.827 24.337,94.787 C24.437,95.748 23.741,96.606 22.782,96.706 C21.82,96.806 20.96,96.111 20.861,95.15 C20.761,94.191 21.458,93.33 22.418,93.229" id="Fill-84" fill="#231F1F" sketch:type="MSShapeGroup"></path>
                <path d="M28.282,95.761 C29.017,95.686 29.675,96.218 29.752,96.953 C29.828,97.689 29.296,98.345 28.56,98.419 C27.825,98.498 27.169,97.964 27.092,97.231 C27.016,96.495 27.548,95.84 28.282,95.761" id="Fill-85" fill="#231F1F" sketch:type="MSShapeGroup"></path>
                <path d="M75.108,291.423 C78.457,295.748 77.271,302.269 72.461,305.987 C67.657,309.705 61.043,309.212 57.695,304.884 C54.352,300.557 55.539,294.035 60.344,290.315 C65.153,286.599 71.763,287.097 75.108,291.423" id="Fill-86" fill="#A91F68" sketch:type="MSShapeGroup"></path>
                <path d="M75.56,290.446 C80.623,292.567 86.662,289.85 89.047,284.374 C91.432,278.893 89.264,272.73 84.2,270.606 C79.131,268.483 73.097,271.199 70.711,276.685 C68.327,282.16 70.496,288.324 75.56,290.446" id="Fill-87" fill="#A91F68" sketch:type="MSShapeGroup"></path>
                <path d="M60.04,276.821 C65.079,283.333 63.564,292.941 56.664,298.282 C49.762,303.623 40.079,302.665 35.04,296.149 C30.003,289.636 31.519,280.025 38.417,274.689 C45.321,269.353 55.002,270.307 60.04,276.821" id="Fill-88" fill="#A91F68" sketch:type="MSShapeGroup"></path>
                <path d="M76.462,255.587 C81.499,262.101 79.986,271.71 73.084,277.049 C66.178,282.387 56.5,281.433 51.462,274.917 C46.424,268.4 47.935,258.791 54.84,253.456 C61.74,248.115 71.424,249.07 76.462,255.587" id="Fill-89" fill="#A91F68" sketch:type="MSShapeGroup"></path>
                <path d="M45.269,266.494 C45.217,266.398 45.165,266.3 45.12,266.206 C42.954,261.987 41.514,259.697 40.291,255.098 C40.172,254.651 40.064,254.207 39.999,253.753 C39.796,252.37 37.61,252.469 37.816,253.863 C38.417,257.924 39.638,259.729 41.343,263.416 C41.751,264.291 42.172,265.163 42.599,266.035 C39.406,265.504 36.219,265.061 33.088,264.643 C30.106,264.242 27.118,263.906 24.122,263.604 C22.737,263.467 22.269,265.605 23.674,265.747 C30.441,266.428 37.201,267.308 43.886,268.564" id="Fill-90" fill="#3A2767" sketch:type="MSShapeGroup"></path>
                <path d="M73.948,289.427 C71.727,292.298 68.508,293.597 65.343,292.894 C59.912,291.693 55.858,286.541 53.177,283.131 C50.302,279.48 47.58,275.259 44.855,270.236 L42.589,266.064 L47.239,267.016 C49.241,267.425 50.994,267.813 52.596,268.202 C57.701,269.437 63.636,271.101 68.959,274.085 C75.706,277.869 76.516,282.035 75.999,284.855 C75.708,286.489 74.998,288.067 73.948,289.427" id="Fill-91" fill="#3A2767" sketch:type="MSShapeGroup"></path>
                <path d="M47.917,284.725 C49.848,286.214 50.202,288.993 48.71,290.922 C47.218,292.854 44.44,293.21 42.511,291.716 C40.58,290.222 40.226,287.446 41.718,285.515 C43.212,283.586 45.987,283.23 47.917,284.725" id="Fill-92" fill="#FFC514" sketch:type="MSShapeGroup"></path>
                <path d="M67.905,259.091 C69.836,260.585 70.192,263.358 68.698,265.288 C67.204,267.222 64.427,267.575 62.499,266.082 C60.567,264.587 60.211,261.811 61.705,259.881 C63.199,257.951 65.976,257.595 67.905,259.091" id="Fill-93" fill="#FFC514" sketch:type="MSShapeGroup"></path>
                <path d="M68.03,296.694 C69.163,297.571 69.373,299.199 68.494,300.332 C67.619,301.468 65.992,301.676 64.854,300.797 C63.719,299.923 63.514,298.289 64.387,297.155 C65.268,296.024 66.896,295.812 68.03,296.694" id="Fill-94" fill="#FFC514" sketch:type="MSShapeGroup"></path>
                <path d="M82.782,278.465 C83.916,279.343 84.125,280.97 83.248,282.103 C82.372,283.238 80.741,283.447 79.607,282.567 C78.471,281.694 78.262,280.064 79.143,278.932 C80.019,277.794 81.647,277.585 82.782,278.465" id="Fill-95" fill="#FFC514" sketch:type="MSShapeGroup"></path>
                <path d="M268.125,422.548 L258.523,422.668 L248.93,422.548 C248.93,422.548 247.844,425.583 247.533,437.865 C247.289,447.602 255.914,447.525 258.523,447.597 C261.043,447.602 269.752,447.602 269.52,437.865 C269.232,425.583 268.125,422.548 268.125,422.548" id="Fill-96" fill="#D2C4B3" sketch:type="MSShapeGroup"></path>
                <path d="M287.396,419.879 C287.396,427.511 275.174,424.909 259.451,424.909 C243.727,424.909 230.455,428.909 230.455,419.879 C230.455,403.557 243.203,390.323 258.928,390.323 C274.65,390.323 287.396,403.557 287.396,419.879" id="Fill-97" fill="#E6232E" sketch:type="MSShapeGroup"></path>
                <path d="M244.82,413.012 C244.82,415.058 243.162,416.715 241.117,416.715 C239.07,416.715 237.416,415.058 237.416,413.012 C237.416,410.97 239.07,409.314 241.117,409.314 C243.162,409.314 244.82,410.97 244.82,413.012" id="Fill-98" fill="#FFFFFF" sketch:type="MSShapeGroup"></path>
                <path d="M255.227,415.412 C255.227,416.683 254.195,417.715 252.92,417.715 C251.654,417.715 250.627,416.683 250.627,415.412 C250.627,414.144 251.654,413.112 252.92,413.112 C254.195,413.112 255.227,414.144 255.227,415.412" id="Fill-99" fill="#FFFFFF" sketch:type="MSShapeGroup"></path>
                <path d="M270.428,415.613 C270.428,417.545 268.863,419.113 266.932,419.113 C264.998,419.113 263.43,417.545 263.43,415.613 C263.43,413.677 264.998,412.11 266.932,412.11 C268.863,412.11 270.428,413.677 270.428,415.613" id="Fill-100" fill="#FFFFFF" sketch:type="MSShapeGroup"></path>
                <path d="M282.037,416.516 C282.037,417.951 280.873,419.113 279.435,419.113 C278,419.113 276.834,417.951 276.834,416.516 C276.834,415.077 278,413.911 279.435,413.911 C280.873,413.911 282.037,415.077 282.037,416.516" id="Fill-101" fill="#FFFFFF" sketch:type="MSShapeGroup"></path>
                <path d="M279.24,406.111 C279.24,408.434 277.353,410.314 275.033,410.314 C272.713,410.314 270.832,408.434 270.832,406.111 C270.832,403.787 272.713,401.903 275.033,401.903 C277.353,401.903 279.24,403.787 279.24,406.111" id="Fill-102" fill="#FFFFFF" sketch:type="MSShapeGroup"></path>
                <path d="M267.234,397.905 C267.234,399.115 266.246,400.105 265.033,400.105 C263.82,400.105 262.832,399.115 262.832,397.905 C262.832,396.69 263.82,395.702 265.033,395.702 C266.246,395.702 267.234,396.69 267.234,397.905" id="Fill-103" fill="#FFFFFF" sketch:type="MSShapeGroup"></path>
                <path d="M249.824,400.008 C249.824,401.389 248.699,402.508 247.324,402.508 C245.943,402.508 244.82,401.389 244.82,400.008 C244.82,398.624 245.943,397.503 247.324,397.503 C248.004,397.503 248.629,397.785 249.086,398.239 C249.539,398.691 249.824,399.316 249.824,400.008" id="Fill-104" fill="#FFFFFF" sketch:type="MSShapeGroup"></path>
                <path d="M259.227,406.009 C259.227,407.834 257.752,409.309 255.926,409.309 C254.102,409.309 252.623,407.834 252.623,406.009 C252.623,404.186 254.102,402.709 255.926,402.709 C257.752,402.709 259.227,404.186 259.227,406.009" id="Fill-105" fill="#FFFFFF" sketch:type="MSShapeGroup"></path>
                <path d="M291.109,445.253 L287.4,445.296 L283.685,445.253 C283.685,445.253 283.268,446.425 283.148,451.173 C283.051,454.939 286.389,454.911 287.4,454.939 C288.371,454.939 291.74,454.939 291.648,451.173 C291.537,446.425 291.109,445.253 291.109,445.253" id="Fill-106" fill="#D2C4B3" sketch:type="MSShapeGroup"></path>
                <path d="M298.562,443.48 C298.562,446.431 293.838,445.423 287.758,445.423 C281.676,445.423 276.541,446.971 276.541,443.48 C276.541,437.167 281.473,432.044 287.553,432.044 C293.635,432.044 298.562,437.167 298.562,443.48" id="Fill-107" fill="#E6232E" sketch:type="MSShapeGroup"></path>
                <path d="M282.096,440.822 C282.096,441.611 281.457,442.254 280.666,442.254 C279.873,442.254 279.234,441.611 279.234,440.822 C279.234,440.033 279.873,439.39 280.666,439.39 C281.457,439.39 282.096,440.033 282.096,440.822" id="Fill-108" fill="#FFFFFF" sketch:type="MSShapeGroup"></path>
                <path d="M286.121,441.751 C286.121,442.24 285.723,442.641 285.23,442.641 C284.742,442.641 284.344,442.24 284.344,441.751 C284.344,441.256 284.742,440.859 285.23,440.859 C285.723,440.859 286.121,441.256 286.121,441.751" id="Fill-109" fill="#FFFFFF" sketch:type="MSShapeGroup"></path>
                <path d="M291.998,441.828 C291.998,442.574 291.396,443.184 290.648,443.184 C289.9,443.184 289.293,442.574 289.293,441.828 C289.293,441.079 289.9,440.473 290.648,440.473 C291.396,440.473 291.998,441.079 291.998,441.828" id="Fill-110" fill="#FFFFFF" sketch:type="MSShapeGroup"></path>
                <path d="M296.488,442.176 C296.488,442.733 296.041,443.182 295.486,443.182 C294.928,443.182 294.478,442.733 294.478,442.176 C294.478,441.617 294.928,441.172 295.486,441.172 C296.041,441.172 296.488,441.617 296.488,442.176" id="Fill-111" fill="#FFFFFF" sketch:type="MSShapeGroup"></path>
                <path d="M295.408,438.151 C295.408,439.049 294.68,439.778 293.781,439.778 C292.881,439.778 292.158,439.049 292.158,438.151 C292.158,437.254 292.881,436.523 293.781,436.523 C294.68,436.523 295.408,437.254 295.408,438.151" id="Fill-112" fill="#FFFFFF" sketch:type="MSShapeGroup"></path>
                <path d="M290.766,434.977 C290.766,435.446 290.383,435.827 289.916,435.827 C289.443,435.827 289.064,435.446 289.064,434.977 C289.064,434.51 289.443,434.127 289.916,434.127 C290.383,434.127 290.766,434.51 290.766,434.977" id="Fill-113" fill="#FFFFFF" sketch:type="MSShapeGroup"></path>
                <path d="M284.031,435.794 C284.031,436.328 283.6,436.761 283.066,436.761 C282.531,436.761 282.096,436.328 282.096,435.794 C282.096,435.262 282.531,434.823 283.066,434.823 C283.328,434.823 283.57,434.934 283.746,435.109 C283.922,435.285 284.031,435.523 284.031,435.794" id="Fill-114" fill="#FFFFFF" sketch:type="MSShapeGroup"></path>
                <path d="M287.67,438.114 C287.67,438.82 287.1,439.39 286.393,439.39 C285.685,439.39 285.113,438.82 285.113,438.114 C285.113,437.405 285.685,436.838 286.393,436.838 C287.1,436.838 287.67,437.405 287.67,438.114" id="Fill-115" fill="#FFFFFF" sketch:type="MSShapeGroup"></path>
                <path d="M87.875,445.427 L82.45,445.493 L77.022,445.427 C77.022,445.427 76.411,447.145 76.232,454.086 C76.093,459.594 80.973,459.547 82.45,459.588 C83.871,459.594 88.793,459.594 88.664,454.086 C88.501,447.145 87.875,445.427 87.875,445.427" id="Fill-116" fill="#D2C4B3" sketch:type="MSShapeGroup"></path>
                <path d="M98.769,442.834 C98.769,447.146 91.861,445.679 82.971,445.679 C74.083,445.679 66.579,447.939 66.579,442.834 C66.579,433.605 73.784,426.128 82.675,426.128 C91.564,426.128 98.769,433.605 98.769,442.834" id="Fill-117" fill="#E6232E" sketch:type="MSShapeGroup"></path>
                <path d="M74.698,438.952 C74.698,440.106 73.76,441.047 72.606,441.047 C71.449,441.047 70.514,440.106 70.514,438.952 C70.514,437.798 71.449,436.861 72.606,436.861 C73.76,436.861 74.698,437.798 74.698,438.952" id="Fill-118" fill="#FFFFFF" sketch:type="MSShapeGroup"></path>
                <path d="M80.584,440.31 C80.584,441.027 79.998,441.613 79.281,441.613 C78.562,441.613 77.983,441.027 77.983,440.31 C77.983,439.589 78.562,439.008 79.281,439.008 C79.998,439.008 80.584,439.589 80.584,440.31" id="Fill-119" fill="#FFFFFF" sketch:type="MSShapeGroup"></path>
                <path d="M89.176,440.426 C89.176,441.515 88.292,442.404 87.198,442.404 C86.106,442.404 85.22,441.515 85.22,440.426 C85.22,439.327 86.106,438.443 87.198,438.443 C88.292,438.443 89.176,439.327 89.176,440.426" id="Fill-120" fill="#FFFFFF" sketch:type="MSShapeGroup"></path>
                <path d="M95.74,440.933 C95.74,441.745 95.081,442.404 94.268,442.404 C93.459,442.404 92.798,441.745 92.798,440.933 C92.798,440.118 93.459,439.461 94.268,439.461 C95.081,439.461 95.74,440.118 95.74,440.933" id="Fill-121" fill="#FFFFFF" sketch:type="MSShapeGroup"></path>
                <path d="M94.16,435.052 C94.16,436.364 93.092,437.43 91.78,437.43 C90.467,437.43 89.407,436.364 89.407,435.052 C89.407,433.738 90.467,432.673 91.78,432.673 C93.092,432.673 94.16,433.738 94.16,435.052" id="Fill-122" fill="#FFFFFF" sketch:type="MSShapeGroup"></path>
                <path d="M87.37,430.416 C87.37,431.095 86.814,431.655 86.126,431.655 C85.438,431.655 84.882,431.095 84.882,430.416 C84.882,429.726 85.438,429.168 86.126,429.168 C86.814,429.168 87.37,429.726 87.37,430.416" id="Fill-123" fill="#FFFFFF" sketch:type="MSShapeGroup"></path>
                <path d="M77.529,431.6 C77.529,432.379 76.895,433.015 76.115,433.015 C75.334,433.015 74.698,432.379 74.698,431.6 C74.698,430.819 75.334,430.184 76.115,430.184 C76.5,430.184 76.853,430.342 77.113,430.6 C77.367,430.856 77.529,431.207 77.529,431.6" id="Fill-124" fill="#FFFFFF" sketch:type="MSShapeGroup"></path>
                <path d="M82.846,434.993 C82.846,436.023 82.011,436.857 80.977,436.857 C79.947,436.857 79.111,436.023 79.111,434.993 C79.111,433.963 79.947,433.127 80.977,433.127 C82.011,433.127 82.846,433.963 82.846,434.993" id="Fill-125" fill="#FFFFFF" sketch:type="MSShapeGroup"></path>
                <path d="M357.015,61.47 L367.714,52.437 L352.372,53.687 L357.015,61.47" id="Fill-126" fill="#E6242F" sketch:type="MSShapeGroup"></path>
                <path d="M308.675,119.631 L310.702,118.056 L310.702,101.87 M319.692,121.203 L310.702,118.057 L320.144,116.255 M323.964,118.164 L325.987,116.591 L325.987,100.403 M334.981,119.74 L325.989,116.592 L335.429,114.792" id="Stroke-127" stroke="#846334" stroke-width="1.394" stroke-linecap="round" stroke-linejoin="round" sketch:type="MSShapeGroup"></path>
                <path d="M337.231,41.07 C321.753,36.826 305.056,45.727 300.366,60.958 C300.278,61.255 299.335,62.263 298.229,63.721 C280.931,76.75 256.423,66.149 256.423,66.149 C256.423,66.149 260.044,79.917 276.239,89.718 C292.431,99.523 300.802,101.014 315.372,103.146 C326.235,104.73 339.772,98.599 343.788,95.521 C350.503,91.787 355.774,85.472 357.968,77.479 C362.296,61.699 353.009,45.399 337.231,41.07 M331.626,66.804 C327.587,65.697 325.206,61.525 326.31,57.489 C327.421,53.441 331.602,51.066 335.636,52.172 C339.679,53.276 342.054,57.456 340.944,61.5 C339.839,65.542 335.665,67.916 331.626,66.804" id="Fill-128" fill="#FFC516" sketch:type="MSShapeGroup"></path>
                <path d="M337.177,61.884 C337.177,59.793 335.476,58.093 333.382,58.093 C331.284,58.093 329.589,59.793 329.589,61.884 C329.589,63.985 331.284,65.682 333.382,65.682 C335.476,65.682 337.177,63.985 337.177,61.884" id="Fill-129" fill="#231F1F" sketch:type="MSShapeGroup"></path>
                <path d="M296.116,70.196 C294.515,71.919 291.065,78.72 270.27,80.794 C265.29,81.289 263.372,79.724 260.218,75.42 C258.938,73.675 257.505,71.62 255.858,68.496 C251.294,59.827 274.173,70.405 289.729,66.042 C291.874,65.439 298.216,63.686 299.419,62.37 C299.685,62.081 300.015,62.93 299.837,63.392 C299.302,64.781 297.321,68.9 296.116,70.196" id="Fill-130" fill="#1BBCC3" sketch:type="MSShapeGroup"></path>
                <path d="M60.652,70.979 L58.838,69.568 L58.838,55.073" id="Stroke-131" stroke="#846334" stroke-width="1.249" stroke-linecap="round" stroke-linejoin="round" sketch:type="MSShapeGroup"></path>
                <path d="M17.366,18.898 L7.784,10.809 L21.523,11.928 L17.366,18.898" id="Fill-132" fill="#E6242F" sketch:type="MSShapeGroup"></path>
                <path d="M50.785,72.388 L58.838,69.568 L50.384,67.958 M46.961,69.666 L45.15,68.258 L45.15,53.762 M37.097,71.076 L45.15,68.258 L36.696,66.646" id="Stroke-133" stroke="#846334" stroke-width="1.249" stroke-linecap="round" stroke-linejoin="round" sketch:type="MSShapeGroup"></path>
                <path d="M16.511,33.231 C18.475,40.391 23.196,46.045 29.21,49.39 C32.804,52.144 44.926,57.636 54.656,56.213 C67.701,54.307 75.199,52.973 89.699,44.193 C104.203,35.417 107.444,23.088 107.444,23.088 C107.444,23.088 85.498,32.583 70.004,20.913 C69.016,19.605 68.173,18.705 68.092,18.439 C63.894,4.8 48.94,-3.171 35.083,0.632 C20.951,4.505 12.637,19.104 16.511,33.231 M31.757,18.923 C30.763,15.304 32.892,11.561 36.509,10.573 C40.123,9.58 43.867,11.708 44.861,15.332 C45.852,18.945 43.717,22.683 40.102,23.674 C36.484,24.67 32.747,22.543 31.757,18.923" id="Fill-134" fill="#A91F68" sketch:type="MSShapeGroup"></path>
                <path d="M35.13,19.268 C35.13,17.395 36.653,15.871 38.53,15.871 C40.406,15.871 41.927,17.395 41.927,19.268 C41.927,21.149 40.406,22.67 38.53,22.67 C36.653,22.67 35.13,21.149 35.13,19.268" id="Fill-135" fill="#231F1F" sketch:type="MSShapeGroup"></path>
                <path d="M71.898,26.711 C73.333,28.255 76.423,34.345 95.043,36.201 C99.504,36.645 101.22,35.243 104.042,31.391 C105.192,29.827 106.475,27.987 107.949,25.188 C112.038,17.426 91.546,26.899 77.617,22.99 C75.696,22.449 70.019,20.881 68.941,19.704 C68.706,19.445 68.409,20.203 68.566,20.62 C69.046,21.861 70.822,25.551 71.898,26.711" id="Fill-136" fill="#FFC514" sketch:type="MSShapeGroup"></path>
            </g>
        </g>
    </g>
</svg>